<?xml version="1.0" encoding="UTF-8" standalone="no"?>
<!DOCTYPE svg PUBLIC "-//W3C//DTD SVG 1.1//EN"
 "http://www.w3.org/Graphics/SVG/1.1/DTD/svg11.dtd">
<!-- Generated by graphviz version 12.2.1 (20241206.2353)
 -->
<!-- Pages: 1 -->
<svg width="1616pt" height="548pt"
 viewBox="0.00 0.00 1615.60 548.00" xmlns="http://www.w3.org/2000/svg" xmlns:xlink="http://www.w3.org/1999/xlink">
<g id="graph0" class="graph" transform="scale(1 1) rotate(0) translate(4 544)">
<polygon fill="white" stroke="none" points="-4,4 -4,-544 1611.6,-544 1611.6,4 -4,4"/>
<!-- node21 -->
<g id="node1" class="node">
<title>node21</title>
<ellipse fill="none" stroke="black" cx="122.04" cy="-522" rx="38.04" ry="18"/>
<text text-anchor="middle" x="122.04" y="-516.95" font-family="Times,serif" font-size="14.00">node21</text>
</g>
<!-- node24 -->
<g id="node2" class="node">
<title>node24</title>
<ellipse fill="none" stroke="black" cx="122.04" cy="-450" rx="38.04" ry="18"/>
<text text-anchor="middle" x="122.04" y="-444.95" font-family="Times,serif" font-size="14.00">node24</text>
</g>
<!-- node21&#45;&gt;node24 -->
<g id="edge1" class="edge">
<title>node21&#45;&gt;node24</title>
<path fill="none" stroke="black" d="M116.17,-504.05C115.38,-496.68 115.13,-487.84 115.4,-479.51"/>
<polygon fill="black" stroke="black" points="118.87,-479.99 116.03,-469.79 111.89,-479.54 118.87,-479.99"/>
</g>
<!-- node24&#45;&gt;node21 -->
<g id="edge47" class="edge">
<title>node24&#45;&gt;node21</title>
<path fill="none" stroke="black" d="M127.96,-468.28C128.71,-475.6 128.96,-484.34 128.69,-492.57"/>
<polygon fill="black" stroke="black" points="125.2,-492.33 128.02,-502.54 132.18,-492.8 125.2,-492.33"/>
</g>
<!-- node50 -->
<g id="node13" class="node">
<title>node50</title>
<ellipse fill="none" stroke="black" cx="85.04" cy="-378" rx="38.04" ry="18"/>
<text text-anchor="middle" x="85.04" y="-372.95" font-family="Times,serif" font-size="14.00">node50</text>
</g>
<!-- node24&#45;&gt;node50 -->
<g id="edge46" class="edge">
<title>node24&#45;&gt;node50</title>
<path fill="none" stroke="black" d="M107.89,-433.12C102.86,-425.32 97.49,-415.69 93.08,-406.73"/>
<polygon fill="black" stroke="black" points="96.27,-405.28 88.9,-397.67 89.91,-408.21 96.27,-405.28"/>
</g>
<!-- node9 -->
<g id="node39" class="node">
<title>node9</title>
<ellipse fill="none" stroke="black" cx="399.04" cy="-306" rx="33.44" ry="18"/>
<text text-anchor="middle" x="399.04" y="-300.95" font-family="Times,serif" font-size="14.00">node9</text>
</g>
<!-- node24&#45;&gt;node9 -->
<g id="edge48" class="edge">
<title>node24&#45;&gt;node9</title>
<path fill="none" stroke="black" d="M137.04,-433.36C160.95,-414.33 208.27,-382.01 252.04,-360 292.38,-339.72 304.94,-340.3 347.04,-324 351.06,-322.45 355.27,-320.8 359.52,-319.16"/>
<polygon fill="black" stroke="black" points="360.49,-322.54 368.6,-315.72 358.01,-315.99 360.49,-322.54"/>
</g>
<!-- node26 -->
<g id="node41" class="node">
<title>node26</title>
<ellipse fill="none" stroke="black" cx="308.04" cy="-378" rx="38.04" ry="18"/>
<text text-anchor="middle" x="308.04" y="-372.95" font-family="Times,serif" font-size="14.00">node26</text>
</g>
<!-- node24&#45;&gt;node26 -->
<g id="edge44" class="edge">
<title>node24&#45;&gt;node26</title>
<path fill="none" stroke="black" d="M148.78,-436.97C179.6,-424.64 230.37,-405.5 266.36,-392.63"/>
<polygon fill="black" stroke="black" points="267.34,-395.99 275.59,-389.35 265,-389.4 267.34,-395.99"/>
</g>
<!-- node30 -->
<g id="node42" class="node">
<title>node30</title>
<ellipse fill="none" stroke="black" cx="402.04" cy="-378" rx="38.04" ry="18"/>
<text text-anchor="middle" x="402.04" y="-372.95" font-family="Times,serif" font-size="14.00">node30</text>
</g>
<!-- node24&#45;&gt;node30 -->
<g id="edge45" class="edge">
<title>node24&#45;&gt;node30</title>
<path fill="none" stroke="black" d="M155.94,-441.39C200.2,-432.21 279.37,-415.56 346.04,-396 350.28,-394.76 354.69,-393.34 359.1,-391.86"/>
<polygon fill="black" stroke="black" points="360.23,-395.17 368.56,-388.63 357.97,-388.55 360.23,-395.17"/>
</g>
<!-- node20 -->
<g id="node3" class="node">
<title>node20</title>
<ellipse fill="none" stroke="black" cx="736.04" cy="-90" rx="38.04" ry="18"/>
<text text-anchor="middle" x="736.04" y="-84.95" font-family="Times,serif" font-size="14.00">node20</text>
</g>
<!-- node7 -->
<g id="node4" class="node">
<title>node7</title>
<ellipse fill="none" stroke="black" cx="725.04" cy="-162" rx="33.44" ry="18"/>
<text text-anchor="middle" x="725.04" y="-156.95" font-family="Times,serif" font-size="14.00">node7</text>
</g>
<!-- node20&#45;&gt;node7 -->
<g id="edge2" class="edge">
<title>node20&#45;&gt;node7</title>
<path fill="none" stroke="black" d="M739.26,-107.96C738.87,-115.57 737.67,-124.75 736.01,-133.31"/>
<polygon fill="black" stroke="black" points="732.63,-132.41 733.83,-142.94 739.46,-133.96 732.63,-132.41"/>
</g>
<!-- node7&#45;&gt;node20 -->
<g id="edge92" class="edge">
<title>node7&#45;&gt;node20</title>
<path fill="none" stroke="black" d="M721.85,-143.7C722.26,-136.13 723.45,-127.06 725.09,-118.59"/>
<polygon fill="black" stroke="black" points="728.45,-119.63 727.25,-109.1 721.62,-118.07 728.45,-119.63"/>
</g>
<!-- node44 -->
<g id="node27" class="node">
<title>node44</title>
<ellipse fill="none" stroke="black" cx="692.04" cy="-234" rx="38.04" ry="18"/>
<text text-anchor="middle" x="692.04" y="-228.95" font-family="Times,serif" font-size="14.00">node44</text>
</g>
<!-- node7&#45;&gt;node44 -->
<g id="edge91" class="edge">
<title>node7&#45;&gt;node44</title>
<path fill="none" stroke="black" d="M722.87,-180.12C719.92,-188.15 715.55,-197.89 710.94,-206.82"/>
<polygon fill="black" stroke="black" points="707.96,-204.98 706.23,-215.44 714.1,-208.35 707.96,-204.98"/>
</g>
<!-- node32 -->
<g id="node49" class="node">
<title>node32</title>
<ellipse fill="none" stroke="black" cx="830.04" cy="-90" rx="38.04" ry="18"/>
<text text-anchor="middle" x="830.04" y="-84.95" font-family="Times,serif" font-size="14.00">node32</text>
</g>
<!-- node7&#45;&gt;node32 -->
<g id="edge90" class="edge">
<title>node7&#45;&gt;node32</title>
<path fill="none" stroke="black" d="M741.68,-146.15C756.2,-135.59 777.48,-121.31 795.58,-109.92"/>
<polygon fill="black" stroke="black" points="797.31,-112.98 803.97,-104.74 793.62,-107.02 797.31,-112.98"/>
</g>
<!-- node23 -->
<g id="node50" class="node">
<title>node23</title>
<ellipse fill="none" stroke="black" cx="924.04" cy="-90" rx="38.04" ry="18"/>
<text text-anchor="middle" x="924.04" y="-84.95" font-family="Times,serif" font-size="14.00">node23</text>
</g>
<!-- node7&#45;&gt;node23 -->
<g id="edge89" class="edge">
<title>node7&#45;&gt;node23</title>
<path fill="none" stroke="black" d="M750.46,-149.84C779.2,-139.19 826.83,-122.64 868.04,-108 872.16,-106.54 876.47,-105 880.81,-103.46"/>
<polygon fill="black" stroke="black" points="881.86,-106.8 890.14,-100.2 879.55,-100.19 881.86,-106.8"/>
</g>
<!-- node6 -->
<g id="node5" class="node">
<title>node6</title>
<ellipse fill="none" stroke="black" cx="211.04" cy="-522" rx="33.44" ry="18"/>
<text text-anchor="middle" x="211.04" y="-516.95" font-family="Times,serif" font-size="14.00">node6</text>
</g>
<!-- node28 -->
<g id="node6" class="node">
<title>node28</title>
<ellipse fill="none" stroke="black" cx="305.04" cy="-162" rx="38.04" ry="18"/>
<text text-anchor="middle" x="305.04" y="-156.95" font-family="Times,serif" font-size="14.00">node28</text>
</g>
<!-- node39 -->
<g id="node7" class="node">
<title>node39</title>
<ellipse fill="none" stroke="black" cx="373.04" cy="-18" rx="38.04" ry="18"/>
<text text-anchor="middle" x="373.04" y="-12.95" font-family="Times,serif" font-size="14.00">node39</text>
</g>
<!-- node28&#45;&gt;node39 -->
<g id="edge3" class="edge">
<title>node28&#45;&gt;node39</title>
<path fill="none" stroke="black" d="M276.98,-149.61C261.17,-140.45 243.31,-126.13 235.04,-108 228.41,-93.44 226.14,-85.29 235.04,-72 240.56,-63.77 291.72,-44.41 330.28,-31.51"/>
<polygon fill="black" stroke="black" points="330.93,-34.98 339.33,-28.53 328.74,-28.33 330.93,-34.98"/>
</g>
<!-- node48 -->
<g id="node8" class="node">
<title>node48</title>
<ellipse fill="none" stroke="black" cx="476.04" cy="-234" rx="38.04" ry="18"/>
<text text-anchor="middle" x="476.04" y="-228.95" font-family="Times,serif" font-size="14.00">node48</text>
</g>
<!-- node28&#45;&gt;node48 -->
<g id="edge4" class="edge">
<title>node28&#45;&gt;node48</title>
<path fill="none" stroke="black" d="M335.17,-173.31C364.49,-184.48 408.84,-202.5 439.99,-215.83"/>
<polygon fill="black" stroke="black" points="438.46,-218.98 449.03,-219.72 441.23,-212.55 438.46,-218.98"/>
</g>
<!-- node12 -->
<g id="node9" class="node">
<title>node12</title>
<ellipse fill="none" stroke="black" cx="470.04" cy="-18" rx="38.04" ry="18"/>
<text text-anchor="middle" x="470.04" y="-12.95" font-family="Times,serif" font-size="14.00">node12</text>
</g>
<!-- node28&#45;&gt;node12 -->
<g id="edge5" class="edge">
<title>node28&#45;&gt;node12</title>
<path fill="none" stroke="black" d="M292.05,-144.76C282.7,-125.43 275.34,-93.11 291.04,-72 324.28,-27.33 358.01,-52.96 411.04,-36 416.02,-34.41 421.26,-32.68 426.5,-30.96"/>
<polygon fill="black" stroke="black" points="427.31,-34.38 435.72,-27.95 425.13,-27.73 427.31,-34.38"/>
</g>
<!-- node34 -->
<g id="node10" class="node">
<title>node34</title>
<ellipse fill="none" stroke="black" cx="565.04" cy="-18" rx="38.04" ry="18"/>
<text text-anchor="middle" x="565.04" y="-12.95" font-family="Times,serif" font-size="14.00">node34</text>
</g>
<!-- node28&#45;&gt;node34 -->
<g id="edge6" class="edge">
<title>node28&#45;&gt;node34</title>
<path fill="none" stroke="black" d="M302.82,-143.7C305.99,-123.33 318.57,-89.98 342.04,-72 401.98,-26.09 435.43,-56.64 508.04,-36 512.54,-34.72 517.23,-33.25 521.91,-31.71"/>
<polygon fill="black" stroke="black" points="522.95,-35.05 531.32,-28.56 520.73,-28.42 522.95,-35.05"/>
</g>
<!-- node39&#45;&gt;node28 -->
<g id="edge80" class="edge">
<title>node39&#45;&gt;node28</title>
<path fill="none" stroke="black" d="M345.35,-30.83C311.54,-43.73 258.66,-63.63 253.04,-72 244.14,-85.29 246.41,-93.44 253.04,-108 258.57,-120.12 268.39,-130.54 278.09,-138.85"/>
<polygon fill="black" stroke="black" points="275.68,-141.4 285.67,-144.94 280.06,-135.95 275.68,-141.4"/>
</g>
<!-- node48&#45;&gt;node28 -->
<g id="edge64" class="edge">
<title>node48&#45;&gt;node28</title>
<path fill="none" stroke="black" d="M445.86,-222.67C416.58,-211.51 372.38,-193.55 341.25,-180.24"/>
<polygon fill="black" stroke="black" points="342.79,-177.09 332.22,-176.35 340.02,-183.52 342.79,-177.09"/>
</g>
<!-- node1 -->
<g id="node16" class="node">
<title>node1</title>
<ellipse fill="none" stroke="black" cx="314.04" cy="-306" rx="33.44" ry="18"/>
<text text-anchor="middle" x="314.04" y="-300.95" font-family="Times,serif" font-size="14.00">node1</text>
</g>
<!-- node48&#45;&gt;node1 -->
<g id="edge65" class="edge">
<title>node48&#45;&gt;node1</title>
<path fill="none" stroke="black" d="M451.11,-248.11C424.51,-260.36 382.34,-278.6 351.72,-291.1"/>
<polygon fill="black" stroke="black" points="350.78,-287.71 342.82,-294.7 353.4,-294.2 350.78,-287.71"/>
</g>
<!-- node19 -->
<g id="node23" class="node">
<title>node19</title>
<ellipse fill="none" stroke="black" cx="399.04" cy="-162" rx="38.04" ry="18"/>
<text text-anchor="middle" x="399.04" y="-156.95" font-family="Times,serif" font-size="14.00">node19</text>
</g>
<!-- node48&#45;&gt;node19 -->
<g id="edge63" class="edge">
<title>node48&#45;&gt;node19</title>
<path fill="none" stroke="black" d="M454.91,-218.83C443.81,-209.82 430.39,-197.9 419.41,-187.4"/>
<polygon fill="black" stroke="black" points="421.89,-184.92 412.3,-180.41 416.98,-189.92 421.89,-184.92"/>
</g>
<!-- node25 -->
<g id="node35" class="node">
<title>node25</title>
<ellipse fill="none" stroke="black" cx="493.04" cy="-162" rx="38.04" ry="18"/>
<text text-anchor="middle" x="493.04" y="-156.95" font-family="Times,serif" font-size="14.00">node25</text>
</g>
<!-- node48&#45;&gt;node25 -->
<g id="edge62" class="edge">
<title>node48&#45;&gt;node25</title>
<path fill="none" stroke="black" d="M474.33,-215.7C475.39,-208.13 477.36,-199.06 479.73,-190.59"/>
<polygon fill="black" stroke="black" points="483.06,-191.66 482.71,-181.07 476.38,-189.56 483.06,-191.66"/>
</g>
<!-- node12&#45;&gt;node28 -->
<g id="edge87" class="edge">
<title>node12&#45;&gt;node28</title>
<path fill="none" stroke="black" d="M443.5,-31.23C438.71,-32.86 433.76,-34.49 429.04,-36 376.01,-52.96 342.28,-27.33 309.04,-72 296.33,-89.09 298.73,-113.53 302.27,-132.48"/>
<polygon fill="black" stroke="black" points="298.84,-133.14 304.26,-142.24 305.7,-131.75 298.84,-133.14"/>
</g>
<!-- node34&#45;&gt;node28 -->
<g id="edge57" class="edge">
<title>node34&#45;&gt;node28</title>
<path fill="none" stroke="black" d="M539.53,-31.79C535.07,-33.3 530.47,-34.74 526.04,-36 453.43,-56.64 419.98,-26.09 360.04,-72 340.01,-87.35 327.9,-113.9 319.54,-134.01"/>
<polygon fill="black" stroke="black" points="316.4,-132.44 315.83,-143.02 322.88,-135.11 316.4,-132.44"/>
</g>
<!-- node41 -->
<g id="node11" class="node">
<title>node41</title>
<ellipse fill="none" stroke="black" cx="933.04" cy="-18" rx="38.04" ry="18"/>
<text text-anchor="middle" x="933.04" y="-12.95" font-family="Times,serif" font-size="14.00">node41</text>
</g>
<!-- node14 -->
<g id="node12" class="node">
<title>node14</title>
<ellipse fill="none" stroke="black" cx="1206.04" cy="-90" rx="38.04" ry="18"/>
<text text-anchor="middle" x="1206.04" y="-84.95" font-family="Times,serif" font-size="14.00">node14</text>
</g>
<!-- node41&#45;&gt;node14 -->
<g id="edge7" class="edge">
<title>node41&#45;&gt;node14</title>
<path fill="none" stroke="black" d="M968.85,-24.85C1015.49,-33.63 1098.7,-51.4 1168.04,-72 1168.69,-72.19 1169.35,-72.39 1170.01,-72.59"/>
<polygon fill="black" stroke="black" points="1168.7,-75.85 1179.3,-75.62 1170.87,-69.19 1168.7,-75.85"/>
</g>
<!-- node14&#45;&gt;node41 -->
<g id="edge67" class="edge">
<title>node14&#45;&gt;node41</title>
<path fill="none" stroke="black" d="M1173.99,-79.89C1166.1,-77.17 1157.78,-74.3 1150.04,-72 1091,-54.46 1021.9,-38.97 977.71,-29.34"/>
<polygon fill="black" stroke="black" points="978.48,-25.93 967.97,-27.22 977,-32.77 978.48,-25.93"/>
</g>
<!-- node3 -->
<g id="node29" class="node">
<title>node3</title>
<ellipse fill="none" stroke="black" cx="1099.04" cy="-162" rx="33.44" ry="18"/>
<text text-anchor="middle" x="1099.04" y="-156.95" font-family="Times,serif" font-size="14.00">node3</text>
</g>
<!-- node14&#45;&gt;node3 -->
<g id="edge66" class="edge">
<title>node14&#45;&gt;node3</title>
<path fill="none" stroke="black" d="M1188.35,-106.3C1173.13,-117.11 1151,-131.65 1132.51,-143.02"/>
<polygon fill="black" stroke="black" points="1130.72,-140.01 1123.98,-148.18 1134.34,-146 1130.72,-140.01"/>
</g>
<!-- node50&#45;&gt;node24 -->
<g id="edge9" class="edge">
<title>node50&#45;&gt;node24</title>
<path fill="none" stroke="black" d="M99.37,-395.14C104.36,-402.92 109.68,-412.47 114.05,-421.35"/>
<polygon fill="black" stroke="black" points="110.82,-422.71 118.18,-430.32 117.17,-419.78 110.82,-422.71"/>
</g>
<!-- node22 -->
<g id="node14" class="node">
<title>node22</title>
<ellipse fill="none" stroke="black" cx="38.04" cy="-306" rx="38.04" ry="18"/>
<text text-anchor="middle" x="38.04" y="-300.95" font-family="Times,serif" font-size="14.00">node22</text>
</g>
<!-- node50&#45;&gt;node22 -->
<g id="edge8" class="edge">
<title>node50&#45;&gt;node22</title>
<path fill="none" stroke="black" d="M68.89,-361.46C62.44,-353.3 55.29,-343.07 49.38,-333.68"/>
<polygon fill="black" stroke="black" points="52.48,-332.04 44.33,-325.26 46.47,-335.64 52.48,-332.04"/>
</g>
<!-- node47 -->
<g id="node15" class="node">
<title>node47</title>
<ellipse fill="none" stroke="black" cx="136.04" cy="-306" rx="38.04" ry="18"/>
<text text-anchor="middle" x="136.04" y="-300.95" font-family="Times,serif" font-size="14.00">node47</text>
</g>
<!-- node50&#45;&gt;node47 -->
<g id="edge10" class="edge">
<title>node50&#45;&gt;node47</title>
<path fill="none" stroke="black" d="M91.51,-360.05C96.93,-351.35 104.58,-340.59 112.09,-331.03"/>
<polygon fill="black" stroke="black" points="114.6,-333.49 118.2,-323.53 109.17,-329.07 114.6,-333.49"/>
</g>
<!-- node50&#45;&gt;node1 -->
<g id="edge11" class="edge">
<title>node50&#45;&gt;node1</title>
<path fill="none" stroke="black" d="M114.82,-366.37C155.42,-353.25 227.96,-331.07 273.49,-317.85"/>
<polygon fill="black" stroke="black" points="274.35,-321.25 282.99,-315.12 272.41,-314.52 274.35,-321.25"/>
</g>
<!-- node22&#45;&gt;node50 -->
<g id="edge52" class="edge">
<title>node22&#45;&gt;node50</title>
<path fill="none" stroke="black" d="M54.05,-322.36C60.53,-330.54 67.74,-340.84 73.68,-350.28"/>
<polygon fill="black" stroke="black" points="70.62,-351.98 78.77,-358.76 76.63,-348.38 70.62,-351.98"/>
</g>
<!-- node18 -->
<g id="node34" class="node">
<title>node18</title>
<ellipse fill="none" stroke="black" cx="56.04" cy="-18" rx="38.04" ry="18"/>
<text text-anchor="middle" x="56.04" y="-12.95" font-family="Times,serif" font-size="14.00">node18</text>
</g>
<!-- node22&#45;&gt;node18 -->
<g id="edge51" class="edge">
<title>node22&#45;&gt;node18</title>
<path fill="none" stroke="black" d="M35.69,-287.54C34.59,-239.76 42.71,-106.51 49.99,-47.61"/>
<polygon fill="black" stroke="black" points="53.46,-48.11 51.33,-37.73 46.52,-47.17 53.46,-48.11"/>
</g>
<!-- node13 -->
<g id="node43" class="node">
<title>node13</title>
<ellipse fill="none" stroke="black" cx="170.04" cy="-18" rx="38.04" ry="18"/>
<text text-anchor="middle" x="170.04" y="-12.95" font-family="Times,serif" font-size="14.00">node13</text>
</g>
<!-- node22&#45;&gt;node13 -->
<g id="edge50" class="edge">
<title>node22&#45;&gt;node13</title>
<path fill="none" stroke="black" d="M38.7,-287.98C42.55,-277.67 48.91,-264.19 54.04,-252 87.17,-173.33 80.01,-146.85 121.04,-72 126.78,-61.54 134.42,-50.87 142.07,-41.88"/>
<polygon fill="black" stroke="black" points="144.52,-44.39 148.65,-34.63 139.34,-39.68 144.52,-44.39"/>
</g>
<!-- node47&#45;&gt;node50 -->
<g id="edge19" class="edge">
<title>node47&#45;&gt;node50</title>
<path fill="none" stroke="black" d="M129.57,-323.96C124.17,-332.62 116.58,-343.31 109.12,-352.82"/>
<polygon fill="black" stroke="black" points="106.63,-350.32 103.04,-360.29 112.06,-354.74 106.63,-350.32"/>
</g>
<!-- node27 -->
<g id="node24" class="node">
<title>node27</title>
<ellipse fill="none" stroke="black" cx="274.04" cy="-18" rx="38.04" ry="18"/>
<text text-anchor="middle" x="274.04" y="-12.95" font-family="Times,serif" font-size="14.00">node27</text>
</g>
<!-- node47&#45;&gt;node27 -->
<g id="edge18" class="edge">
<title>node47&#45;&gt;node27</title>
<path fill="none" stroke="black" d="M132.23,-287.72C131.89,-257.3 141.28,-192.8 165.04,-144 184.75,-103.55 219.53,-64.26 244.71,-40.85"/>
<polygon fill="black" stroke="black" points="246.94,-43.55 252.05,-34.27 242.27,-38.34 246.94,-43.55"/>
</g>
<!-- node40 -->
<g id="node25" class="node">
<title>node40</title>
<ellipse fill="none" stroke="black" cx="258.04" cy="-234" rx="38.04" ry="18"/>
<text text-anchor="middle" x="258.04" y="-228.95" font-family="Times,serif" font-size="14.00">node40</text>
</g>
<!-- node47&#45;&gt;node40 -->
<g id="edge16" class="edge">
<title>node47&#45;&gt;node40</title>
<path fill="none" stroke="black" d="M156.01,-290.33C173.82,-279.3 200.11,-264.16 221.6,-252.5"/>
<polygon fill="black" stroke="black" points="223.21,-255.61 230.38,-247.81 219.91,-249.44 223.21,-255.61"/>
</g>
<!-- node15 -->
<g id="node26" class="node">
<title>node15</title>
<ellipse fill="none" stroke="black" cx="372.04" cy="-234" rx="38.04" ry="18"/>
<text text-anchor="middle" x="372.04" y="-228.95" font-family="Times,serif" font-size="14.00">node15</text>
</g>
<!-- node47&#45;&gt;node15 -->
<g id="edge17" class="edge">
<title>node47&#45;&gt;node15</title>
<path fill="none" stroke="black" d="M165.91,-294.67C207.03,-281.79 281.02,-259.82 328.34,-246.44"/>
<polygon fill="black" stroke="black" points="329.03,-249.88 337.71,-243.8 327.14,-243.14 329.03,-249.88"/>
</g>
<!-- node1&#45;&gt;node48 -->
<g id="edge25" class="edge">
<title>node1&#45;&gt;node48</title>
<path fill="none" stroke="black" d="M337.34,-292.65C363.15,-280.71 404.91,-262.61 435.95,-249.89"/>
<polygon fill="black" stroke="black" points="437.09,-253.2 445.04,-246.2 434.46,-246.72 437.09,-253.2"/>
</g>
<!-- node1&#45;&gt;node50 -->
<g id="edge22" class="edge">
<title>node1&#45;&gt;node50</title>
<path fill="none" stroke="black" d="M286.91,-316.78C247.76,-329.48 175.42,-351.63 128.73,-365.24"/>
<polygon fill="black" stroke="black" points="127.83,-361.85 119.19,-368 129.77,-368.58 127.83,-361.85"/>
</g>
<!-- node49 -->
<g id="node21" class="node">
<title>node49</title>
<ellipse fill="none" stroke="black" cx="575.04" cy="-234" rx="38.04" ry="18"/>
<text text-anchor="middle" x="575.04" y="-228.95" font-family="Times,serif" font-size="14.00">node49</text>
</g>
<!-- node1&#45;&gt;node49 -->
<g id="edge26" class="edge">
<title>node1&#45;&gt;node49</title>
<path fill="none" stroke="black" d="M335.91,-292.13C339.9,-290.64 344.05,-289.21 348.04,-288 420.28,-266.05 441.18,-271.76 514.04,-252 519.57,-250.5 525.39,-248.76 531.16,-246.98"/>
<polygon fill="black" stroke="black" points="532.17,-250.33 540.68,-244.01 530.09,-243.65 532.17,-250.33"/>
</g>
<!-- node1&#45;&gt;node44 -->
<g id="edge23" class="edge">
<title>node1&#45;&gt;node44</title>
<path fill="none" stroke="black" d="M335.82,-291.83C339.83,-290.38 344.01,-289.06 348.04,-288 463.04,-257.93 496.25,-274.05 613.04,-252 623.81,-249.97 635.4,-247.34 646.35,-244.75"/>
<polygon fill="black" stroke="black" points="647.08,-248.18 656,-242.46 645.46,-241.37 647.08,-248.18"/>
</g>
<!-- node46 -->
<g id="node28" class="node">
<title>node46</title>
<ellipse fill="none" stroke="black" cx="797.04" cy="-234" rx="38.04" ry="18"/>
<text text-anchor="middle" x="797.04" y="-228.95" font-family="Times,serif" font-size="14.00">node46</text>
</g>
<!-- node1&#45;&gt;node46 -->
<g id="edge24" class="edge">
<title>node1&#45;&gt;node46</title>
<path fill="none" stroke="black" d="M335.32,-291.84C339.48,-290.35 343.83,-289.01 348.04,-288 513.88,-248.26 562.57,-284.13 730.04,-252 737.52,-250.57 745.42,-248.58 753.11,-246.47"/>
<polygon fill="black" stroke="black" points="754.02,-249.85 762.68,-243.75 752.11,-243.11 754.02,-249.85"/>
</g>
<!-- node4 -->
<g id="node17" class="node">
<title>node4</title>
<ellipse fill="none" stroke="black" cx="296.04" cy="-522" rx="33.44" ry="18"/>
<text text-anchor="middle" x="296.04" y="-516.95" font-family="Times,serif" font-size="14.00">node4</text>
</g>
<!-- node10 -->
<g id="node18" class="node">
<title>node10</title>
<ellipse fill="none" stroke="black" cx="1018.04" cy="-90" rx="38.04" ry="18"/>
<text text-anchor="middle" x="1018.04" y="-84.95" font-family="Times,serif" font-size="14.00">node10</text>
</g>
<!-- node42 -->
<g id="node19" class="node">
<title>node42</title>
<ellipse fill="none" stroke="black" cx="912.04" cy="-162" rx="38.04" ry="18"/>
<text text-anchor="middle" x="912.04" y="-156.95" font-family="Times,serif" font-size="14.00">node42</text>
</g>
<!-- node10&#45;&gt;node42 -->
<g id="edge12" class="edge">
<title>node10&#45;&gt;node42</title>
<path fill="none" stroke="black" d="M1000.47,-106.37C985.8,-116.89 964.7,-130.91 946.73,-142.11"/>
<polygon fill="black" stroke="black" points="945.11,-138.99 938.41,-147.21 948.77,-144.96 945.11,-138.99"/>
</g>
<!-- node42&#45;&gt;node10 -->
<g id="edge60" class="edge">
<title>node42&#45;&gt;node10</title>
<path fill="none" stroke="black" d="M929.37,-145.81C944.11,-135.23 965.47,-121.04 983.6,-109.75"/>
<polygon fill="black" stroke="black" points="985.29,-112.81 991.99,-104.6 981.64,-106.85 985.29,-112.81"/>
</g>
<!-- node42&#45;&gt;node46 -->
<g id="edge61" class="edge">
<title>node42&#45;&gt;node46</title>
<path fill="none" stroke="black" d="M893.31,-177.83C876.86,-188.67 852.73,-203.43 832.68,-214.96"/>
<polygon fill="black" stroke="black" points="831.21,-211.76 824.24,-219.74 834.66,-217.85 831.21,-211.76"/>
</g>
<!-- node37 -->
<g id="node38" class="node">
<title>node37</title>
<ellipse fill="none" stroke="black" cx="1112.04" cy="-90" rx="38.04" ry="18"/>
<text text-anchor="middle" x="1112.04" y="-84.95" font-family="Times,serif" font-size="14.00">node37</text>
</g>
<!-- node42&#45;&gt;node37 -->
<g id="edge59" class="edge">
<title>node42&#45;&gt;node37</title>
<path fill="none" stroke="black" d="M939.65,-149.14C968.77,-138.48 1015.5,-122.35 1056.04,-108 1060.16,-106.54 1064.47,-105 1068.82,-103.47"/>
<polygon fill="black" stroke="black" points="1069.86,-106.81 1078.15,-100.21 1067.55,-100.2 1069.86,-106.81"/>
</g>
<!-- node5 -->
<g id="node20" class="node">
<title>node5</title>
<ellipse fill="none" stroke="black" cx="582.04" cy="-162" rx="33.44" ry="18"/>
<text text-anchor="middle" x="582.04" y="-156.95" font-family="Times,serif" font-size="14.00">node5</text>
</g>
<!-- node5&#45;&gt;node49 -->
<g id="edge13" class="edge">
<title>node5&#45;&gt;node49</title>
<path fill="none" stroke="black" d="M586.23,-180.28C586.25,-187.69 585.61,-196.54 584.49,-204.86"/>
<polygon fill="black" stroke="black" points="581.07,-204.12 582.87,-214.56 587.97,-205.28 581.07,-204.12"/>
</g>
<!-- node49&#45;&gt;node1 -->
<g id="edge42" class="edge">
<title>node49&#45;&gt;node1</title>
<path fill="none" stroke="black" d="M548.28,-247.19C542.94,-248.9 537.36,-250.56 532.04,-252 459.18,-271.76 438.28,-266.05 366.04,-288 361.84,-289.28 357.48,-290.78 353.12,-292.36"/>
<polygon fill="black" stroke="black" points="351.96,-289.06 343.81,-295.83 354.4,-295.62 351.96,-289.06"/>
</g>
<!-- node49&#45;&gt;node5 -->
<g id="edge40" class="edge">
<title>node49&#45;&gt;node5</title>
<path fill="none" stroke="black" d="M570.86,-215.7C570.84,-208.21 571.49,-199.26 572.63,-190.88"/>
<polygon fill="black" stroke="black" points="576.07,-191.56 574.29,-181.11 569.17,-190.39 576.07,-191.56"/>
</g>
<!-- node35 -->
<g id="node40" class="node">
<title>node35</title>
<ellipse fill="none" stroke="black" cx="660.04" cy="-18" rx="38.04" ry="18"/>
<text text-anchor="middle" x="660.04" y="-12.95" font-family="Times,serif" font-size="14.00">node35</text>
</g>
<!-- node49&#45;&gt;node35 -->
<g id="edge41" class="edge">
<title>node49&#45;&gt;node35</title>
<path fill="none" stroke="black" d="M586.52,-216.7C595.73,-207.04 607.71,-193.98 615.04,-180 637.56,-137.08 646.04,-80.55 651.8,-47.16"/>
<polygon fill="black" stroke="black" points="655.22,-47.93 653.55,-37.47 648.33,-46.68 655.22,-47.93"/>
</g>
<!-- node43 -->
<g id="node22" class="node">
<title>node43</title>
<ellipse fill="none" stroke="black" cx="398.04" cy="-90" rx="38.04" ry="18"/>
<text text-anchor="middle" x="398.04" y="-84.95" font-family="Times,serif" font-size="14.00">node43</text>
</g>
<!-- node43&#45;&gt;node19 -->
<g id="edge14" class="edge">
<title>node43&#45;&gt;node19</title>
<path fill="none" stroke="black" d="M404.15,-107.79C405.05,-115.25 405.44,-124.24 405.28,-132.69"/>
<polygon fill="black" stroke="black" points="401.79,-132.37 404.76,-142.54 408.78,-132.74 401.79,-132.37"/>
</g>
<!-- node19&#45;&gt;node48 -->
<g id="edge21" class="edge">
<title>node19&#45;&gt;node48</title>
<path fill="none" stroke="black" d="M420.28,-177.25C431.41,-186.29 444.84,-198.22 455.81,-208.73"/>
<polygon fill="black" stroke="black" points="453.32,-211.19 462.91,-215.7 458.23,-206.2 453.32,-211.19"/>
</g>
<!-- node19&#45;&gt;node43 -->
<g id="edge20" class="edge">
<title>node19&#45;&gt;node43</title>
<path fill="none" stroke="black" d="M392.92,-144.05C392.04,-136.68 391.65,-127.84 391.81,-119.51"/>
<polygon fill="black" stroke="black" points="395.29,-119.95 392.3,-109.79 388.3,-119.6 395.29,-119.95"/>
</g>
<!-- node27&#45;&gt;node47 -->
<g id="edge15" class="edge">
<title>node27&#45;&gt;node47</title>
<path fill="none" stroke="black" d="M262.87,-35.49C243.25,-57.92 204.34,-100.28 183.04,-144 161.76,-187.69 152.01,-243.97 145.25,-277.1"/>
<polygon fill="black" stroke="black" points="141.86,-276.21 143.19,-286.72 148.71,-277.67 141.86,-276.21"/>
</g>
<!-- node40&#45;&gt;node47 -->
<g id="edge34" class="edge">
<title>node40&#45;&gt;node47</title>
<path fill="none" stroke="black" d="M238.01,-249.72C220.24,-260.71 194.09,-275.78 172.65,-287.41"/>
<polygon fill="black" stroke="black" points="171.06,-284.29 163.9,-292.09 174.36,-290.46 171.06,-284.29"/>
</g>
<!-- node15&#45;&gt;node47 -->
<g id="edge56" class="edge">
<title>node15&#45;&gt;node47</title>
<path fill="none" stroke="black" d="M341.92,-245.41C300.8,-258.29 227.14,-280.16 179.91,-293.52"/>
<polygon fill="black" stroke="black" points="179.23,-290.07 170.55,-296.15 181.13,-296.81 179.23,-290.07"/>
</g>
<!-- node8 -->
<g id="node44" class="node">
<title>node8</title>
<ellipse fill="none" stroke="black" cx="216.04" cy="-162" rx="33.44" ry="18"/>
<text text-anchor="middle" x="216.04" y="-156.95" font-family="Times,serif" font-size="14.00">node8</text>
</g>
<!-- node15&#45;&gt;node8 -->
<g id="edge55" class="edge">
<title>node15&#45;&gt;node8</title>
<path fill="none" stroke="black" d="M342.61,-222.06C315.97,-210.96 276.99,-193.6 249.26,-180.57"/>
<polygon fill="black" stroke="black" points="250.77,-177.41 240.24,-176.29 247.77,-183.74 250.77,-177.41"/>
</g>
<!-- node44&#45;&gt;node7 -->
<g id="edge72" class="edge">
<title>node44&#45;&gt;node7</title>
<path fill="none" stroke="black" d="M694.29,-215.7C697.29,-207.55 701.74,-197.66 706.41,-188.67"/>
<polygon fill="black" stroke="black" points="709.43,-190.44 711.19,-180 703.3,-187.07 709.43,-190.44"/>
</g>
<!-- node44&#45;&gt;node1 -->
<g id="edge71" class="edge">
<title>node44&#45;&gt;node1</title>
<path fill="none" stroke="black" d="M661.66,-245.25C651.92,-247.67 641.12,-250.1 631.04,-252 514.25,-274.05 481.04,-257.93 366.04,-288 361.8,-289.11 357.4,-290.52 353.03,-292.06"/>
<polygon fill="black" stroke="black" points="351.89,-288.75 343.72,-295.49 354.31,-295.31 351.89,-288.75"/>
</g>
<!-- node46&#45;&gt;node1 -->
<g id="edge75" class="edge">
<title>node46&#45;&gt;node1</title>
<path fill="none" stroke="black" d="M769.62,-246.78C762.65,-248.77 755.15,-250.64 748.04,-252 580.57,-284.13 531.88,-248.26 366.04,-288 361.78,-289.02 357.37,-290.38 352.99,-291.89"/>
<polygon fill="black" stroke="black" points="351.85,-288.58 343.67,-295.32 354.27,-295.15 351.85,-288.58"/>
</g>
<!-- node46&#45;&gt;node42 -->
<g id="edge73" class="edge">
<title>node46&#45;&gt;node42</title>
<path fill="none" stroke="black" d="M816.06,-217.98C832.48,-207.17 856.41,-192.54 876.34,-181.08"/>
<polygon fill="black" stroke="black" points="878.04,-184.14 885.02,-176.17 874.59,-178.05 878.04,-184.14"/>
</g>
<!-- node46&#45;&gt;node3 -->
<g id="edge74" class="edge">
<title>node46&#45;&gt;node3</title>
<path fill="none" stroke="black" d="M829.75,-224.35C884.89,-210.91 995.91,-185.18 1056.84,-171.71"/>
<polygon fill="black" stroke="black" points="1057.47,-175.15 1066.49,-169.59 1055.97,-168.32 1057.47,-175.15"/>
</g>
<!-- node36 -->
<g id="node46" class="node">
<title>node36</title>
<ellipse fill="none" stroke="black" cx="1561.04" cy="-18" rx="38.04" ry="18"/>
<text text-anchor="middle" x="1561.04" y="-12.95" font-family="Times,serif" font-size="14.00">node36</text>
</g>
<!-- node46&#45;&gt;node36 -->
<g id="edge76" class="edge">
<title>node46&#45;&gt;node36</title>
<path fill="none" stroke="black" d="M835.36,-233.2C979.29,-232.96 1483.58,-223.47 1582.04,-108 1597.11,-90.33 1586.13,-64.78 1574.97,-45.58"/>
<polygon fill="black" stroke="black" points="1578.07,-43.94 1569.87,-37.22 1572.09,-47.58 1578.07,-43.94"/>
</g>
<!-- node3&#45;&gt;node14 -->
<g id="edge29" class="edge">
<title>node3&#45;&gt;node14</title>
<path fill="none" stroke="black" d="M1116.1,-146.15C1131,-135.54 1152.81,-121.18 1171.3,-109.77"/>
<polygon fill="black" stroke="black" points="1172.86,-112.91 1179.59,-104.73 1169.23,-106.93 1172.86,-112.91"/>
</g>
<!-- node3&#45;&gt;node46 -->
<g id="edge27" class="edge">
<title>node3&#45;&gt;node46</title>
<path fill="none" stroke="black" d="M1069.51,-170.88C1016.57,-183.83 905.62,-209.57 842.79,-223.51"/>
<polygon fill="black" stroke="black" points="842.13,-220.07 833.12,-225.64 843.64,-226.91 842.13,-220.07"/>
</g>
<!-- node11 -->
<g id="node30" class="node">
<title>node11</title>
<ellipse fill="none" stroke="black" cx="1300.04" cy="-90" rx="38.04" ry="18"/>
<text text-anchor="middle" x="1300.04" y="-84.95" font-family="Times,serif" font-size="14.00">node11</text>
</g>
<!-- node3&#45;&gt;node11 -->
<g id="edge28" class="edge">
<title>node3&#45;&gt;node11</title>
<path fill="none" stroke="black" d="M1124.62,-149.98C1153.75,-139.36 1202.18,-122.77 1244.04,-108 1248.16,-106.55 1252.48,-105.01 1256.82,-103.47"/>
<polygon fill="black" stroke="black" points="1257.86,-106.82 1266.15,-100.22 1255.55,-100.21 1257.86,-106.82"/>
</g>
<!-- node16 -->
<g id="node31" class="node">
<title>node16</title>
<ellipse fill="none" stroke="black" cx="1394.04" cy="-90" rx="38.04" ry="18"/>
<text text-anchor="middle" x="1394.04" y="-84.95" font-family="Times,serif" font-size="14.00">node16</text>
</g>
<!-- node3&#45;&gt;node16 -->
<g id="edge30" class="edge">
<title>node3&#45;&gt;node16</title>
<path fill="none" stroke="black" d="M1129.84,-154.73C1175.79,-146.09 1264.18,-129.14 1338.04,-108 1342.29,-106.79 1346.7,-105.38 1351.12,-103.91"/>
<polygon fill="black" stroke="black" points="1352.25,-107.23 1360.58,-100.69 1349.99,-100.6 1352.25,-107.23"/>
</g>
<!-- node17 -->
<g id="node32" class="node">
<title>node17</title>
<ellipse fill="none" stroke="black" cx="1409.04" cy="-18" rx="38.04" ry="18"/>
<text text-anchor="middle" x="1409.04" y="-12.95" font-family="Times,serif" font-size="14.00">node17</text>
</g>
<!-- node3&#45;&gt;node17 -->
<g id="edge31" class="edge">
<title>node3&#45;&gt;node17</title>
<path fill="none" stroke="black" d="M1132.67,-161.03C1209.46,-160.19 1393.29,-153.22 1432.04,-108 1447.26,-90.24 1435.65,-64.7 1423.89,-45.53"/>
<polygon fill="black" stroke="black" points="1426.87,-43.69 1418.51,-37.17 1420.98,-47.47 1426.87,-43.69"/>
</g>
<!-- node29 -->
<g id="node33" class="node">
<title>node29</title>
<ellipse fill="none" stroke="black" cx="1544.04" cy="-90" rx="38.04" ry="18"/>
<text text-anchor="middle" x="1544.04" y="-84.95" font-family="Times,serif" font-size="14.00">node29</text>
</g>
<!-- node3&#45;&gt;node29 -->
<g id="edge32" class="edge">
<title>node3&#45;&gt;node29</title>
<path fill="none" stroke="black" d="M1132.13,-158.16C1199.19,-152.4 1354.86,-137.34 1483.04,-108 1488.83,-106.68 1494.89,-104.98 1500.88,-103.18"/>
<polygon fill="black" stroke="black" points="1501.54,-106.64 1510.05,-100.33 1499.47,-99.96 1501.54,-106.64"/>
</g>
<!-- node11&#45;&gt;node3 -->
<g id="edge83" class="edge">
<title>node11&#45;&gt;node3</title>
<path fill="none" stroke="black" d="M1274.35,-103.59C1270.25,-105.09 1266.05,-106.59 1262.04,-108 1220.48,-122.67 1172.44,-139.12 1139.18,-149.75"/>
<polygon fill="black" stroke="black" points="1138.43,-146.32 1129.95,-152.67 1140.54,-152.99 1138.43,-146.32"/>
</g>
<!-- node31 -->
<g id="node45" class="node">
<title>node31</title>
<ellipse fill="none" stroke="black" cx="1116.04" cy="-18" rx="38.04" ry="18"/>
<text text-anchor="middle" x="1116.04" y="-12.95" font-family="Times,serif" font-size="14.00">node31</text>
</g>
<!-- node11&#45;&gt;node31 -->
<g id="edge84" class="edge">
<title>node11&#45;&gt;node31</title>
<path fill="none" stroke="black" d="M1269.2,-79.12C1237.21,-67.76 1187.43,-48.94 1153.29,-35.38"/>
<polygon fill="black" stroke="black" points="1154.79,-32.21 1144.21,-31.75 1152.19,-38.71 1154.79,-32.21"/>
</g>
<!-- node45 -->
<g id="node47" class="node">
<title>node45</title>
<ellipse fill="none" stroke="black" cx="1255.04" cy="-18" rx="38.04" ry="18"/>
<text text-anchor="middle" x="1255.04" y="-12.95" font-family="Times,serif" font-size="14.00">node45</text>
</g>
<!-- node11&#45;&gt;node45 -->
<g id="edge82" class="edge">
<title>node11&#45;&gt;node45</title>
<path fill="none" stroke="black" d="M1284.34,-73.46C1278.12,-65.3 1271.26,-55.07 1265.62,-45.68"/>
<polygon fill="black" stroke="black" points="1268.82,-44.22 1260.82,-37.28 1262.74,-47.7 1268.82,-44.22"/>
</g>
<!-- node16&#45;&gt;node3 -->
<g id="edge77" class="edge">
<title>node16&#45;&gt;node3</title>
<path fill="none" stroke="black" d="M1369.01,-103.9C1364.72,-105.37 1360.3,-106.78 1356.04,-108 1282.26,-129.12 1193.97,-146.05 1142.3,-154.71"/>
<polygon fill="black" stroke="black" points="1142.02,-151.21 1132.72,-156.28 1143.16,-158.11 1142.02,-151.21"/>
</g>
<!-- node17&#45;&gt;node3 -->
<g id="edge79" class="edge">
<title>node17&#45;&gt;node3</title>
<path fill="none" stroke="black" d="M1428.69,-33.87C1447.17,-52.99 1468.64,-86.31 1450.04,-108 1411.58,-152.88 1230.24,-160.08 1144.26,-161.01"/>
<polygon fill="black" stroke="black" points="1144.27,-157.51 1134.3,-161.09 1144.33,-164.51 1144.27,-157.51"/>
</g>
<!-- node29&#45;&gt;node3 -->
<g id="edge54" class="edge">
<title>node29&#45;&gt;node3</title>
<path fill="none" stroke="black" d="M1517.93,-103.4C1512.41,-105.12 1506.6,-106.73 1501.04,-108 1373.48,-137.2 1218.68,-152.26 1143.74,-158.08"/>
<polygon fill="black" stroke="black" points="1143.63,-154.57 1133.92,-158.82 1144.16,-161.55 1143.63,-154.57"/>
</g>
<!-- node18&#45;&gt;node22 -->
<g id="edge33" class="edge">
<title>node18&#45;&gt;node22</title>
<path fill="none" stroke="black" d="M58.39,-36.31C59.52,-84.01 51.37,-217.76 44.07,-276.6"/>
<polygon fill="black" stroke="black" points="40.61,-276.09 42.73,-286.47 47.55,-277.03 40.61,-276.09"/>
</g>
<!-- node25&#45;&gt;node48 -->
<g id="edge35" class="edge">
<title>node25&#45;&gt;node48</title>
<path fill="none" stroke="black" d="M494.74,-180.45C493.67,-188.01 491.7,-197.05 489.34,-205.48"/>
<polygon fill="black" stroke="black" points="486.02,-204.38 486.37,-214.97 492.7,-206.47 486.02,-204.38"/>
</g>
<!-- node33 -->
<g id="node36" class="node">
<title>node33</title>
<ellipse fill="none" stroke="black" cx="492.04" cy="-90" rx="38.04" ry="18"/>
<text text-anchor="middle" x="492.04" y="-84.95" font-family="Times,serif" font-size="14.00">node33</text>
</g>
<!-- node25&#45;&gt;node33 -->
<g id="edge36" class="edge">
<title>node25&#45;&gt;node33</title>
<path fill="none" stroke="black" d="M486.92,-144.05C486.04,-136.68 485.65,-127.84 485.81,-119.51"/>
<polygon fill="black" stroke="black" points="489.29,-119.95 486.3,-109.79 482.3,-119.6 489.29,-119.95"/>
</g>
<!-- node38 -->
<g id="node37" class="node">
<title>node38</title>
<ellipse fill="none" stroke="black" cx="586.04" cy="-90" rx="38.04" ry="18"/>
<text text-anchor="middle" x="586.04" y="-84.95" font-family="Times,serif" font-size="14.00">node38</text>
</g>
<!-- node25&#45;&gt;node38 -->
<g id="edge37" class="edge">
<title>node25&#45;&gt;node38</title>
<path fill="none" stroke="black" d="M508.39,-145.12C520.71,-134.96 538.18,-121.71 553.5,-110.86"/>
<polygon fill="black" stroke="black" points="555.25,-113.91 561.46,-105.33 551.25,-108.17 555.25,-113.91"/>
</g>
<!-- node33&#45;&gt;node25 -->
<g id="edge78" class="edge">
<title>node33&#45;&gt;node25</title>
<path fill="none" stroke="black" d="M498.15,-107.79C499.05,-115.25 499.44,-124.24 499.28,-132.69"/>
<polygon fill="black" stroke="black" points="495.79,-132.37 498.76,-142.54 502.78,-132.74 495.79,-132.37"/>
</g>
<!-- node38&#45;&gt;node25 -->
<g id="edge88" class="edge">
<title>node38&#45;&gt;node25</title>
<path fill="none" stroke="black" d="M570.68,-106.91C558.37,-117.05 540.92,-130.28 525.62,-141.11"/>
<polygon fill="black" stroke="black" points="523.89,-138.06 517.68,-146.64 527.88,-143.8 523.89,-138.06"/>
</g>
<!-- node37&#45;&gt;node42 -->
<g id="edge38" class="edge">
<title>node37&#45;&gt;node42</title>
<path fill="none" stroke="black" d="M1086.1,-103.68C1082.08,-105.14 1077.97,-106.61 1074.04,-108 1034.05,-122.16 988.03,-138.05 955.15,-148.7"/>
<polygon fill="black" stroke="black" points="954.42,-145.26 945.97,-151.64 956.56,-151.92 954.42,-145.26"/>
</g>
<!-- node9&#45;&gt;node24 -->
<g id="edge39" class="edge">
<title>node9&#45;&gt;node24</title>
<path fill="none" stroke="black" d="M376.53,-319.49C372.71,-321.02 368.79,-322.55 365.04,-324 322.94,-340.3 310.38,-339.72 270.04,-360 229.1,-380.58 185.07,-410.18 155.59,-429.5"/>
<polygon fill="black" stroke="black" points="153.92,-426.41 147.44,-434.8 157.73,-432.28 153.92,-426.41"/>
</g>
<!-- node35&#45;&gt;node49 -->
<g id="edge43" class="edge">
<title>node35&#45;&gt;node49</title>
<path fill="none" stroke="black" d="M664.46,-35.98C665.91,-66.47 658.32,-131.81 633.04,-180 626.79,-191.93 617.14,-203.19 607.39,-212.23"/>
<polygon fill="black" stroke="black" points="605.32,-209.4 600.03,-218.59 609.89,-214.7 605.32,-209.4"/>
</g>
<!-- node26&#45;&gt;node24 -->
<g id="edge49" class="edge">
<title>node26&#45;&gt;node24</title>
<path fill="none" stroke="black" d="M281.24,-391.06C250.44,-403.38 199.78,-422.47 163.82,-435.34"/>
<polygon fill="black" stroke="black" points="162.85,-431.97 154.6,-438.61 165.19,-438.57 162.85,-431.97"/>
</g>
<!-- node30&#45;&gt;node24 -->
<g id="edge53" class="edge">
<title>node30&#45;&gt;node24</title>
<path fill="none" stroke="black" d="M376.74,-391.94C372.54,-393.39 368.21,-394.78 364.04,-396 297.53,-415.51 218.57,-432.14 169.25,-441.33"/>
<polygon fill="black" stroke="black" points="168.68,-437.87 159.47,-443.12 169.94,-444.76 168.68,-437.87"/>
</g>
<!-- node13&#45;&gt;node22 -->
<g id="edge86" class="edge">
<title>node13&#45;&gt;node22</title>
<path fill="none" stroke="black" d="M163.24,-35.8C156.14,-45.81 146.14,-59.06 139.04,-72 98.01,-146.85 105.17,-173.33 72.04,-252 68.23,-261.07 63.73,-270.84 59.12,-279.5"/>
<polygon fill="black" stroke="black" points="56.15,-277.65 54.23,-288.07 62.23,-281.12 56.15,-277.65"/>
</g>
<!-- node8&#45;&gt;node15 -->
<g id="edge68" class="edge">
<title>node8&#45;&gt;node15</title>
<path fill="none" stroke="black" d="M243.22,-173C269.46,-183.87 309.04,-201.46 337.47,-214.79"/>
<polygon fill="black" stroke="black" points="335.87,-217.9 346.4,-219.02 338.86,-211.58 335.87,-217.9"/>
</g>
<!-- node31&#45;&gt;node11 -->
<g id="edge58" class="edge">
<title>node31&#45;&gt;node11</title>
<path fill="none" stroke="black" d="M1146.96,-28.91C1178.95,-40.26 1228.66,-59.06 1262.78,-72.61"/>
<polygon fill="black" stroke="black" points="1261.27,-75.78 1271.86,-76.24 1263.87,-69.28 1261.27,-75.78"/>
</g>
<!-- node36&#45;&gt;node46 -->
<g id="edge69" class="edge">
<title>node36&#45;&gt;node46</title>
<path fill="none" stroke="black" d="M1580.15,-33.9C1597.98,-53.05 1618.45,-86.41 1600.04,-108 1502.44,-222.47 1006.05,-232.79 846.45,-233.2"/>
<polygon fill="black" stroke="black" points="846.62,-229.7 836.62,-233.21 846.63,-236.7 846.62,-229.7"/>
</g>
<!-- node45&#45;&gt;node11 -->
<g id="edge70" class="edge">
<title>node45&#45;&gt;node11</title>
<path fill="none" stroke="black" d="M1270.85,-34.67C1276.93,-42.66 1283.6,-52.6 1289.15,-61.79"/>
<polygon fill="black" stroke="black" points="1286.07,-63.45 1294.08,-70.38 1292.14,-59.97 1286.07,-63.45"/>
</g>
<!-- node2 -->
<g id="node48" class="node">
<title>node2</title>
<ellipse fill="none" stroke="black" cx="381.04" cy="-522" rx="33.44" ry="18"/>
<text text-anchor="middle" x="381.04" y="-516.95" font-family="Times,serif" font-size="14.00">node2</text>
</g>
<!-- node32&#45;&gt;node7 -->
<g id="edge81" class="edge">
<title>node32&#45;&gt;node7</title>
<path fill="none" stroke="black" d="M812.54,-106.48C797.68,-117.24 776.22,-131.61 758.2,-142.9"/>
<polygon fill="black" stroke="black" points="756.57,-139.79 749.89,-148.01 760.24,-145.75 756.57,-139.79"/>
</g>
<!-- node23&#45;&gt;node7 -->
<g id="edge85" class="edge">
<title>node23&#45;&gt;node7</title>
<path fill="none" stroke="black" d="M898.1,-103.67C894.07,-105.14 889.97,-106.61 886.04,-108 845.11,-122.54 797.85,-138.96 765.02,-149.62"/>
<polygon fill="black" stroke="black" points="764.37,-146.15 755.91,-152.54 766.5,-152.82 764.37,-146.15"/>
</g>
</g>
</svg>
