<?xml version="1.0" encoding="UTF-8" standalone="no"?>
<!DOCTYPE svg PUBLIC "-//W3C//DTD SVG 1.1//EN"
 "http://www.w3.org/Graphics/SVG/1.1/DTD/svg11.dtd">
<!-- Generated by graphviz version 12.2.1 (20241206.2353)
 -->
<!-- Pages: 1 -->
<svg width="1757pt" height="548pt"
 viewBox="0.00 0.00 1757.09 548.00" xmlns="http://www.w3.org/2000/svg" xmlns:xlink="http://www.w3.org/1999/xlink">
<g id="graph0" class="graph" transform="scale(1 1) rotate(0) translate(4 544)">
<polygon fill="white" stroke="none" points="-4,4 -4,-544 1753.09,-544 1753.09,4 -4,4"/>
<!-- node34 -->
<g id="node1" class="node">
<title>node34</title>
<ellipse fill="none" stroke="black" cx="190.04" cy="-522" rx="38.04" ry="18"/>
<text text-anchor="middle" x="190.04" y="-516.95" font-family="Times,serif" font-size="14.00">node34</text>
</g>
<!-- node13 -->
<g id="node2" class="node">
<title>node13</title>
<ellipse fill="none" stroke="black" cx="190.04" cy="-450" rx="38.04" ry="18"/>
<text text-anchor="middle" x="190.04" y="-444.95" font-family="Times,serif" font-size="14.00">node13</text>
</g>
<!-- node34&#45;&gt;node13 -->
<g id="edge1" class="edge">
<title>node34&#45;&gt;node13</title>
<path fill="none" stroke="black" d="M184.17,-504.05C183.38,-496.68 183.13,-487.84 183.4,-479.51"/>
<polygon fill="black" stroke="black" points="186.87,-479.99 184.03,-469.79 179.89,-479.54 186.87,-479.99"/>
</g>
<!-- node13&#45;&gt;node34 -->
<g id="edge60" class="edge">
<title>node13&#45;&gt;node34</title>
<path fill="none" stroke="black" d="M195.96,-468.28C196.71,-475.6 196.96,-484.34 196.69,-492.57"/>
<polygon fill="black" stroke="black" points="193.2,-492.33 196.02,-502.54 200.18,-492.8 193.2,-492.33"/>
</g>
<!-- node19 -->
<g id="node9" class="node">
<title>node19</title>
<ellipse fill="none" stroke="black" cx="153.04" cy="-378" rx="38.04" ry="18"/>
<text text-anchor="middle" x="153.04" y="-372.95" font-family="Times,serif" font-size="14.00">node19</text>
</g>
<!-- node13&#45;&gt;node19 -->
<g id="edge65" class="edge">
<title>node13&#45;&gt;node19</title>
<path fill="none" stroke="black" d="M175.89,-433.12C170.86,-425.32 165.49,-415.69 161.08,-406.73"/>
<polygon fill="black" stroke="black" points="164.27,-405.28 156.9,-397.67 157.91,-408.21 164.27,-405.28"/>
</g>
<!-- node46 -->
<g id="node13" class="node">
<title>node46</title>
<ellipse fill="none" stroke="black" cx="218.04" cy="-306" rx="38.04" ry="18"/>
<text text-anchor="middle" x="218.04" y="-300.95" font-family="Times,serif" font-size="14.00">node46</text>
</g>
<!-- node13&#45;&gt;node46 -->
<g id="edge63" class="edge">
<title>node13&#45;&gt;node46</title>
<path fill="none" stroke="black" d="M188.86,-431.59C191.11,-407.37 199.52,-363.28 207.14,-334.57"/>
<polygon fill="black" stroke="black" points="210.45,-335.7 209.81,-325.13 203.72,-333.8 210.45,-335.7"/>
</g>
<!-- node22 -->
<g id="node20" class="node">
<title>node22</title>
<ellipse fill="none" stroke="black" cx="312.04" cy="-378" rx="38.04" ry="18"/>
<text text-anchor="middle" x="312.04" y="-372.95" font-family="Times,serif" font-size="14.00">node22</text>
</g>
<!-- node13&#45;&gt;node22 -->
<g id="edge58" class="edge">
<title>node13&#45;&gt;node22</title>
<path fill="none" stroke="black" d="M210.01,-434.33C227.82,-423.3 254.11,-408.16 275.6,-396.5"/>
<polygon fill="black" stroke="black" points="277.21,-399.61 284.38,-391.81 273.91,-393.44 277.21,-399.61"/>
</g>
<!-- node23 -->
<g id="node26" class="node">
<title>node23</title>
<ellipse fill="none" stroke="black" cx="406.04" cy="-378" rx="38.04" ry="18"/>
<text text-anchor="middle" x="406.04" y="-372.95" font-family="Times,serif" font-size="14.00">node23</text>
</g>
<!-- node13&#45;&gt;node23 -->
<g id="edge59" class="edge">
<title>node13&#45;&gt;node23</title>
<path fill="none" stroke="black" d="M219.49,-438.08C251.78,-427.66 304.59,-411.34 350.04,-396 354.18,-394.6 358.51,-393.1 362.86,-391.58"/>
<polygon fill="black" stroke="black" points="363.89,-394.93 372.19,-388.34 361.6,-388.32 363.89,-394.93"/>
</g>
<!-- node47 -->
<g id="node43" class="node">
<title>node47</title>
<ellipse fill="none" stroke="black" cx="500.04" cy="-378" rx="38.04" ry="18"/>
<text text-anchor="middle" x="500.04" y="-372.95" font-family="Times,serif" font-size="14.00">node47</text>
</g>
<!-- node13&#45;&gt;node47 -->
<g id="edge64" class="edge">
<title>node13&#45;&gt;node47</title>
<path fill="none" stroke="black" d="M225.22,-442.6C274.69,-434.1 366.9,-417.6 444.04,-396 448.29,-394.81 452.71,-393.42 457.13,-391.96"/>
<polygon fill="black" stroke="black" points="458.26,-395.28 466.6,-388.74 456,-388.65 458.26,-395.28"/>
</g>
<!-- node37 -->
<g id="node45" class="node">
<title>node37</title>
<ellipse fill="none" stroke="black" cx="1614.04" cy="-18" rx="38.04" ry="18"/>
<text text-anchor="middle" x="1614.04" y="-12.95" font-family="Times,serif" font-size="14.00">node37</text>
</g>
<!-- node13&#45;&gt;node37 -->
<g id="edge61" class="edge">
<title>node13&#45;&gt;node37</title>
<path fill="none" stroke="black" d="M227.92,-447.31C307.43,-443.29 487.88,-430.73 538.04,-396 583.19,-364.74 551.31,-316.82 598.04,-288 680.21,-237.33 1374.74,-283.31 1466.04,-252 1518.19,-234.12 1536.3,-225.76 1567.04,-180 1594.41,-139.27 1602.17,-81.19 1606.99,-47.07"/>
<polygon fill="black" stroke="black" points="1610.39,-47.96 1608.38,-37.56 1603.47,-46.95 1610.39,-47.96"/>
</g>
<!-- node40 -->
<g id="node46" class="node">
<title>node40</title>
<ellipse fill="none" stroke="black" cx="1711.04" cy="-18" rx="38.04" ry="18"/>
<text text-anchor="middle" x="1711.04" y="-12.95" font-family="Times,serif" font-size="14.00">node40</text>
</g>
<!-- node13&#45;&gt;node40 -->
<g id="edge62" class="edge">
<title>node13&#45;&gt;node40</title>
<path fill="none" stroke="black" d="M227.81,-446.44C419.74,-433.46 1286.11,-370.67 1525.04,-252 1613.39,-208.12 1669.55,-96.74 1695.45,-45.52"/>
<polygon fill="black" stroke="black" points="1698.42,-47.4 1699.83,-36.89 1692.18,-44.22 1698.42,-47.4"/>
</g>
<!-- node8 -->
<g id="node3" class="node">
<title>node8</title>
<ellipse fill="none" stroke="black" cx="989.04" cy="-90" rx="33.44" ry="18"/>
<text text-anchor="middle" x="989.04" y="-84.95" font-family="Times,serif" font-size="14.00">node8</text>
</g>
<!-- node9 -->
<g id="node4" class="node">
<title>node9</title>
<ellipse fill="none" stroke="black" cx="813.04" cy="-18" rx="33.44" ry="18"/>
<text text-anchor="middle" x="813.04" y="-12.95" font-family="Times,serif" font-size="14.00">node9</text>
</g>
<!-- node8&#45;&gt;node9 -->
<g id="edge2" class="edge">
<title>node8&#45;&gt;node9</title>
<path fill="none" stroke="black" d="M960.02,-80.67C952.71,-77.9 945.06,-74.81 938.04,-72 907.29,-59.69 872.5,-45.94 847.33,-35.53"/>
<polygon fill="black" stroke="black" points="848.8,-32.35 838.22,-31.72 846.1,-38.81 848.8,-32.35"/>
</g>
<!-- node12 -->
<g id="node5" class="node">
<title>node12</title>
<ellipse fill="none" stroke="black" cx="945.04" cy="-18" rx="38.04" ry="18"/>
<text text-anchor="middle" x="945.04" y="-12.95" font-family="Times,serif" font-size="14.00">node12</text>
</g>
<!-- node8&#45;&gt;node12 -->
<g id="edge3" class="edge">
<title>node8&#45;&gt;node12</title>
<path fill="none" stroke="black" d="M973.82,-73.81C967.7,-65.66 960.93,-55.37 955.38,-45.92"/>
<polygon fill="black" stroke="black" points="958.58,-44.47 950.65,-37.45 952.47,-47.89 958.58,-44.47"/>
</g>
<!-- node3 -->
<g id="node6" class="node">
<title>node3</title>
<ellipse fill="none" stroke="black" cx="977.04" cy="-162" rx="33.44" ry="18"/>
<text text-anchor="middle" x="977.04" y="-156.95" font-family="Times,serif" font-size="14.00">node3</text>
</g>
<!-- node8&#45;&gt;node3 -->
<g id="edge4" class="edge">
<title>node8&#45;&gt;node3</title>
<path fill="none" stroke="black" d="M992.02,-107.96C991.52,-115.57 990.19,-124.75 988.41,-133.31"/>
<polygon fill="black" stroke="black" points="985.03,-132.4 986.08,-142.94 991.83,-134.04 985.03,-132.4"/>
</g>
<!-- node9&#45;&gt;node8 -->
<g id="edge17" class="edge">
<title>node9&#45;&gt;node8</title>
<path fill="none" stroke="black" d="M841.76,-27.76C870.97,-38.23 916.79,-56.29 956.04,-72 956.15,-72.04 956.26,-72.09 956.37,-72.13"/>
<polygon fill="black" stroke="black" points="954.82,-75.28 965.4,-75.78 957.44,-68.79 954.82,-75.28"/>
</g>
<!-- node12&#45;&gt;node8 -->
<g id="edge9" class="edge">
<title>node12&#45;&gt;node8</title>
<path fill="none" stroke="black" d="M960.75,-34.83C966.75,-42.89 973.32,-52.91 978.74,-62.13"/>
<polygon fill="black" stroke="black" points="975.61,-63.7 983.53,-70.73 981.72,-60.29 975.61,-63.7"/>
</g>
<!-- node3&#45;&gt;node8 -->
<g id="edge74" class="edge">
<title>node3&#45;&gt;node8</title>
<path fill="none" stroke="black" d="M974.09,-143.7C974.61,-136.13 975.93,-127.06 977.7,-118.59"/>
<polygon fill="black" stroke="black" points="981.05,-119.64 980,-109.09 974.24,-117.99 981.05,-119.64"/>
</g>
<!-- node29 -->
<g id="node14" class="node">
<title>node29</title>
<ellipse fill="none" stroke="black" cx="1078.04" cy="-90" rx="38.04" ry="18"/>
<text text-anchor="middle" x="1078.04" y="-84.95" font-family="Times,serif" font-size="14.00">node29</text>
</g>
<!-- node3&#45;&gt;node29 -->
<g id="edge79" class="edge">
<title>node3&#45;&gt;node29</title>
<path fill="none" stroke="black" d="M993.28,-145.81C1007.18,-135.29 1027.35,-121.22 1044.61,-109.96"/>
<polygon fill="black" stroke="black" points="1046.03,-113.21 1052.56,-104.86 1042.25,-107.32 1046.03,-113.21"/>
</g>
<!-- node39 -->
<g id="node25" class="node">
<title>node39</title>
<ellipse fill="none" stroke="black" cx="1172.04" cy="-90" rx="38.04" ry="18"/>
<text text-anchor="middle" x="1172.04" y="-84.95" font-family="Times,serif" font-size="14.00">node39</text>
</g>
<!-- node3&#45;&gt;node39 -->
<g id="edge80" class="edge">
<title>node3&#45;&gt;node39</title>
<path fill="none" stroke="black" d="M1002.12,-149.55C1030.09,-138.84 1076.11,-122.37 1116.04,-108 1120.11,-106.54 1124.37,-105 1128.66,-103.48"/>
<polygon fill="black" stroke="black" points="1129.59,-106.86 1137.87,-100.25 1127.28,-100.25 1129.59,-106.86"/>
</g>
<!-- node18 -->
<g id="node35" class="node">
<title>node18</title>
<ellipse fill="none" stroke="black" cx="1266.04" cy="-90" rx="38.04" ry="18"/>
<text text-anchor="middle" x="1266.04" y="-84.95" font-family="Times,serif" font-size="14.00">node18</text>
</g>
<!-- node3&#45;&gt;node18 -->
<g id="edge76" class="edge">
<title>node3&#45;&gt;node18</title>
<path fill="none" stroke="black" d="M1007.71,-154.49C1052.68,-145.7 1138.36,-128.72 1210.04,-108 1214.28,-106.77 1218.69,-105.37 1223.11,-103.89"/>
<polygon fill="black" stroke="black" points="1224.24,-107.21 1232.57,-100.66 1221.98,-100.58 1224.24,-107.21"/>
</g>
<!-- node26 -->
<g id="node44" class="node">
<title>node26</title>
<ellipse fill="none" stroke="black" cx="1360.04" cy="-90" rx="38.04" ry="18"/>
<text text-anchor="middle" x="1360.04" y="-84.95" font-family="Times,serif" font-size="14.00">node26</text>
</g>
<!-- node3&#45;&gt;node26 -->
<g id="edge78" class="edge">
<title>node3&#45;&gt;node26</title>
<path fill="none" stroke="black" d="M1009.74,-157.36C1069.19,-150.86 1197.95,-135.29 1304.04,-108 1308.49,-106.86 1313.1,-105.46 1317.7,-103.97"/>
<polygon fill="black" stroke="black" points="1318.55,-107.37 1326.9,-100.85 1316.31,-100.74 1318.55,-107.37"/>
</g>
<!-- node48 -->
<g id="node48" class="node">
<title>node48</title>
<ellipse fill="none" stroke="black" cx="772.04" cy="-234" rx="38.04" ry="18"/>
<text text-anchor="middle" x="772.04" y="-228.95" font-family="Times,serif" font-size="14.00">node48</text>
</g>
<!-- node3&#45;&gt;node48 -->
<g id="edge81" class="edge">
<title>node3&#45;&gt;node48</title>
<path fill="none" stroke="black" d="M951.02,-173.59C916.63,-186.09 855.96,-206.85 814.81,-220.22"/>
<polygon fill="black" stroke="black" points="813.91,-216.84 805.47,-223.24 816.06,-223.5 813.91,-216.84"/>
</g>
<!-- node10 -->
<g id="node49" class="node">
<title>node10</title>
<ellipse fill="none" stroke="black" cx="1142.04" cy="-18" rx="38.04" ry="18"/>
<text text-anchor="middle" x="1142.04" y="-12.95" font-family="Times,serif" font-size="14.00">node10</text>
</g>
<!-- node3&#45;&gt;node10 -->
<g id="edge75" class="edge">
<title>node3&#45;&gt;node10</title>
<path fill="none" stroke="black" d="M1010.51,-159.16C1105.75,-153.9 1372.2,-137.23 1398.04,-108 1408.64,-96.01 1408.19,-84.37 1398.04,-72 1394.64,-67.85 1260.4,-42.5 1187.62,-28.41"/>
<polygon fill="black" stroke="black" points="1188.47,-25.01 1177.98,-26.54 1187.13,-31.88 1188.47,-25.01"/>
</g>
<!-- node20 -->
<g id="node50" class="node">
<title>node20</title>
<ellipse fill="none" stroke="black" cx="1287.04" cy="-18" rx="38.04" ry="18"/>
<text text-anchor="middle" x="1287.04" y="-12.95" font-family="Times,serif" font-size="14.00">node20</text>
</g>
<!-- node3&#45;&gt;node20 -->
<g id="edge77" class="edge">
<title>node3&#45;&gt;node20</title>
<path fill="none" stroke="black" d="M1009.9,-158.06C1111.09,-149.41 1411.07,-123.69 1425.04,-108 1435.69,-96.05 1434.24,-85.09 1425.04,-72 1413.53,-55.6 1366.36,-40.48 1330.24,-30.62"/>
<polygon fill="black" stroke="black" points="1331.47,-27.33 1320.9,-28.13 1329.66,-34.09 1331.47,-27.33"/>
</g>
<!-- node35 -->
<g id="node7" class="node">
<title>node35</title>
<ellipse fill="none" stroke="black" cx="338.04" cy="-18" rx="38.04" ry="18"/>
<text text-anchor="middle" x="338.04" y="-12.95" font-family="Times,serif" font-size="14.00">node35</text>
</g>
<!-- node16 -->
<g id="node8" class="node">
<title>node16</title>
<ellipse fill="none" stroke="black" cx="220.04" cy="-162" rx="38.04" ry="18"/>
<text text-anchor="middle" x="220.04" y="-156.95" font-family="Times,serif" font-size="14.00">node16</text>
</g>
<!-- node35&#45;&gt;node16 -->
<g id="edge5" class="edge">
<title>node35&#45;&gt;node16</title>
<path fill="none" stroke="black" d="M304.19,-26.71C263.81,-35.8 200.36,-52.21 186.04,-72 171.67,-91.86 186.73,-117.27 201.29,-135.85"/>
<polygon fill="black" stroke="black" points="198.47,-137.94 207.52,-143.46 203.89,-133.5 198.47,-137.94"/>
</g>
<!-- node16&#45;&gt;node35 -->
<g id="edge32" class="edge">
<title>node16&#45;&gt;node35</title>
<path fill="none" stroke="black" d="M198.07,-146.9C176.7,-128.61 150.54,-96.19 168.04,-72 182.36,-52.22 245.76,-35.81 291.05,-26.72"/>
<polygon fill="black" stroke="black" points="291.5,-30.2 300.65,-24.86 290.16,-23.33 291.5,-30.2"/>
</g>
<!-- node50 -->
<g id="node30" class="node">
<title>node50</title>
<ellipse fill="none" stroke="black" cx="190.04" cy="-234" rx="38.04" ry="18"/>
<text text-anchor="middle" x="190.04" y="-228.95" font-family="Times,serif" font-size="14.00">node50</text>
</g>
<!-- node16&#45;&gt;node50 -->
<g id="edge33" class="edge">
<title>node16&#45;&gt;node50</title>
<path fill="none" stroke="black" d="M218.6,-180.12C216.03,-188.06 212.13,-197.68 207.96,-206.53"/>
<polygon fill="black" stroke="black" points="204.86,-204.91 203.48,-215.41 211.11,-208.06 204.86,-204.91"/>
</g>
<!-- node15 -->
<g id="node36" class="node">
<title>node15</title>
<ellipse fill="none" stroke="black" cx="224.04" cy="-90" rx="38.04" ry="18"/>
<text text-anchor="middle" x="224.04" y="-84.95" font-family="Times,serif" font-size="14.00">node15</text>
</g>
<!-- node16&#45;&gt;node15 -->
<g id="edge30" class="edge">
<title>node16&#45;&gt;node15</title>
<path fill="none" stroke="black" d="M215.12,-143.7C214.78,-136.32 215.04,-127.52 215.79,-119.25"/>
<polygon fill="black" stroke="black" points="219.23,-119.96 216.99,-109.61 212.28,-119.1 219.23,-119.96"/>
</g>
<!-- node33 -->
<g id="node37" class="node">
<title>node33</title>
<ellipse fill="none" stroke="black" cx="318.04" cy="-90" rx="38.04" ry="18"/>
<text text-anchor="middle" x="318.04" y="-84.95" font-family="Times,serif" font-size="14.00">node33</text>
</g>
<!-- node16&#45;&gt;node33 -->
<g id="edge31" class="edge">
<title>node16&#45;&gt;node33</title>
<path fill="none" stroke="black" d="M236.07,-145.46C249.28,-135.16 268.19,-121.56 284.58,-110.53"/>
<polygon fill="black" stroke="black" points="286.22,-113.64 292.62,-105.21 282.35,-107.8 286.22,-113.64"/>
</g>
<!-- node19&#45;&gt;node13 -->
<g id="edge6" class="edge">
<title>node19&#45;&gt;node13</title>
<path fill="none" stroke="black" d="M167.37,-395.14C172.36,-402.92 177.68,-412.47 182.05,-421.35"/>
<polygon fill="black" stroke="black" points="178.82,-422.71 186.18,-430.32 185.17,-419.78 178.82,-422.71"/>
</g>
<!-- node6 -->
<g id="node10" class="node">
<title>node6</title>
<ellipse fill="none" stroke="black" cx="279.04" cy="-522" rx="33.44" ry="18"/>
<text text-anchor="middle" x="279.04" y="-516.95" font-family="Times,serif" font-size="14.00">node6</text>
</g>
<!-- node14 -->
<g id="node11" class="node">
<title>node14</title>
<ellipse fill="none" stroke="black" cx="38.04" cy="-162" rx="38.04" ry="18"/>
<text text-anchor="middle" x="38.04" y="-156.95" font-family="Times,serif" font-size="14.00">node14</text>
</g>
<!-- node49 -->
<g id="node12" class="node">
<title>node49</title>
<ellipse fill="none" stroke="black" cx="66.04" cy="-234" rx="38.04" ry="18"/>
<text text-anchor="middle" x="66.04" y="-228.95" font-family="Times,serif" font-size="14.00">node49</text>
</g>
<!-- node14&#45;&gt;node49 -->
<g id="edge7" class="edge">
<title>node14&#45;&gt;node49</title>
<path fill="none" stroke="black" d="M50.29,-179.14C54.24,-186.84 58.29,-196.26 61.49,-205.06"/>
<polygon fill="black" stroke="black" points="58.08,-205.88 64.56,-214.26 64.72,-203.67 58.08,-205.88"/>
</g>
<!-- node49&#45;&gt;node14 -->
<g id="edge13" class="edge">
<title>node49&#45;&gt;node14</title>
<path fill="none" stroke="black" d="M53.75,-216.76C49.79,-209.04 45.74,-199.59 42.53,-190.77"/>
<polygon fill="black" stroke="black" points="45.95,-189.95 39.47,-181.56 39.3,-192.15 45.95,-189.95"/>
</g>
<!-- node27 -->
<g id="node15" class="node">
<title>node27</title>
<ellipse fill="none" stroke="black" cx="184.04" cy="-18" rx="38.04" ry="18"/>
<text text-anchor="middle" x="184.04" y="-12.95" font-family="Times,serif" font-size="14.00">node27</text>
</g>
<!-- node49&#45;&gt;node27 -->
<g id="edge11" class="edge">
<title>node49&#45;&gt;node27</title>
<path fill="none" stroke="black" d="M71.62,-215.85C88.7,-178.4 137.69,-89.13 165.21,-44.83"/>
<polygon fill="black" stroke="black" points="168.02,-46.95 170.42,-36.63 162.11,-43.2 168.02,-46.95"/>
</g>
<!-- node1 -->
<g id="node16" class="node">
<title>node1</title>
<ellipse fill="none" stroke="black" cx="406.04" cy="-306" rx="33.44" ry="18"/>
<text text-anchor="middle" x="406.04" y="-300.95" font-family="Times,serif" font-size="14.00">node1</text>
</g>
<!-- node49&#45;&gt;node1 -->
<g id="edge12" class="edge">
<title>node49&#45;&gt;node1</title>
<path fill="none" stroke="black" d="M101.03,-241.32C116.79,-244.68 135.38,-248.77 152.04,-252 247.59,-270.5 273.89,-263.35 368.04,-288 369.41,-288.36 370.8,-288.74 372.19,-289.14"/>
<polygon fill="black" stroke="black" points="370.79,-292.37 381.38,-292.05 372.9,-285.7 370.79,-292.37"/>
</g>
<!-- node46&#45;&gt;node13 -->
<g id="edge8" class="edge">
<title>node46&#45;&gt;node13</title>
<path fill="none" stroke="black" d="M219.24,-324.27C217.02,-348.39 208.62,-392.45 201.01,-421.22"/>
<polygon fill="black" stroke="black" points="197.68,-420.12 198.33,-430.7 204.42,-422.02 197.68,-420.12"/>
</g>
<!-- node29&#45;&gt;node3 -->
<g id="edge10" class="edge">
<title>node29&#45;&gt;node3</title>
<path fill="none" stroke="black" d="M1061.52,-106.41C1047.34,-117.12 1026.78,-131.44 1009.42,-142.73"/>
<polygon fill="black" stroke="black" points="1007.98,-139.5 1001.44,-147.83 1011.75,-145.4 1007.98,-139.5"/>
</g>
<!-- node27&#45;&gt;node49 -->
<g id="edge82" class="edge">
<title>node27&#45;&gt;node49</title>
<path fill="none" stroke="black" d="M178.49,-36.09C161.46,-73.47 112.5,-162.71 84.94,-207.06"/>
<polygon fill="black" stroke="black" points="82.13,-204.97 79.73,-215.28 88.04,-208.71 82.13,-204.97"/>
</g>
<!-- node1&#45;&gt;node49 -->
<g id="edge73" class="edge">
<title>node1&#45;&gt;node49</title>
<path fill="none" stroke="black" d="M377.35,-296.73C368.53,-293.64 358.94,-290.33 350.04,-288 255.89,-263.35 229.59,-270.5 134.04,-252 125.82,-250.41 117.13,-248.61 108.79,-246.78"/>
<polygon fill="black" stroke="black" points="109.7,-243.4 99.18,-244.64 108.18,-250.23 109.7,-243.4"/>
</g>
<!-- node1&#45;&gt;node50 -->
<g id="edge69" class="edge">
<title>node1&#45;&gt;node50</title>
<path fill="none" stroke="black" d="M376.41,-297.1C367.77,-294.17 358.51,-290.86 350.04,-288 309.39,-274.28 262.84,-259.77 230.36,-249.41"/>
<polygon fill="black" stroke="black" points="231.52,-246.1 220.93,-246.38 229.39,-252.77 231.52,-246.1"/>
</g>
<!-- node44 -->
<g id="node33" class="node">
<title>node44</title>
<ellipse fill="none" stroke="black" cx="473.04" cy="-234" rx="38.04" ry="18"/>
<text text-anchor="middle" x="473.04" y="-228.95" font-family="Times,serif" font-size="14.00">node44</text>
</g>
<!-- node1&#45;&gt;node44 -->
<g id="edge70" class="edge">
<title>node1&#45;&gt;node44</title>
<path fill="none" stroke="black" d="M416.08,-288.41C423.93,-279.16 434.91,-267.51 445.21,-257.45"/>
<polygon fill="black" stroke="black" points="447.32,-260.28 452.15,-250.85 442.49,-255.2 447.32,-260.28"/>
</g>
<!-- node1&#45;&gt;node47 -->
<g id="edge71" class="edge">
<title>node1&#45;&gt;node47</title>
<path fill="none" stroke="black" d="M428.57,-319.78C442.78,-329.32 460.97,-342.61 475.52,-353.98"/>
<polygon fill="black" stroke="black" points="473.29,-356.68 483.29,-360.17 477.65,-351.2 473.29,-356.68"/>
</g>
<!-- node1&#45;&gt;node48 -->
<g id="edge72" class="edge">
<title>node1&#45;&gt;node48</title>
<path fill="none" stroke="black" d="M428.11,-292.12C432.35,-290.59 436.78,-289.16 441.04,-288 539.28,-261.24 658.27,-245.93 723.59,-239.19"/>
<polygon fill="black" stroke="black" points="723.65,-242.7 733.25,-238.21 722.95,-235.73 723.65,-242.7"/>
</g>
<!-- node11 -->
<g id="node17" class="node">
<title>node11</title>
<ellipse fill="none" stroke="black" cx="412.04" cy="-90" rx="38.04" ry="18"/>
<text text-anchor="middle" x="412.04" y="-84.95" font-family="Times,serif" font-size="14.00">node11</text>
</g>
<!-- node17 -->
<g id="node18" class="node">
<title>node17</title>
<ellipse fill="none" stroke="black" cx="361.04" cy="-162" rx="38.04" ry="18"/>
<text text-anchor="middle" x="361.04" y="-156.95" font-family="Times,serif" font-size="14.00">node17</text>
</g>
<!-- node11&#45;&gt;node17 -->
<g id="edge14" class="edge">
<title>node11&#45;&gt;node17</title>
<path fill="none" stroke="black" d="M405.57,-107.96C400.17,-116.62 392.58,-127.31 385.12,-136.82"/>
<polygon fill="black" stroke="black" points="382.63,-134.32 379.04,-144.29 388.06,-138.74 382.63,-134.32"/>
</g>
<!-- node17&#45;&gt;node11 -->
<g id="edge37" class="edge">
<title>node17&#45;&gt;node11</title>
<path fill="none" stroke="black" d="M367.51,-144.05C372.93,-135.35 380.58,-124.59 388.09,-115.03"/>
<polygon fill="black" stroke="black" points="390.6,-117.49 394.2,-107.53 385.17,-113.07 390.6,-117.49"/>
</g>
<!-- node5 -->
<g id="node24" class="node">
<title>node5</title>
<ellipse fill="none" stroke="black" cx="457.04" cy="-18" rx="33.44" ry="18"/>
<text text-anchor="middle" x="457.04" y="-12.95" font-family="Times,serif" font-size="14.00">node5</text>
</g>
<!-- node17&#45;&gt;node5 -->
<g id="edge38" class="edge">
<title>node17&#45;&gt;node5</title>
<path fill="none" stroke="black" d="M391.72,-150.82C412.1,-142.93 437.17,-129.6 450.04,-108 460.75,-90.03 459.58,-66.18 457.43,-47.7"/>
<polygon fill="black" stroke="black" points="460.92,-47.41 456.17,-37.94 453.97,-48.3 460.92,-47.41"/>
</g>
<!-- node17&#45;&gt;node50 -->
<g id="edge41" class="edge">
<title>node17&#45;&gt;node50</title>
<path fill="none" stroke="black" d="M335.25,-175.75C307.48,-187.85 263.18,-206.01 230.74,-218.62"/>
<polygon fill="black" stroke="black" points="229.72,-215.27 221.64,-222.13 232.23,-221.8 229.72,-215.27"/>
</g>
<!-- node28 -->
<g id="node41" class="node">
<title>node28</title>
<ellipse fill="none" stroke="black" cx="562.04" cy="-90" rx="38.04" ry="18"/>
<text text-anchor="middle" x="562.04" y="-84.95" font-family="Times,serif" font-size="14.00">node28</text>
</g>
<!-- node17&#45;&gt;node28 -->
<g id="edge39" class="edge">
<title>node17&#45;&gt;node28</title>
<path fill="none" stroke="black" d="M389.07,-149.44C423.03,-136.9 480.29,-116.94 519.64,-103.9"/>
<polygon fill="black" stroke="black" points="520.63,-107.26 529.04,-100.81 518.44,-100.61 520.63,-107.26"/>
</g>
<!-- node43 -->
<g id="node42" class="node">
<title>node43</title>
<ellipse fill="none" stroke="black" cx="656.04" cy="-90" rx="38.04" ry="18"/>
<text text-anchor="middle" x="656.04" y="-84.95" font-family="Times,serif" font-size="14.00">node43</text>
</g>
<!-- node17&#45;&gt;node43 -->
<g id="edge40" class="edge">
<title>node17&#45;&gt;node43</title>
<path fill="none" stroke="black" d="M395.48,-154.05C442.34,-145.21 528.09,-128.6 600.04,-108 604.29,-106.79 608.7,-105.38 613.12,-103.91"/>
<polygon fill="black" stroke="black" points="614.25,-107.23 622.58,-100.69 611.99,-100.6 614.25,-107.23"/>
</g>
<!-- node21 -->
<g id="node19" class="node">
<title>node21</title>
<ellipse fill="none" stroke="black" cx="312.04" cy="-306" rx="38.04" ry="18"/>
<text text-anchor="middle" x="312.04" y="-300.95" font-family="Times,serif" font-size="14.00">node21</text>
</g>
<!-- node21&#45;&gt;node22 -->
<g id="edge15" class="edge">
<title>node21&#45;&gt;node22</title>
<path fill="none" stroke="black" d="M317.96,-324.28C318.71,-331.6 318.96,-340.34 318.69,-348.57"/>
<polygon fill="black" stroke="black" points="315.2,-348.33 318.02,-358.54 322.18,-348.8 315.2,-348.33"/>
</g>
<!-- node22&#45;&gt;node13 -->
<g id="edge53" class="edge">
<title>node22&#45;&gt;node13</title>
<path fill="none" stroke="black" d="M292.01,-393.72C274.24,-404.71 248.09,-419.78 226.65,-431.41"/>
<polygon fill="black" stroke="black" points="225.06,-428.29 217.9,-436.09 228.36,-434.46 225.06,-428.29"/>
</g>
<!-- node22&#45;&gt;node21 -->
<g id="edge52" class="edge">
<title>node22&#45;&gt;node21</title>
<path fill="none" stroke="black" d="M306.17,-360.05C305.38,-352.68 305.13,-343.84 305.4,-335.51"/>
<polygon fill="black" stroke="black" points="308.87,-335.99 306.03,-325.79 301.89,-335.54 308.87,-335.99"/>
</g>
<!-- node42 -->
<g id="node21" class="node">
<title>node42</title>
<ellipse fill="none" stroke="black" cx="1407.04" cy="-18" rx="38.04" ry="18"/>
<text text-anchor="middle" x="1407.04" y="-12.95" font-family="Times,serif" font-size="14.00">node42</text>
</g>
<!-- node32 -->
<g id="node22" class="node">
<title>node32</title>
<ellipse fill="none" stroke="black" cx="497.04" cy="-306" rx="38.04" ry="18"/>
<text text-anchor="middle" x="497.04" y="-300.95" font-family="Times,serif" font-size="14.00">node32</text>
</g>
<!-- node42&#45;&gt;node32 -->
<g id="edge16" class="edge">
<title>node42&#45;&gt;node32</title>
<path fill="none" stroke="black" d="M1431.03,-32.06C1456.57,-50.04 1490.04,-83.03 1470.04,-108 1447.2,-136.54 864.03,-245.57 828.04,-252 709.3,-273.22 676.71,-261.48 559.04,-288 552.88,-289.39 546.42,-291.18 540.05,-293.07"/>
<polygon fill="black" stroke="black" points="539.48,-289.58 530.95,-295.86 541.53,-296.27 539.48,-289.58"/>
</g>
<!-- node32&#45;&gt;node42 -->
<g id="edge44" class="edge">
<title>node32&#45;&gt;node42</title>
<path fill="none" stroke="black" d="M523.56,-292.69C529.28,-290.94 535.29,-289.3 541.04,-288 658.71,-261.48 691.3,-273.22 810.04,-252 846.03,-245.57 1429.2,-136.54 1452.04,-108 1468.5,-87.45 1448.74,-61.46 1430.31,-42.88"/>
<polygon fill="black" stroke="black" points="1432.78,-40.41 1423.16,-35.97 1427.91,-45.44 1432.78,-40.41"/>
</g>
<!-- node38 -->
<g id="node27" class="node">
<title>node38</title>
<ellipse fill="none" stroke="black" cx="1514.04" cy="-18" rx="38.04" ry="18"/>
<text text-anchor="middle" x="1514.04" y="-12.95" font-family="Times,serif" font-size="14.00">node38</text>
</g>
<!-- node32&#45;&gt;node38 -->
<g id="edge43" class="edge">
<title>node32&#45;&gt;node38</title>
<path fill="none" stroke="black" d="M523.24,-292.58C529.04,-290.82 535.17,-289.2 541.04,-288 709.41,-253.55 756.05,-277.21 926.04,-252 1084.43,-228.51 1124.91,-223.35 1279.04,-180 1369.59,-154.53 1413.31,-176.23 1478.04,-108 1493.6,-91.61 1500.21,-66.54 1504.49,-47.18"/>
<polygon fill="black" stroke="black" points="1507.9,-47.98 1506.59,-37.47 1501.05,-46.51 1507.9,-47.98"/>
</g>
<!-- node31 -->
<g id="node28" class="node">
<title>node31</title>
<ellipse fill="none" stroke="black" cx="1428.04" cy="-234" rx="38.04" ry="18"/>
<text text-anchor="middle" x="1428.04" y="-228.95" font-family="Times,serif" font-size="14.00">node31</text>
</g>
<!-- node32&#45;&gt;node31 -->
<g id="edge42" class="edge">
<title>node32&#45;&gt;node31</title>
<path fill="none" stroke="black" d="M522.92,-292.44C528.8,-290.67 535.05,-289.09 541.04,-288 858.89,-230.17 945.03,-277.97 1267.04,-252 1304.76,-248.96 1347.59,-244.04 1379.7,-240.27"/>
<polygon fill="black" stroke="black" points="1379.99,-243.76 1389.51,-239.11 1379.17,-236.81 1379.99,-243.76"/>
</g>
<!-- node32&#45;&gt;node47 -->
<g id="edge45" class="edge">
<title>node32&#45;&gt;node47</title>
<path fill="none" stroke="black" d="M503.67,-324.1C504.75,-331.37 505.37,-340.04 505.47,-348.24"/>
<polygon fill="black" stroke="black" points="501.97,-348.11 505.25,-358.18 508.97,-348.26 501.97,-348.11"/>
</g>
<!-- node4 -->
<g id="node23" class="node">
<title>node4</title>
<ellipse fill="none" stroke="black" cx="364.04" cy="-522" rx="33.44" ry="18"/>
<text text-anchor="middle" x="364.04" y="-516.95" font-family="Times,serif" font-size="14.00">node4</text>
</g>
<!-- node5&#45;&gt;node17 -->
<g id="edge18" class="edge">
<title>node5&#45;&gt;node17</title>
<path fill="none" stroke="black" d="M468.62,-35.08C476.26,-53.96 481.42,-85.56 468.04,-108 455.11,-129.7 429.86,-143.06 407.03,-150.93"/>
<polygon fill="black" stroke="black" points="406.02,-147.58 397.53,-153.92 408.12,-154.26 406.02,-147.58"/>
</g>
<!-- node39&#45;&gt;node3 -->
<g id="edge19" class="edge">
<title>node39&#45;&gt;node3</title>
<path fill="none" stroke="black" d="M1146.08,-103.64C1142.06,-105.11 1137.96,-106.59 1134.04,-108 1094.53,-122.22 1049.06,-138.49 1017.1,-149.21"/>
<polygon fill="black" stroke="black" points="1016.22,-145.82 1007.83,-152.28 1018.42,-152.46 1016.22,-145.82"/>
</g>
<!-- node23&#45;&gt;node13 -->
<g id="edge20" class="edge">
<title>node23&#45;&gt;node13</title>
<path fill="none" stroke="black" d="M380.39,-391.7C376.28,-393.18 372.07,-394.64 368.04,-396 322.89,-411.24 270.48,-427.45 234.14,-437.87"/>
<polygon fill="black" stroke="black" points="233.53,-434.41 224.86,-440.5 235.44,-441.14 233.53,-434.41"/>
</g>
<!-- node38&#45;&gt;node32 -->
<g id="edge21" class="edge">
<title>node38&#45;&gt;node32</title>
<path fill="none" stroke="black" d="M1519.73,-35.99C1520.58,-55.76 1514.83,-88.2 1496.04,-108 1431.31,-176.23 1387.59,-154.53 1297.04,-180 1142.91,-223.35 1102.43,-228.51 944.04,-252 774.05,-277.21 727.41,-253.55 559.04,-288 552.86,-289.27 546.38,-290.99 540,-292.86"/>
<polygon fill="black" stroke="black" points="539.44,-289.38 530.9,-295.65 541.49,-296.07 539.44,-289.38"/>
</g>
<!-- node31&#45;&gt;node32 -->
<g id="edge23" class="edge">
<title>node31&#45;&gt;node32</title>
<path fill="none" stroke="black" d="M1392.12,-240.59C1363.18,-244.31 1321.7,-249.04 1285.04,-252 963.03,-277.97 876.89,-230.17 559.04,-288 552.77,-289.14 546.21,-290.82 539.77,-292.69"/>
<polygon fill="black" stroke="black" points="539.11,-289.23 530.58,-295.51 541.16,-295.93 539.11,-289.23"/>
</g>
<!-- node24 -->
<g id="node29" class="node">
<title>node24</title>
<ellipse fill="none" stroke="black" cx="1529.04" cy="-162" rx="38.04" ry="18"/>
<text text-anchor="middle" x="1529.04" y="-156.95" font-family="Times,serif" font-size="14.00">node24</text>
</g>
<!-- node31&#45;&gt;node24 -->
<g id="edge22" class="edge">
<title>node31&#45;&gt;node24</title>
<path fill="none" stroke="black" d="M1444.74,-217.46C1458.47,-207.09 1478.13,-193.38 1495.08,-182.31"/>
<polygon fill="black" stroke="black" points="1496.88,-185.31 1503.4,-176.96 1493.1,-179.42 1496.88,-185.31"/>
</g>
<!-- node24&#45;&gt;node31 -->
<g id="edge85" class="edge">
<title>node24&#45;&gt;node31</title>
<path fill="none" stroke="black" d="M1512.33,-178.55C1498.6,-188.91 1478.97,-202.61 1462.04,-213.67"/>
<polygon fill="black" stroke="black" points="1460.25,-210.66 1453.73,-219.02 1464.03,-216.55 1460.25,-210.66"/>
</g>
<!-- node50&#45;&gt;node16 -->
<g id="edge25" class="edge">
<title>node50&#45;&gt;node16</title>
<path fill="none" stroke="black" d="M191.54,-215.7C194.13,-207.75 198.03,-198.16 202.19,-189.34"/>
<polygon fill="black" stroke="black" points="205.28,-191 206.65,-180.5 199.03,-187.85 205.28,-191"/>
</g>
<!-- node50&#45;&gt;node1 -->
<g id="edge24" class="edge">
<title>node50&#45;&gt;node1</title>
<path fill="none" stroke="black" d="M223.41,-243.09C259.56,-253.19 318.22,-271.19 368.04,-288 369.2,-288.39 370.36,-288.79 371.53,-289.19"/>
<polygon fill="black" stroke="black" points="370.12,-292.4 380.72,-292.43 372.45,-285.8 370.12,-292.4"/>
</g>
<!-- node50&#45;&gt;node17 -->
<g id="edge26" class="edge">
<title>node50&#45;&gt;node17</title>
<path fill="none" stroke="black" d="M215.67,-220.32C243.45,-208.22 287.88,-190 320.39,-177.36"/>
<polygon fill="black" stroke="black" points="321.43,-180.71 329.51,-173.85 318.92,-174.18 321.43,-180.71"/>
</g>
<!-- node36 -->
<g id="node31" class="node">
<title>node36</title>
<ellipse fill="none" stroke="black" cx="638.04" cy="-18" rx="38.04" ry="18"/>
<text text-anchor="middle" x="638.04" y="-12.95" font-family="Times,serif" font-size="14.00">node36</text>
</g>
<!-- node50&#45;&gt;node36 -->
<g id="edge27" class="edge">
<title>node50&#45;&gt;node36</title>
<path fill="none" stroke="black" d="M223.51,-225.23C333.84,-200.98 678.97,-127.2 694.04,-108 703.93,-95.42 700.91,-86.45 694.04,-72 688.05,-59.39 677.43,-48.78 666.96,-40.46"/>
<polygon fill="black" stroke="black" points="669.24,-37.79 659.13,-34.64 665.06,-43.41 669.24,-37.79"/>
</g>
<!-- node36&#45;&gt;node50 -->
<g id="edge55" class="edge">
<title>node36&#45;&gt;node50</title>
<path fill="none" stroke="black" d="M667.07,-29.87C683.88,-38.86 703.11,-53.19 712.04,-72 718.91,-86.45 721.93,-95.42 712.04,-108 697.17,-126.94 360.9,-199.04 236.04,-224.24"/>
<polygon fill="black" stroke="black" points="235.58,-220.77 226.46,-226.17 236.96,-227.63 235.58,-220.77"/>
</g>
<!-- node30 -->
<g id="node32" class="node">
<title>node30</title>
<ellipse fill="none" stroke="black" cx="662.04" cy="-162" rx="38.04" ry="18"/>
<text text-anchor="middle" x="662.04" y="-156.95" font-family="Times,serif" font-size="14.00">node30</text>
</g>
<!-- node30&#45;&gt;node44 -->
<g id="edge28" class="edge">
<title>node30&#45;&gt;node44</title>
<path fill="none" stroke="black" d="M634.9,-174.99C603.46,-187.36 551.6,-206.59 515,-219.48"/>
<polygon fill="black" stroke="black" points="513.88,-216.17 505.6,-222.77 516.19,-222.77 513.88,-216.17"/>
</g>
<!-- node44&#45;&gt;node1 -->
<g id="edge90" class="edge">
<title>node44&#45;&gt;node1</title>
<path fill="none" stroke="black" d="M462.99,-251.61C455,-261.03 443.75,-272.94 433.29,-283.12"/>
<polygon fill="black" stroke="black" points="431.1,-280.38 426.25,-289.79 435.92,-285.46 431.1,-280.38"/>
</g>
<!-- node44&#45;&gt;node30 -->
<g id="edge91" class="edge">
<title>node44&#45;&gt;node30</title>
<path fill="none" stroke="black" d="M500.29,-220.97C531.74,-208.6 583.53,-189.39 620.09,-176.52"/>
<polygon fill="black" stroke="black" points="621.2,-179.84 629.48,-173.24 618.89,-173.23 621.2,-179.84"/>
</g>
<!-- node7 -->
<g id="node38" class="node">
<title>node7</title>
<ellipse fill="none" stroke="black" cx="776.04" cy="-162" rx="33.44" ry="18"/>
<text text-anchor="middle" x="776.04" y="-156.95" font-family="Times,serif" font-size="14.00">node7</text>
</g>
<!-- node44&#45;&gt;node7 -->
<g id="edge89" class="edge">
<title>node44&#45;&gt;node7</title>
<path fill="none" stroke="black" d="M505.96,-224.52C550.28,-214.32 631.02,-196.5 700.04,-180 710.87,-177.41 722.65,-174.47 733.7,-171.76"/>
<polygon fill="black" stroke="black" points="734.51,-175.17 743.4,-169.41 732.86,-168.36 734.51,-175.17"/>
</g>
<!-- node41 -->
<g id="node47" class="node">
<title>node41</title>
<ellipse fill="none" stroke="black" cx="880.04" cy="-162" rx="38.04" ry="18"/>
<text text-anchor="middle" x="880.04" y="-156.95" font-family="Times,serif" font-size="14.00">node41</text>
</g>
<!-- node44&#45;&gt;node41 -->
<g id="edge88" class="edge">
<title>node44&#45;&gt;node41</title>
<path fill="none" stroke="black" d="M509.54,-228.1C571.6,-220.17 700.88,-203.06 809.04,-180 817.56,-178.18 826.65,-175.9 835.42,-173.59"/>
<polygon fill="black" stroke="black" points="836.07,-177.04 844.84,-171.09 834.27,-170.27 836.07,-177.04"/>
</g>
<!-- node2 -->
<g id="node34" class="node">
<title>node2</title>
<ellipse fill="none" stroke="black" cx="449.04" cy="-522" rx="33.44" ry="18"/>
<text text-anchor="middle" x="449.04" y="-516.95" font-family="Times,serif" font-size="14.00">node2</text>
</g>
<!-- node18&#45;&gt;node3 -->
<g id="edge29" class="edge">
<title>node18&#45;&gt;node3</title>
<path fill="none" stroke="black" d="M1241,-103.88C1236.72,-105.36 1232.3,-106.77 1228.04,-108 1156.36,-128.72 1070.7,-145.69 1020.12,-154.49"/>
<polygon fill="black" stroke="black" points="1019.72,-151 1010.45,-156.14 1020.9,-157.9 1019.72,-151"/>
</g>
<!-- node15&#45;&gt;node16 -->
<g id="edge56" class="edge">
<title>node15&#45;&gt;node16</title>
<path fill="none" stroke="black" d="M228.97,-108.28C229.31,-115.69 229.05,-124.54 228.29,-132.86"/>
<polygon fill="black" stroke="black" points="224.84,-132.2 227.08,-142.55 231.79,-133.06 224.84,-132.2"/>
</g>
<!-- node33&#45;&gt;node16 -->
<g id="edge86" class="edge">
<title>node33&#45;&gt;node16</title>
<path fill="none" stroke="black" d="M301.77,-106.73C288.55,-117.03 269.72,-130.57 253.4,-141.55"/>
<polygon fill="black" stroke="black" points="251.81,-138.4 245.41,-146.83 255.68,-144.24 251.81,-138.4"/>
</g>
<!-- node7&#45;&gt;node44 -->
<g id="edge35" class="edge">
<title>node7&#45;&gt;node44</title>
<path fill="none" stroke="black" d="M748.25,-172.45C738.68,-174.96 727.97,-177.63 718.04,-180 649.27,-196.44 568.87,-214.19 519.33,-224.4"/>
<polygon fill="black" stroke="black" points="518.91,-220.92 509.81,-226.35 520.31,-227.77 518.91,-220.92"/>
</g>
<!-- node25 -->
<g id="node39" class="node">
<title>node25</title>
<ellipse fill="none" stroke="black" cx="806.04" cy="-90" rx="38.04" ry="18"/>
<text text-anchor="middle" x="806.04" y="-84.95" font-family="Times,serif" font-size="14.00">node25</text>
</g>
<!-- node7&#45;&gt;node25 -->
<g id="edge34" class="edge">
<title>node7&#45;&gt;node25</title>
<path fill="none" stroke="black" d="M777.54,-143.7C780.13,-135.75 784.03,-126.16 788.19,-117.34"/>
<polygon fill="black" stroke="black" points="791.28,-119 792.65,-108.5 785.03,-115.85 791.28,-119"/>
</g>
<!-- node45 -->
<g id="node40" class="node">
<title>node45</title>
<ellipse fill="none" stroke="black" cx="900.04" cy="-90" rx="38.04" ry="18"/>
<text text-anchor="middle" x="900.04" y="-84.95" font-family="Times,serif" font-size="14.00">node45</text>
</g>
<!-- node7&#45;&gt;node45 -->
<g id="edge36" class="edge">
<title>node7&#45;&gt;node45</title>
<path fill="none" stroke="black" d="M795.31,-147C813.48,-135.91 840.9,-120.36 863.2,-108.45"/>
<polygon fill="black" stroke="black" points="864.79,-111.57 872.01,-103.81 861.53,-105.37 864.79,-111.57"/>
</g>
<!-- node25&#45;&gt;node7 -->
<g id="edge46" class="edge">
<title>node25&#45;&gt;node7</title>
<path fill="none" stroke="black" d="M804.55,-108.29C801.94,-116.3 798,-125.99 793.8,-134.86"/>
<polygon fill="black" stroke="black" points="790.69,-133.26 789.3,-143.77 796.93,-136.42 790.69,-133.26"/>
</g>
<!-- node45&#45;&gt;node7 -->
<g id="edge57" class="edge">
<title>node45&#45;&gt;node7</title>
<path fill="none" stroke="black" d="M879.75,-105.63C861.1,-116.97 833.33,-132.68 811.14,-144.48"/>
<polygon fill="black" stroke="black" points="809.65,-141.31 802.42,-149.05 812.9,-147.51 809.65,-141.31"/>
</g>
<!-- node28&#45;&gt;node17 -->
<g id="edge54" class="edge">
<title>node28&#45;&gt;node17</title>
<path fill="none" stroke="black" d="M534.05,-102.55C500.06,-115.1 442.69,-135.1 403.33,-148.14"/>
<polygon fill="black" stroke="black" points="402.34,-144.78 393.93,-151.23 404.53,-151.43 402.34,-144.78"/>
</g>
<!-- node43&#45;&gt;node17 -->
<g id="edge83" class="edge">
<title>node43&#45;&gt;node17</title>
<path fill="none" stroke="black" d="M631.01,-103.9C626.72,-105.37 622.3,-106.78 618.04,-108 546.23,-128.56 460.67,-145.15 408.51,-154"/>
<polygon fill="black" stroke="black" points="408.05,-150.52 398.76,-155.62 409.2,-157.43 408.05,-150.52"/>
</g>
<!-- node47&#45;&gt;node13 -->
<g id="edge47" class="edge">
<title>node47&#45;&gt;node13</title>
<path fill="none" stroke="black" d="M475.02,-391.95C470.73,-393.41 466.31,-394.81 462.04,-396 384.79,-417.63 292.43,-434.15 237.52,-442.64"/>
<polygon fill="black" stroke="black" points="237.25,-439.14 227.89,-444.1 238.3,-446.06 237.25,-439.14"/>
</g>
<!-- node47&#45;&gt;node1 -->
<g id="edge49" class="edge">
<title>node47&#45;&gt;node1</title>
<path fill="none" stroke="black" d="M476.46,-363.5C462.17,-353.86 444.14,-340.65 429.82,-329.43"/>
<polygon fill="black" stroke="black" points="432.21,-326.86 422.21,-323.35 427.84,-332.33 432.21,-326.86"/>
</g>
<!-- node47&#45;&gt;node32 -->
<g id="edge48" class="edge">
<title>node47&#45;&gt;node32</title>
<path fill="none" stroke="black" d="M493.44,-360.05C492.34,-352.68 491.71,-343.84 491.62,-335.51"/>
<polygon fill="black" stroke="black" points="495.11,-335.86 491.84,-325.79 488.12,-335.71 495.11,-335.86"/>
</g>
<!-- node26&#45;&gt;node3 -->
<g id="edge50" class="edge">
<title>node26&#45;&gt;node3</title>
<path fill="none" stroke="black" d="M1335.32,-104.04C1330.95,-105.51 1326.41,-106.88 1322.04,-108 1216.3,-135.2 1088.03,-150.76 1021.54,-157.3"/>
<polygon fill="black" stroke="black" points="1021.38,-153.8 1011.76,-158.24 1022.05,-160.77 1021.38,-153.8"/>
</g>
<!-- node37&#45;&gt;node13 -->
<g id="edge51" class="edge">
<title>node37&#45;&gt;node13</title>
<path fill="none" stroke="black" d="M1619.12,-36.06C1621.73,-67.26 1615.64,-134.47 1585.04,-180 1554.3,-225.76 1536.19,-234.12 1484.04,-252 1392.74,-283.31 698.21,-237.33 616.04,-288 569.31,-316.82 601.19,-364.74 556.04,-396 506.12,-430.56 327.19,-443.17 239.28,-447.25"/>
<polygon fill="black" stroke="black" points="239.36,-443.75 229.53,-447.69 239.67,-450.74 239.36,-443.75"/>
</g>
<!-- node40&#45;&gt;node13 -->
<g id="edge87" class="edge">
<title>node40&#45;&gt;node13</title>
<path fill="none" stroke="black" d="M1708.67,-36.2C1694.82,-81.75 1637.22,-205.22 1543.04,-252 1306.34,-369.56 453.86,-432.28 239.28,-446.07"/>
<polygon fill="black" stroke="black" points="239.07,-442.57 229.31,-446.7 239.52,-449.56 239.07,-442.57"/>
</g>
<!-- node41&#45;&gt;node44 -->
<g id="edge66" class="edge">
<title>node41&#45;&gt;node44</title>
<path fill="none" stroke="black" d="M850.98,-174.13C843.25,-176.25 834.9,-178.32 827.04,-180 719.19,-202.99 590.35,-220.08 521.62,-228.03"/>
<polygon fill="black" stroke="black" points="521.35,-224.54 511.81,-229.15 522.15,-231.5 521.35,-224.54"/>
</g>
<!-- node48&#45;&gt;node3 -->
<g id="edge68" class="edge">
<title>node48&#45;&gt;node3</title>
<path fill="none" stroke="black" d="M800.3,-221.6C835.92,-208.71 897.06,-187.83 937.34,-174.78"/>
<polygon fill="black" stroke="black" points="938.22,-178.18 946.67,-171.79 936.08,-171.51 938.22,-178.18"/>
</g>
<!-- node48&#45;&gt;node1 -->
<g id="edge67" class="edge">
<title>node48&#45;&gt;node1</title>
<path fill="none" stroke="black" d="M735.15,-239.21C676,-245.97 557.17,-261.28 459.04,-288 454.51,-289.23 449.8,-290.77 445.12,-292.41"/>
<polygon fill="black" stroke="black" points="443.96,-289.1 435.76,-295.81 446.35,-295.68 443.96,-289.1"/>
</g>
<!-- node10&#45;&gt;node3 -->
<g id="edge92" class="edge">
<title>node10&#45;&gt;node3</title>
<path fill="none" stroke="black" d="M1177.88,-24.7C1251.47,-37.44 1412.31,-67.45 1416.04,-72 1426.19,-84.37 1426.64,-96.01 1416.04,-108 1390.44,-136.95 1128.75,-153.58 1021.93,-159.01"/>
<polygon fill="black" stroke="black" points="1021.91,-155.51 1012.1,-159.5 1022.26,-162.5 1021.91,-155.51"/>
</g>
<!-- node20&#45;&gt;node3 -->
<g id="edge84" class="edge">
<title>node20&#45;&gt;node3</title>
<path fill="none" stroke="black" d="M1322.13,-25.34C1363.89,-34.44 1429.2,-52.3 1443.04,-72 1452.24,-85.09 1453.69,-96.05 1443.04,-108 1429.22,-123.52 1135.79,-148.84 1021.71,-157.76"/>
<polygon fill="black" stroke="black" points="1021.5,-154.27 1011.8,-158.53 1022.05,-161.25 1021.5,-154.27"/>
</g>
</g>
</svg>
