<?xml version="1.0" encoding="UTF-8" standalone="no"?>
<!DOCTYPE svg PUBLIC "-//W3C//DTD SVG 1.1//EN"
 "http://www.w3.org/Graphics/SVG/1.1/DTD/svg11.dtd">
<!-- Generated by graphviz version 12.2.1 (20241206.2353)
 -->
<!-- Pages: 1 -->
<svg width="290pt" height="332pt"
 viewBox="0.00 0.00 289.88 332.00" xmlns="http://www.w3.org/2000/svg" xmlns:xlink="http://www.w3.org/1999/xlink">
<g id="graph0" class="graph" transform="scale(1 1) rotate(0) translate(4 328)">
<polygon fill="white" stroke="none" points="-4,4 -4,-328 285.88,-328 285.88,4 -4,4"/>
<!-- node6 -->
<g id="node1" class="node">
<title>node6</title>
<ellipse fill="none" stroke="black" cx="75.44" cy="-306" rx="33.44" ry="18"/>
<text text-anchor="middle" x="75.44" y="-300.95" font-family="Times,serif" font-size="14.00">node6</text>
</g>
<!-- node7 -->
<g id="node2" class="node">
<title>node7</title>
<ellipse fill="none" stroke="black" cx="75.44" cy="-234" rx="33.44" ry="18"/>
<text text-anchor="middle" x="75.44" y="-228.95" font-family="Times,serif" font-size="14.00">node7</text>
</g>
<!-- node6&#45;&gt;node7 -->
<g id="edge1" class="edge">
<title>node6&#45;&gt;node7</title>
<path fill="none" stroke="black" d="M69.56,-288.05C68.77,-280.57 68.51,-271.58 68.8,-263.14"/>
<polygon fill="black" stroke="black" points="72.29,-263.51 69.47,-253.3 65.3,-263.04 72.29,-263.51"/>
</g>
<!-- node7&#45;&gt;node6 -->
<g id="edge14" class="edge">
<title>node7&#45;&gt;node6</title>
<path fill="none" stroke="black" d="M81.3,-251.79C82.1,-259.25 82.36,-268.24 82.08,-276.69"/>
<polygon fill="black" stroke="black" points="78.59,-276.33 81.42,-286.54 85.58,-276.8 78.59,-276.33"/>
</g>
<!-- node8 -->
<g id="node3" class="node">
<title>node8</title>
<ellipse fill="none" stroke="black" cx="33.44" cy="-162" rx="33.44" ry="18"/>
<text text-anchor="middle" x="33.44" y="-156.95" font-family="Times,serif" font-size="14.00">node8</text>
</g>
<!-- node7&#45;&gt;node8 -->
<g id="edge13" class="edge">
<title>node7&#45;&gt;node8</title>
<path fill="none" stroke="black" d="M60.4,-217.46C54.59,-209.39 48.24,-199.28 43.03,-189.98"/>
<polygon fill="black" stroke="black" points="46.21,-188.5 38.44,-181.3 40.03,-191.78 46.21,-188.5"/>
</g>
<!-- node1 -->
<g id="node4" class="node">
<title>node1</title>
<ellipse fill="none" stroke="black" cx="118.44" cy="-162" rx="33.44" ry="18"/>
<text text-anchor="middle" x="118.44" y="-156.95" font-family="Times,serif" font-size="14.00">node1</text>
</g>
<!-- node7&#45;&gt;node1 -->
<g id="edge12" class="edge">
<title>node7&#45;&gt;node1</title>
<path fill="none" stroke="black" d="M80.15,-215.7C84.51,-207.16 90.74,-196.72 96.99,-187.4"/>
<polygon fill="black" stroke="black" points="99.69,-189.64 102.55,-179.44 93.95,-185.63 99.69,-189.64"/>
</g>
<!-- node8&#45;&gt;node7 -->
<g id="edge2" class="edge">
<title>node8&#45;&gt;node7</title>
<path fill="none" stroke="black" d="M48.24,-178.2C54.03,-186.22 60.39,-196.31 65.63,-205.64"/>
<polygon fill="black" stroke="black" points="62.48,-207.17 70.26,-214.36 68.66,-203.89 62.48,-207.17"/>
</g>
<!-- node1&#45;&gt;node7 -->
<g id="edge6" class="edge">
<title>node1&#45;&gt;node7</title>
<path fill="none" stroke="black" d="M113.81,-180.13C109.45,-188.68 103.19,-199.18 96.92,-208.57"/>
<polygon fill="black" stroke="black" points="94.18,-206.37 91.31,-216.57 99.92,-210.38 94.18,-206.37"/>
</g>
<!-- node9 -->
<g id="node5" class="node">
<title>node9</title>
<ellipse fill="none" stroke="black" cx="49.44" cy="-18" rx="33.44" ry="18"/>
<text text-anchor="middle" x="49.44" y="-12.95" font-family="Times,serif" font-size="14.00">node9</text>
</g>
<!-- node1&#45;&gt;node9 -->
<g id="edge3" class="edge">
<title>node1&#45;&gt;node9</title>
<path fill="none" stroke="black" d="M91.05,-151.33C73.37,-142.49 52.29,-127.78 42.44,-108 33,-89.05 33.09,-64.89 36.59,-46.53"/>
<polygon fill="black" stroke="black" points="39.98,-47.43 38.96,-36.88 33.18,-45.76 39.98,-47.43"/>
</g>
<!-- node3 -->
<g id="node6" class="node">
<title>node3</title>
<ellipse fill="none" stroke="black" cx="93.44" cy="-90" rx="33.44" ry="18"/>
<text text-anchor="middle" x="93.44" y="-84.95" font-family="Times,serif" font-size="14.00">node3</text>
</g>
<!-- node1&#45;&gt;node3 -->
<g id="edge4" class="edge">
<title>node1&#45;&gt;node3</title>
<path fill="none" stroke="black" d="M106.84,-144.76C103.25,-137.13 99.64,-127.79 96.83,-119.06"/>
<polygon fill="black" stroke="black" points="100.23,-118.21 94.08,-109.58 93.5,-120.16 100.23,-118.21"/>
</g>
<!-- node4 -->
<g id="node7" class="node">
<title>node4</title>
<ellipse fill="none" stroke="black" cx="181.44" cy="-90" rx="33.44" ry="18"/>
<text text-anchor="middle" x="181.44" y="-84.95" font-family="Times,serif" font-size="14.00">node4</text>
</g>
<!-- node1&#45;&gt;node4 -->
<g id="edge5" class="edge">
<title>node1&#45;&gt;node4</title>
<path fill="none" stroke="black" d="M127.53,-144.41C134.92,-135.06 145.38,-123.26 155.19,-113.13"/>
<polygon fill="black" stroke="black" points="157.54,-115.73 162.13,-106.18 152.59,-110.78 157.54,-115.73"/>
</g>
<!-- node9&#45;&gt;node1 -->
<g id="edge15" class="edge">
<title>node9&#45;&gt;node1</title>
<path fill="none" stroke="black" d="M52.28,-36.43C51.5,-55.17 49.14,-85.31 60.44,-108 67,-121.17 78.54,-132.1 89.69,-140.53"/>
<polygon fill="black" stroke="black" points="87.43,-143.22 97.61,-146.16 91.48,-137.52 87.43,-143.22"/>
</g>
<!-- node3&#45;&gt;node1 -->
<g id="edge8" class="edge">
<title>node3&#45;&gt;node1</title>
<path fill="none" stroke="black" d="M104.99,-107.14C108.57,-114.75 112.17,-124.05 114.99,-132.76"/>
<polygon fill="black" stroke="black" points="111.59,-133.62 117.75,-142.24 118.32,-131.66 111.59,-133.62"/>
</g>
<!-- node4&#45;&gt;node1 -->
<g id="edge9" class="edge">
<title>node4&#45;&gt;node1</title>
<path fill="none" stroke="black" d="M172.33,-107.61C164.95,-116.94 154.52,-128.71 144.73,-138.82"/>
<polygon fill="black" stroke="black" points="142.39,-136.21 137.8,-145.76 147.34,-141.15 142.39,-136.21"/>
</g>
<!-- node10 -->
<g id="node9" class="node">
<title>node10</title>
<ellipse fill="none" stroke="black" cx="159.44" cy="-18" rx="38.04" ry="18"/>
<text text-anchor="middle" x="159.44" y="-12.95" font-family="Times,serif" font-size="14.00">node10</text>
</g>
<!-- node4&#45;&gt;node10 -->
<g id="edge11" class="edge">
<title>node4&#45;&gt;node10</title>
<path fill="none" stroke="black" d="M170.53,-72.76C167.28,-65.13 164.07,-55.79 161.63,-47.06"/>
<polygon fill="black" stroke="black" points="165.08,-46.46 159.29,-37.59 158.29,-48.14 165.08,-46.46"/>
</g>
<!-- node5 -->
<g id="node10" class="node">
<title>node5</title>
<ellipse fill="none" stroke="black" cx="248.44" cy="-18" rx="33.44" ry="18"/>
<text text-anchor="middle" x="248.44" y="-12.95" font-family="Times,serif" font-size="14.00">node5</text>
</g>
<!-- node4&#45;&gt;node5 -->
<g id="edge10" class="edge">
<title>node4&#45;&gt;node5</title>
<path fill="none" stroke="black" d="M191.48,-72.41C199.48,-62.97 210.76,-51.03 221.24,-40.83"/>
<polygon fill="black" stroke="black" points="223.44,-43.57 228.3,-34.15 218.63,-38.48 223.44,-43.57"/>
</g>
<!-- node2 -->
<g id="node8" class="node">
<title>node2</title>
<ellipse fill="none" stroke="black" cx="160.44" cy="-306" rx="33.44" ry="18"/>
<text text-anchor="middle" x="160.44" y="-300.95" font-family="Times,serif" font-size="14.00">node2</text>
</g>
<!-- node10&#45;&gt;node4 -->
<g id="edge7" class="edge">
<title>node10&#45;&gt;node4</title>
<path fill="none" stroke="black" d="M170.51,-35.62C173.67,-43.1 176.78,-52.14 179.17,-60.64"/>
<polygon fill="black" stroke="black" points="175.74,-61.37 181.55,-70.23 182.53,-59.68 175.74,-61.37"/>
</g>
<!-- node5&#45;&gt;node4 -->
<g id="edge16" class="edge">
<title>node5&#45;&gt;node4</title>
<path fill="none" stroke="black" d="M238.39,-35.61C230.39,-45.03 219.15,-56.94 208.69,-67.12"/>
<polygon fill="black" stroke="black" points="206.5,-64.38 201.64,-73.79 211.31,-69.46 206.5,-64.38"/>
</g>
</g>
</svg>
