<?xml version="1.0" encoding="UTF-8" standalone="no"?>
<!DOCTYPE svg PUBLIC "-//W3C//DTD SVG 1.1//EN"
 "http://www.w3.org/Graphics/SVG/1.1/DTD/svg11.dtd">
<!-- Generated by graphviz version 12.2.1 (20241206.2353)
 -->
<!-- Pages: 1 -->
<svg width="1589pt" height="548pt"
 viewBox="0.00 0.00 1589.12 548.00" xmlns="http://www.w3.org/2000/svg" xmlns:xlink="http://www.w3.org/1999/xlink">
<g id="graph0" class="graph" transform="scale(1 1) rotate(0) translate(4 544)">
<polygon fill="white" stroke="none" points="-4,4 -4,-544 1585.12,-544 1585.12,4 -4,4"/>
<!-- node11 -->
<g id="node1" class="node">
<title>node11</title>
<ellipse fill="none" stroke="black" cx="124.65" cy="-522" rx="38.04" ry="18"/>
<text text-anchor="middle" x="124.65" y="-516.95" font-family="Times,serif" font-size="14.00">node11</text>
</g>
<!-- node23 -->
<g id="node2" class="node">
<title>node23</title>
<ellipse fill="none" stroke="black" cx="87.65" cy="-450" rx="38.04" ry="18"/>
<text text-anchor="middle" x="87.65" y="-444.95" font-family="Times,serif" font-size="14.00">node23</text>
</g>
<!-- node11&#45;&gt;node23 -->
<g id="edge1" class="edge">
<title>node11&#45;&gt;node23</title>
<path fill="none" stroke="black" d="M110.49,-505.12C105.47,-497.32 100.09,-487.69 95.68,-478.73"/>
<polygon fill="black" stroke="black" points="98.87,-477.28 91.51,-469.67 92.52,-480.21 98.87,-477.28"/>
</g>
<!-- node7 -->
<g id="node3" class="node">
<title>node7</title>
<ellipse fill="none" stroke="black" cx="98.65" cy="-18" rx="33.44" ry="18"/>
<text text-anchor="middle" x="98.65" y="-12.95" font-family="Times,serif" font-size="14.00">node7</text>
</g>
<!-- node11&#45;&gt;node7 -->
<g id="edge2" class="edge">
<title>node11&#45;&gt;node7</title>
<path fill="none" stroke="black" d="M126.32,-503.65C131.65,-484.43 140.16,-453.35 125.65,-432 101.19,-396.03 62.44,-429.46 34.65,-396 -17.08,-333.72 4.4,-296.93 6.65,-216 8.45,-150.99 -1.85,-127.13 32.65,-72 40.99,-58.67 53.52,-46.51 65.56,-37.21"/>
<polygon fill="black" stroke="black" points="67.31,-40.27 73.36,-31.57 63.2,-34.59 67.31,-40.27"/>
</g>
<!-- node49 -->
<g id="node4" class="node">
<title>node49</title>
<ellipse fill="none" stroke="black" cx="376.65" cy="-450" rx="38.04" ry="18"/>
<text text-anchor="middle" x="376.65" y="-444.95" font-family="Times,serif" font-size="14.00">node49</text>
</g>
<!-- node11&#45;&gt;node49 -->
<g id="edge3" class="edge">
<title>node11&#45;&gt;node49</title>
<path fill="none" stroke="black" d="M149.98,-508.18C154.18,-506.71 158.5,-505.28 162.65,-504 219.71,-486.35 286.92,-469.75 330.71,-459.98"/>
<polygon fill="black" stroke="black" points="331.37,-463.42 340.38,-457.86 329.87,-456.59 331.37,-463.42"/>
</g>
<!-- node23&#45;&gt;node11 -->
<g id="edge57" class="edge">
<title>node23&#45;&gt;node11</title>
<path fill="none" stroke="black" d="M101.97,-467.14C106.96,-474.92 112.28,-484.47 116.65,-493.35"/>
<polygon fill="black" stroke="black" points="113.42,-494.71 120.78,-502.32 119.78,-491.78 113.42,-494.71"/>
</g>
<!-- node7&#45;&gt;node11 -->
<g id="edge75" class="edge">
<title>node7&#45;&gt;node11</title>
<path fill="none" stroke="black" d="M84.65,-34.73C73.85,-44.29 59.75,-57.45 50.65,-72 16.15,-127.13 26.45,-150.99 24.65,-216 22.4,-296.93 0.92,-333.72 52.65,-396 80.44,-429.46 119.19,-396.03 143.65,-432 156.07,-450.27 151.62,-475.68 143.66,-494.68"/>
<polygon fill="black" stroke="black" points="140.52,-493.13 139.33,-503.65 146.83,-496.17 140.52,-493.13"/>
</g>
<!-- node49&#45;&gt;node11 -->
<g id="edge85" class="edge">
<title>node49&#45;&gt;node11</title>
<path fill="none" stroke="black" d="M344.48,-459.89C305.35,-469.65 237.89,-486.29 180.65,-504 176.31,-505.34 171.78,-506.84 167.25,-508.39"/>
<polygon fill="black" stroke="black" points="166.49,-504.95 158.17,-511.51 168.76,-511.57 166.49,-504.95"/>
</g>
<!-- node12 -->
<g id="node14" class="node">
<title>node12</title>
<ellipse fill="none" stroke="black" cx="90.65" cy="-378" rx="38.04" ry="18"/>
<text text-anchor="middle" x="90.65" y="-372.95" font-family="Times,serif" font-size="14.00">node12</text>
</g>
<!-- node49&#45;&gt;node12 -->
<g id="edge88" class="edge">
<title>node49&#45;&gt;node12</title>
<path fill="none" stroke="black" d="M342.53,-441.71C290.26,-429.63 190.8,-405.35 133.68,-390.81"/>
<polygon fill="black" stroke="black" points="134.87,-387.5 124.31,-388.41 133.13,-394.28 134.87,-387.5"/>
</g>
<!-- node1 -->
<g id="node26" class="node">
<title>node1</title>
<ellipse fill="none" stroke="black" cx="368.65" cy="-378" rx="33.44" ry="18"/>
<text text-anchor="middle" x="368.65" y="-372.95" font-family="Times,serif" font-size="14.00">node1</text>
</g>
<!-- node49&#45;&gt;node1 -->
<g id="edge89" class="edge">
<title>node49&#45;&gt;node1</title>
<path fill="none" stroke="black" d="M368.83,-432.05C367.21,-424.68 365.94,-415.84 365.26,-407.51"/>
<polygon fill="black" stroke="black" points="368.77,-407.6 364.78,-397.79 361.78,-407.95 368.77,-407.6"/>
</g>
<!-- node36 -->
<g id="node48" class="node">
<title>node36</title>
<ellipse fill="none" stroke="black" cx="1510.65" cy="-90" rx="38.04" ry="18"/>
<text text-anchor="middle" x="1510.65" y="-84.95" font-family="Times,serif" font-size="14.00">node36</text>
</g>
<!-- node49&#45;&gt;node36 -->
<g id="edge87" class="edge">
<title>node49&#45;&gt;node36</title>
<path fill="none" stroke="black" d="M409.25,-440.28C482.44,-422.65 664.72,-382.55 819.65,-360 1091.67,-320.4 1185.98,-381.14 1428.65,-252 1451.26,-239.97 1507.55,-203.08 1518.65,-180 1527.86,-160.84 1522.6,-137.1 1516.91,-118.96"/>
<polygon fill="black" stroke="black" points="1520.3,-118.04 1513.83,-109.65 1513.65,-120.24 1520.3,-118.04"/>
</g>
<!-- node15 -->
<g id="node49" class="node">
<title>node15</title>
<ellipse fill="none" stroke="black" cx="1466.65" cy="-18" rx="38.04" ry="18"/>
<text text-anchor="middle" x="1466.65" y="-12.95" font-family="Times,serif" font-size="14.00">node15</text>
</g>
<!-- node49&#45;&gt;node15 -->
<g id="edge86" class="edge">
<title>node49&#45;&gt;node15</title>
<path fill="none" stroke="black" d="M414.63,-447.92C544.09,-443.52 978.16,-422.11 1320.65,-324 1434.06,-291.51 1497.5,-288.58 1543.65,-180 1562.44,-135.78 1572.59,-113.66 1548.65,-72 1538.91,-55.07 1521.46,-43.04 1505.07,-34.77"/>
<polygon fill="black" stroke="black" points="1507,-31.8 1496.46,-30.73 1504.03,-38.14 1507,-31.8"/>
</g>
<!-- node29 -->
<g id="node5" class="node">
<title>node29</title>
<ellipse fill="none" stroke="black" cx="238.65" cy="-18" rx="38.04" ry="18"/>
<text text-anchor="middle" x="238.65" y="-12.95" font-family="Times,serif" font-size="14.00">node29</text>
</g>
<!-- node17 -->
<g id="node6" class="node">
<title>node17</title>
<ellipse fill="none" stroke="black" cx="290.65" cy="-90" rx="38.04" ry="18"/>
<text text-anchor="middle" x="290.65" y="-84.95" font-family="Times,serif" font-size="14.00">node17</text>
</g>
<!-- node29&#45;&gt;node17 -->
<g id="edge4" class="edge">
<title>node29&#45;&gt;node17</title>
<path fill="none" stroke="black" d="M255.75,-34.36C262.89,-42.62 270.93,-53.06 277.59,-62.58"/>
<polygon fill="black" stroke="black" points="274.62,-64.44 283.1,-70.8 280.44,-60.54 274.62,-64.44"/>
</g>
<!-- node17&#45;&gt;node29 -->
<g id="edge67" class="edge">
<title>node17&#45;&gt;node29</title>
<path fill="none" stroke="black" d="M273.39,-73.46C266.28,-65.21 258.3,-54.85 251.68,-45.38"/>
<polygon fill="black" stroke="black" points="254.68,-43.58 246.21,-37.22 248.87,-47.47 254.68,-43.58"/>
</g>
<!-- node32 -->
<g id="node46" class="node">
<title>node32</title>
<ellipse fill="none" stroke="black" cx="314.65" cy="-162" rx="38.04" ry="18"/>
<text text-anchor="middle" x="314.65" y="-156.95" font-family="Times,serif" font-size="14.00">node32</text>
</g>
<!-- node17&#45;&gt;node32 -->
<g id="edge68" class="edge">
<title>node17&#45;&gt;node32</title>
<path fill="none" stroke="black" d="M302.19,-107.62C305.57,-115.1 308.93,-124.14 311.57,-132.64"/>
<polygon fill="black" stroke="black" points="308.18,-133.54 314.23,-142.24 314.93,-131.67 308.18,-133.54"/>
</g>
<!-- node9 -->
<g id="node7" class="node">
<title>node9</title>
<ellipse fill="none" stroke="black" cx="57.65" cy="-234" rx="33.44" ry="18"/>
<text text-anchor="middle" x="57.65" y="-228.95" font-family="Times,serif" font-size="14.00">node9</text>
</g>
<!-- node18 -->
<g id="node8" class="node">
<title>node18</title>
<ellipse fill="none" stroke="black" cx="66.65" cy="-162" rx="38.04" ry="18"/>
<text text-anchor="middle" x="66.65" y="-156.95" font-family="Times,serif" font-size="14.00">node18</text>
</g>
<!-- node9&#45;&gt;node18 -->
<g id="edge5" class="edge">
<title>node9&#45;&gt;node18</title>
<path fill="none" stroke="black" d="M53.96,-215.7C54.15,-208.21 55.06,-199.26 56.44,-190.88"/>
<polygon fill="black" stroke="black" points="59.86,-191.6 58.37,-181.11 53,-190.24 59.86,-191.6"/>
</g>
<!-- node14 -->
<g id="node9" class="node">
<title>node14</title>
<ellipse fill="none" stroke="black" cx="162.65" cy="-162" rx="38.04" ry="18"/>
<text text-anchor="middle" x="162.65" y="-156.95" font-family="Times,serif" font-size="14.00">node14</text>
</g>
<!-- node9&#45;&gt;node14 -->
<g id="edge6" class="edge">
<title>node9&#45;&gt;node14</title>
<path fill="none" stroke="black" d="M74.28,-218.15C88.8,-207.59 110.08,-193.31 128.19,-181.92"/>
<polygon fill="black" stroke="black" points="129.91,-184.98 136.57,-176.74 126.22,-179.02 129.91,-184.98"/>
</g>
<!-- node19 -->
<g id="node10" class="node">
<title>node19</title>
<ellipse fill="none" stroke="black" cx="107.65" cy="-306" rx="38.04" ry="18"/>
<text text-anchor="middle" x="107.65" y="-300.95" font-family="Times,serif" font-size="14.00">node19</text>
</g>
<!-- node9&#45;&gt;node19 -->
<g id="edge7" class="edge">
<title>node9&#45;&gt;node19</title>
<path fill="none" stroke="black" d="M73.92,-249.89C80.89,-258.19 88.76,-268.77 95.25,-278.44"/>
<polygon fill="black" stroke="black" points="92.26,-280.26 100.6,-286.78 98.15,-276.48 92.26,-280.26"/>
</g>
<!-- node18&#45;&gt;node9 -->
<g id="edge11" class="edge">
<title>node18&#45;&gt;node9</title>
<path fill="none" stroke="black" d="M70.34,-180.28C70.15,-187.69 69.25,-196.54 67.9,-204.86"/>
<polygon fill="black" stroke="black" points="64.48,-204.08 66,-214.57 71.35,-205.43 64.48,-204.08"/>
</g>
<!-- node14&#45;&gt;node9 -->
<g id="edge76" class="edge">
<title>node14&#45;&gt;node9</title>
<path fill="none" stroke="black" d="M145.14,-178.48C130.29,-189.24 108.82,-203.61 90.8,-214.9"/>
<polygon fill="black" stroke="black" points="89.17,-211.79 82.49,-220.01 92.84,-217.75 89.17,-211.79"/>
</g>
<!-- node10 -->
<g id="node47" class="node">
<title>node10</title>
<ellipse fill="none" stroke="black" cx="88.65" cy="-90" rx="38.04" ry="18"/>
<text text-anchor="middle" x="88.65" y="-84.95" font-family="Times,serif" font-size="14.00">node10</text>
</g>
<!-- node14&#45;&gt;node10 -->
<g id="edge77" class="edge">
<title>node14&#45;&gt;node10</title>
<path fill="none" stroke="black" d="M141.72,-146.5C131.08,-137.52 118.37,-125.77 107.97,-115.4"/>
<polygon fill="black" stroke="black" points="110.76,-113.24 101.27,-108.53 105.75,-118.13 110.76,-113.24"/>
</g>
<!-- node19&#45;&gt;node9 -->
<g id="edge54" class="edge">
<title>node19&#45;&gt;node9</title>
<path fill="none" stroke="black" d="M90.83,-289.46C83.96,-281.21 76.27,-270.85 69.92,-261.38"/>
<polygon fill="black" stroke="black" points="73.05,-259.76 64.7,-253.24 67.15,-263.54 73.05,-259.76"/>
</g>
<!-- node19&#45;&gt;node12 -->
<g id="edge53" class="edge">
<title>node19&#45;&gt;node12</title>
<path fill="none" stroke="black" d="M109.34,-324.45C108.28,-332.01 106.31,-341.05 103.94,-349.48"/>
<polygon fill="black" stroke="black" points="100.62,-348.38 100.97,-358.97 107.3,-350.47 100.62,-348.38"/>
</g>
<!-- node39 -->
<g id="node35" class="node">
<title>node39</title>
<ellipse fill="none" stroke="black" cx="191.65" cy="-90" rx="38.04" ry="18"/>
<text text-anchor="middle" x="191.65" y="-84.95" font-family="Times,serif" font-size="14.00">node39</text>
</g>
<!-- node19&#45;&gt;node39 -->
<g id="edge55" class="edge">
<title>node19&#45;&gt;node39</title>
<path fill="none" stroke="black" d="M109.08,-287.63C115.98,-268.68 132.62,-238.1 152.65,-216 170.56,-196.24 188.72,-203.85 200.65,-180 210.18,-160.94 204.62,-137.2 198.59,-119.03"/>
<polygon fill="black" stroke="black" points="201.92,-117.96 195.3,-109.69 195.32,-120.28 201.92,-117.96"/>
</g>
<!-- node40 -->
<g id="node45" class="node">
<title>node40</title>
<ellipse fill="none" stroke="black" cx="208.65" cy="-234" rx="38.04" ry="18"/>
<text text-anchor="middle" x="208.65" y="-228.95" font-family="Times,serif" font-size="14.00">node40</text>
</g>
<!-- node19&#45;&gt;node40 -->
<g id="edge56" class="edge">
<title>node19&#45;&gt;node40</title>
<path fill="none" stroke="black" d="M124.34,-289.46C138.08,-279.09 157.73,-265.38 174.68,-254.31"/>
<polygon fill="black" stroke="black" points="176.49,-257.31 183.01,-248.96 172.7,-251.42 176.49,-257.31"/>
</g>
<!-- node46 -->
<g id="node11" class="node">
<title>node46</title>
<ellipse fill="none" stroke="black" cx="870.65" cy="-18" rx="38.04" ry="18"/>
<text text-anchor="middle" x="870.65" y="-12.95" font-family="Times,serif" font-size="14.00">node46</text>
</g>
<!-- node34 -->
<g id="node12" class="node">
<title>node34</title>
<ellipse fill="none" stroke="black" cx="977.65" cy="-234" rx="38.04" ry="18"/>
<text text-anchor="middle" x="977.65" y="-228.95" font-family="Times,serif" font-size="14.00">node34</text>
</g>
<!-- node46&#45;&gt;node34 -->
<g id="edge8" class="edge">
<title>node46&#45;&gt;node34</title>
<path fill="none" stroke="black" d="M879.53,-36C890.11,-66.52 907.28,-131.92 936.65,-180 942.75,-189.99 950.97,-199.68 958.56,-207.99"/>
<polygon fill="black" stroke="black" points="956,-210.37 965.38,-215.3 961.12,-205.6 956,-210.37"/>
</g>
<!-- node34&#45;&gt;node46 -->
<g id="edge16" class="edge">
<title>node34&#45;&gt;node46</title>
<path fill="none" stroke="black" d="M954.31,-219.53C941.97,-209.55 927.88,-195.11 918.65,-180 892.49,-137.18 876.01,-80.62 870.44,-47.2"/>
<polygon fill="black" stroke="black" points="873.94,-46.92 869.09,-37.5 867,-47.88 873.94,-46.92"/>
</g>
<!-- node47 -->
<g id="node17" class="node">
<title>node47</title>
<ellipse fill="none" stroke="black" cx="891.65" cy="-306" rx="38.04" ry="18"/>
<text text-anchor="middle" x="891.65" y="-300.95" font-family="Times,serif" font-size="14.00">node47</text>
</g>
<!-- node34&#45;&gt;node47 -->
<g id="edge12" class="edge">
<title>node34&#45;&gt;node47</title>
<path fill="none" stroke="black" d="M963.76,-251.01C952.68,-260.95 936.99,-273.83 923.02,-284.52"/>
<polygon fill="black" stroke="black" points="921.25,-281.46 915.35,-290.26 925.45,-287.06 921.25,-281.46"/>
</g>
<!-- node48 -->
<g id="node18" class="node">
<title>node48</title>
<ellipse fill="none" stroke="black" cx="974.65" cy="-162" rx="38.04" ry="18"/>
<text text-anchor="middle" x="974.65" y="-156.95" font-family="Times,serif" font-size="14.00">node48</text>
</g>
<!-- node34&#45;&gt;node48 -->
<g id="edge13" class="edge">
<title>node34&#45;&gt;node48</title>
<path fill="none" stroke="black" d="M971.04,-216.05C969.94,-208.68 969.31,-199.84 969.22,-191.51"/>
<polygon fill="black" stroke="black" points="972.72,-191.86 969.44,-181.79 965.72,-191.71 972.72,-191.86"/>
</g>
<!-- node41 -->
<g id="node19" class="node">
<title>node41</title>
<ellipse fill="none" stroke="black" cx="1068.65" cy="-162" rx="38.04" ry="18"/>
<text text-anchor="middle" x="1068.65" y="-156.95" font-family="Times,serif" font-size="14.00">node41</text>
</g>
<!-- node34&#45;&gt;node41 -->
<g id="edge14" class="edge">
<title>node34&#45;&gt;node41</title>
<path fill="none" stroke="black" d="M992.54,-217.12C1004.49,-207.03 1021.44,-193.88 1036.38,-183.07"/>
<polygon fill="black" stroke="black" points="1038,-186.22 1044.12,-177.57 1033.94,-180.51 1038,-186.22"/>
</g>
<!-- node42 -->
<g id="node20" class="node">
<title>node42</title>
<ellipse fill="none" stroke="black" cx="1162.65" cy="-162" rx="38.04" ry="18"/>
<text text-anchor="middle" x="1162.65" y="-156.95" font-family="Times,serif" font-size="14.00">node42</text>
</g>
<!-- node34&#45;&gt;node42 -->
<g id="edge15" class="edge">
<title>node34&#45;&gt;node42</title>
<path fill="none" stroke="black" d="M1004.61,-220.81C1035.26,-208.49 1085.38,-189.5 1121.03,-176.67"/>
<polygon fill="black" stroke="black" points="1121.92,-180.07 1130.16,-173.41 1119.57,-173.48 1121.92,-180.07"/>
</g>
<!-- node30 -->
<g id="node13" class="node">
<title>node30</title>
<ellipse fill="none" stroke="black" cx="386.65" cy="-90" rx="38.04" ry="18"/>
<text text-anchor="middle" x="386.65" y="-84.95" font-family="Times,serif" font-size="14.00">node30</text>
</g>
<!-- node30&#45;&gt;node12 -->
<g id="edge9" class="edge">
<title>node30&#45;&gt;node12</title>
<path fill="none" stroke="black" d="M391.74,-108.16C391.86,-127.2 385.87,-158.13 370.65,-180 368.52,-183.06 195.54,-307.89 122.45,-357.23"/>
<polygon fill="black" stroke="black" points="120.85,-354.09 114.49,-362.56 124.75,-359.9 120.85,-354.09"/>
</g>
<!-- node12&#45;&gt;node49 -->
<g id="edge41" class="edge">
<title>node12&#45;&gt;node49</title>
<path fill="none" stroke="black" d="M124.68,-386.27C176.96,-398.35 276.58,-422.66 333.71,-437.22"/>
<polygon fill="black" stroke="black" points="332.52,-440.53 343.08,-439.62 334.26,-433.75 332.52,-440.53"/>
</g>
<!-- node12&#45;&gt;node19 -->
<g id="edge44" class="edge">
<title>node12&#45;&gt;node19</title>
<path fill="none" stroke="black" d="M88.93,-359.7C89.99,-352.13 91.96,-343.06 94.33,-334.59"/>
<polygon fill="black" stroke="black" points="97.67,-335.66 97.31,-325.07 90.99,-333.56 97.67,-335.66"/>
</g>
<!-- node12&#45;&gt;node30 -->
<g id="edge39" class="edge">
<title>node12&#45;&gt;node30</title>
<path fill="none" stroke="black" d="M107.83,-361.82C166.04,-316.19 350.45,-183.16 352.65,-180 365.27,-161.87 371.54,-137.51 376.05,-118.85"/>
<polygon fill="black" stroke="black" points="379.41,-119.83 378.38,-109.29 372.61,-118.17 379.41,-119.83"/>
</g>
<!-- node20 -->
<g id="node21" class="node">
<title>node20</title>
<ellipse fill="none" stroke="black" cx="326.65" cy="-306" rx="38.04" ry="18"/>
<text text-anchor="middle" x="326.65" y="-300.95" font-family="Times,serif" font-size="14.00">node20</text>
</g>
<!-- node12&#45;&gt;node20 -->
<g id="edge45" class="edge">
<title>node12&#45;&gt;node20</title>
<path fill="none" stroke="black" d="M120.51,-366.67C161.63,-353.79 235.62,-331.82 282.94,-318.44"/>
<polygon fill="black" stroke="black" points="283.64,-321.88 292.32,-315.8 281.74,-315.14 283.64,-321.88"/>
</g>
<!-- node5 -->
<g id="node30" class="node">
<title>node5</title>
<ellipse fill="none" stroke="black" cx="485.65" cy="-306" rx="33.44" ry="18"/>
<text text-anchor="middle" x="485.65" y="-300.95" font-family="Times,serif" font-size="14.00">node5</text>
</g>
<!-- node12&#45;&gt;node5 -->
<g id="edge43" class="edge">
<title>node12&#45;&gt;node5</title>
<path fill="none" stroke="black" d="M125.38,-370.1C197.7,-356.68 363.81,-327.25 442.69,-313.86"/>
<polygon fill="black" stroke="black" points="442.91,-317.38 452.19,-312.26 441.74,-310.48 442.91,-317.38"/>
</g>
<!-- node38 -->
<g id="node38" class="node">
<title>node38</title>
<ellipse fill="none" stroke="black" cx="614.65" cy="-18" rx="38.04" ry="18"/>
<text text-anchor="middle" x="614.65" y="-12.95" font-family="Times,serif" font-size="14.00">node38</text>
</g>
<!-- node12&#45;&gt;node38 -->
<g id="edge40" class="edge">
<title>node12&#45;&gt;node38</title>
<path fill="none" stroke="black" d="M128.13,-374.16C218.62,-367.4 446.14,-349.03 518.65,-324 577.08,-303.83 607.29,-305.85 637.65,-252 645.5,-238.06 640.21,-231.79 637.65,-216 634.95,-199.35 629.37,-196.45 625.65,-180 615.28,-134.21 609.93,-79.78 609.95,-47.39"/>
<polygon fill="black" stroke="black" points="613.44,-47.71 610.18,-37.63 606.45,-47.54 613.44,-47.71"/>
</g>
<!-- node8 -->
<g id="node39" class="node">
<title>node8</title>
<ellipse fill="none" stroke="black" cx="681.65" cy="-306" rx="33.44" ry="18"/>
<text text-anchor="middle" x="681.65" y="-300.95" font-family="Times,serif" font-size="14.00">node8</text>
</g>
<!-- node12&#45;&gt;node8 -->
<g id="edge42" class="edge">
<title>node12&#45;&gt;node8</title>
<path fill="none" stroke="black" d="M127.96,-373.62C230.41,-364.79 513.75,-340.55 606.65,-324 617.45,-322.07 629.1,-319.31 639.98,-316.57"/>
<polygon fill="black" stroke="black" points="640.69,-320 649.51,-314.14 638.95,-313.22 640.69,-320"/>
</g>
<!-- node31 -->
<g id="node15" class="node">
<title>node31</title>
<ellipse fill="none" stroke="black" cx="753.65" cy="-18" rx="38.04" ry="18"/>
<text text-anchor="middle" x="753.65" y="-12.95" font-family="Times,serif" font-size="14.00">node31</text>
</g>
<!-- node43 -->
<g id="node16" class="node">
<title>node43</title>
<ellipse fill="none" stroke="black" cx="788.65" cy="-306" rx="38.04" ry="18"/>
<text text-anchor="middle" x="788.65" y="-300.95" font-family="Times,serif" font-size="14.00">node43</text>
</g>
<!-- node31&#45;&gt;node43 -->
<g id="edge10" class="edge">
<title>node31&#45;&gt;node43</title>
<path fill="none" stroke="black" d="M777.89,-32.08C790.74,-41.87 805.2,-56.25 813.65,-72 844.64,-129.77 838.49,-150.83 845.65,-216 847.39,-231.9 851.4,-237.07 845.65,-252 840.85,-264.45 831.61,-275.79 821.85,-284.76"/>
<polygon fill="black" stroke="black" points="819.8,-281.91 814.39,-291.02 824.3,-287.27 819.8,-281.91"/>
</g>
<!-- node43&#45;&gt;node31 -->
<g id="edge63" class="edge">
<title>node43&#45;&gt;node31</title>
<path fill="none" stroke="black" d="M801.38,-288.71C810.68,-279.25 822.11,-266.36 827.65,-252 833.4,-237.07 829.39,-231.9 827.65,-216 820.49,-150.83 826.64,-129.77 795.65,-72 790,-61.48 781.68,-51.57 773.82,-43.23"/>
<polygon fill="black" stroke="black" points="776.48,-40.95 766.99,-36.24 771.47,-45.84 776.48,-40.95"/>
</g>
<!-- node43&#45;&gt;node1 -->
<g id="edge62" class="edge">
<title>node43&#45;&gt;node1</title>
<path fill="none" stroke="black" d="M759.08,-317.76C750.59,-320 741.33,-322.22 732.65,-324 618.38,-347.4 481.43,-364.92 412.54,-372.64"/>
<polygon fill="black" stroke="black" points="412.34,-369.14 402.78,-373.72 413.11,-376.1 412.34,-369.14"/>
</g>
<!-- node47&#45;&gt;node34 -->
<g id="edge82" class="edge">
<title>node47&#45;&gt;node34</title>
<path fill="none" stroke="black" d="M905.4,-289.12C916.45,-279.19 932.13,-266.3 946.13,-255.6"/>
<polygon fill="black" stroke="black" points="947.91,-258.64 953.81,-249.83 943.71,-253.04 947.91,-258.64"/>
</g>
<!-- node47&#45;&gt;node1 -->
<g id="edge80" class="edge">
<title>node47&#45;&gt;node1</title>
<path fill="none" stroke="black" d="M864.3,-319.04C857.91,-320.91 851.11,-322.66 844.65,-324 688.39,-356.31 498.36,-370.18 413.32,-374.93"/>
<polygon fill="black" stroke="black" points="413.33,-371.43 403.54,-375.46 413.71,-378.42 413.33,-371.43"/>
</g>
<!-- node21 -->
<g id="node32" class="node">
<title>node21</title>
<ellipse fill="none" stroke="black" cx="1083.65" cy="-90" rx="38.04" ry="18"/>
<text text-anchor="middle" x="1083.65" y="-84.95" font-family="Times,serif" font-size="14.00">node21</text>
</g>
<!-- node47&#45;&gt;node21 -->
<g id="edge81" class="edge">
<title>node47&#45;&gt;node21</title>
<path fill="none" stroke="black" d="M918.54,-292.95C944.08,-282.98 982.9,-267.93 1015.65,-252 1044.3,-238.06 1048.37,-228.57 1077.65,-216 1129.99,-193.54 1166.49,-225.58 1200.65,-180 1210.24,-167.2 1209.5,-157.33 1200.65,-144 1184.69,-119.98 1155.49,-106.82 1130.18,-99.62"/>
<polygon fill="black" stroke="black" points="1131.28,-96.29 1120.72,-97.18 1129.53,-103.07 1131.28,-96.29"/>
</g>
<!-- node48&#45;&gt;node34 -->
<g id="edge17" class="edge">
<title>node48&#45;&gt;node34</title>
<path fill="none" stroke="black" d="M981.28,-180.1C982.35,-187.37 982.97,-196.04 983.07,-204.24"/>
<polygon fill="black" stroke="black" points="979.57,-204.11 982.85,-214.18 986.57,-204.26 979.57,-204.11"/>
</g>
<!-- node41&#45;&gt;node34 -->
<g id="edge51" class="edge">
<title>node41&#45;&gt;node34</title>
<path fill="none" stroke="black" d="M1053.73,-178.91C1041.71,-189.05 1024.65,-202.28 1009.65,-213.11"/>
<polygon fill="black" stroke="black" points="1008.02,-209.99 1001.89,-218.63 1012.07,-215.69 1008.02,-209.99"/>
</g>
<!-- node42&#45;&gt;node34 -->
<g id="edge92" class="edge">
<title>node42&#45;&gt;node34</title>
<path fill="none" stroke="black" d="M1135.72,-175.18C1105.05,-187.51 1054.86,-206.53 1019.2,-219.35"/>
<polygon fill="black" stroke="black" points="1018.3,-215.95 1010.06,-222.61 1020.65,-222.55 1018.3,-215.95"/>
</g>
<!-- node20&#45;&gt;node12 -->
<g id="edge19" class="edge">
<title>node20&#45;&gt;node12</title>
<path fill="none" stroke="black" d="M296.53,-317.41C255.4,-330.29 181.75,-352.16 134.52,-365.52"/>
<polygon fill="black" stroke="black" points="133.84,-362.07 125.16,-368.15 135.73,-368.81 133.84,-362.07"/>
</g>
<!-- node44 -->
<g id="node22" class="node">
<title>node44</title>
<ellipse fill="none" stroke="black" cx="360.65" cy="-234" rx="38.04" ry="18"/>
<text text-anchor="middle" x="360.65" y="-228.95" font-family="Times,serif" font-size="14.00">node44</text>
</g>
<!-- node20&#45;&gt;node44 -->
<g id="edge18" class="edge">
<title>node20&#45;&gt;node44</title>
<path fill="none" stroke="black" d="M329.14,-287.7C332.21,-279.67 336.72,-269.95 341.44,-261.05"/>
<polygon fill="black" stroke="black" points="344.42,-262.9 346.27,-252.46 338.32,-259.46 344.42,-262.9"/>
</g>
<!-- node28 -->
<g id="node23" class="node">
<title>node28</title>
<ellipse fill="none" stroke="black" cx="518.65" cy="-90" rx="38.04" ry="18"/>
<text text-anchor="middle" x="518.65" y="-84.95" font-family="Times,serif" font-size="14.00">node28</text>
</g>
<!-- node20&#45;&gt;node28 -->
<g id="edge20" class="edge">
<title>node20&#45;&gt;node28</title>
<path fill="none" stroke="black" d="M346.66,-290.43C362.05,-280.9 382.89,-267.38 398.65,-252 421.1,-230.08 469,-155.88 497.28,-116.33"/>
<polygon fill="black" stroke="black" points="500.07,-118.44 503.13,-108.29 494.41,-114.32 500.07,-118.44"/>
</g>
<!-- node37 -->
<g id="node24" class="node">
<title>node37</title>
<ellipse fill="none" stroke="black" cx="457.65" cy="-18" rx="38.04" ry="18"/>
<text text-anchor="middle" x="457.65" y="-12.95" font-family="Times,serif" font-size="14.00">node37</text>
</g>
<!-- node20&#45;&gt;node37 -->
<g id="edge21" class="edge">
<title>node20&#45;&gt;node37</title>
<path fill="none" stroke="black" d="M355.15,-293.6C378.33,-284.73 410.83,-270.75 435.65,-252 469,-226.8 542.34,-147.27 556.65,-108 562.12,-92.97 565.11,-85.58 556.65,-72 544.15,-51.94 521.59,-39.26 501.1,-31.35"/>
<polygon fill="black" stroke="black" points="502.34,-28.08 491.74,-28.04 500,-34.68 502.34,-28.08"/>
</g>
<!-- node44&#45;&gt;node20 -->
<g id="edge22" class="edge">
<title>node44&#45;&gt;node20</title>
<path fill="none" stroke="black" d="M358.23,-252.12C355.17,-260.15 350.66,-269.89 345.92,-278.82"/>
<polygon fill="black" stroke="black" points="342.92,-277.01 341.08,-287.44 349.02,-280.44 342.92,-277.01"/>
</g>
<!-- node28&#45;&gt;node20 -->
<g id="edge47" class="edge">
<title>node28&#45;&gt;node20</title>
<path fill="none" stroke="black" d="M512.82,-108.16C494.22,-144.63 440.76,-228.46 416.65,-252 401.77,-266.52 382.35,-279.39 365.24,-288.8"/>
<polygon fill="black" stroke="black" points="364.05,-285.48 356.83,-293.23 367.31,-291.67 364.05,-285.48"/>
</g>
<!-- node37&#45;&gt;node20 -->
<g id="edge72" class="edge">
<title>node37&#45;&gt;node20</title>
<path fill="none" stroke="black" d="M493.55,-24.35C521.31,-30.8 557.47,-44.44 574.65,-72 583.11,-85.58 580.12,-92.97 574.65,-108 560.34,-147.27 487,-226.8 453.65,-252 428.95,-270.66 396.65,-284.59 370.68,-293.47"/>
<polygon fill="black" stroke="black" points="369.84,-290.07 361.42,-296.5 372.01,-296.72 369.84,-290.07"/>
</g>
<!-- node2 -->
<g id="node25" class="node">
<title>node2</title>
<ellipse fill="none" stroke="black" cx="213.65" cy="-522" rx="33.44" ry="18"/>
<text text-anchor="middle" x="213.65" y="-516.95" font-family="Times,serif" font-size="14.00">node2</text>
</g>
<!-- node1&#45;&gt;node49 -->
<g id="edge25" class="edge">
<title>node1&#45;&gt;node49</title>
<path fill="none" stroke="black" d="M376.39,-395.62C378.04,-403.02 379.33,-411.94 380.02,-420.35"/>
<polygon fill="black" stroke="black" points="376.52,-420.37 380.51,-430.18 383.51,-420.02 376.52,-420.37"/>
</g>
<!-- node1&#45;&gt;node43 -->
<g id="edge23" class="edge">
<title>node1&#45;&gt;node43</title>
<path fill="none" stroke="black" d="M400.75,-372.74C462.22,-365.07 599.88,-347.5 714.65,-324 724.01,-322.08 734.04,-319.65 743.64,-317.23"/>
<polygon fill="black" stroke="black" points="744.36,-320.66 753.19,-314.8 742.63,-313.88 744.36,-320.66"/>
</g>
<!-- node1&#45;&gt;node47 -->
<g id="edge24" class="edge">
<title>node1&#45;&gt;node47</title>
<path fill="none" stroke="black" d="M401.94,-375.02C478.03,-370.35 669.43,-356.5 826.65,-324 833.5,-322.58 840.73,-320.7 847.8,-318.7"/>
<polygon fill="black" stroke="black" points="848.64,-322.1 857.25,-315.94 846.67,-315.38 848.64,-322.1"/>
</g>
<!-- node50 -->
<g id="node27" class="node">
<title>node50</title>
<ellipse fill="none" stroke="black" cx="1008.65" cy="-306" rx="38.04" ry="18"/>
<text text-anchor="middle" x="1008.65" y="-300.95" font-family="Times,serif" font-size="14.00">node50</text>
</g>
<!-- node1&#45;&gt;node50 -->
<g id="edge26" class="edge">
<title>node1&#45;&gt;node50</title>
<path fill="none" stroke="black" d="M402.05,-375.38C489.43,-371.05 730.9,-357.19 929.65,-324 940.54,-322.18 952.25,-319.59 963.29,-316.98"/>
<polygon fill="black" stroke="black" points="964.1,-320.39 973.01,-314.64 962.46,-313.58 964.1,-320.39"/>
</g>
<!-- node35 -->
<g id="node28" class="node">
<title>node35</title>
<ellipse fill="none" stroke="black" cx="1160.65" cy="-306" rx="38.04" ry="18"/>
<text text-anchor="middle" x="1160.65" y="-300.95" font-family="Times,serif" font-size="14.00">node35</text>
</g>
<!-- node1&#45;&gt;node35 -->
<g id="edge27" class="edge">
<title>node1&#45;&gt;node35</title>
<path fill="none" stroke="black" d="M401.96,-374.56C520.25,-366.33 918.81,-339.25 1046.65,-324 1068.52,-321.39 1092.8,-317.52 1113.4,-314.14"/>
<polygon fill="black" stroke="black" points="1113.96,-317.59 1123.26,-312.51 1112.82,-310.68 1113.96,-317.59"/>
</g>
<!-- node50&#45;&gt;node1 -->
<g id="edge37" class="edge">
<title>node50&#45;&gt;node1</title>
<path fill="none" stroke="black" d="M978.67,-317.46C968.84,-319.9 957.89,-322.29 947.65,-324 750.54,-356.92 511.41,-370.82 413.52,-375.27"/>
<polygon fill="black" stroke="black" points="413.64,-371.76 403.81,-375.7 413.95,-378.76 413.64,-371.76"/>
</g>
<!-- node24 -->
<g id="node31" class="node">
<title>node24</title>
<ellipse fill="none" stroke="black" cx="1085.65" cy="-18" rx="38.04" ry="18"/>
<text text-anchor="middle" x="1085.65" y="-12.95" font-family="Times,serif" font-size="14.00">node24</text>
</g>
<!-- node50&#45;&gt;node24 -->
<g id="edge35" class="edge">
<title>node50&#45;&gt;node24</title>
<path fill="none" stroke="black" d="M1023.22,-289.01C1046.23,-269.92 1091.49,-237.83 1133.65,-216 1173.01,-195.62 1201.59,-216.56 1226.65,-180 1265.92,-122.68 1173.68,-65.55 1120.2,-37.26"/>
<polygon fill="black" stroke="black" points="1121.9,-34.2 1111.41,-32.7 1118.67,-40.41 1121.9,-34.2"/>
</g>
<!-- node45 -->
<g id="node36" class="node">
<title>node45</title>
<ellipse fill="none" stroke="black" cx="1240.65" cy="-18" rx="38.04" ry="18"/>
<text text-anchor="middle" x="1240.65" y="-12.95" font-family="Times,serif" font-size="14.00">node45</text>
</g>
<!-- node50&#45;&gt;node45 -->
<g id="edge36" class="edge">
<title>node50&#45;&gt;node45</title>
<path fill="none" stroke="black" d="M1035.85,-292.96C1060.54,-283.27 1097.24,-268.58 1127.65,-252 1152.33,-238.55 1155.35,-230.13 1179.65,-216 1211.61,-197.42 1234.96,-211.29 1254.65,-180 1280.45,-138.99 1261.33,-80.62 1248.62,-46.59"/>
<polygon fill="black" stroke="black" points="1251.98,-45.57 1245.17,-37.46 1245.43,-48.05 1251.98,-45.57"/>
</g>
<!-- node25 -->
<g id="node37" class="node">
<title>node25</title>
<ellipse fill="none" stroke="black" cx="1390.65" cy="-90" rx="38.04" ry="18"/>
<text text-anchor="middle" x="1390.65" y="-84.95" font-family="Times,serif" font-size="14.00">node25</text>
</g>
<!-- node50&#45;&gt;node25 -->
<g id="edge38" class="edge">
<title>node50&#45;&gt;node25</title>
<path fill="none" stroke="black" d="M1041.29,-296.32C1076.39,-287.5 1133.03,-272.25 1179.65,-252 1208.52,-239.46 1211.76,-228.52 1240.65,-216 1292.91,-193.35 1325.12,-221.96 1363.65,-180 1378.57,-163.75 1382.56,-138.67 1384.57,-119.27"/>
<polygon fill="black" stroke="black" points="1388.03,-119.85 1385.51,-109.56 1381.07,-119.18 1388.03,-119.85"/>
</g>
<!-- node35&#45;&gt;node1 -->
<g id="edge49" class="edge">
<title>node35&#45;&gt;node1</title>
<path fill="none" stroke="black" d="M1127.07,-314.59C1108.66,-317.86 1085.55,-321.51 1064.65,-324 938.1,-339.1 546.3,-365.78 413.26,-374.3"/>
<polygon fill="black" stroke="black" points="413.21,-370.8 403.45,-374.93 413.65,-377.78 413.21,-370.8"/>
</g>
<!-- node27 -->
<g id="node42" class="node">
<title>node27</title>
<ellipse fill="none" stroke="black" cx="1296.65" cy="-234" rx="38.04" ry="18"/>
<text text-anchor="middle" x="1296.65" y="-228.95" font-family="Times,serif" font-size="14.00">node27</text>
</g>
<!-- node35&#45;&gt;node27 -->
<g id="edge48" class="edge">
<title>node35&#45;&gt;node27</title>
<path fill="none" stroke="black" d="M1182.62,-290.83C1203.26,-279.44 1234.31,-263.41 1258.87,-251.45"/>
<polygon fill="black" stroke="black" points="1260.09,-254.74 1267.58,-247.25 1257.05,-248.44 1260.09,-254.74"/>
</g>
<!-- node33 -->
<g id="node43" class="node">
<title>node33</title>
<ellipse fill="none" stroke="black" cx="1390.65" cy="-234" rx="38.04" ry="18"/>
<text text-anchor="middle" x="1390.65" y="-228.95" font-family="Times,serif" font-size="14.00">node33</text>
</g>
<!-- node35&#45;&gt;node33 -->
<g id="edge50" class="edge">
<title>node35&#45;&gt;node33</title>
<path fill="none" stroke="black" d="M1191.17,-294.95C1226.15,-284.77 1284.64,-268.27 1334.65,-252 1338.8,-250.65 1343.13,-249.17 1347.49,-247.67"/>
<polygon fill="black" stroke="black" points="1348.52,-251.02 1356.83,-244.45 1346.23,-244.4 1348.52,-251.02"/>
</g>
<!-- node16 -->
<g id="node29" class="node">
<title>node16</title>
<ellipse fill="none" stroke="black" cx="599.65" cy="-234" rx="38.04" ry="18"/>
<text text-anchor="middle" x="599.65" y="-228.95" font-family="Times,serif" font-size="14.00">node16</text>
</g>
<!-- node16&#45;&gt;node5 -->
<g id="edge28" class="edge">
<title>node16&#45;&gt;node5</title>
<path fill="none" stroke="black" d="M580.98,-249.93C564.31,-261.01 539.75,-276.14 519.66,-287.74"/>
<polygon fill="black" stroke="black" points="518.2,-284.55 511.24,-292.54 521.66,-290.63 518.2,-284.55"/>
</g>
<!-- node5&#45;&gt;node12 -->
<g id="edge32" class="edge">
<title>node5&#45;&gt;node12</title>
<path fill="none" stroke="black" d="M454.59,-313.22C385.56,-326.07 219.58,-355.51 137.74,-369.43"/>
<polygon fill="black" stroke="black" points="137.3,-365.96 128.02,-371.08 138.47,-372.86 137.3,-365.96"/>
</g>
<!-- node5&#45;&gt;node16 -->
<g id="edge31" class="edge">
<title>node5&#45;&gt;node16</title>
<path fill="none" stroke="black" d="M503.68,-290.5C519.91,-279.67 543.99,-264.81 564.03,-253.19"/>
<polygon fill="black" stroke="black" points="565.53,-256.36 572.47,-248.36 562.05,-250.28 565.53,-256.36"/>
</g>
<!-- node24&#45;&gt;node50 -->
<g id="edge29" class="edge">
<title>node24&#45;&gt;node50</title>
<path fill="none" stroke="black" d="M1114.95,-29.69C1171.99,-54.16 1287.84,-116.97 1244.65,-180 1219.59,-216.56 1191.01,-195.62 1151.65,-216 1112.16,-236.45 1069.95,-265.89 1041.52,-285.23"/>
<polygon fill="black" stroke="black" points="1039.65,-282.27 1033.32,-290.77 1043.57,-288.07 1039.65,-282.27"/>
</g>
<!-- node21&#45;&gt;node47 -->
<g id="edge30" class="edge">
<title>node21&#45;&gt;node47</title>
<path fill="none" stroke="black" d="M1120.85,-94.33C1153.12,-99.42 1197.51,-112.17 1218.65,-144 1227.5,-157.33 1228.24,-167.2 1218.65,-180 1184.49,-225.58 1147.99,-193.54 1095.65,-216 1066.37,-228.57 1062.3,-238.06 1033.65,-252 1001.44,-267.66 963.35,-282.49 934.6,-292.45"/>
<polygon fill="black" stroke="black" points="933.85,-289.01 925.51,-295.54 936.1,-295.64 933.85,-289.01"/>
</g>
<!-- node22 -->
<g id="node33" class="node">
<title>node22</title>
<ellipse fill="none" stroke="black" cx="681.65" cy="-162" rx="38.04" ry="18"/>
<text text-anchor="middle" x="681.65" y="-156.95" font-family="Times,serif" font-size="14.00">node22</text>
</g>
<!-- node3 -->
<g id="node34" class="node">
<title>node3</title>
<ellipse fill="none" stroke="black" cx="769.65" cy="-234" rx="33.44" ry="18"/>
<text text-anchor="middle" x="769.65" y="-228.95" font-family="Times,serif" font-size="14.00">node3</text>
</g>
<!-- node22&#45;&gt;node3 -->
<g id="edge33" class="edge">
<title>node22&#45;&gt;node3</title>
<path fill="none" stroke="black" d="M704.54,-176.83C717.78,-186.34 734.23,-199.19 747.36,-210.2"/>
<polygon fill="black" stroke="black" points="744.82,-212.63 754.69,-216.48 749.37,-207.32 744.82,-212.63"/>
</g>
<!-- node3&#45;&gt;node22 -->
<g id="edge79" class="edge">
<title>node3&#45;&gt;node22</title>
<path fill="none" stroke="black" d="M748.14,-220.16C734.91,-210.73 718.12,-197.66 704.65,-186.4"/>
<polygon fill="black" stroke="black" points="706.96,-183.77 697.08,-179.94 702.42,-189.09 706.96,-183.77"/>
</g>
<!-- node3&#45;&gt;node8 -->
<g id="edge78" class="edge">
<title>node3&#45;&gt;node8</title>
<path fill="none" stroke="black" d="M755.65,-250.7C743.96,-260.95 727.16,-274.42 712.44,-285.38"/>
<polygon fill="black" stroke="black" points="710.39,-282.55 704.37,-291.27 714.52,-288.2 710.39,-282.55"/>
</g>
<!-- node39&#45;&gt;node19 -->
<g id="edge34" class="edge">
<title>node39&#45;&gt;node19</title>
<path fill="none" stroke="black" d="M207.22,-106.92C219.04,-125.39 230.49,-156.31 218.65,-180 206.72,-203.85 188.56,-196.24 170.65,-216 153.34,-235.09 138.56,-260.53 127.31,-279.32"/>
<polygon fill="black" stroke="black" points="124.42,-277.34 122.21,-287.7 130.4,-280.97 124.42,-277.34"/>
</g>
<!-- node45&#45;&gt;node50 -->
<g id="edge91" class="edge">
<title>node45&#45;&gt;node50</title>
<path fill="none" stroke="black" d="M1254.56,-35.07C1273.86,-65.79 1301.67,-133.88 1272.65,-180 1252.96,-211.29 1229.61,-197.42 1197.65,-216 1173.35,-230.13 1170.33,-238.55 1145.65,-252 1115.63,-268.36 1079.49,-282.89 1051.74,-292.58"/>
<polygon fill="black" stroke="black" points="1050.93,-289.16 1042.59,-295.69 1053.19,-295.78 1050.93,-289.16"/>
</g>
<!-- node25&#45;&gt;node50 -->
<g id="edge70" class="edge">
<title>node25&#45;&gt;node50</title>
<path fill="none" stroke="black" d="M1398.48,-108.05C1401.74,-127.88 1399.67,-160.38 1381.65,-180 1343.12,-221.96 1310.91,-193.35 1258.65,-216 1229.76,-228.52 1226.52,-239.46 1197.65,-252 1151.01,-272.26 1094.32,-287.52 1055.14,-296.34"/>
<polygon fill="black" stroke="black" points="1054.58,-292.88 1045.56,-298.44 1056.08,-299.72 1054.58,-292.88"/>
</g>
<!-- node38&#45;&gt;node12 -->
<g id="edge90" class="edge">
<title>node38&#45;&gt;node12</title>
<path fill="none" stroke="black" d="M621.09,-36.11C626.65,-65.74 631.95,-128.35 643.65,-180 647.37,-196.45 652.95,-199.35 655.65,-216 658.21,-231.79 663.5,-238.06 655.65,-252 625.29,-305.85 595.08,-303.83 536.65,-324 464.73,-348.83 240.31,-367.1 139.9,-373.99"/>
<polygon fill="black" stroke="black" points="139.82,-370.49 130.08,-374.65 140.3,-377.47 139.82,-370.49"/>
</g>
<!-- node8&#45;&gt;node12 -->
<g id="edge65" class="edge">
<title>node8&#45;&gt;node12</title>
<path fill="none" stroke="black" d="M654.9,-317.17C645.4,-319.71 634.67,-322.21 624.65,-324 532.64,-340.4 253.81,-364.32 139.84,-373.36"/>
<polygon fill="black" stroke="black" points="139.58,-369.87 129.88,-374.15 140.13,-376.85 139.58,-369.87"/>
</g>
<!-- node8&#45;&gt;node3 -->
<g id="edge64" class="edge">
<title>node8&#45;&gt;node3</title>
<path fill="none" stroke="black" d="M695.46,-289.46C707.23,-279.12 724.28,-265.46 739.14,-254.41"/>
<polygon fill="black" stroke="black" points="740.8,-257.53 746.82,-248.8 736.67,-251.87 740.8,-257.53"/>
</g>
<!-- node13 -->
<g id="node41" class="node">
<title>node13</title>
<ellipse fill="none" stroke="black" cx="757.65" cy="-90" rx="38.04" ry="18"/>
<text text-anchor="middle" x="757.65" y="-84.95" font-family="Times,serif" font-size="14.00">node13</text>
</g>
<!-- node8&#45;&gt;node13 -->
<g id="edge66" class="edge">
<title>node8&#45;&gt;node13</title>
<path fill="none" stroke="black" d="M709.59,-295.63C741.89,-285.46 791.57,-268.49 802.65,-252 817.53,-229.86 784.38,-158.56 766.85,-118.67"/>
<polygon fill="black" stroke="black" points="770.16,-117.5 762.98,-109.71 763.74,-120.27 770.16,-117.5"/>
</g>
<!-- node4 -->
<g id="node40" class="node">
<title>node4</title>
<ellipse fill="none" stroke="black" cx="298.65" cy="-522" rx="33.44" ry="18"/>
<text text-anchor="middle" x="298.65" y="-516.95" font-family="Times,serif" font-size="14.00">node4</text>
</g>
<!-- node13&#45;&gt;node8 -->
<g id="edge46" class="edge">
<title>node13&#45;&gt;node8</title>
<path fill="none" stroke="black" d="M771.34,-107.23C794.88,-143.03 837.09,-227.53 820.65,-252 809.62,-268.41 760.37,-285.3 723.47,-295.48"/>
<polygon fill="black" stroke="black" points="722.7,-292.06 713.94,-298.02 724.5,-298.83 722.7,-292.06"/>
</g>
<!-- node27&#45;&gt;node35 -->
<g id="edge74" class="edge">
<title>node27&#45;&gt;node35</title>
<path fill="none" stroke="black" d="M1274.66,-249.17C1254.09,-260.53 1223.19,-276.49 1198.67,-288.43"/>
<polygon fill="black" stroke="black" points="1197.46,-285.13 1189.97,-292.63 1200.49,-291.44 1197.46,-285.13"/>
</g>
<!-- node33&#45;&gt;node35 -->
<g id="edge84" class="edge">
<title>node33&#45;&gt;node35</title>
<path fill="none" stroke="black" d="M1365.02,-247.79C1360.91,-249.25 1356.69,-250.68 1352.65,-252 1302.98,-268.16 1244.95,-284.55 1205.67,-294.74"/>
<polygon fill="black" stroke="black" points="1204.9,-291.32 1196.08,-297.19 1206.63,-298.1 1204.9,-291.32"/>
</g>
<!-- node26 -->
<g id="node44" class="node">
<title>node26</title>
<ellipse fill="none" stroke="black" cx="1480.65" cy="-162" rx="38.04" ry="18"/>
<text text-anchor="middle" x="1480.65" y="-156.95" font-family="Times,serif" font-size="14.00">node26</text>
</g>
<!-- node33&#45;&gt;node26 -->
<g id="edge83" class="edge">
<title>node33&#45;&gt;node26</title>
<path fill="none" stroke="black" d="M1405.31,-217.12C1417,-207.12 1433.56,-194.13 1448.25,-183.38"/>
<polygon fill="black" stroke="black" points="1450.24,-186.26 1456.32,-177.58 1446.16,-180.57 1450.24,-186.26"/>
</g>
<!-- node26&#45;&gt;node33 -->
<g id="edge52" class="edge">
<title>node26&#45;&gt;node33</title>
<path fill="none" stroke="black" d="M1465.96,-178.91C1454.2,-188.95 1437.53,-202.03 1422.79,-212.81"/>
<polygon fill="black" stroke="black" points="1420.77,-209.95 1414.69,-218.62 1424.85,-215.64 1420.77,-209.95"/>
</g>
<!-- node40&#45;&gt;node19 -->
<g id="edge59" class="edge">
<title>node40&#45;&gt;node19</title>
<path fill="none" stroke="black" d="M191.93,-250.55C178.21,-260.91 158.58,-274.61 141.65,-285.67"/>
<polygon fill="black" stroke="black" points="139.85,-282.66 133.33,-291.02 143.63,-288.55 139.85,-282.66"/>
</g>
<!-- node40&#45;&gt;node32 -->
<g id="edge58" class="edge">
<title>node40&#45;&gt;node32</title>
<path fill="none" stroke="black" d="M225.97,-217.81C240.71,-207.23 262.07,-193.04 280.2,-181.75"/>
<polygon fill="black" stroke="black" points="281.9,-184.81 288.59,-176.6 278.24,-178.85 281.9,-184.81"/>
</g>
<!-- node32&#45;&gt;node17 -->
<g id="edge61" class="edge">
<title>node32&#45;&gt;node17</title>
<path fill="none" stroke="black" d="M303.12,-144.41C299.75,-136.96 296.4,-127.96 293.77,-119.48"/>
<polygon fill="black" stroke="black" points="297.16,-118.6 291.1,-109.9 290.41,-120.48 297.16,-118.6"/>
</g>
<!-- node32&#45;&gt;node40 -->
<g id="edge60" class="edge">
<title>node32&#45;&gt;node40</title>
<path fill="none" stroke="black" d="M297.07,-178.37C282.4,-188.89 261.31,-202.91 243.33,-214.11"/>
<polygon fill="black" stroke="black" points="241.71,-210.99 235.01,-219.21 245.37,-216.96 241.71,-210.99"/>
</g>
<!-- node10&#45;&gt;node14 -->
<g id="edge69" class="edge">
<title>node10&#45;&gt;node14</title>
<path fill="none" stroke="black" d="M109.38,-105.34C120,-114.29 132.73,-126.04 143.16,-136.44"/>
<polygon fill="black" stroke="black" points="140.4,-138.62 149.89,-143.33 145.41,-133.73 140.4,-138.62"/>
</g>
<!-- node36&#45;&gt;node49 -->
<g id="edge71" class="edge">
<title>node36&#45;&gt;node49</title>
<path fill="none" stroke="black" d="M1525.81,-106.88C1537.2,-125.3 1548.1,-156.18 1536.65,-180 1525.55,-203.08 1469.26,-239.97 1446.65,-252 1203.98,-381.14 1109.67,-320.4 837.65,-360 684.58,-382.28 504.81,-421.69 422.17,-439.64"/>
<polygon fill="black" stroke="black" points="421.68,-436.16 412.64,-441.7 423.16,-443 421.68,-436.16"/>
</g>
<!-- node15&#45;&gt;node49 -->
<g id="edge73" class="edge">
<title>node15&#45;&gt;node49</title>
<path fill="none" stroke="black" d="M1500.69,-26.51C1524.09,-34.11 1552.98,-48.22 1566.65,-72 1590.59,-113.66 1580.44,-135.78 1561.65,-180 1515.5,-288.58 1452.06,-291.51 1338.65,-324 999.28,-421.22 570,-443.12 426.09,-447.8"/>
<polygon fill="black" stroke="black" points="426.03,-444.3 416.15,-448.1 426.25,-451.29 426.03,-444.3"/>
</g>
<!-- node6 -->
<g id="node50" class="node">
<title>node6</title>
<ellipse fill="none" stroke="black" cx="383.65" cy="-522" rx="33.44" ry="18"/>
<text text-anchor="middle" x="383.65" y="-516.95" font-family="Times,serif" font-size="14.00">node6</text>
</g>
</g>
</svg>
