<?xml version="1.0" encoding="UTF-8" standalone="no"?>
<!DOCTYPE svg PUBLIC "-//W3C//DTD SVG 1.1//EN"
 "http://www.w3.org/Graphics/SVG/1.1/DTD/svg11.dtd">
<!-- Generated by graphviz version 12.2.1 (20241206.2353)
 -->
<!-- Pages: 1 -->
<svg width="670pt" height="476pt"
 viewBox="0.00 0.00 670.48 476.00" xmlns="http://www.w3.org/2000/svg" xmlns:xlink="http://www.w3.org/1999/xlink">
<g id="graph0" class="graph" transform="scale(1 1) rotate(0) translate(4 472)">
<polygon fill="white" stroke="none" points="-4,4 -4,-472 666.48,-472 666.48,4 -4,4"/>
<!-- node9 -->
<g id="node1" class="node">
<title>node9</title>
<ellipse fill="none" stroke="black" cx="157.44" cy="-450" rx="33.44" ry="18"/>
<text text-anchor="middle" x="157.44" y="-444.95" font-family="Times,serif" font-size="14.00">node9</text>
</g>
<!-- node14 -->
<g id="node2" class="node">
<title>node14</title>
<ellipse fill="none" stroke="black" cx="157.44" cy="-378" rx="38.04" ry="18"/>
<text text-anchor="middle" x="157.44" y="-372.95" font-family="Times,serif" font-size="14.00">node14</text>
</g>
<!-- node9&#45;&gt;node14 -->
<g id="edge1" class="edge">
<title>node9&#45;&gt;node14</title>
<path fill="none" stroke="black" d="M151.56,-432.05C150.78,-424.68 150.52,-415.84 150.79,-407.51"/>
<polygon fill="black" stroke="black" points="154.27,-407.99 151.43,-397.79 147.28,-407.54 154.27,-407.99"/>
</g>
<!-- node14&#45;&gt;node9 -->
<g id="edge31" class="edge">
<title>node14&#45;&gt;node9</title>
<path fill="none" stroke="black" d="M163.35,-396.28C164.11,-403.6 164.35,-412.34 164.08,-420.57"/>
<polygon fill="black" stroke="black" points="160.59,-420.33 163.42,-430.54 167.57,-420.8 160.59,-420.33"/>
</g>
<!-- node10 -->
<g id="node4" class="node">
<title>node10</title>
<ellipse fill="none" stroke="black" cx="157.44" cy="-306" rx="38.04" ry="18"/>
<text text-anchor="middle" x="157.44" y="-300.95" font-family="Times,serif" font-size="14.00">node10</text>
</g>
<!-- node14&#45;&gt;node10 -->
<g id="edge32" class="edge">
<title>node14&#45;&gt;node10</title>
<path fill="none" stroke="black" d="M151.56,-360.05C150.78,-352.68 150.52,-343.84 150.79,-335.51"/>
<polygon fill="black" stroke="black" points="154.27,-335.99 151.43,-325.79 147.28,-335.54 154.27,-335.99"/>
</g>
<!-- node1 -->
<g id="node3" class="node">
<title>node1</title>
<ellipse fill="none" stroke="black" cx="115.44" cy="-234" rx="33.44" ry="18"/>
<text text-anchor="middle" x="115.44" y="-228.95" font-family="Times,serif" font-size="14.00">node1</text>
</g>
<!-- node1&#45;&gt;node10 -->
<g id="edge2" class="edge">
<title>node1&#45;&gt;node10</title>
<path fill="none" stroke="black" d="M130.24,-250.2C136.03,-258.22 142.39,-268.31 147.63,-277.64"/>
<polygon fill="black" stroke="black" points="144.48,-279.17 152.26,-286.36 150.66,-275.89 144.48,-279.17"/>
</g>
<!-- node11 -->
<g id="node5" class="node">
<title>node11</title>
<ellipse fill="none" stroke="black" cx="68.44" cy="-162" rx="38.04" ry="18"/>
<text text-anchor="middle" x="68.44" y="-156.95" font-family="Times,serif" font-size="14.00">node11</text>
</g>
<!-- node1&#45;&gt;node11 -->
<g id="edge3" class="edge">
<title>node1&#45;&gt;node11</title>
<path fill="none" stroke="black" d="M99.56,-217.81C93.1,-209.66 85.89,-199.37 79.92,-189.92"/>
<polygon fill="black" stroke="black" points="82.97,-188.19 74.82,-181.42 76.97,-191.8 82.97,-188.19"/>
</g>
<!-- node17 -->
<g id="node6" class="node">
<title>node17</title>
<ellipse fill="none" stroke="black" cx="207.44" cy="-162" rx="38.04" ry="18"/>
<text text-anchor="middle" x="207.44" y="-156.95" font-family="Times,serif" font-size="14.00">node17</text>
</g>
<!-- node1&#45;&gt;node17 -->
<g id="edge4" class="edge">
<title>node1&#45;&gt;node17</title>
<path fill="none" stroke="black" d="M130.14,-217.46C142.26,-207.32 159.64,-193.99 174.92,-183.05"/>
<polygon fill="black" stroke="black" points="176.68,-186.09 182.85,-177.47 172.66,-180.36 176.68,-186.09"/>
</g>
<!-- node18 -->
<g id="node7" class="node">
<title>node18</title>
<ellipse fill="none" stroke="black" cx="323.44" cy="-162" rx="38.04" ry="18"/>
<text text-anchor="middle" x="323.44" y="-156.95" font-family="Times,serif" font-size="14.00">node18</text>
</g>
<!-- node1&#45;&gt;node18 -->
<g id="edge5" class="edge">
<title>node1&#45;&gt;node18</title>
<path fill="none" stroke="black" d="M141.6,-222.52C176.53,-210.01 238.52,-189.11 280.37,-175.7"/>
<polygon fill="black" stroke="black" points="281.42,-179.03 289.89,-172.67 279.3,-172.36 281.42,-179.03"/>
</g>
<!-- node20 -->
<g id="node8" class="node">
<title>node20</title>
<ellipse fill="none" stroke="black" cx="428.44" cy="-162" rx="38.04" ry="18"/>
<text text-anchor="middle" x="428.44" y="-156.95" font-family="Times,serif" font-size="14.00">node20</text>
</g>
<!-- node1&#45;&gt;node20 -->
<g id="edge6" class="edge">
<title>node1&#45;&gt;node20</title>
<path fill="none" stroke="black" d="M145.89,-226.36C192.66,-217.12 284.23,-199.3 361.44,-180 368.69,-178.19 376.39,-176.07 383.93,-173.95"/>
<polygon fill="black" stroke="black" points="384.66,-177.38 393.33,-171.3 382.76,-170.65 384.66,-177.38"/>
</g>
<!-- node10&#45;&gt;node14 -->
<g id="edge23" class="edge">
<title>node10&#45;&gt;node14</title>
<path fill="none" stroke="black" d="M163.35,-324.28C164.11,-331.6 164.35,-340.34 164.08,-348.57"/>
<polygon fill="black" stroke="black" points="160.59,-348.33 163.42,-358.54 167.57,-348.8 160.59,-348.33"/>
</g>
<!-- node10&#45;&gt;node1 -->
<g id="edge25" class="edge">
<title>node10&#45;&gt;node1</title>
<path fill="none" stroke="black" d="M142.15,-289.12C136.51,-281.23 130.37,-271.48 125.29,-262.43"/>
<polygon fill="black" stroke="black" points="128.39,-260.82 120.61,-253.63 122.21,-264.1 128.39,-260.82"/>
</g>
<!-- node2 -->
<g id="node16" class="node">
<title>node2</title>
<ellipse fill="none" stroke="black" cx="312.44" cy="-234" rx="33.44" ry="18"/>
<text text-anchor="middle" x="312.44" y="-228.95" font-family="Times,serif" font-size="14.00">node2</text>
</g>
<!-- node10&#45;&gt;node2 -->
<g id="edge26" class="edge">
<title>node10&#45;&gt;node2</title>
<path fill="none" stroke="black" d="M181.52,-291.67C206.54,-279.6 245.74,-261.88 274.81,-249.47"/>
<polygon fill="black" stroke="black" points="276.16,-252.7 284.01,-245.59 273.43,-246.25 276.16,-252.7"/>
</g>
<!-- node19 -->
<g id="node19" class="node">
<title>node19</title>
<ellipse fill="none" stroke="black" cx="624.44" cy="-18" rx="38.04" ry="18"/>
<text text-anchor="middle" x="624.44" y="-12.95" font-family="Times,serif" font-size="14.00">node19</text>
</g>
<!-- node10&#45;&gt;node19 -->
<g id="edge24" class="edge">
<title>node10&#45;&gt;node19</title>
<path fill="none" stroke="black" d="M195.03,-302.25C268.89,-295.11 433.79,-269.67 533.44,-180 574.15,-143.36 597.47,-81.81 611.04,-46.37"/>
<polygon fill="black" stroke="black" points="614.22,-47.84 614.57,-37.25 607.7,-45.32 614.22,-47.84"/>
</g>
<!-- node11&#45;&gt;node1 -->
<g id="edge30" class="edge">
<title>node11&#45;&gt;node1</title>
<path fill="none" stroke="black" d="M84.45,-178.36C90.92,-186.54 98.13,-196.84 104.08,-206.28"/>
<polygon fill="black" stroke="black" points="101.02,-207.98 109.16,-214.76 107.02,-204.38 101.02,-207.98"/>
</g>
<!-- node3 -->
<g id="node11" class="node">
<title>node3</title>
<ellipse fill="none" stroke="black" cx="33.44" cy="-90" rx="33.44" ry="18"/>
<text text-anchor="middle" x="33.44" y="-84.95" font-family="Times,serif" font-size="14.00">node3</text>
</g>
<!-- node11&#45;&gt;node3 -->
<g id="edge28" class="edge">
<title>node11&#45;&gt;node3</title>
<path fill="none" stroke="black" d="M54.52,-144.76C49.74,-136.95 44.68,-127.37 40.57,-118.48"/>
<polygon fill="black" stroke="black" points="43.88,-117.31 36.7,-109.51 37.45,-120.08 43.88,-117.31"/>
</g>
<!-- node15 -->
<g id="node14" class="node">
<title>node15</title>
<ellipse fill="none" stroke="black" cx="138.44" cy="-18" rx="38.04" ry="18"/>
<text text-anchor="middle" x="138.44" y="-12.95" font-family="Times,serif" font-size="14.00">node15</text>
</g>
<!-- node11&#45;&gt;node15 -->
<g id="edge29" class="edge">
<title>node11&#45;&gt;node15</title>
<path fill="none" stroke="black" d="M72.3,-143.87C81.81,-119.3 103.96,-73.85 120.21,-45.08"/>
<polygon fill="black" stroke="black" points="123.13,-47.02 125.14,-36.62 117.08,-43.5 123.13,-47.02"/>
</g>
<!-- node6 -->
<g id="node20" class="node">
<title>node6</title>
<ellipse fill="none" stroke="black" cx="173.44" cy="-90" rx="33.44" ry="18"/>
<text text-anchor="middle" x="173.44" y="-84.95" font-family="Times,serif" font-size="14.00">node6</text>
</g>
<!-- node11&#45;&gt;node6 -->
<g id="edge27" class="edge">
<title>node11&#45;&gt;node6</title>
<path fill="none" stroke="black" d="M85.54,-145.81C100.41,-135.02 122.11,-120.49 140.3,-109.1"/>
<polygon fill="black" stroke="black" points="142.01,-112.15 148.69,-103.93 138.34,-106.19 142.01,-112.15"/>
</g>
<!-- node17&#45;&gt;node1 -->
<g id="edge33" class="edge">
<title>node17&#45;&gt;node1</title>
<path fill="none" stroke="black" d="M192.24,-178.95C179.84,-189.29 162.19,-202.81 146.85,-213.74"/>
<polygon fill="black" stroke="black" points="145.1,-210.69 138.92,-219.29 149.12,-216.43 145.1,-210.69"/>
</g>
<!-- node12 -->
<g id="node13" class="node">
<title>node12</title>
<ellipse fill="none" stroke="black" cx="262.44" cy="-90" rx="38.04" ry="18"/>
<text text-anchor="middle" x="262.44" y="-84.95" font-family="Times,serif" font-size="14.00">node12</text>
</g>
<!-- node17&#45;&gt;node12 -->
<g id="edge34" class="edge">
<title>node17&#45;&gt;node12</title>
<path fill="none" stroke="black" d="M214.87,-144.05C220.85,-135.26 229.23,-124.36 237.36,-114.74"/>
<polygon fill="black" stroke="black" points="239.74,-117.33 243.68,-107.5 234.47,-112.73 239.74,-117.33"/>
</g>
<!-- node18&#45;&gt;node1 -->
<g id="edge19" class="edge">
<title>node18&#45;&gt;node1</title>
<path fill="none" stroke="black" d="M294.99,-174.3C258.84,-187.18 196.57,-208.15 155.62,-221.23"/>
<polygon fill="black" stroke="black" points="154.59,-217.88 146.11,-224.24 156.7,-224.56 154.59,-217.88"/>
</g>
<!-- node16 -->
<g id="node9" class="node">
<title>node16</title>
<ellipse fill="none" stroke="black" cx="356.44" cy="-90" rx="38.04" ry="18"/>
<text text-anchor="middle" x="356.44" y="-84.95" font-family="Times,serif" font-size="14.00">node16</text>
</g>
<!-- node18&#45;&gt;node16 -->
<g id="edge20" class="edge">
<title>node18&#45;&gt;node16</title>
<path fill="none" stroke="black" d="M325.68,-143.7C328.64,-135.67 333.01,-125.95 337.61,-117.05"/>
<polygon fill="black" stroke="black" points="340.57,-118.92 342.31,-108.47 334.43,-115.56 340.57,-118.92"/>
</g>
<!-- node20&#45;&gt;node1 -->
<g id="edge14" class="edge">
<title>node20&#45;&gt;node1</title>
<path fill="none" stroke="black" d="M399.96,-174.42C393.27,-176.38 386.16,-178.32 379.44,-180 302.56,-199.22 211.44,-216.96 158.72,-226.24"/>
<polygon fill="black" stroke="black" points="158.18,-222.78 148.93,-227.94 159.38,-229.68 158.18,-222.78"/>
</g>
<!-- node5 -->
<g id="node15" class="node">
<title>node5</title>
<ellipse fill="none" stroke="black" cx="445.44" cy="-90" rx="33.44" ry="18"/>
<text text-anchor="middle" x="445.44" y="-84.95" font-family="Times,serif" font-size="14.00">node5</text>
</g>
<!-- node20&#45;&gt;node5 -->
<g id="edge15" class="edge">
<title>node20&#45;&gt;node5</title>
<path fill="none" stroke="black" d="M426.72,-143.7C427.78,-136.13 429.75,-127.06 432.12,-118.59"/>
<polygon fill="black" stroke="black" points="435.46,-119.66 435.11,-109.07 428.78,-117.56 435.46,-119.66"/>
</g>
<!-- node16&#45;&gt;node18 -->
<g id="edge8" class="edge">
<title>node16&#45;&gt;node18</title>
<path fill="none" stroke="black" d="M354.26,-108.12C351.32,-116.15 346.95,-125.89 342.34,-134.82"/>
<polygon fill="black" stroke="black" points="339.35,-132.98 337.62,-143.44 345.49,-136.35 339.35,-132.98"/>
</g>
<!-- node13 -->
<g id="node10" class="node">
<title>node13</title>
<ellipse fill="none" stroke="black" cx="344.44" cy="-18" rx="38.04" ry="18"/>
<text text-anchor="middle" x="344.44" y="-12.95" font-family="Times,serif" font-size="14.00">node13</text>
</g>
<!-- node16&#45;&gt;node13 -->
<g id="edge7" class="edge">
<title>node16&#45;&gt;node13</title>
<path fill="none" stroke="black" d="M347.66,-72.05C345.61,-64.68 343.84,-55.84 342.68,-47.51"/>
<polygon fill="black" stroke="black" points="346.18,-47.35 341.65,-37.78 339.22,-48.09 346.18,-47.35"/>
</g>
<!-- node13&#45;&gt;node16 -->
<g id="edge37" class="edge">
<title>node13&#45;&gt;node16</title>
<path fill="none" stroke="black" d="M353.13,-35.62C355.2,-43.02 357,-51.94 358.18,-60.35"/>
<polygon fill="black" stroke="black" points="354.69,-60.62 359.23,-70.19 361.65,-59.88 354.69,-60.62"/>
</g>
<!-- node3&#45;&gt;node11 -->
<g id="edge9" class="edge">
<title>node3&#45;&gt;node11</title>
<path fill="none" stroke="black" d="M47.01,-106.67C51.83,-114.49 56.97,-124.17 61.16,-133.19"/>
<polygon fill="black" stroke="black" points="57.92,-134.52 65.1,-142.31 64.34,-131.74 57.92,-134.52"/>
</g>
<!-- node8 -->
<g id="node12" class="node">
<title>node8</title>
<ellipse fill="none" stroke="black" cx="244.44" cy="-18" rx="33.44" ry="18"/>
<text text-anchor="middle" x="244.44" y="-12.95" font-family="Times,serif" font-size="14.00">node8</text>
</g>
<!-- node8&#45;&gt;node12 -->
<g id="edge10" class="edge">
<title>node8&#45;&gt;node12</title>
<path fill="none" stroke="black" d="M254.56,-35.62C257.29,-43.1 259.88,-52.14 261.79,-60.64"/>
<polygon fill="black" stroke="black" points="258.3,-61.05 263.62,-70.21 265.18,-59.73 258.3,-61.05"/>
</g>
<!-- node12&#45;&gt;node17 -->
<g id="edge12" class="edge">
<title>node12&#45;&gt;node17</title>
<path fill="none" stroke="black" d="M254.88,-108.13C248.93,-116.86 240.65,-127.63 232.61,-137.16"/>
<polygon fill="black" stroke="black" points="229.99,-134.84 226.05,-144.67 235.26,-139.44 229.99,-134.84"/>
</g>
<!-- node12&#45;&gt;node8 -->
<g id="edge11" class="edge">
<title>node12&#45;&gt;node8</title>
<path fill="none" stroke="black" d="M252.33,-72.41C249.6,-64.96 247.02,-55.96 245.12,-47.48"/>
<polygon fill="black" stroke="black" points="248.61,-47.09 243.28,-37.93 241.73,-48.41 248.61,-47.09"/>
</g>
<!-- node15&#45;&gt;node11 -->
<g id="edge13" class="edge">
<title>node15&#45;&gt;node11</title>
<path fill="none" stroke="black" d="M134.64,-35.98C125.15,-60.52 102.95,-106.1 86.66,-134.92"/>
<polygon fill="black" stroke="black" points="83.73,-133 81.72,-143.4 89.78,-136.52 83.73,-133"/>
</g>
<!-- node5&#45;&gt;node20 -->
<g id="edge21" class="edge">
<title>node5&#45;&gt;node20</title>
<path fill="none" stroke="black" d="M447.13,-108.45C446.07,-116.01 444.1,-125.05 441.73,-133.48"/>
<polygon fill="black" stroke="black" points="438.41,-132.38 438.76,-142.97 445.09,-134.47 438.41,-132.38"/>
</g>
<!-- node2&#45;&gt;node10 -->
<g id="edge17" class="edge">
<title>node2&#45;&gt;node10</title>
<path fill="none" stroke="black" d="M289.79,-247.64C265.42,-259.44 226.5,-277.07 197.08,-289.67"/>
<polygon fill="black" stroke="black" points="195.95,-286.35 188.11,-293.47 198.69,-292.79 195.95,-286.35"/>
</g>
<!-- node7 -->
<g id="node17" class="node">
<title>node7</title>
<ellipse fill="none" stroke="black" cx="443.44" cy="-18" rx="33.44" ry="18"/>
<text text-anchor="middle" x="443.44" y="-12.95" font-family="Times,serif" font-size="14.00">node7</text>
</g>
<!-- node2&#45;&gt;node7 -->
<g id="edge16" class="edge">
<title>node2&#45;&gt;node7</title>
<path fill="none" stroke="black" d="M345.78,-231.27C381.21,-227.39 435.86,-215.52 466.44,-180 497.95,-143.4 494.84,-117.43 478.44,-72 474.72,-61.7 468.04,-51.99 461.39,-43.77"/>
<polygon fill="black" stroke="black" points="464.19,-41.66 455.05,-36.31 458.86,-46.19 464.19,-41.66"/>
</g>
<!-- node4 -->
<g id="node18" class="node">
<title>node4</title>
<ellipse fill="none" stroke="black" cx="533.44" cy="-18" rx="33.44" ry="18"/>
<text text-anchor="middle" x="533.44" y="-12.95" font-family="Times,serif" font-size="14.00">node4</text>
</g>
<!-- node2&#45;&gt;node4 -->
<g id="edge18" class="edge">
<title>node2&#45;&gt;node4</title>
<path fill="none" stroke="black" d="M344.34,-227.79C392.42,-219.96 479.46,-203.53 500.44,-180 532.82,-143.67 532.5,-83.37 531.55,-47.78"/>
<polygon fill="black" stroke="black" points="535.05,-47.72 531.29,-37.82 528.06,-47.91 535.05,-47.72"/>
</g>
<!-- node7&#45;&gt;node2 -->
<g id="edge22" class="edge">
<title>node7&#45;&gt;node2</title>
<path fill="none" stroke="black" d="M465.88,-31.67C477.76,-41.47 490.67,-56.03 496.44,-72 512.84,-117.43 515.95,-143.4 484.44,-180 453.25,-216.23 397.02,-227.86 357.23,-231.5"/>
<polygon fill="black" stroke="black" points="357.18,-227.99 347.48,-232.24 357.72,-234.97 357.18,-227.99"/>
</g>
<!-- node4&#45;&gt;node2 -->
<g id="edge36" class="edge">
<title>node4&#45;&gt;node2</title>
<path fill="none" stroke="black" d="M541.46,-35.8C549.92,-68.08 554.82,-139.18 518.44,-180 497.47,-203.52 410.47,-219.95 356.34,-227.78"/>
<polygon fill="black" stroke="black" points="355.92,-224.31 346.5,-229.16 356.89,-231.24 355.92,-224.31"/>
</g>
<!-- node19&#45;&gt;node10 -->
<g id="edge35" class="edge">
<title>node19&#45;&gt;node10</title>
<path fill="none" stroke="black" d="M625.26,-36.35C620.07,-68.93 596.32,-139.61 551.44,-180 452.23,-269.27 288.34,-294.88 206.66,-302.16"/>
<polygon fill="black" stroke="black" points="206.41,-298.67 196.73,-302.98 206.98,-305.64 206.41,-298.67"/>
</g>
<!-- node6&#45;&gt;node11 -->
<g id="edge38" class="edge">
<title>node6&#45;&gt;node11</title>
<path fill="none" stroke="black" d="M156.77,-105.87C142.26,-116.42 121.05,-130.66 102.98,-142.02"/>
<polygon fill="black" stroke="black" points="101.28,-138.96 94.62,-147.2 104.96,-144.91 101.28,-138.96"/>
</g>
</g>
</svg>
