<?xml version="1.0" encoding="UTF-8" standalone="no"?>
<!DOCTYPE svg PUBLIC "-//W3C//DTD SVG 1.1//EN"
 "http://www.w3.org/Graphics/SVG/1.1/DTD/svg11.dtd">
<!-- Generated by graphviz version 12.2.1 (20241206.2353)
 -->
<!-- Pages: 1 -->
<svg width="1646pt" height="548pt"
 viewBox="0.00 0.00 1646.03 548.00" xmlns="http://www.w3.org/2000/svg" xmlns:xlink="http://www.w3.org/1999/xlink">
<g id="graph0" class="graph" transform="scale(1 1) rotate(0) translate(4 544)">
<polygon fill="white" stroke="none" points="-4,4 -4,-544 1642.03,-544 1642.03,4 -4,4"/>
<!-- node35 -->
<g id="node1" class="node">
<title>node35</title>
<ellipse fill="none" stroke="black" cx="299.04" cy="-522" rx="38.04" ry="18"/>
<text text-anchor="middle" x="299.04" y="-516.95" font-family="Times,serif" font-size="14.00">node35</text>
</g>
<!-- node16 -->
<g id="node2" class="node">
<title>node16</title>
<ellipse fill="none" stroke="black" cx="299.04" cy="-450" rx="38.04" ry="18"/>
<text text-anchor="middle" x="299.04" y="-444.95" font-family="Times,serif" font-size="14.00">node16</text>
</g>
<!-- node35&#45;&gt;node16 -->
<g id="edge1" class="edge">
<title>node35&#45;&gt;node16</title>
<path fill="none" stroke="black" d="M293.17,-504.05C292.38,-496.68 292.13,-487.84 292.4,-479.51"/>
<polygon fill="black" stroke="black" points="295.87,-479.99 293.03,-469.79 288.89,-479.54 295.87,-479.99"/>
</g>
<!-- node16&#45;&gt;node35 -->
<g id="edge21" class="edge">
<title>node16&#45;&gt;node35</title>
<path fill="none" stroke="black" d="M304.96,-468.28C305.71,-475.6 305.96,-484.34 305.69,-492.57"/>
<polygon fill="black" stroke="black" points="302.2,-492.33 305.02,-502.54 309.18,-492.8 302.2,-492.33"/>
</g>
<!-- node33 -->
<g id="node7" class="node">
<title>node33</title>
<ellipse fill="none" stroke="black" cx="252.04" cy="-378" rx="38.04" ry="18"/>
<text text-anchor="middle" x="252.04" y="-372.95" font-family="Times,serif" font-size="14.00">node33</text>
</g>
<!-- node16&#45;&gt;node33 -->
<g id="edge20" class="edge">
<title>node16&#45;&gt;node33</title>
<path fill="none" stroke="black" d="M282.89,-433.46C276.44,-425.3 269.29,-415.07 263.38,-405.68"/>
<polygon fill="black" stroke="black" points="266.48,-404.04 258.33,-397.26 260.47,-407.64 266.48,-404.04"/>
</g>
<!-- node50 -->
<g id="node17" class="node">
<title>node50</title>
<ellipse fill="none" stroke="black" cx="346.04" cy="-378" rx="38.04" ry="18"/>
<text text-anchor="middle" x="346.04" y="-372.95" font-family="Times,serif" font-size="14.00">node50</text>
</g>
<!-- node16&#45;&gt;node50 -->
<g id="edge18" class="edge">
<title>node16&#45;&gt;node50</title>
<path fill="none" stroke="black" d="M304.54,-432.05C309.42,-423.44 316.36,-412.81 323.24,-403.33"/>
<polygon fill="black" stroke="black" points="325.88,-405.65 329.12,-395.56 320.3,-401.43 325.88,-405.65"/>
</g>
<!-- node15 -->
<g id="node18" class="node">
<title>node15</title>
<ellipse fill="none" stroke="black" cx="440.04" cy="-378" rx="38.04" ry="18"/>
<text text-anchor="middle" x="440.04" y="-372.95" font-family="Times,serif" font-size="14.00">node15</text>
</g>
<!-- node16&#45;&gt;node15 -->
<g id="edge19" class="edge">
<title>node16&#45;&gt;node15</title>
<path fill="none" stroke="black" d="M321.4,-435.17C342.98,-423.68 375.83,-407.33 401.57,-395.22"/>
<polygon fill="black" stroke="black" points="402.79,-398.51 410.38,-391.12 399.84,-392.17 402.79,-398.51"/>
</g>
<!-- node22 -->
<g id="node3" class="node">
<title>node22</title>
<ellipse fill="none" stroke="black" cx="38.04" cy="-90" rx="38.04" ry="18"/>
<text text-anchor="middle" x="38.04" y="-84.95" font-family="Times,serif" font-size="14.00">node22</text>
</g>
<!-- node21 -->
<g id="node4" class="node">
<title>node21</title>
<ellipse fill="none" stroke="black" cx="95.04" cy="-18" rx="38.04" ry="18"/>
<text text-anchor="middle" x="95.04" y="-12.95" font-family="Times,serif" font-size="14.00">node21</text>
</g>
<!-- node22&#45;&gt;node21 -->
<g id="edge2" class="edge">
<title>node22&#45;&gt;node21</title>
<path fill="none" stroke="black" d="M45.96,-72.05C52.28,-63.13 61.13,-52.06 69.64,-42.33"/>
<polygon fill="black" stroke="black" points="72.15,-44.77 76.26,-35.01 66.96,-40.08 72.15,-44.77"/>
</g>
<!-- node13 -->
<g id="node5" class="node">
<title>node13</title>
<ellipse fill="none" stroke="black" cx="85.04" cy="-162" rx="38.04" ry="18"/>
<text text-anchor="middle" x="85.04" y="-156.95" font-family="Times,serif" font-size="14.00">node13</text>
</g>
<!-- node22&#45;&gt;node13 -->
<g id="edge3" class="edge">
<title>node22&#45;&gt;node13</title>
<path fill="none" stroke="black" d="M54.05,-106.36C60.53,-114.54 67.74,-124.84 73.68,-134.28"/>
<polygon fill="black" stroke="black" points="70.62,-135.98 78.77,-142.76 76.63,-132.38 70.62,-135.98"/>
</g>
<!-- node21&#45;&gt;node22 -->
<g id="edge87" class="edge">
<title>node21&#45;&gt;node22</title>
<path fill="none" stroke="black" d="M87.35,-35.63C81.09,-44.5 72.27,-55.57 63.75,-65.32"/>
<polygon fill="black" stroke="black" points="61.21,-62.92 57.1,-72.69 66.4,-67.61 61.21,-62.92"/>
</g>
<!-- node13&#45;&gt;node22 -->
<g id="edge9" class="edge">
<title>node13&#45;&gt;node22</title>
<path fill="none" stroke="black" d="M68.89,-145.46C62.44,-137.3 55.29,-127.07 49.38,-117.68"/>
<polygon fill="black" stroke="black" points="52.48,-116.04 44.33,-109.26 46.47,-119.64 52.48,-116.04"/>
</g>
<!-- node40 -->
<g id="node6" class="node">
<title>node40</title>
<ellipse fill="none" stroke="black" cx="132.04" cy="-90" rx="38.04" ry="18"/>
<text text-anchor="middle" x="132.04" y="-84.95" font-family="Times,serif" font-size="14.00">node40</text>
</g>
<!-- node13&#45;&gt;node40 -->
<g id="edge13" class="edge">
<title>node13&#45;&gt;node40</title>
<path fill="none" stroke="black" d="M90.54,-144.05C95.42,-135.44 102.36,-124.81 109.24,-115.33"/>
<polygon fill="black" stroke="black" points="111.88,-117.65 115.12,-107.56 106.3,-113.43 111.88,-117.65"/>
</g>
<!-- node47 -->
<g id="node8" class="node">
<title>node47</title>
<ellipse fill="none" stroke="black" cx="122.04" cy="-234" rx="38.04" ry="18"/>
<text text-anchor="middle" x="122.04" y="-228.95" font-family="Times,serif" font-size="14.00">node47</text>
</g>
<!-- node13&#45;&gt;node47 -->
<g id="edge15" class="edge">
<title>node13&#45;&gt;node47</title>
<path fill="none" stroke="black" d="M99.37,-179.14C104.36,-186.92 109.68,-196.47 114.05,-205.35"/>
<polygon fill="black" stroke="black" points="110.82,-206.71 118.18,-214.32 117.17,-203.78 110.82,-206.71"/>
</g>
<!-- node23 -->
<g id="node11" class="node">
<title>node23</title>
<ellipse fill="none" stroke="black" cx="226.04" cy="-90" rx="38.04" ry="18"/>
<text text-anchor="middle" x="226.04" y="-84.95" font-family="Times,serif" font-size="14.00">node23</text>
</g>
<!-- node13&#45;&gt;node23 -->
<g id="edge10" class="edge">
<title>node13&#45;&gt;node23</title>
<path fill="none" stroke="black" d="M107.4,-147.17C128.98,-135.68 161.83,-119.33 187.57,-107.22"/>
<polygon fill="black" stroke="black" points="188.79,-110.51 196.38,-103.12 185.84,-104.17 188.79,-110.51"/>
</g>
<!-- node34 -->
<g id="node12" class="node">
<title>node34</title>
<ellipse fill="none" stroke="black" cx="218.04" cy="-18" rx="38.04" ry="18"/>
<text text-anchor="middle" x="218.04" y="-12.95" font-family="Times,serif" font-size="14.00">node34</text>
</g>
<!-- node13&#45;&gt;node34 -->
<g id="edge11" class="edge">
<title>node13&#45;&gt;node34</title>
<path fill="none" stroke="black" d="M120.53,-155.14C167.63,-147.18 246.44,-131.25 264.04,-108 280.02,-86.9 260,-60.99 241.44,-42.58"/>
<polygon fill="black" stroke="black" points="243.9,-40.1 234.24,-35.74 239.08,-45.17 243.9,-40.1"/>
</g>
<!-- node37 -->
<g id="node13" class="node">
<title>node37</title>
<ellipse fill="none" stroke="black" cx="326.04" cy="-18" rx="38.04" ry="18"/>
<text text-anchor="middle" x="326.04" y="-12.95" font-family="Times,serif" font-size="14.00">node37</text>
</g>
<!-- node13&#45;&gt;node37 -->
<g id="edge12" class="edge">
<title>node13&#45;&gt;node37</title>
<path fill="none" stroke="black" d="M121,-155.57C173.11,-147.64 265.55,-131.26 290.04,-108 306.61,-92.27 313.11,-66.76 317.13,-47.07"/>
<polygon fill="black" stroke="black" points="320.52,-47.96 319.03,-37.47 313.66,-46.6 320.52,-47.96"/>
</g>
<!-- node46 -->
<g id="node14" class="node">
<title>node46</title>
<ellipse fill="none" stroke="black" cx="432.04" cy="-90" rx="38.04" ry="18"/>
<text text-anchor="middle" x="432.04" y="-84.95" font-family="Times,serif" font-size="14.00">node46</text>
</g>
<!-- node13&#45;&gt;node46 -->
<g id="edge14" class="edge">
<title>node13&#45;&gt;node46</title>
<path fill="none" stroke="black" d="M120.91,-155.33C175.5,-147.13 281.99,-130.44 371.04,-108 376.8,-106.55 382.85,-104.79 388.83,-102.97"/>
<polygon fill="black" stroke="black" points="389.5,-106.43 398,-100.11 387.41,-99.74 389.5,-106.43"/>
</g>
<!-- node19 -->
<g id="node15" class="node">
<title>node19</title>
<ellipse fill="none" stroke="black" cx="526.04" cy="-90" rx="38.04" ry="18"/>
<text text-anchor="middle" x="526.04" y="-84.95" font-family="Times,serif" font-size="14.00">node19</text>
</g>
<!-- node13&#45;&gt;node19 -->
<g id="edge16" class="edge">
<title>node13&#45;&gt;node19</title>
<path fill="none" stroke="black" d="M122.67,-158.22C192.24,-152.84 344.69,-138.73 470.04,-108 474.5,-106.91 479.12,-105.54 483.73,-104.06"/>
<polygon fill="black" stroke="black" points="484.57,-107.47 492.93,-100.96 482.34,-100.84 484.57,-107.47"/>
</g>
<!-- node40&#45;&gt;node13 -->
<g id="edge4" class="edge">
<title>node40&#45;&gt;node13</title>
<path fill="none" stroke="black" d="M126.54,-107.96C121.69,-116.53 114.8,-127.09 107.95,-136.52"/>
<polygon fill="black" stroke="black" points="105.34,-134.17 102.11,-144.26 110.93,-138.39 105.34,-134.17"/>
</g>
<!-- node33&#45;&gt;node16 -->
<g id="edge5" class="edge">
<title>node33&#45;&gt;node16</title>
<path fill="none" stroke="black" d="M268.05,-394.36C274.53,-402.54 281.74,-412.84 287.68,-422.28"/>
<polygon fill="black" stroke="black" points="284.62,-423.98 292.77,-430.76 290.63,-420.38 284.62,-423.98"/>
</g>
<!-- node47&#45;&gt;node13 -->
<g id="edge7" class="edge">
<title>node47&#45;&gt;node13</title>
<path fill="none" stroke="black" d="M107.89,-217.12C102.86,-209.32 97.49,-199.69 93.08,-190.73"/>
<polygon fill="black" stroke="black" points="96.27,-189.28 88.9,-181.67 89.91,-192.21 96.27,-189.28"/>
</g>
<!-- node1 -->
<g id="node9" class="node">
<title>node1</title>
<ellipse fill="none" stroke="black" cx="169.04" cy="-306" rx="33.44" ry="18"/>
<text text-anchor="middle" x="169.04" y="-300.95" font-family="Times,serif" font-size="14.00">node1</text>
</g>
<!-- node47&#45;&gt;node1 -->
<g id="edge6" class="edge">
<title>node47&#45;&gt;node1</title>
<path fill="none" stroke="black" d="M138.05,-250.36C144.53,-258.54 151.74,-268.84 157.68,-278.28"/>
<polygon fill="black" stroke="black" points="154.62,-279.98 162.77,-286.76 160.63,-276.38 154.62,-279.98"/>
</g>
<!-- node32 -->
<g id="node10" class="node">
<title>node32</title>
<ellipse fill="none" stroke="black" cx="340.04" cy="-162" rx="38.04" ry="18"/>
<text text-anchor="middle" x="340.04" y="-156.95" font-family="Times,serif" font-size="14.00">node32</text>
</g>
<!-- node47&#45;&gt;node32 -->
<g id="edge8" class="edge">
<title>node47&#45;&gt;node32</title>
<path fill="none" stroke="black" d="M151.04,-222.06C188.52,-209.33 253.76,-188.36 297,-175.13"/>
<polygon fill="black" stroke="black" points="297.76,-178.56 306.31,-172.31 295.73,-171.86 297.76,-178.56"/>
</g>
<!-- node1&#45;&gt;node47 -->
<g id="edge58" class="edge">
<title>node1&#45;&gt;node47</title>
<path fill="none" stroke="black" d="M153.17,-289.81C146.7,-281.66 139.49,-271.37 133.53,-261.92"/>
<polygon fill="black" stroke="black" points="136.58,-260.19 128.43,-253.42 130.58,-263.8 136.58,-260.19"/>
</g>
<!-- node1&#45;&gt;node50 -->
<g id="edge56" class="edge">
<title>node1&#45;&gt;node50</title>
<path fill="none" stroke="black" d="M197.09,-316.22C227.67,-327.43 276.42,-346.56 309.83,-360.37"/>
<polygon fill="black" stroke="black" points="308.13,-363.45 318.7,-364.06 310.82,-356.99 308.13,-363.45"/>
</g>
<!-- node49 -->
<g id="node20" class="node">
<title>node49</title>
<ellipse fill="none" stroke="black" cx="235.04" cy="-234" rx="38.04" ry="18"/>
<text text-anchor="middle" x="235.04" y="-228.95" font-family="Times,serif" font-size="14.00">node49</text>
</g>
<!-- node1&#45;&gt;node49 -->
<g id="edge55" class="edge">
<title>node1&#45;&gt;node49</title>
<path fill="none" stroke="black" d="M178.85,-288.41C186.53,-279.19 197.31,-267.58 207.43,-257.54"/>
<polygon fill="black" stroke="black" points="209.85,-260.08 214.62,-250.62 204.99,-255.04 209.85,-260.08"/>
</g>
<!-- node44 -->
<g id="node22" class="node">
<title>node44</title>
<ellipse fill="none" stroke="black" cx="376.04" cy="-234" rx="38.04" ry="18"/>
<text text-anchor="middle" x="376.04" y="-228.95" font-family="Times,serif" font-size="14.00">node44</text>
</g>
<!-- node1&#45;&gt;node44 -->
<g id="edge57" class="edge">
<title>node1&#45;&gt;node44</title>
<path fill="none" stroke="black" d="M195.05,-294.52C229.81,-282.01 291.5,-261.11 333.15,-247.7"/>
<polygon fill="black" stroke="black" points="334.17,-251.05 342.63,-244.67 332.04,-244.38 334.17,-251.05"/>
</g>
<!-- node48 -->
<g id="node43" class="node">
<title>node48</title>
<ellipse fill="none" stroke="black" cx="577.04" cy="-234" rx="38.04" ry="18"/>
<text text-anchor="middle" x="577.04" y="-228.95" font-family="Times,serif" font-size="14.00">node48</text>
</g>
<!-- node1&#45;&gt;node48 -->
<g id="edge54" class="edge">
<title>node1&#45;&gt;node48</title>
<path fill="none" stroke="black" d="M200.19,-298.97C271.31,-286.16 445.46,-256.26 529.84,-242.35"/>
<polygon fill="black" stroke="black" points="530.34,-245.82 539.64,-240.75 529.2,-238.91 530.34,-245.82"/>
</g>
<!-- node32&#45;&gt;node47 -->
<g id="edge41" class="edge">
<title>node32&#45;&gt;node47</title>
<path fill="none" stroke="black" d="M310.93,-173.98C273.43,-186.72 208.27,-207.66 165.07,-220.87"/>
<polygon fill="black" stroke="black" points="164.33,-217.44 155.78,-223.69 166.36,-224.14 164.33,-217.44"/>
</g>
<!-- node42 -->
<g id="node16" class="node">
<title>node42</title>
<ellipse fill="none" stroke="black" cx="620.04" cy="-90" rx="38.04" ry="18"/>
<text text-anchor="middle" x="620.04" y="-84.95" font-family="Times,serif" font-size="14.00">node42</text>
</g>
<!-- node32&#45;&gt;node42 -->
<g id="edge40" class="edge">
<title>node32&#45;&gt;node42</title>
<path fill="none" stroke="black" d="M373.94,-153.39C418.2,-144.21 497.37,-127.56 564.04,-108 568.28,-106.76 572.69,-105.34 577.1,-103.86"/>
<polygon fill="black" stroke="black" points="578.23,-107.17 586.56,-100.63 575.97,-100.55 578.23,-107.17"/>
</g>
<!-- node31 -->
<g id="node27" class="node">
<title>node31</title>
<ellipse fill="none" stroke="black" cx="714.04" cy="-90" rx="38.04" ry="18"/>
<text text-anchor="middle" x="714.04" y="-84.95" font-family="Times,serif" font-size="14.00">node31</text>
</g>
<!-- node32&#45;&gt;node31 -->
<g id="edge38" class="edge">
<title>node32&#45;&gt;node31</title>
<path fill="none" stroke="black" d="M375.91,-155.32C447.39,-144.75 604.6,-121.87 658.04,-108 662.49,-106.85 667.1,-105.45 671.7,-103.95"/>
<polygon fill="black" stroke="black" points="672.55,-107.35 680.9,-100.83 670.3,-100.72 672.55,-107.35"/>
</g>
<!-- node38 -->
<g id="node35" class="node">
<title>node38</title>
<ellipse fill="none" stroke="black" cx="525.04" cy="-18" rx="38.04" ry="18"/>
<text text-anchor="middle" x="525.04" y="-12.95" font-family="Times,serif" font-size="14.00">node38</text>
</g>
<!-- node32&#45;&gt;node38 -->
<g id="edge39" class="edge">
<title>node32&#45;&gt;node38</title>
<path fill="none" stroke="black" d="M375.92,-155.38C400.71,-152.05 434.25,-147.77 464.04,-144 528.03,-135.91 709.36,-156.35 752.04,-108 849.42,2.31 815.12,-103.08 565.04,-36 563.87,-35.69 562.68,-35.36 561.49,-35.02"/>
<polygon fill="black" stroke="black" points="562.77,-31.75 552.18,-32.14 560.71,-38.44 562.77,-31.75"/>
</g>
<!-- node23&#45;&gt;node13 -->
<g id="edge74" class="edge">
<title>node23&#45;&gt;node13</title>
<path fill="none" stroke="black" d="M203.74,-104.8C182.11,-116.32 149.13,-132.74 123.35,-144.86"/>
<polygon fill="black" stroke="black" points="122.12,-141.57 114.53,-148.96 125.07,-147.92 122.12,-141.57"/>
</g>
<!-- node34&#45;&gt;node13 -->
<g id="edge63" class="edge">
<title>node34&#45;&gt;node13</title>
<path fill="none" stroke="black" d="M242.53,-32.17C268.11,-50 301.34,-82.51 282.04,-108 264.41,-131.3 185.3,-147.25 132.75,-155.19"/>
<polygon fill="black" stroke="black" points="132.53,-151.68 123.14,-156.58 133.54,-158.61 132.53,-151.68"/>
</g>
<!-- node37&#45;&gt;node13 -->
<g id="edge59" class="edge">
<title>node37&#45;&gt;node13</title>
<path fill="none" stroke="black" d="M332.05,-35.98C333.32,-56.05 327.95,-89.1 308.04,-108 283.52,-131.29 190.88,-147.68 132.89,-155.6"/>
<polygon fill="black" stroke="black" points="132.74,-152.09 123.28,-156.87 133.66,-159.03 132.74,-152.09"/>
</g>
<!-- node46&#45;&gt;node13 -->
<g id="edge36" class="edge">
<title>node46&#45;&gt;node13</title>
<path fill="none" stroke="black" d="M405.6,-103.27C400.17,-104.99 394.48,-106.63 389.04,-108 299.93,-130.46 193.36,-147.15 132.89,-155.35"/>
<polygon fill="black" stroke="black" points="132.74,-151.84 123.29,-156.63 133.66,-158.78 132.74,-151.84"/>
</g>
<!-- node19&#45;&gt;node13 -->
<g id="edge60" class="edge">
<title>node19&#45;&gt;node13</title>
<path fill="none" stroke="black" d="M501.35,-104.13C496.97,-105.59 492.43,-106.93 488.04,-108 362.91,-138.67 210.78,-152.79 134.07,-158.19"/>
<polygon fill="black" stroke="black" points="134.11,-154.68 124.37,-158.85 134.59,-161.67 134.11,-154.68"/>
</g>
<!-- node42&#45;&gt;node32 -->
<g id="edge17" class="edge">
<title>node42&#45;&gt;node32</title>
<path fill="none" stroke="black" d="M594.74,-103.94C590.54,-105.39 586.21,-106.78 582.04,-108 515.53,-127.51 436.57,-144.14 387.25,-153.33"/>
<polygon fill="black" stroke="black" points="386.68,-149.87 377.47,-155.12 387.94,-156.76 386.68,-149.87"/>
</g>
<!-- node50&#45;&gt;node16 -->
<g id="edge50" class="edge">
<title>node50&#45;&gt;node16</title>
<path fill="none" stroke="black" d="M340.54,-395.96C335.69,-404.53 328.8,-415.09 321.95,-424.52"/>
<polygon fill="black" stroke="black" points="319.34,-422.17 316.11,-432.26 324.93,-426.39 319.34,-422.17"/>
</g>
<!-- node50&#45;&gt;node1 -->
<g id="edge53" class="edge">
<title>node50&#45;&gt;node1</title>
<path fill="none" stroke="black" d="M315.38,-366.82C284.25,-355.34 236.37,-336.52 203.86,-323.05"/>
<polygon fill="black" stroke="black" points="205.44,-319.92 194.86,-319.29 202.74,-326.38 205.44,-319.92"/>
</g>
<!-- node36 -->
<g id="node34" class="node">
<title>node36</title>
<ellipse fill="none" stroke="black" cx="321.04" cy="-306" rx="38.04" ry="18"/>
<text text-anchor="middle" x="321.04" y="-300.95" font-family="Times,serif" font-size="14.00">node36</text>
</g>
<!-- node50&#45;&gt;node36 -->
<g id="edge52" class="edge">
<title>node50&#45;&gt;node36</title>
<path fill="none" stroke="black" d="M334.28,-360.41C330.81,-352.96 327.32,-343.96 324.57,-335.48"/>
<polygon fill="black" stroke="black" points="327.94,-334.52 321.77,-325.9 321.22,-336.48 327.94,-334.52"/>
</g>
<!-- node17 -->
<g id="node41" class="node">
<title>node17</title>
<ellipse fill="none" stroke="black" cx="447.04" cy="-306" rx="38.04" ry="18"/>
<text text-anchor="middle" x="447.04" y="-300.95" font-family="Times,serif" font-size="14.00">node17</text>
</g>
<!-- node50&#45;&gt;node17 -->
<g id="edge51" class="edge">
<title>node50&#45;&gt;node17</title>
<path fill="none" stroke="black" d="M362.74,-361.46C376.47,-351.09 396.13,-337.38 413.08,-326.31"/>
<polygon fill="black" stroke="black" points="414.88,-329.31 421.4,-320.96 411.1,-323.42 414.88,-329.31"/>
</g>
<!-- node15&#45;&gt;node16 -->
<g id="edge49" class="edge">
<title>node15&#45;&gt;node16</title>
<path fill="none" stroke="black" d="M417.74,-392.8C396.11,-404.32 363.13,-420.74 337.35,-432.86"/>
<polygon fill="black" stroke="black" points="336.12,-429.57 328.53,-436.96 339.07,-435.92 336.12,-429.57"/>
</g>
<!-- node14 -->
<g id="node19" class="node">
<title>node14</title>
<ellipse fill="none" stroke="black" cx="621.04" cy="-18" rx="38.04" ry="18"/>
<text text-anchor="middle" x="621.04" y="-12.95" font-family="Times,serif" font-size="14.00">node14</text>
</g>
<!-- node14&#45;&gt;node49 -->
<g id="edge22" class="edge">
<title>node14&#45;&gt;node49</title>
<path fill="none" stroke="black" d="M653.41,-27.82C661.54,-30.56 670.12,-33.51 678.04,-36 735.65,-54.09 772.44,-23.98 809.04,-72 818.74,-84.72 819.47,-95.86 809.04,-108 774.48,-148.24 624.95,-133.06 573.04,-144 466.26,-166.51 342.59,-202.78 278.41,-221.3"/>
<polygon fill="black" stroke="black" points="277.61,-217.89 268.96,-224.02 279.54,-224.61 277.61,-217.89"/>
</g>
<!-- node49&#45;&gt;node1 -->
<g id="edge28" class="edge">
<title>node49&#45;&gt;node1</title>
<path fill="none" stroke="black" d="M225.02,-251.86C217.24,-261.17 206.38,-272.84 196.23,-282.88"/>
<polygon fill="black" stroke="black" points="193.83,-280.33 189.04,-289.79 198.68,-285.38 193.83,-280.33"/>
</g>
<!-- node49&#45;&gt;node14 -->
<g id="edge29" class="edge">
<title>node49&#45;&gt;node14</title>
<path fill="none" stroke="black" d="M264.32,-222.21C320.46,-203.99 446.49,-166.89 555.04,-144 606.95,-133.06 756.48,-148.24 791.04,-108 801.47,-95.86 800.74,-84.72 791.04,-72 754.44,-23.98 717.65,-54.09 660.04,-36 659.24,-35.75 658.42,-35.49 657.61,-35.23"/>
<polygon fill="black" stroke="black" points="658.91,-31.97 648.32,-32.13 656.7,-38.61 658.91,-31.97"/>
</g>
<!-- node27 -->
<g id="node29" class="node">
<title>node27</title>
<ellipse fill="none" stroke="black" cx="611.04" cy="-162" rx="38.04" ry="18"/>
<text text-anchor="middle" x="611.04" y="-156.95" font-family="Times,serif" font-size="14.00">node27</text>
</g>
<!-- node49&#45;&gt;node27 -->
<g id="edge30" class="edge">
<title>node49&#45;&gt;node27</title>
<path fill="none" stroke="black" d="M269.56,-225.77C337.38,-212.55 487.66,-184.56 564.29,-170.87"/>
<polygon fill="black" stroke="black" points="564.77,-174.34 574,-169.15 563.54,-167.45 564.77,-174.34"/>
</g>
<!-- node30 -->
<g id="node21" class="node">
<title>node30</title>
<ellipse fill="none" stroke="black" cx="725.04" cy="-162" rx="38.04" ry="18"/>
<text text-anchor="middle" x="725.04" y="-156.95" font-family="Times,serif" font-size="14.00">node30</text>
</g>
<!-- node30&#45;&gt;node44 -->
<g id="edge23" class="edge">
<title>node30&#45;&gt;node44</title>
<path fill="none" stroke="black" d="M694.92,-173.3C685.98,-175.62 676.19,-177.98 667.04,-180 581.94,-198.77 481.45,-216.64 423.48,-226.07"/>
<polygon fill="black" stroke="black" points="422.94,-222.61 413.62,-227.66 424.05,-229.53 422.94,-222.61"/>
</g>
<!-- node44&#45;&gt;node1 -->
<g id="edge76" class="edge">
<title>node44&#45;&gt;node1</title>
<path fill="none" stroke="black" d="M347.76,-246.3C311.8,-259.18 249.82,-280.15 209.05,-293.23"/>
<polygon fill="black" stroke="black" points="208.07,-289.87 199.6,-296.24 210.19,-296.54 208.07,-289.87"/>
</g>
<!-- node44&#45;&gt;node30 -->
<g id="edge77" class="edge">
<title>node44&#45;&gt;node30</title>
<path fill="none" stroke="black" d="M410.74,-226.16C462.82,-216.75 563.67,-198.83 649.04,-180 658.84,-177.84 669.37,-175.28 679.44,-172.81"/>
<polygon fill="black" stroke="black" points="680.19,-176.23 689.07,-170.45 678.52,-169.43 680.19,-176.23"/>
</g>
<!-- node7 -->
<g id="node26" class="node">
<title>node7</title>
<ellipse fill="none" stroke="black" cx="824.04" cy="-162" rx="33.44" ry="18"/>
<text text-anchor="middle" x="824.04" y="-156.95" font-family="Times,serif" font-size="14.00">node7</text>
</g>
<!-- node44&#45;&gt;node7 -->
<g id="edge75" class="edge">
<title>node44&#45;&gt;node7</title>
<path fill="none" stroke="black" d="M412.67,-228.43C495.82,-218.63 696.1,-195.29 763.04,-180 769.79,-178.46 776.91,-176.42 783.84,-174.29"/>
<polygon fill="black" stroke="black" points="784.59,-177.72 793.08,-171.38 782.49,-171.05 784.59,-177.72"/>
</g>
<!-- node41 -->
<g id="node39" class="node">
<title>node41</title>
<ellipse fill="none" stroke="black" cx="918.04" cy="-162" rx="38.04" ry="18"/>
<text text-anchor="middle" x="918.04" y="-156.95" font-family="Times,serif" font-size="14.00">node41</text>
</g>
<!-- node44&#45;&gt;node41 -->
<g id="edge78" class="edge">
<title>node44&#45;&gt;node41</title>
<path fill="none" stroke="black" d="M412.29,-228.13C441.67,-224.71 483.87,-220.04 521.04,-216 670.35,-199.76 710.2,-211.51 857.04,-180 862.91,-178.74 869.04,-177.07 875.09,-175.27"/>
<polygon fill="black" stroke="black" points="875.85,-178.69 884.36,-172.39 873.77,-172.01 875.85,-178.69"/>
</g>
<!-- node10 -->
<g id="node23" class="node">
<title>node10</title>
<ellipse fill="none" stroke="black" cx="904.04" cy="-18" rx="38.04" ry="18"/>
<text text-anchor="middle" x="904.04" y="-12.95" font-family="Times,serif" font-size="14.00">node10</text>
</g>
<!-- node3 -->
<g id="node24" class="node">
<title>node3</title>
<ellipse fill="none" stroke="black" cx="1010.04" cy="-162" rx="33.44" ry="18"/>
<text text-anchor="middle" x="1010.04" y="-156.95" font-family="Times,serif" font-size="14.00">node3</text>
</g>
<!-- node10&#45;&gt;node3 -->
<g id="edge24" class="edge">
<title>node10&#45;&gt;node3</title>
<path fill="none" stroke="black" d="M924.96,-33.45C935.88,-43.88 948.67,-58.46 959.04,-72 974.42,-92.06 990.34,-115.84 1000.58,-133.77"/>
<polygon fill="black" stroke="black" points="997.47,-135.39 1005.31,-142.51 1003.63,-132.05 997.47,-135.39"/>
</g>
<!-- node3&#45;&gt;node10 -->
<g id="edge70" class="edge">
<title>node3&#45;&gt;node10</title>
<path fill="none" stroke="black" d="M994.19,-145.81C980.21,-127.78 960.2,-96.99 941.04,-72 933.97,-62.77 925.77,-53.05 918.74,-44.49"/>
<polygon fill="black" stroke="black" points="921.64,-42.51 912.63,-36.92 916.19,-46.9 921.64,-42.51"/>
</g>
<!-- node8 -->
<g id="node30" class="node">
<title>node8</title>
<ellipse fill="none" stroke="black" cx="1083.04" cy="-90" rx="33.44" ry="18"/>
<text text-anchor="middle" x="1083.04" y="-84.95" font-family="Times,serif" font-size="14.00">node8</text>
</g>
<!-- node3&#45;&gt;node8 -->
<g id="edge69" class="edge">
<title>node3&#45;&gt;node8</title>
<path fill="none" stroke="black" d="M1021.17,-144.76C1030.16,-135.11 1042.89,-122.75 1054.55,-112.31"/>
<polygon fill="black" stroke="black" points="1056.8,-115 1062.03,-105.78 1052.19,-109.72 1056.8,-115"/>
</g>
<!-- node18 -->
<g id="node33" class="node">
<title>node18</title>
<ellipse fill="none" stroke="black" cx="1172.04" cy="-90" rx="38.04" ry="18"/>
<text text-anchor="middle" x="1172.04" y="-84.95" font-family="Times,serif" font-size="14.00">node18</text>
</g>
<!-- node3&#45;&gt;node18 -->
<g id="edge71" class="edge">
<title>node3&#45;&gt;node18</title>
<path fill="none" stroke="black" d="M1033.34,-148.65C1059.15,-136.71 1100.91,-118.61 1131.95,-105.89"/>
<polygon fill="black" stroke="black" points="1133.09,-109.2 1141.04,-102.2 1130.46,-102.72 1133.09,-109.2"/>
</g>
<!-- node29 -->
<g id="node36" class="node">
<title>node29</title>
<ellipse fill="none" stroke="black" cx="1266.04" cy="-90" rx="38.04" ry="18"/>
<text text-anchor="middle" x="1266.04" y="-84.95" font-family="Times,serif" font-size="14.00">node29</text>
</g>
<!-- node3&#45;&gt;node29 -->
<g id="edge66" class="edge">
<title>node3&#45;&gt;node29</title>
<path fill="none" stroke="black" d="M1039.39,-153.06C1078.7,-143.51 1149.92,-126.45 1210.04,-108 1214.38,-106.67 1218.91,-105.17 1223.45,-103.63"/>
<polygon fill="black" stroke="black" points="1224.21,-107.07 1232.53,-100.51 1221.93,-100.45 1224.21,-107.07"/>
</g>
<!-- node26 -->
<g id="node37" class="node">
<title>node26</title>
<ellipse fill="none" stroke="black" cx="1360.04" cy="-90" rx="38.04" ry="18"/>
<text text-anchor="middle" x="1360.04" y="-84.95" font-family="Times,serif" font-size="14.00">node26</text>
</g>
<!-- node3&#45;&gt;node26 -->
<g id="edge65" class="edge">
<title>node3&#45;&gt;node26</title>
<path fill="none" stroke="black" d="M1042.05,-156.54C1096.6,-149.24 1210.12,-133 1304.04,-108 1308.48,-106.82 1313.09,-105.4 1317.68,-103.9"/>
<polygon fill="black" stroke="black" points="1318.54,-107.3 1326.88,-100.77 1316.29,-100.67 1318.54,-107.3"/>
</g>
<!-- node20 -->
<g id="node38" class="node">
<title>node20</title>
<ellipse fill="none" stroke="black" cx="1454.04" cy="-90" rx="38.04" ry="18"/>
<text text-anchor="middle" x="1454.04" y="-84.95" font-family="Times,serif" font-size="14.00">node20</text>
</g>
<!-- node3&#45;&gt;node20 -->
<g id="edge72" class="edge">
<title>node3&#45;&gt;node20</title>
<path fill="none" stroke="black" d="M1043.35,-158.61C1111.13,-153.56 1268.87,-139.6 1398.04,-108 1402.5,-106.91 1407.12,-105.54 1411.73,-104.07"/>
<polygon fill="black" stroke="black" points="1412.57,-107.47 1420.93,-100.96 1410.34,-100.84 1412.57,-107.47"/>
</g>
<!-- node3&#45;&gt;node48 -->
<g id="edge68" class="edge">
<title>node3&#45;&gt;node48</title>
<path fill="none" stroke="black" d="M987.78,-175.85C983.29,-177.42 978.58,-178.87 974.04,-180 851.44,-210.54 817.11,-197.99 692.04,-216 669.94,-219.18 645.31,-223.11 624.43,-226.39"/>
<polygon fill="black" stroke="black" points="624.1,-222.9 614.76,-227.9 625.18,-229.81 624.1,-222.9"/>
</g>
<!-- node39 -->
<g id="node46" class="node">
<title>node39</title>
<ellipse fill="none" stroke="black" cx="1548.04" cy="-90" rx="38.04" ry="18"/>
<text text-anchor="middle" x="1548.04" y="-84.95" font-family="Times,serif" font-size="14.00">node39</text>
</g>
<!-- node3&#45;&gt;node39 -->
<g id="edge67" class="edge">
<title>node3&#45;&gt;node39</title>
<path fill="none" stroke="black" d="M1043.63,-159.97C1122.87,-157.07 1326.44,-146.3 1492.04,-108 1496.56,-106.96 1501.24,-105.61 1505.9,-104.12"/>
<polygon fill="black" stroke="black" points="1506.85,-107.5 1515.21,-100.99 1504.62,-100.86 1506.85,-107.5"/>
</g>
<!-- node25 -->
<g id="node25" class="node">
<title>node25</title>
<ellipse fill="none" stroke="black" cx="716.04" cy="-18" rx="38.04" ry="18"/>
<text text-anchor="middle" x="716.04" y="-12.95" font-family="Times,serif" font-size="14.00">node25</text>
</g>
<!-- node25&#45;&gt;node7 -->
<g id="edge25" class="edge">
<title>node25&#45;&gt;node7</title>
<path fill="none" stroke="black" d="M748.51,-27.73C756.33,-30.41 764.51,-33.35 772.04,-36 818.58,-52.39 848.37,-31.86 877.04,-72 892.56,-93.72 873.2,-121.74 853.49,-140.48"/>
<polygon fill="black" stroke="black" points="851.41,-137.64 846.25,-146.89 856.06,-142.88 851.41,-137.64"/>
</g>
<!-- node7&#45;&gt;node44 -->
<g id="edge91" class="edge">
<title>node7&#45;&gt;node44</title>
<path fill="none" stroke="black" d="M799.85,-174.8C793.77,-176.74 787.25,-178.58 781.04,-180 714.57,-195.18 516.66,-218.3 424.31,-228.21"/>
<polygon fill="black" stroke="black" points="424.14,-224.71 414.56,-229.25 424.88,-231.67 424.14,-224.71"/>
</g>
<!-- node7&#45;&gt;node25 -->
<g id="edge90" class="edge">
<title>node7&#45;&gt;node25</title>
<path fill="none" stroke="black" d="M835.87,-144.7C851.95,-126.16 875.78,-95.42 859.04,-72 830.37,-31.86 800.58,-52.39 754.04,-36 753.54,-35.82 753.04,-35.65 752.53,-35.47"/>
<polygon fill="black" stroke="black" points="753.75,-32.19 743.16,-32.11 751.39,-38.78 753.75,-32.19"/>
</g>
<!-- node45 -->
<g id="node44" class="node">
<title>node45</title>
<ellipse fill="none" stroke="black" cx="810.04" cy="-18" rx="38.04" ry="18"/>
<text text-anchor="middle" x="810.04" y="-12.95" font-family="Times,serif" font-size="14.00">node45</text>
</g>
<!-- node7&#45;&gt;node45 -->
<g id="edge89" class="edge">
<title>node7&#45;&gt;node45</title>
<path fill="none" stroke="black" d="M847.79,-148.85C872.19,-137.72 907.19,-121.05 915.04,-108 923.29,-94.29 923.65,-85.49 915.04,-72 910.77,-65.3 874.47,-49.07 845.62,-36.33"/>
<polygon fill="black" stroke="black" points="847.35,-33.26 836.79,-32.42 844.52,-39.67 847.35,-33.26"/>
</g>
<!-- node31&#45;&gt;node32 -->
<g id="edge27" class="edge">
<title>node31&#45;&gt;node32</title>
<path fill="none" stroke="black" d="M689.32,-104.02C684.94,-105.49 680.41,-106.87 676.04,-108 622.99,-121.77 467.63,-144.42 388.03,-155.09"/>
<polygon fill="black" stroke="black" points="387.81,-151.59 378.36,-156.38 388.73,-158.53 387.81,-151.59"/>
</g>
<!-- node24 -->
<g id="node28" class="node">
<title>node24</title>
<ellipse fill="none" stroke="black" cx="427.04" cy="-18" rx="38.04" ry="18"/>
<text text-anchor="middle" x="427.04" y="-12.95" font-family="Times,serif" font-size="14.00">node24</text>
</g>
<!-- node31&#45;&gt;node24 -->
<g id="edge26" class="edge">
<title>node31&#45;&gt;node24</title>
<path fill="none" stroke="black" d="M682.04,-79.7C674.16,-76.96 665.83,-74.13 658.04,-72 575.58,-49.39 551.79,-57.57 469.04,-36 467.44,-35.58 465.8,-35.14 464.16,-34.68"/>
<polygon fill="black" stroke="black" points="465.39,-31.39 454.8,-31.85 463.36,-38.09 465.39,-31.39"/>
</g>
<!-- node24&#45;&gt;node31 -->
<g id="edge35" class="edge">
<title>node24&#45;&gt;node31</title>
<path fill="none" stroke="black" d="M459.73,-27.8C468.65,-30.66 478.19,-33.69 487.04,-36 569.79,-57.57 593.58,-49.39 676.04,-72 676.71,-72.18 677.38,-72.37 678.06,-72.56"/>
<polygon fill="black" stroke="black" points="677,-75.9 687.59,-75.55 679.1,-69.22 677,-75.9"/>
</g>
<!-- node27&#45;&gt;node49 -->
<g id="edge42" class="edge">
<title>node27&#45;&gt;node49</title>
<path fill="none" stroke="black" d="M576.64,-170.21C508.91,-183.41 358.68,-211.39 281.95,-225.1"/>
<polygon fill="black" stroke="black" points="281.46,-221.63 272.23,-226.83 282.69,-228.52 281.46,-221.63"/>
</g>
<!-- node8&#45;&gt;node3 -->
<g id="edge31" class="edge">
<title>node8&#45;&gt;node3</title>
<path fill="none" stroke="black" d="M1071.89,-107.26C1062.92,-116.9 1050.21,-129.23 1038.58,-139.65"/>
<polygon fill="black" stroke="black" points="1036.34,-136.96 1031.11,-146.17 1040.94,-142.23 1036.34,-136.96"/>
</g>
<!-- node9 -->
<g id="node31" class="node">
<title>node9</title>
<ellipse fill="none" stroke="black" cx="993.04" cy="-18" rx="33.44" ry="18"/>
<text text-anchor="middle" x="993.04" y="-12.95" font-family="Times,serif" font-size="14.00">node9</text>
</g>
<!-- node8&#45;&gt;node9 -->
<g id="edge32" class="edge">
<title>node8&#45;&gt;node9</title>
<path fill="none" stroke="black" d="M1061.17,-76.16C1047.45,-66.58 1029.95,-53.23 1016.04,-41.84"/>
<polygon fill="black" stroke="black" points="1018.57,-39.39 1008.65,-35.67 1014.08,-44.77 1018.57,-39.39"/>
</g>
<!-- node12 -->
<g id="node32" class="node">
<title>node12</title>
<ellipse fill="none" stroke="black" cx="1082.04" cy="-18" rx="38.04" ry="18"/>
<text text-anchor="middle" x="1082.04" y="-12.95" font-family="Times,serif" font-size="14.00">node12</text>
</g>
<!-- node8&#45;&gt;node12 -->
<g id="edge33" class="edge">
<title>node8&#45;&gt;node12</title>
<path fill="none" stroke="black" d="M1076.92,-72.05C1076.04,-64.68 1075.65,-55.84 1075.81,-47.51"/>
<polygon fill="black" stroke="black" points="1079.29,-47.95 1076.3,-37.79 1072.3,-47.6 1079.29,-47.95"/>
</g>
<!-- node9&#45;&gt;node8 -->
<g id="edge48" class="edge">
<title>node9&#45;&gt;node8</title>
<path fill="none" stroke="black" d="M1015.02,-31.91C1028.8,-41.54 1046.35,-54.93 1060.25,-66.33"/>
<polygon fill="black" stroke="black" points="1057.71,-68.76 1067.63,-72.49 1062.2,-63.39 1057.71,-68.76"/>
</g>
<!-- node12&#45;&gt;node8 -->
<g id="edge88" class="edge">
<title>node12&#45;&gt;node8</title>
<path fill="none" stroke="black" d="M1088.15,-35.79C1089.05,-43.25 1089.44,-52.24 1089.28,-60.69"/>
<polygon fill="black" stroke="black" points="1085.79,-60.37 1088.76,-70.54 1092.78,-60.74 1085.79,-60.37"/>
</g>
<!-- node18&#45;&gt;node3 -->
<g id="edge34" class="edge">
<title>node18&#45;&gt;node3</title>
<path fill="none" stroke="black" d="M1147.11,-104.11C1120.51,-116.36 1078.34,-134.6 1047.72,-147.1"/>
<polygon fill="black" stroke="black" points="1046.78,-143.71 1038.82,-150.7 1049.4,-150.2 1046.78,-143.71"/>
</g>
<!-- node36&#45;&gt;node50 -->
<g id="edge37" class="edge">
<title>node36&#45;&gt;node50</title>
<path fill="none" stroke="black" d="M332.6,-323.14C336.18,-330.75 339.78,-340.05 342.6,-348.76"/>
<polygon fill="black" stroke="black" points="339.2,-349.62 345.36,-358.24 345.92,-347.66 339.2,-349.62"/>
</g>
<!-- node38&#45;&gt;node32 -->
<g id="edge86" class="edge">
<title>node38&#45;&gt;node32</title>
<path fill="none" stroke="black" d="M557.28,-28C565.72,-30.81 574.7,-33.76 583.04,-36 833.12,-103.08 867.42,2.31 770.04,-108 727.36,-156.35 546.03,-135.91 482.04,-144 451.03,-147.92 415.95,-152.41 388.3,-155.79"/>
<polygon fill="black" stroke="black" points="387.96,-152.3 378.45,-156.98 388.8,-159.25 387.96,-152.3"/>
</g>
<!-- node29&#45;&gt;node3 -->
<g id="edge43" class="edge">
<title>node29&#45;&gt;node3</title>
<path fill="none" stroke="black" d="M1240.71,-103.84C1236.51,-105.3 1232.19,-106.73 1228.04,-108 1168.09,-126.4 1097.1,-143.41 1052.67,-152.98"/>
<polygon fill="black" stroke="black" points="1051.96,-149.55 1042.91,-155.04 1053.41,-156.4 1051.96,-149.55"/>
</g>
<!-- node26&#45;&gt;node3 -->
<g id="edge44" class="edge">
<title>node26&#45;&gt;node3</title>
<path fill="none" stroke="black" d="M1335.05,-104.06C1330.76,-105.5 1326.32,-106.86 1322.04,-108 1228.23,-132.97 1114.87,-149.2 1053.8,-156.51"/>
<polygon fill="black" stroke="black" points="1053.69,-153 1044.17,-157.64 1054.51,-159.96 1053.69,-153"/>
</g>
<!-- node20&#45;&gt;node3 -->
<g id="edge45" class="edge">
<title>node20&#45;&gt;node3</title>
<path fill="none" stroke="black" d="M1429.35,-104.14C1424.97,-105.59 1420.43,-106.93 1416.04,-108 1287.5,-139.44 1130.66,-153.43 1054.95,-158.53"/>
<polygon fill="black" stroke="black" points="1054.77,-155.04 1045.02,-159.18 1055.23,-162.02 1054.77,-155.04"/>
</g>
<!-- node41&#45;&gt;node44 -->
<g id="edge46" class="edge">
<title>node41&#45;&gt;node44</title>
<path fill="none" stroke="black" d="M891.96,-175.53C886.43,-177.24 880.62,-178.8 875.04,-180 728.2,-211.51 688.35,-199.76 539.04,-216 500.65,-220.18 456.89,-225.01 424.26,-228.46"/>
<polygon fill="black" stroke="black" points="424.3,-224.94 414.72,-229.46 425.03,-231.9 424.3,-224.94"/>
</g>
<!-- node11 -->
<g id="node40" class="node">
<title>node11</title>
<ellipse fill="none" stroke="black" cx="1383.04" cy="-18" rx="38.04" ry="18"/>
<text text-anchor="middle" x="1383.04" y="-12.95" font-family="Times,serif" font-size="14.00">node11</text>
</g>
<!-- node11&#45;&gt;node17 -->
<g id="edge47" class="edge">
<title>node11&#45;&gt;node17</title>
<path fill="none" stroke="black" d="M1420.73,-21.25C1496.87,-27.31 1656.79,-47.8 1604.04,-108 1542.83,-177.87 866.11,-197.67 775.04,-216 720.58,-226.96 566.57,-272.09 490.46,-293.55"/>
<polygon fill="black" stroke="black" points="489.96,-290.06 481.28,-296.13 491.85,-296.8 489.96,-290.06"/>
</g>
<!-- node17&#45;&gt;node50 -->
<g id="edge80" class="edge">
<title>node17&#45;&gt;node50</title>
<path fill="none" stroke="black" d="M430.33,-322.55C416.6,-332.91 396.97,-346.61 380.04,-357.67"/>
<polygon fill="black" stroke="black" points="378.25,-354.66 371.73,-363.02 382.03,-360.55 378.25,-354.66"/>
</g>
<!-- node17&#45;&gt;node11 -->
<g id="edge81" class="edge">
<title>node17&#45;&gt;node11</title>
<path fill="none" stroke="black" d="M477.08,-294.54C543.76,-273.5 701.73,-227.13 757.04,-216 848.11,-197.67 1524.83,-177.87 1586.04,-108 1633.99,-53.28 1506.22,-31.37 1431.87,-23.28"/>
<polygon fill="black" stroke="black" points="1432.25,-19.8 1421.94,-22.25 1431.53,-26.76 1432.25,-19.8"/>
</g>
<!-- node5 -->
<g id="node45" class="node">
<title>node5</title>
<ellipse fill="none" stroke="black" cx="1575.04" cy="-18" rx="33.44" ry="18"/>
<text text-anchor="middle" x="1575.04" y="-12.95" font-family="Times,serif" font-size="14.00">node5</text>
</g>
<!-- node17&#45;&gt;node5 -->
<g id="edge82" class="edge">
<title>node17&#45;&gt;node5</title>
<path fill="none" stroke="black" d="M482.83,-299.2C534.42,-291.18 631.89,-275.01 713.04,-252 756.48,-239.68 763.91,-225.55 808.04,-216 1052.24,-163.15 1123.01,-223.49 1369.04,-180 1480.81,-160.24 1546.04,-198.86 1614.04,-108 1629.23,-87.71 1612.02,-62 1595.74,-43.43"/>
<polygon fill="black" stroke="black" points="1598.33,-41.07 1588.99,-36.07 1593.17,-45.8 1598.33,-41.07"/>
</g>
<!-- node28 -->
<g id="node48" class="node">
<title>node28</title>
<ellipse fill="none" stroke="black" cx="864.04" cy="-234" rx="38.04" ry="18"/>
<text text-anchor="middle" x="864.04" y="-228.95" font-family="Times,serif" font-size="14.00">node28</text>
</g>
<!-- node17&#45;&gt;node28 -->
<g id="edge83" class="edge">
<title>node17&#45;&gt;node28</title>
<path fill="none" stroke="black" d="M484.01,-301.21C549.21,-294.58 688.02,-278.94 803.04,-252 808.82,-250.65 814.88,-248.94 820.87,-247.13"/>
<polygon fill="black" stroke="black" points="821.53,-250.59 830.04,-244.28 819.45,-243.91 821.53,-250.59"/>
</g>
<!-- node43 -->
<g id="node50" class="node">
<title>node43</title>
<ellipse fill="none" stroke="black" cx="958.04" cy="-234" rx="38.04" ry="18"/>
<text text-anchor="middle" x="958.04" y="-228.95" font-family="Times,serif" font-size="14.00">node43</text>
</g>
<!-- node17&#45;&gt;node43 -->
<g id="edge79" class="edge">
<title>node17&#45;&gt;node43</title>
<path fill="none" stroke="black" d="M485,-303.43C563.82,-299.68 749.89,-287.69 902.04,-252 906.56,-250.94 911.24,-249.58 915.89,-248.1"/>
<polygon fill="black" stroke="black" points="916.85,-251.47 925.21,-244.96 914.61,-244.84 916.85,-251.47"/>
</g>
<!-- node4 -->
<g id="node42" class="node">
<title>node4</title>
<ellipse fill="none" stroke="black" cx="388.04" cy="-522" rx="33.44" ry="18"/>
<text text-anchor="middle" x="388.04" y="-516.95" font-family="Times,serif" font-size="14.00">node4</text>
</g>
<!-- node48&#45;&gt;node1 -->
<g id="edge84" class="edge">
<title>node48&#45;&gt;node1</title>
<path fill="none" stroke="black" d="M542.29,-241.68C467.9,-255.03 293.85,-284.89 212.38,-298.28"/>
<polygon fill="black" stroke="black" points="211.86,-294.82 202.55,-299.89 212.99,-301.73 211.86,-294.82"/>
</g>
<!-- node48&#45;&gt;node3 -->
<g id="edge85" class="edge">
<title>node48&#45;&gt;node3</title>
<path fill="none" stroke="black" d="M611.58,-225.82C630.1,-222.67 653.2,-219 674.04,-216 799.11,-197.99 833.44,-210.54 956.04,-180 960.82,-178.81 965.79,-177.27 970.71,-175.59"/>
<polygon fill="black" stroke="black" points="971.65,-178.97 979.9,-172.33 969.31,-172.38 971.65,-178.97"/>
</g>
<!-- node45&#45;&gt;node7 -->
<g id="edge61" class="edge">
<title>node45&#45;&gt;node7</title>
<path fill="none" stroke="black" d="M841.05,-28.92C875.93,-41.89 927.88,-63.9 933.04,-72 941.65,-85.49 941.29,-94.29 933.04,-108 925.32,-120.84 891.3,-137.19 863.16,-148.31"/>
<polygon fill="black" stroke="black" points="862.24,-144.92 854.15,-151.76 864.74,-151.46 862.24,-144.92"/>
</g>
<!-- node5&#45;&gt;node17 -->
<g id="edge62" class="edge">
<title>node5&#45;&gt;node17</title>
<path fill="none" stroke="black" d="M1596.89,-31.78C1620.25,-49.73 1650.77,-82.98 1632.04,-108 1564.04,-198.86 1498.81,-160.24 1387.04,-180 1141.01,-223.49 1070.24,-163.15 826.04,-216 781.91,-225.55 774.48,-239.68 731.04,-252 649.87,-275.02 552.37,-291.19 495.19,-299.21"/>
<polygon fill="black" stroke="black" points="494.89,-295.72 485.46,-300.55 495.84,-302.65 494.89,-295.72"/>
</g>
<!-- node39&#45;&gt;node3 -->
<g id="edge64" class="edge">
<title>node39&#45;&gt;node3</title>
<path fill="none" stroke="black" d="M1523.63,-104.16C1519.16,-105.63 1514.52,-106.96 1510.04,-108 1345.73,-146 1144.03,-156.9 1055.33,-159.9"/>
<polygon fill="black" stroke="black" points="1055.23,-156.41 1045.35,-160.22 1055.45,-163.4 1055.23,-156.41"/>
</g>
<!-- node6 -->
<g id="node47" class="node">
<title>node6</title>
<ellipse fill="none" stroke="black" cx="473.04" cy="-522" rx="33.44" ry="18"/>
<text text-anchor="middle" x="473.04" y="-516.95" font-family="Times,serif" font-size="14.00">node6</text>
</g>
<!-- node28&#45;&gt;node17 -->
<g id="edge73" class="edge">
<title>node28&#45;&gt;node17</title>
<path fill="none" stroke="black" d="M837.64,-247.44C832.2,-249.13 826.5,-250.72 821.04,-252 706.47,-278.84 568.3,-294.46 496.13,-301.13"/>
<polygon fill="black" stroke="black" points="495.85,-297.64 486.21,-302.03 496.48,-304.61 495.85,-297.64"/>
</g>
<!-- node2 -->
<g id="node49" class="node">
<title>node2</title>
<ellipse fill="none" stroke="black" cx="558.04" cy="-522" rx="33.44" ry="18"/>
<text text-anchor="middle" x="558.04" y="-516.95" font-family="Times,serif" font-size="14.00">node2</text>
</g>
<!-- node43&#45;&gt;node17 -->
<g id="edge92" class="edge">
<title>node43&#45;&gt;node17</title>
<path fill="none" stroke="black" d="M933.62,-248.13C929.16,-249.61 924.52,-250.95 920.04,-252 768.54,-287.54 583.4,-299.58 496.43,-303.38"/>
<polygon fill="black" stroke="black" points="496.43,-299.88 486.58,-303.79 496.72,-306.87 496.43,-299.88"/>
</g>
</g>
</svg>
