<?xml version="1.0" encoding="UTF-8" standalone="no"?>
<!DOCTYPE svg PUBLIC "-//W3C//DTD SVG 1.1//EN"
 "http://www.w3.org/Graphics/SVG/1.1/DTD/svg11.dtd">
<!-- Generated by graphviz version 12.2.1 (20241206.2353)
 -->
<!-- Pages: 1 -->
<svg width="2187pt" height="404pt"
 viewBox="0.00 0.00 2187.09 404.00" xmlns="http://www.w3.org/2000/svg" xmlns:xlink="http://www.w3.org/1999/xlink">
<g id="graph0" class="graph" transform="scale(1 1) rotate(0) translate(4 400)">
<polygon fill="white" stroke="none" points="-4,4 -4,-400 2183.09,-400 2183.09,4 -4,4"/>
<!-- node48 -->
<g id="node1" class="node">
<title>node48</title>
<ellipse fill="none" stroke="black" cx="174.04" cy="-378" rx="38.04" ry="18"/>
<text text-anchor="middle" x="174.04" y="-372.95" font-family="Times,serif" font-size="14.00">node48</text>
</g>
<!-- node1 -->
<g id="node2" class="node">
<title>node1</title>
<ellipse fill="none" stroke="black" cx="132.04" cy="-306" rx="33.44" ry="18"/>
<text text-anchor="middle" x="132.04" y="-300.95" font-family="Times,serif" font-size="14.00">node1</text>
</g>
<!-- node48&#45;&gt;node1 -->
<g id="edge1" class="edge">
<title>node48&#45;&gt;node1</title>
<path fill="none" stroke="black" d="M158.75,-361.12C153.11,-353.23 146.98,-343.48 141.9,-334.43"/>
<polygon fill="black" stroke="black" points="145,-332.82 137.22,-325.63 138.82,-336.1 145,-332.82"/>
</g>
<!-- node3 -->
<g id="node3" class="node">
<title>node3</title>
<ellipse fill="none" stroke="black" cx="336.04" cy="-306" rx="33.44" ry="18"/>
<text text-anchor="middle" x="336.04" y="-300.95" font-family="Times,serif" font-size="14.00">node3</text>
</g>
<!-- node48&#45;&gt;node3 -->
<g id="edge2" class="edge">
<title>node48&#45;&gt;node3</title>
<path fill="none" stroke="black" d="M198.75,-364C225.3,-351.76 267.54,-333.49 298.24,-320.95"/>
<polygon fill="black" stroke="black" points="299.21,-324.33 307.17,-317.34 296.58,-317.84 299.21,-324.33"/>
</g>
<!-- node1&#45;&gt;node48 -->
<g id="edge55" class="edge">
<title>node1&#45;&gt;node48</title>
<path fill="none" stroke="black" d="M146.85,-322.2C152.63,-330.22 159,-340.31 164.23,-349.64"/>
<polygon fill="black" stroke="black" points="161.08,-351.17 168.87,-358.36 167.27,-347.89 161.08,-351.17"/>
</g>
<!-- node50 -->
<g id="node4" class="node">
<title>node50</title>
<ellipse fill="none" stroke="black" cx="85.04" cy="-234" rx="38.04" ry="18"/>
<text text-anchor="middle" x="85.04" y="-228.95" font-family="Times,serif" font-size="14.00">node50</text>
</g>
<!-- node1&#45;&gt;node50 -->
<g id="edge52" class="edge">
<title>node1&#45;&gt;node50</title>
<path fill="none" stroke="black" d="M116.17,-289.81C109.7,-281.66 102.49,-271.37 96.53,-261.92"/>
<polygon fill="black" stroke="black" points="99.58,-260.19 91.43,-253.42 93.58,-263.8 99.58,-260.19"/>
</g>
<!-- node47 -->
<g id="node20" class="node">
<title>node47</title>
<ellipse fill="none" stroke="black" cx="230.04" cy="-234" rx="38.04" ry="18"/>
<text text-anchor="middle" x="230.04" y="-228.95" font-family="Times,serif" font-size="14.00">node47</text>
</g>
<!-- node1&#45;&gt;node47 -->
<g id="edge54" class="edge">
<title>node1&#45;&gt;node47</title>
<path fill="none" stroke="black" d="M147.63,-289.81C160.86,-279.46 180.04,-265.66 196.63,-254.49"/>
<polygon fill="black" stroke="black" points="198.36,-257.54 204.77,-249.11 194.5,-251.7 198.36,-257.54"/>
</g>
<!-- node49 -->
<g id="node22" class="node">
<title>node49</title>
<ellipse fill="none" stroke="black" cx="397.04" cy="-234" rx="38.04" ry="18"/>
<text text-anchor="middle" x="397.04" y="-228.95" font-family="Times,serif" font-size="14.00">node49</text>
</g>
<!-- node1&#45;&gt;node49 -->
<g id="edge51" class="edge">
<title>node1&#45;&gt;node49</title>
<path fill="none" stroke="black" d="M160.68,-296.21C206.8,-283.32 297.49,-259.33 352.22,-245.52"/>
<polygon fill="black" stroke="black" points="353,-248.93 361.85,-243.11 351.3,-242.14 353,-248.93"/>
</g>
<!-- node44 -->
<g id="node40" class="node">
<title>node44</title>
<ellipse fill="none" stroke="black" cx="574.04" cy="-234" rx="38.04" ry="18"/>
<text text-anchor="middle" x="574.04" y="-228.95" font-family="Times,serif" font-size="14.00">node44</text>
</g>
<!-- node1&#45;&gt;node44 -->
<g id="edge53" class="edge">
<title>node1&#45;&gt;node44</title>
<path fill="none" stroke="black" d="M163.59,-299.39C240.15,-286.68 435.56,-255.71 526.41,-241.88"/>
<polygon fill="black" stroke="black" points="526.87,-245.35 536.24,-240.39 525.82,-238.42 526.87,-245.35"/>
</g>
<!-- node3&#45;&gt;node48 -->
<g id="edge39" class="edge">
<title>node3&#45;&gt;node48</title>
<path fill="none" stroke="black" d="M312.67,-319.39C286.86,-331.33 245.15,-349.4 214.14,-362.11"/>
<polygon fill="black" stroke="black" points="213.01,-358.79 205.06,-365.8 215.64,-365.28 213.01,-358.79"/>
</g>
<!-- node8 -->
<g id="node11" class="node">
<title>node8</title>
<ellipse fill="none" stroke="black" cx="728.04" cy="-234" rx="33.44" ry="18"/>
<text text-anchor="middle" x="728.04" y="-228.95" font-family="Times,serif" font-size="14.00">node8</text>
</g>
<!-- node3&#45;&gt;node8 -->
<g id="edge40" class="edge">
<title>node3&#45;&gt;node8</title>
<path fill="none" stroke="black" d="M367.11,-298.73C436.85,-285.64 605.37,-255.54 685.07,-241.92"/>
<polygon fill="black" stroke="black" points="685.39,-245.41 694.66,-240.29 684.22,-238.51 685.39,-245.41"/>
</g>
<!-- node4 -->
<g id="node23" class="node">
<title>node4</title>
<ellipse fill="none" stroke="black" cx="1647.04" cy="-18" rx="33.44" ry="18"/>
<text text-anchor="middle" x="1647.04" y="-12.95" font-family="Times,serif" font-size="14.00">node4</text>
</g>
<!-- node3&#45;&gt;node4 -->
<g id="edge36" class="edge">
<title>node3&#45;&gt;node4</title>
<path fill="none" stroke="black" d="M369.43,-302.86C441.75,-298.06 617.16,-284.21 761.04,-252 810.83,-240.85 819.85,-225.12 870.04,-216 967.75,-198.26 1673.46,-222.85 1763.04,-180 1813.18,-156.02 1859.59,-116.31 1826.04,-72 1824.93,-70.53 1738.26,-46.51 1685.84,-31.32"/>
<polygon fill="black" stroke="black" points="1686.94,-27.99 1676.36,-28.55 1684.98,-34.71 1686.94,-27.99"/>
</g>
<!-- node39 -->
<g id="node33" class="node">
<title>node39</title>
<ellipse fill="none" stroke="black" cx="1756.04" cy="-18" rx="38.04" ry="18"/>
<text text-anchor="middle" x="1756.04" y="-12.95" font-family="Times,serif" font-size="14.00">node39</text>
</g>
<!-- node3&#45;&gt;node39 -->
<g id="edge35" class="edge">
<title>node3&#45;&gt;node39</title>
<path fill="none" stroke="black" d="M369.68,-304.35C451.26,-302.17 664.84,-292.75 838.04,-252 882.4,-241.56 889.38,-225.05 934.04,-216 1029.85,-196.59 1729.3,-230.41 1813.04,-180 1857.17,-153.44 1882.28,-115.71 1855.04,-72 1847.63,-60.1 1818.26,-46.09 1793.32,-35.47"/>
<polygon fill="black" stroke="black" points="1794.96,-32.36 1784.38,-31.73 1792.25,-38.82 1794.96,-32.36"/>
</g>
<!-- node2 -->
<g id="node34" class="node">
<title>node2</title>
<ellipse fill="none" stroke="black" cx="1855.04" cy="-18" rx="33.44" ry="18"/>
<text text-anchor="middle" x="1855.04" y="-12.95" font-family="Times,serif" font-size="14.00">node2</text>
</g>
<!-- node3&#45;&gt;node2 -->
<g id="edge37" class="edge">
<title>node3&#45;&gt;node2</title>
<path fill="none" stroke="black" d="M369.69,-305.56C459.14,-306.09 708.78,-302.22 909.04,-252 948.84,-242.02 954.02,-225 994.04,-216 1087.57,-194.97 1778.07,-235.76 1856.04,-180 1896.38,-151.16 1899.22,-119.21 1884.04,-72 1880.94,-62.34 1875.36,-52.96 1869.79,-44.83"/>
<polygon fill="black" stroke="black" points="1872.74,-42.93 1864.07,-36.84 1867.05,-47.01 1872.74,-42.93"/>
</g>
<!-- node18 -->
<g id="node35" class="node">
<title>node18</title>
<ellipse fill="none" stroke="black" cx="1949.04" cy="-18" rx="38.04" ry="18"/>
<text text-anchor="middle" x="1949.04" y="-12.95" font-family="Times,serif" font-size="14.00">node18</text>
</g>
<!-- node3&#45;&gt;node18 -->
<g id="edge38" class="edge">
<title>node3&#45;&gt;node18</title>
<path fill="none" stroke="black" d="M369.51,-303.81C484.06,-299.71 858.73,-284.52 975.04,-252 1009.5,-242.37 1012.41,-224.96 1047.04,-216 1138.35,-192.39 1821.14,-238.59 1895.04,-180 1934.96,-148.36 1941.3,-84.43 1944.23,-47.36"/>
<polygon fill="black" stroke="black" points="1947.69,-48.09 1944.99,-37.85 1940.71,-47.54 1947.69,-48.09"/>
</g>
<!-- node10 -->
<g id="node36" class="node">
<title>node10</title>
<ellipse fill="none" stroke="black" cx="1103.04" cy="-234" rx="38.04" ry="18"/>
<text text-anchor="middle" x="1103.04" y="-228.95" font-family="Times,serif" font-size="14.00">node10</text>
</g>
<!-- node3&#45;&gt;node10 -->
<g id="edge41" class="edge">
<title>node3&#45;&gt;node10</title>
<path fill="none" stroke="black" d="M369.82,-305.24C472.02,-305.27 785.57,-300.83 1040.04,-252 1046.48,-250.77 1053.22,-249.02 1059.83,-247.12"/>
<polygon fill="black" stroke="black" points="1060.75,-250.5 1069.31,-244.26 1058.73,-243.8 1060.75,-250.5"/>
</g>
<!-- node20 -->
<g id="node37" class="node">
<title>node20</title>
<ellipse fill="none" stroke="black" cx="1198.04" cy="-234" rx="38.04" ry="18"/>
<text text-anchor="middle" x="1198.04" y="-228.95" font-family="Times,serif" font-size="14.00">node20</text>
</g>
<!-- node3&#45;&gt;node20 -->
<g id="edge42" class="edge">
<title>node3&#45;&gt;node20</title>
<path fill="none" stroke="black" d="M369.71,-303.94C502.54,-299.77 989.32,-283.18 1141.04,-252 1145.9,-251 1150.93,-249.63 1155.92,-248.08"/>
<polygon fill="black" stroke="black" points="1156.87,-251.46 1165.27,-245 1154.68,-244.81 1156.87,-251.46"/>
</g>
<!-- node26 -->
<g id="node38" class="node">
<title>node26</title>
<ellipse fill="none" stroke="black" cx="2046.04" cy="-18" rx="38.04" ry="18"/>
<text text-anchor="middle" x="2046.04" y="-12.95" font-family="Times,serif" font-size="14.00">node26</text>
</g>
<!-- node3&#45;&gt;node26 -->
<g id="edge43" class="edge">
<title>node3&#45;&gt;node26</title>
<path fill="none" stroke="black" d="M369.78,-305.12C512.87,-305.26 1068.77,-302.31 1236.04,-252 1266.56,-242.82 1267.52,-225.15 1298.04,-216 1433.21,-175.46 1809.92,-250.71 1932.04,-180 1983.69,-150.1 2014.42,-83.4 2031.32,-45.91"/>
<polygon fill="black" stroke="black" points="2034.37,-47.66 2035.31,-37.1 2028,-44.77 2034.37,-47.66"/>
</g>
<!-- node29 -->
<g id="node39" class="node">
<title>node29</title>
<ellipse fill="none" stroke="black" cx="2141.04" cy="-18" rx="38.04" ry="18"/>
<text text-anchor="middle" x="2141.04" y="-12.95" font-family="Times,serif" font-size="14.00">node29</text>
</g>
<!-- node3&#45;&gt;node29 -->
<g id="edge44" class="edge">
<title>node3&#45;&gt;node29</title>
<path fill="none" stroke="black" d="M369.48,-303.87C589.68,-296.46 1826.07,-252.98 1976.04,-180 2039.65,-149.05 2091.58,-80.89 2119.56,-43.96"/>
<polygon fill="black" stroke="black" points="2122.3,-46.14 2125.57,-36.06 2116.73,-41.9 2122.3,-46.14"/>
</g>
<!-- node50&#45;&gt;node1 -->
<g id="edge3" class="edge">
<title>node50&#45;&gt;node1</title>
<path fill="none" stroke="black" d="M101.05,-250.36C107.53,-258.54 114.74,-268.84 120.68,-278.28"/>
<polygon fill="black" stroke="black" points="117.62,-279.98 125.77,-286.76 123.63,-276.38 117.62,-279.98"/>
</g>
<!-- node16 -->
<g id="node5" class="node">
<title>node16</title>
<ellipse fill="none" stroke="black" cx="38.04" cy="-162" rx="38.04" ry="18"/>
<text text-anchor="middle" x="38.04" y="-156.95" font-family="Times,serif" font-size="14.00">node16</text>
</g>
<!-- node50&#45;&gt;node16 -->
<g id="edge4" class="edge">
<title>node50&#45;&gt;node16</title>
<path fill="none" stroke="black" d="M68.89,-217.46C62.44,-209.3 55.29,-199.07 49.38,-189.68"/>
<polygon fill="black" stroke="black" points="52.48,-188.04 44.33,-181.26 46.47,-191.64 52.48,-188.04"/>
</g>
<!-- node17 -->
<g id="node6" class="node">
<title>node17</title>
<ellipse fill="none" stroke="black" cx="155.04" cy="-162" rx="38.04" ry="18"/>
<text text-anchor="middle" x="155.04" y="-156.95" font-family="Times,serif" font-size="14.00">node17</text>
</g>
<!-- node50&#45;&gt;node17 -->
<g id="edge5" class="edge">
<title>node50&#45;&gt;node17</title>
<path fill="none" stroke="black" d="M95.79,-216.41C104.09,-207.1 115.67,-195.35 126.47,-185.24"/>
<polygon fill="black" stroke="black" points="128.73,-187.92 133.75,-178.59 124.01,-182.75 128.73,-187.92"/>
</g>
<!-- node36 -->
<g id="node7" class="node">
<title>node36</title>
<ellipse fill="none" stroke="black" cx="651.04" cy="-18" rx="38.04" ry="18"/>
<text text-anchor="middle" x="651.04" y="-12.95" font-family="Times,serif" font-size="14.00">node36</text>
</g>
<!-- node50&#45;&gt;node36 -->
<g id="edge6" class="edge">
<title>node50&#45;&gt;node36</title>
<path fill="none" stroke="black" d="M119.24,-225.52C235.13,-201.48 605.82,-126.68 624.04,-108 639.45,-92.21 643.39,-67.08 645.27,-47.55"/>
<polygon fill="black" stroke="black" points="648.74,-48.02 646.12,-37.75 641.77,-47.41 648.74,-48.02"/>
</g>
<!-- node16&#45;&gt;node50 -->
<g id="edge25" class="edge">
<title>node16&#45;&gt;node50</title>
<path fill="none" stroke="black" d="M54.05,-178.36C60.53,-186.54 67.74,-196.84 73.68,-206.28"/>
<polygon fill="black" stroke="black" points="70.62,-207.98 78.77,-214.76 76.63,-204.38 70.62,-207.98"/>
</g>
<!-- node15 -->
<g id="node8" class="node">
<title>node15</title>
<ellipse fill="none" stroke="black" cx="143.04" cy="-18" rx="38.04" ry="18"/>
<text text-anchor="middle" x="143.04" y="-12.95" font-family="Times,serif" font-size="14.00">node15</text>
</g>
<!-- node16&#45;&gt;node15 -->
<g id="edge22" class="edge">
<title>node16&#45;&gt;node15</title>
<path fill="none" stroke="black" d="M30.1,-144.03C26.84,-124.87 28.3,-93.56 43.04,-72 56.23,-52.72 78.91,-39.49 99.45,-31.06"/>
<polygon fill="black" stroke="black" points="100.4,-34.44 108.52,-27.63 97.92,-27.9 100.4,-34.44"/>
</g>
<!-- node33 -->
<g id="node24" class="node">
<title>node33</title>
<ellipse fill="none" stroke="black" cx="313.04" cy="-18" rx="38.04" ry="18"/>
<text text-anchor="middle" x="313.04" y="-12.95" font-family="Times,serif" font-size="14.00">node33</text>
</g>
<!-- node16&#45;&gt;node33 -->
<g id="edge23" class="edge">
<title>node16&#45;&gt;node33</title>
<path fill="none" stroke="black" d="M45.16,-144.06C59.33,-124.03 89.92,-91.03 123.04,-72 167.46,-46.49 225.17,-32.36 265.41,-25.24"/>
<polygon fill="black" stroke="black" points="265.75,-28.73 275.03,-23.62 264.59,-21.83 265.75,-28.73"/>
</g>
<!-- node35 -->
<g id="node25" class="node">
<title>node35</title>
<ellipse fill="none" stroke="black" cx="445.04" cy="-18" rx="38.04" ry="18"/>
<text text-anchor="middle" x="445.04" y="-12.95" font-family="Times,serif" font-size="14.00">node35</text>
</g>
<!-- node16&#45;&gt;node35 -->
<g id="edge24" class="edge">
<title>node16&#45;&gt;node35</title>
<path fill="none" stroke="black" d="M58.18,-146.34C94.63,-123.89 169.41,-82.52 198.04,-72 216.4,-65.26 332.29,-40.63 398.71,-27.45"/>
<polygon fill="black" stroke="black" points="399.09,-30.94 408.23,-25.58 397.74,-24.08 399.09,-30.94"/>
</g>
<!-- node17&#45;&gt;node50 -->
<g id="edge32" class="edge">
<title>node17&#45;&gt;node50</title>
<path fill="none" stroke="black" d="M144.2,-179.7C135.88,-189.02 124.31,-200.76 113.53,-210.84"/>
<polygon fill="black" stroke="black" points="111.29,-208.15 106.26,-217.48 116.01,-213.32 111.29,-208.15"/>
</g>
<!-- node6 -->
<g id="node26" class="node">
<title>node6</title>
<ellipse fill="none" stroke="black" cx="553.04" cy="-18" rx="33.44" ry="18"/>
<text text-anchor="middle" x="553.04" y="-12.95" font-family="Times,serif" font-size="14.00">node6</text>
</g>
<!-- node17&#45;&gt;node6 -->
<g id="edge29" class="edge">
<title>node17&#45;&gt;node6</title>
<path fill="none" stroke="black" d="M164.41,-144.11C181.83,-123.48 218.95,-89.23 258.04,-72 350.72,-31.16 384.11,-57.63 483.04,-36 492.31,-33.97 502.25,-31.38 511.71,-28.84"/>
<polygon fill="black" stroke="black" points="512.33,-32.3 521.07,-26.31 510.5,-25.54 512.33,-32.3"/>
</g>
<!-- node5 -->
<g id="node29" class="node">
<title>node5</title>
<ellipse fill="none" stroke="black" cx="309.04" cy="-90" rx="33.44" ry="18"/>
<text text-anchor="middle" x="309.04" y="-84.95" font-family="Times,serif" font-size="14.00">node5</text>
</g>
<!-- node17&#45;&gt;node5 -->
<g id="edge28" class="edge">
<title>node17&#45;&gt;node5</title>
<path fill="none" stroke="black" d="M178.94,-147.67C203.78,-135.6 242.73,-117.88 271.62,-105.47"/>
<polygon fill="black" stroke="black" points="272.92,-108.72 280.76,-101.59 270.19,-102.28 272.92,-108.72"/>
</g>
<!-- node28 -->
<g id="node30" class="node">
<title>node28</title>
<ellipse fill="none" stroke="black" cx="398.04" cy="-90" rx="38.04" ry="18"/>
<text text-anchor="middle" x="398.04" y="-84.95" font-family="Times,serif" font-size="14.00">node28</text>
</g>
<!-- node17&#45;&gt;node28 -->
<g id="edge30" class="edge">
<title>node17&#45;&gt;node28</title>
<path fill="none" stroke="black" d="M186.86,-151.57C224.35,-141.63 287.92,-125.07 342.04,-108 346.21,-106.69 350.55,-105.23 354.91,-103.74"/>
<polygon fill="black" stroke="black" points="355.94,-107.09 364.25,-100.53 353.66,-100.47 355.94,-107.09"/>
</g>
<!-- node43 -->
<g id="node31" class="node">
<title>node43</title>
<ellipse fill="none" stroke="black" cx="492.04" cy="-90" rx="38.04" ry="18"/>
<text text-anchor="middle" x="492.04" y="-84.95" font-family="Times,serif" font-size="14.00">node43</text>
</g>
<!-- node17&#45;&gt;node43 -->
<g id="edge31" class="edge">
<title>node17&#45;&gt;node43</title>
<path fill="none" stroke="black" d="M190.75,-155.59C244.62,-147.74 349.08,-131.5 436.04,-108 440.47,-106.8 445.08,-105.38 449.68,-103.86"/>
<polygon fill="black" stroke="black" points="450.53,-107.27 458.87,-100.74 448.28,-100.64 450.53,-107.27"/>
</g>
<!-- node11 -->
<g id="node32" class="node">
<title>node11</title>
<ellipse fill="none" stroke="black" cx="586.04" cy="-90" rx="38.04" ry="18"/>
<text text-anchor="middle" x="586.04" y="-84.95" font-family="Times,serif" font-size="14.00">node11</text>
</g>
<!-- node17&#45;&gt;node11 -->
<g id="edge33" class="edge">
<title>node17&#45;&gt;node11</title>
<path fill="none" stroke="black" d="M192.67,-158.01C260.87,-152.39 408.52,-138.01 530.04,-108 534.5,-106.9 539.12,-105.53 543.72,-104.05"/>
<polygon fill="black" stroke="black" points="544.57,-107.45 552.93,-100.94 542.33,-100.82 544.57,-107.45"/>
</g>
<!-- node36&#45;&gt;node50 -->
<g id="edge65" class="edge">
<title>node36&#45;&gt;node50</title>
<path fill="none" stroke="black" d="M659.02,-35.89C662.56,-55.86 660.76,-88.82 642.04,-108 624.04,-126.45 262.18,-199.65 131.49,-224.61"/>
<polygon fill="black" stroke="black" points="130.97,-221.15 121.8,-226.45 132.27,-228.02 130.97,-221.15"/>
</g>
<!-- node15&#45;&gt;node16 -->
<g id="edge7" class="edge">
<title>node15&#45;&gt;node16</title>
<path fill="none" stroke="black" d="M115.75,-30.81C97.36,-39.23 74.36,-52.53 61.04,-72 49.02,-89.58 45.83,-113.64 44.12,-132.31"/>
<polygon fill="black" stroke="black" points="40.64,-131.91 43.26,-142.17 47.61,-132.51 40.64,-131.91"/>
</g>
<!-- node23 -->
<g id="node9" class="node">
<title>node23</title>
<ellipse fill="none" stroke="black" cx="736.04" cy="-90" rx="38.04" ry="18"/>
<text text-anchor="middle" x="736.04" y="-84.95" font-family="Times,serif" font-size="14.00">node23</text>
</g>
<!-- node13 -->
<g id="node10" class="node">
<title>node13</title>
<ellipse fill="none" stroke="black" cx="582.04" cy="-162" rx="38.04" ry="18"/>
<text text-anchor="middle" x="582.04" y="-156.95" font-family="Times,serif" font-size="14.00">node13</text>
</g>
<!-- node23&#45;&gt;node13 -->
<g id="edge8" class="edge">
<title>node23&#45;&gt;node13</title>
<path fill="none" stroke="black" d="M712.07,-104.37C687.84,-116.13 650.26,-133.26 621.65,-145.59"/>
<polygon fill="black" stroke="black" points="620.39,-142.32 612.56,-149.47 623.13,-148.76 620.39,-142.32"/>
</g>
<!-- node13&#45;&gt;node23 -->
<g id="edge14" class="edge">
<title>node13&#45;&gt;node23</title>
<path fill="none" stroke="black" d="M605.94,-147.67C630.13,-135.92 667.7,-118.8 696.33,-106.46"/>
<polygon fill="black" stroke="black" points="697.6,-109.72 705.42,-102.58 694.85,-103.28 697.6,-109.72"/>
</g>
<!-- node19 -->
<g id="node14" class="node">
<title>node19</title>
<ellipse fill="none" stroke="black" cx="830.04" cy="-90" rx="38.04" ry="18"/>
<text text-anchor="middle" x="830.04" y="-84.95" font-family="Times,serif" font-size="14.00">node19</text>
</g>
<!-- node13&#45;&gt;node19 -->
<g id="edge12" class="edge">
<title>node13&#45;&gt;node19</title>
<path fill="none" stroke="black" d="M614.15,-151.85C652.57,-142.01 718.23,-125.41 774.04,-108 778.38,-106.65 782.9,-105.14 787.44,-103.59"/>
<polygon fill="black" stroke="black" points="788.2,-107.03 796.52,-100.47 785.92,-100.41 788.2,-107.03"/>
</g>
<!-- node22 -->
<g id="node15" class="node">
<title>node22</title>
<ellipse fill="none" stroke="black" cx="924.04" cy="-90" rx="38.04" ry="18"/>
<text text-anchor="middle" x="924.04" y="-84.95" font-family="Times,serif" font-size="14.00">node22</text>
</g>
<!-- node13&#45;&gt;node22 -->
<g id="edge13" class="edge">
<title>node13&#45;&gt;node22</title>
<path fill="none" stroke="black" d="M618.01,-155.73C672.73,-147.99 779.35,-131.82 868.04,-108 872.48,-106.81 877.08,-105.39 881.68,-103.88"/>
<polygon fill="black" stroke="black" points="882.53,-107.28 890.88,-100.75 880.28,-100.65 882.53,-107.28"/>
</g>
<!-- node34 -->
<g id="node16" class="node">
<title>node34</title>
<ellipse fill="none" stroke="black" cx="1018.04" cy="-90" rx="38.04" ry="18"/>
<text text-anchor="middle" x="1018.04" y="-84.95" font-family="Times,serif" font-size="14.00">node34</text>
</g>
<!-- node13&#45;&gt;node34 -->
<g id="edge15" class="edge">
<title>node13&#45;&gt;node34</title>
<path fill="none" stroke="black" d="M619.68,-158.12C688.57,-152.62 838.61,-138.37 962.04,-108 966.5,-106.9 971.12,-105.54 975.73,-104.05"/>
<polygon fill="black" stroke="black" points="976.57,-107.46 984.93,-100.95 974.33,-100.83 976.57,-107.46"/>
</g>
<!-- node37 -->
<g id="node17" class="node">
<title>node37</title>
<ellipse fill="none" stroke="black" cx="1112.04" cy="-90" rx="38.04" ry="18"/>
<text text-anchor="middle" x="1112.04" y="-84.95" font-family="Times,serif" font-size="14.00">node37</text>
</g>
<!-- node13&#45;&gt;node37 -->
<g id="edge16" class="edge">
<title>node13&#45;&gt;node37</title>
<path fill="none" stroke="black" d="M620.18,-159.69C701.45,-156.37 896.63,-145.02 1056.04,-108 1060.56,-106.95 1065.24,-105.6 1069.9,-104.12"/>
<polygon fill="black" stroke="black" points="1070.85,-107.49 1079.21,-100.98 1068.62,-100.86 1070.85,-107.49"/>
</g>
<!-- node40 -->
<g id="node18" class="node">
<title>node40</title>
<ellipse fill="none" stroke="black" cx="1206.04" cy="-90" rx="38.04" ry="18"/>
<text text-anchor="middle" x="1206.04" y="-84.95" font-family="Times,serif" font-size="14.00">node40</text>
</g>
<!-- node13&#45;&gt;node40 -->
<g id="edge17" class="edge">
<title>node13&#45;&gt;node40</title>
<path fill="none" stroke="black" d="M619.56,-158.56C729.32,-151.62 1047.69,-130.82 1150.04,-108 1154.57,-106.99 1159.25,-105.66 1163.92,-104.19"/>
<polygon fill="black" stroke="black" points="1164.86,-107.57 1173.23,-101.07 1162.64,-100.93 1164.86,-107.57"/>
</g>
<!-- node46 -->
<g id="node19" class="node">
<title>node46</title>
<ellipse fill="none" stroke="black" cx="1300.04" cy="-90" rx="38.04" ry="18"/>
<text text-anchor="middle" x="1300.04" y="-84.95" font-family="Times,serif" font-size="14.00">node46</text>
</g>
<!-- node13&#45;&gt;node46 -->
<g id="edge18" class="edge">
<title>node13&#45;&gt;node46</title>
<path fill="none" stroke="black" d="M619.77,-158.38C751.1,-149.63 1182.65,-121.27 1244.04,-108 1248.58,-107.02 1253.26,-105.71 1257.93,-104.25"/>
<polygon fill="black" stroke="black" points="1258.87,-107.62 1267.24,-101.13 1256.65,-100.98 1258.87,-107.62"/>
</g>
<!-- node13&#45;&gt;node47 -->
<g id="edge19" class="edge">
<title>node13&#45;&gt;node47</title>
<path fill="none" stroke="black" d="M548.16,-170.61C484.67,-183.85 348.15,-211.01 276.29,-224.71"/>
<polygon fill="black" stroke="black" points="275.99,-221.2 266.82,-226.51 277.29,-228.08 275.99,-221.2"/>
</g>
<!-- node8&#45;&gt;node3 -->
<g id="edge10" class="edge">
<title>node8&#45;&gt;node3</title>
<path fill="none" stroke="black" d="M697,-241.27C627.29,-254.35 458.74,-284.46 379.03,-298.08"/>
<polygon fill="black" stroke="black" points="378.7,-294.58 369.43,-299.71 379.88,-301.49 378.7,-294.58"/>
</g>
<!-- node12 -->
<g id="node12" class="node">
<title>node12</title>
<ellipse fill="none" stroke="black" cx="1639.04" cy="-162" rx="38.04" ry="18"/>
<text text-anchor="middle" x="1639.04" y="-156.95" font-family="Times,serif" font-size="14.00">node12</text>
</g>
<!-- node8&#45;&gt;node12 -->
<g id="edge9" class="edge">
<title>node8&#45;&gt;node12</title>
<path fill="none" stroke="black" d="M755.96,-223.86C768.73,-220.85 783.99,-217.82 798.04,-216 1142.64,-171.3 1237.42,-243.54 1579.04,-180 1584.69,-178.95 1590.57,-177.42 1596.37,-175.71"/>
<polygon fill="black" stroke="black" points="1597.41,-179.05 1605.9,-172.71 1595.31,-172.37 1597.41,-179.05"/>
</g>
<!-- node9 -->
<g id="node13" class="node">
<title>node9</title>
<ellipse fill="none" stroke="black" cx="1730.04" cy="-162" rx="33.44" ry="18"/>
<text text-anchor="middle" x="1730.04" y="-156.95" font-family="Times,serif" font-size="14.00">node9</text>
</g>
<!-- node8&#45;&gt;node9 -->
<g id="edge11" class="edge">
<title>node8&#45;&gt;node9</title>
<path fill="none" stroke="black" d="M755.95,-223.82C768.73,-220.81 783.99,-217.79 798.04,-216 1185.92,-166.69 1294.22,-259.52 1677.04,-180 1681.64,-179.04 1686.39,-177.66 1691.09,-176.1"/>
<polygon fill="black" stroke="black" points="1692.24,-179.4 1700.46,-172.72 1689.86,-172.82 1692.24,-179.4"/>
</g>
<!-- node12&#45;&gt;node8 -->
<g id="edge68" class="edge">
<title>node12&#45;&gt;node8</title>
<path fill="none" stroke="black" d="M1613.7,-175.84C1608.28,-177.5 1602.55,-178.98 1597.04,-180 1255.42,-243.54 1160.64,-171.3 816.04,-216 800.97,-217.96 784.5,-221.3 769.83,-224.51"/>
<polygon fill="black" stroke="black" points="769.5,-221 760.5,-226.59 771.02,-227.83 769.5,-221"/>
</g>
<!-- node9&#45;&gt;node8 -->
<g id="edge62" class="edge">
<title>node9&#45;&gt;node8</title>
<path fill="none" stroke="black" d="M1708.57,-176.21C1704.17,-177.73 1699.53,-179.07 1695.04,-180 1312.22,-259.52 1203.92,-166.69 816.04,-216 800.96,-217.92 784.49,-221.26 769.83,-224.47"/>
<polygon fill="black" stroke="black" points="769.5,-220.96 760.5,-226.55 771.02,-227.79 769.5,-220.96"/>
</g>
<!-- node19&#45;&gt;node13 -->
<g id="edge75" class="edge">
<title>node19&#45;&gt;node13</title>
<path fill="none" stroke="black" d="M804.7,-103.8C800.5,-105.27 796.19,-106.71 792.04,-108 736.39,-125.37 670.92,-141.92 627.94,-151.77"/>
<polygon fill="black" stroke="black" points="627.43,-148.3 618.45,-153.92 628.98,-155.13 627.43,-148.3"/>
</g>
<!-- node22&#45;&gt;node13 -->
<g id="edge86" class="edge">
<title>node22&#45;&gt;node13</title>
<path fill="none" stroke="black" d="M899.05,-104.04C894.75,-105.49 890.32,-106.85 886.04,-108 797.29,-131.84 690.59,-148.01 629.99,-155.75"/>
<polygon fill="black" stroke="black" points="629.86,-152.24 620.37,-156.95 630.73,-159.18 629.86,-152.24"/>
</g>
<!-- node21 -->
<g id="node49" class="node">
<title>node21</title>
<ellipse fill="none" stroke="black" cx="834.04" cy="-18" rx="38.04" ry="18"/>
<text text-anchor="middle" x="834.04" y="-12.95" font-family="Times,serif" font-size="14.00">node21</text>
</g>
<!-- node22&#45;&gt;node21 -->
<g id="edge85" class="edge">
<title>node22&#45;&gt;node21</title>
<path fill="none" stroke="black" d="M901.23,-75.5C887.8,-66.08 871,-53.25 857.48,-42.21"/>
<polygon fill="black" stroke="black" points="859.82,-39.59 849.89,-35.88 855.33,-44.97 859.82,-39.59"/>
</g>
<!-- node34&#45;&gt;node13 -->
<g id="edge34" class="edge">
<title>node34&#45;&gt;node13</title>
<path fill="none" stroke="black" d="M993.35,-104.13C988.97,-105.58 984.43,-106.92 980.04,-108 856.81,-138.32 707.06,-152.57 631.09,-158.09"/>
<polygon fill="black" stroke="black" points="631.23,-154.57 621.5,-158.77 631.72,-161.55 631.23,-154.57"/>
</g>
<!-- node37&#45;&gt;node13 -->
<g id="edge50" class="edge">
<title>node37&#45;&gt;node13</title>
<path fill="none" stroke="black" d="M1087.62,-104.15C1083.16,-105.62 1078.52,-106.96 1074.04,-108 915.39,-144.84 721.3,-156.26 631.62,-159.65"/>
<polygon fill="black" stroke="black" points="631.56,-156.15 621.7,-160 631.81,-163.14 631.56,-156.15"/>
</g>
<!-- node40&#45;&gt;node13 -->
<g id="edge47" class="edge">
<title>node40&#45;&gt;node13</title>
<path fill="none" stroke="black" d="M1181.64,-104.23C1177.18,-105.68 1172.53,-107 1168.04,-108 1066.63,-130.61 753.14,-151.24 631.17,-158.37"/>
<polygon fill="black" stroke="black" points="631.27,-154.85 621.49,-158.92 631.68,-161.84 631.27,-154.85"/>
</g>
<!-- node46&#45;&gt;node13 -->
<g id="edge74" class="edge">
<title>node46&#45;&gt;node13</title>
<path fill="none" stroke="black" d="M1275.65,-104.28C1271.19,-105.73 1266.54,-107.03 1262.04,-108 1201.23,-121.15 777.17,-149.1 631.18,-158.13"/>
<polygon fill="black" stroke="black" points="631.22,-154.62 621.46,-158.73 631.65,-161.6 631.22,-154.62"/>
</g>
<!-- node47&#45;&gt;node1 -->
<g id="edge79" class="edge">
<title>node47&#45;&gt;node1</title>
<path fill="none" stroke="black" d="M213.94,-250.59C200.41,-261.14 180.93,-275.14 164.29,-286.29"/>
<polygon fill="black" stroke="black" points="162.57,-283.23 156.14,-291.65 166.42,-289.08 162.57,-283.23"/>
</g>
<!-- node47&#45;&gt;node13 -->
<g id="edge80" class="edge">
<title>node47&#45;&gt;node13</title>
<path fill="none" stroke="black" d="M263.98,-225.38C327.46,-212.14 463.79,-185.02 535.67,-171.32"/>
<polygon fill="black" stroke="black" points="535.97,-174.82 545.14,-169.52 534.67,-167.94 535.97,-174.82"/>
</g>
<!-- node32 -->
<g id="node28" class="node">
<title>node32</title>
<ellipse fill="none" stroke="black" cx="901.04" cy="-162" rx="38.04" ry="18"/>
<text text-anchor="middle" x="901.04" y="-156.95" font-family="Times,serif" font-size="14.00">node32</text>
</g>
<!-- node47&#45;&gt;node32 -->
<g id="edge81" class="edge">
<title>node47&#45;&gt;node32</title>
<path fill="none" stroke="black" d="M265.01,-226.43C286.87,-223.07 315.45,-219.04 341.04,-216 529.26,-193.63 754.52,-174.27 852.14,-166.56"/>
<polygon fill="black" stroke="black" points="852.19,-170.07 861.89,-165.8 851.65,-163.09 852.19,-170.07"/>
</g>
<!-- node14 -->
<g id="node21" class="node">
<title>node14</title>
<ellipse fill="none" stroke="black" cx="1108.04" cy="-162" rx="38.04" ry="18"/>
<text text-anchor="middle" x="1108.04" y="-156.95" font-family="Times,serif" font-size="14.00">node14</text>
</g>
<!-- node14&#45;&gt;node49 -->
<g id="edge20" class="edge">
<title>node14&#45;&gt;node49</title>
<path fill="none" stroke="black" d="M1071.75,-167.9C1041.12,-171.43 996.39,-176.23 957.04,-180 770.11,-197.92 722.75,-195.82 536.04,-216 505.85,-219.26 471.81,-223.74 444.87,-227.29"/>
<polygon fill="black" stroke="black" points="444.75,-223.77 435.29,-228.54 445.66,-230.71 444.75,-223.77"/>
</g>
<!-- node49&#45;&gt;node1 -->
<g id="edge91" class="edge">
<title>node49&#45;&gt;node1</title>
<path fill="none" stroke="black" d="M365.52,-244.6C317.66,-257.92 226.99,-281.87 173.75,-295.26"/>
<polygon fill="black" stroke="black" points="172.99,-291.85 164.13,-297.67 174.68,-298.64 172.99,-291.85"/>
</g>
<!-- node49&#45;&gt;node14 -->
<g id="edge92" class="edge">
<title>node49&#45;&gt;node14</title>
<path fill="none" stroke="black" d="M432.44,-226.85C456.58,-223.38 489.08,-219.13 518.04,-216 704.75,-195.82 752.11,-197.92 939.04,-180 979.52,-176.12 1025.69,-171.16 1059.65,-167.6"/>
<polygon fill="black" stroke="black" points="1059.58,-171.12 1069.17,-166.6 1058.86,-164.16 1059.58,-171.12"/>
</g>
<!-- node27 -->
<g id="node44" class="node">
<title>node27</title>
<ellipse fill="none" stroke="black" cx="1258.04" cy="-162" rx="38.04" ry="18"/>
<text text-anchor="middle" x="1258.04" y="-156.95" font-family="Times,serif" font-size="14.00">node27</text>
</g>
<!-- node49&#45;&gt;node27 -->
<g id="edge93" class="edge">
<title>node49&#45;&gt;node27</title>
<path fill="none" stroke="black" d="M432.13,-226.59C456.28,-223.01 488.92,-218.74 518.04,-216 796.39,-189.86 868.18,-210.81 1146.04,-180 1167.38,-177.64 1191.01,-173.82 1211.15,-170.4"/>
<polygon fill="black" stroke="black" points="1211.48,-173.9 1220.75,-168.76 1210.3,-167 1211.48,-173.9"/>
</g>
<!-- node4&#45;&gt;node3 -->
<g id="edge21" class="edge">
<title>node4&#45;&gt;node3</title>
<path fill="none" stroke="black" d="M1677.52,-25.99C1732.7,-40 1842.79,-70.34 1844.04,-72 1877.59,-116.31 1831.18,-156.02 1781.04,-180 1691.46,-222.85 985.75,-198.26 888.04,-216 837.85,-225.12 828.83,-240.85 779.04,-252 635.9,-284.05 461.56,-297.91 380.82,-302.78"/>
<polygon fill="black" stroke="black" points="380.89,-299.27 371.11,-303.35 381.3,-306.26 380.89,-299.27"/>
</g>
<!-- node33&#45;&gt;node16 -->
<g id="edge90" class="edge">
<title>node33&#45;&gt;node16</title>
<path fill="none" stroke="black" d="M277.96,-25.5C241.75,-32.71 184.91,-46.8 141.04,-72 111.21,-89.14 83.43,-117.62 64,-137.74"/>
<polygon fill="black" stroke="black" points="61.7,-135.09 57.26,-144.71 66.73,-139.96 61.7,-135.09"/>
</g>
<!-- node35&#45;&gt;node16 -->
<g id="edge97" class="edge">
<title>node35&#45;&gt;node16</title>
<path fill="none" stroke="black" d="M411.56,-27.09C352.42,-40.18 234.57,-65.2 216.04,-72 188.52,-82.11 118.39,-120.71 74.68,-143.63"/>
<polygon fill="black" stroke="black" points="73.31,-140.39 66.05,-148.11 76.54,-146.6 73.31,-140.39"/>
</g>
<!-- node6&#45;&gt;node17 -->
<g id="edge26" class="edge">
<title>node6&#45;&gt;node17</title>
<path fill="none" stroke="black" d="M526.79,-29.48C518.59,-31.82 509.53,-34.15 501.04,-36 402.11,-57.63 368.72,-31.16 276.04,-72 240.17,-87.81 205.96,-117.95 182.89,-138.75"/>
<polygon fill="black" stroke="black" points="180.82,-135.9 175.73,-145.2 185.5,-141.1 180.82,-135.9"/>
</g>
<!-- node42 -->
<g id="node27" class="node">
<title>node42</title>
<ellipse fill="none" stroke="black" cx="1142.04" cy="-18" rx="38.04" ry="18"/>
<text text-anchor="middle" x="1142.04" y="-12.95" font-family="Times,serif" font-size="14.00">node42</text>
</g>
<!-- node42&#45;&gt;node32 -->
<g id="edge27" class="edge">
<title>node42&#45;&gt;node32</title>
<path fill="none" stroke="black" d="M1179.57,-21.61C1253.85,-28.35 1407.51,-50.05 1356.04,-108 1352.71,-111.75 1066.15,-143.76 949.49,-156.14"/>
<polygon fill="black" stroke="black" points="949.17,-152.65 939.6,-157.19 949.91,-159.62 949.17,-152.65"/>
</g>
<!-- node32&#45;&gt;node47 -->
<g id="edge73" class="edge">
<title>node32&#45;&gt;node47</title>
<path fill="none" stroke="black" d="M863.61,-166.41C775.42,-174.02 548.47,-193.48 359.04,-216 332.26,-219.18 302.21,-223.44 277.75,-226.9"/>
<polygon fill="black" stroke="black" points="277.49,-223.4 268.08,-228.26 278.47,-230.33 277.49,-223.4"/>
</g>
<!-- node32&#45;&gt;node42 -->
<g id="edge72" class="edge">
<title>node32&#45;&gt;node42</title>
<path fill="none" stroke="black" d="M937.68,-156.51C1042.35,-144.41 1334.68,-111.79 1338.04,-108 1384.76,-55.41 1262.49,-32.67 1190.35,-23.88"/>
<polygon fill="black" stroke="black" points="1191.08,-20.44 1180.74,-22.76 1190.27,-27.39 1191.08,-20.44"/>
</g>
<!-- node31 -->
<g id="node47" class="node">
<title>node31</title>
<ellipse fill="none" stroke="black" cx="1450.04" cy="-90" rx="38.04" ry="18"/>
<text text-anchor="middle" x="1450.04" y="-84.95" font-family="Times,serif" font-size="14.00">node31</text>
</g>
<!-- node32&#45;&gt;node31 -->
<g id="edge70" class="edge">
<title>node32&#45;&gt;node31</title>
<path fill="none" stroke="black" d="M937.63,-156.69C1050.92,-144.11 1387.65,-108.3 1389.04,-108 1394.91,-106.74 1401.04,-105.07 1407.09,-103.27"/>
<polygon fill="black" stroke="black" points="1407.85,-106.7 1416.36,-100.39 1405.77,-100.01 1407.85,-106.7"/>
</g>
<!-- node38 -->
<g id="node48" class="node">
<title>node38</title>
<ellipse fill="none" stroke="black" cx="1544.04" cy="-90" rx="38.04" ry="18"/>
<text text-anchor="middle" x="1544.04" y="-84.95" font-family="Times,serif" font-size="14.00">node38</text>
</g>
<!-- node32&#45;&gt;node38 -->
<g id="edge71" class="edge">
<title>node32&#45;&gt;node38</title>
<path fill="none" stroke="black" d="M937.34,-156.07C967.96,-152.52 1012.69,-147.71 1052.04,-144 1245.62,-125.73 1298.07,-149.43 1488.04,-108 1492.57,-107.01 1497.26,-105.7 1501.92,-104.23"/>
<polygon fill="black" stroke="black" points="1502.87,-107.61 1511.24,-101.11 1500.65,-100.97 1502.87,-107.61"/>
</g>
<!-- node5&#45;&gt;node17 -->
<g id="edge76" class="edge">
<title>node5&#45;&gt;node17</title>
<path fill="none" stroke="black" d="M286.58,-103.64C262.38,-115.44 223.7,-133.07 194.47,-145.67"/>
<polygon fill="black" stroke="black" points="193.39,-142.33 185.56,-149.47 196.13,-148.76 193.39,-142.33"/>
</g>
<!-- node28&#45;&gt;node17 -->
<g id="edge49" class="edge">
<title>node28&#45;&gt;node17</title>
<path fill="none" stroke="black" d="M372.69,-103.77C368.5,-105.25 364.18,-106.69 360.04,-108 306,-125.05 242.54,-141.59 200.57,-151.53"/>
<polygon fill="black" stroke="black" points="200.01,-148.07 191.07,-153.75 201.6,-154.88 200.01,-148.07"/>
</g>
<!-- node43&#45;&gt;node17 -->
<g id="edge56" class="edge">
<title>node43&#45;&gt;node17</title>
<path fill="none" stroke="black" d="M467.04,-104.02C462.75,-105.48 458.32,-106.85 454.04,-108 367.19,-131.47 262.88,-147.7 203.13,-155.56"/>
<polygon fill="black" stroke="black" points="202.76,-152.08 193.29,-156.83 203.65,-159.02 202.76,-152.08"/>
</g>
<!-- node11&#45;&gt;node17 -->
<g id="edge63" class="edge">
<title>node11&#45;&gt;node17</title>
<path fill="none" stroke="black" d="M561.34,-104.12C556.97,-105.57 552.42,-106.92 548.04,-108 426.8,-137.94 279.55,-152.32 204.28,-157.97"/>
<polygon fill="black" stroke="black" points="204.07,-154.48 194.35,-158.69 204.57,-161.46 204.07,-154.48"/>
</g>
<!-- node39&#45;&gt;node3 -->
<g id="edge66" class="edge">
<title>node39&#45;&gt;node3</title>
<path fill="none" stroke="black" d="M1788.16,-28.01C1819.63,-38.72 1863.71,-57.02 1873.04,-72 1900.28,-115.71 1875.17,-153.44 1831.04,-180 1747.3,-230.41 1047.85,-196.59 952.04,-216 907.38,-225.05 900.4,-241.56 856.04,-252 684.08,-292.46 472.32,-302.04 381.12,-304.3"/>
<polygon fill="black" stroke="black" points="381.26,-300.8 371.35,-304.52 381.42,-307.8 381.26,-300.8"/>
</g>
<!-- node2&#45;&gt;node3 -->
<g id="edge78" class="edge">
<title>node2&#45;&gt;node3</title>
<path fill="none" stroke="black" d="M1875.92,-32.49C1886.28,-42.47 1897.19,-56.91 1902.04,-72 1917.22,-119.21 1914.38,-151.16 1874.04,-180 1796.07,-235.76 1105.57,-194.97 1012.04,-216 972.02,-225 966.84,-242.02 927.04,-252 728.45,-301.8 481.31,-306.02 381.15,-305.58"/>
<polygon fill="black" stroke="black" points="381.22,-302.08 371.19,-305.51 381.17,-309.08 381.22,-302.08"/>
</g>
<!-- node18&#45;&gt;node3 -->
<g id="edge61" class="edge">
<title>node18&#45;&gt;node3</title>
<path fill="none" stroke="black" d="M1955.17,-36.08C1960.29,-69.83 1957.39,-144.84 1913.04,-180 1839.14,-238.59 1156.35,-192.39 1065.04,-216 1030.41,-224.96 1027.5,-242.37 993.04,-252 877.88,-284.2 509.44,-299.41 380.78,-303.69"/>
<polygon fill="black" stroke="black" points="380.84,-300.19 370.96,-304.01 381.06,-307.18 380.84,-300.19"/>
</g>
<!-- node10&#45;&gt;node3 -->
<g id="edge48" class="edge">
<title>node10&#45;&gt;node3</title>
<path fill="none" stroke="black" d="M1076.77,-247.34C1070.69,-249.16 1064.22,-250.81 1058.04,-252 805.8,-300.41 495.49,-305.19 381.04,-305.24"/>
<polygon fill="black" stroke="black" points="381.15,-301.74 371.15,-305.23 381.15,-308.74 381.15,-301.74"/>
</g>
<!-- node20&#45;&gt;node3 -->
<g id="edge46" class="edge">
<title>node20&#45;&gt;node3</title>
<path fill="none" stroke="black" d="M1173.46,-248.17C1168.74,-249.68 1163.81,-251.02 1159.04,-252 1008.79,-282.88 529.93,-299.45 380.76,-303.82"/>
<polygon fill="black" stroke="black" points="380.78,-300.31 370.89,-304.1 380.99,-307.31 380.78,-300.31"/>
</g>
<!-- node26&#45;&gt;node3 -->
<g id="edge87" class="edge">
<title>node26&#45;&gt;node3</title>
<path fill="none" stroke="black" d="M2045.67,-36.25C2037.97,-70.66 2006.5,-147.31 1950.04,-180 1827.92,-250.71 1451.21,-175.46 1316.04,-216 1285.52,-225.15 1284.56,-242.82 1254.04,-252 1088.45,-301.8 542.02,-305.19 380.99,-305.12"/>
<polygon fill="black" stroke="black" points="381.16,-301.62 371.15,-305.11 381.15,-308.62 381.16,-301.62"/>
</g>
<!-- node29&#45;&gt;node3 -->
<g id="edge45" class="edge">
<title>node29&#45;&gt;node3</title>
<path fill="none" stroke="black" d="M2135.48,-36.15C2117.36,-70.37 2062.46,-146.71 1994.04,-180 1845.46,-252.3 630.51,-295.65 380.78,-303.65"/>
<polygon fill="black" stroke="black" points="381.02,-300.14 371.13,-303.96 381.24,-307.14 381.02,-300.14"/>
</g>
<!-- node44&#45;&gt;node1 -->
<g id="edge60" class="edge">
<title>node44&#45;&gt;node1</title>
<path fill="none" stroke="black" d="M538.73,-241.24C458.49,-254.51 263.16,-285.45 175.61,-298.74"/>
<polygon fill="black" stroke="black" points="175.11,-295.28 165.74,-300.23 176.15,-302.2 175.11,-295.28"/>
</g>
<!-- node30 -->
<g id="node41" class="node">
<title>node30</title>
<ellipse fill="none" stroke="black" cx="1380.04" cy="-162" rx="38.04" ry="18"/>
<text text-anchor="middle" x="1380.04" y="-156.95" font-family="Times,serif" font-size="14.00">node30</text>
</g>
<!-- node44&#45;&gt;node30 -->
<g id="edge57" class="edge">
<title>node44&#45;&gt;node30</title>
<path fill="none" stroke="black" d="M608.35,-225.61C628.36,-222.22 653.96,-218.42 677.04,-216 951.12,-187.29 1023.18,-218.59 1296.04,-180 1308.49,-178.24 1321.93,-175.47 1334.4,-172.68"/>
<polygon fill="black" stroke="black" points="1335.07,-176.12 1344.04,-170.47 1333.51,-169.29 1335.07,-176.12"/>
</g>
<!-- node41 -->
<g id="node42" class="node">
<title>node41</title>
<ellipse fill="none" stroke="black" cx="1518.04" cy="-18" rx="38.04" ry="18"/>
<text text-anchor="middle" x="1518.04" y="-12.95" font-family="Times,serif" font-size="14.00">node41</text>
</g>
<!-- node44&#45;&gt;node41 -->
<g id="edge58" class="edge">
<title>node44&#45;&gt;node41</title>
<path fill="none" stroke="black" d="M608.09,-225.56C628.14,-222.13 653.85,-218.32 677.04,-216 841.09,-199.61 1258.02,-219.66 1418.04,-180 1454.71,-170.91 1460.47,-159.23 1495.04,-144 1533.34,-127.13 1558.79,-142.79 1582.04,-108 1590.94,-94.7 1589.31,-86.25 1582.04,-72 1575.03,-58.24 1562.58,-47.21 1550.45,-38.86"/>
<polygon fill="black" stroke="black" points="1552.47,-36 1542.16,-33.55 1548.69,-41.89 1552.47,-36"/>
</g>
<!-- node7 -->
<g id="node43" class="node">
<title>node7</title>
<ellipse fill="none" stroke="black" cx="1546.04" cy="-162" rx="33.44" ry="18"/>
<text text-anchor="middle" x="1546.04" y="-156.95" font-family="Times,serif" font-size="14.00">node7</text>
</g>
<!-- node44&#45;&gt;node7 -->
<g id="edge59" class="edge">
<title>node44&#45;&gt;node7</title>
<path fill="none" stroke="black" d="M608.09,-225.52C628.13,-222.08 653.85,-218.27 677.04,-216 1033.92,-181.05 1129.93,-242.37 1483.04,-180 1490.46,-178.69 1498.27,-176.64 1505.82,-174.42"/>
<polygon fill="black" stroke="black" points="1506.64,-177.83 1515.17,-171.54 1504.58,-171.14 1506.64,-177.83"/>
</g>
<!-- node30&#45;&gt;node44 -->
<g id="edge82" class="edge">
<title>node30&#45;&gt;node44</title>
<path fill="none" stroke="black" d="M1349.58,-173.14C1338.46,-175.77 1325.81,-178.34 1314.04,-180 1041.18,-218.59 969.12,-187.29 695.04,-216 670.89,-218.53 643.98,-222.57 621.58,-226.08"/>
<polygon fill="black" stroke="black" points="621.15,-222.61 611.82,-227.62 622.24,-229.52 621.15,-222.61"/>
</g>
<!-- node41&#45;&gt;node44 -->
<g id="edge83" class="edge">
<title>node41&#45;&gt;node44</title>
<path fill="none" stroke="black" d="M1548.86,-28.84C1567.68,-37.45 1589.73,-51.77 1600.04,-72 1607.31,-86.25 1608.94,-94.7 1600.04,-108 1576.79,-142.79 1551.34,-127.13 1513.04,-144 1478.47,-159.23 1472.71,-170.91 1436.04,-180 1276.02,-219.66 859.09,-199.61 695.04,-216 670.88,-218.41 643.97,-222.45 621.58,-225.99"/>
<polygon fill="black" stroke="black" points="621.13,-222.52 611.81,-227.54 622.23,-229.43 621.13,-222.52"/>
</g>
<!-- node7&#45;&gt;node44 -->
<g id="edge95" class="edge">
<title>node7&#45;&gt;node44</title>
<path fill="none" stroke="black" d="M1521.78,-174.9C1515.13,-176.94 1507.92,-178.79 1501.04,-180 1147.93,-242.37 1051.92,-181.05 695.04,-216 670.88,-218.37 643.97,-222.41 621.57,-225.95"/>
<polygon fill="black" stroke="black" points="621.13,-222.48 611.81,-227.51 622.23,-229.39 621.13,-222.48"/>
</g>
<!-- node25 -->
<g id="node45" class="node">
<title>node25</title>
<ellipse fill="none" stroke="black" cx="1694.04" cy="-90" rx="38.04" ry="18"/>
<text text-anchor="middle" x="1694.04" y="-84.95" font-family="Times,serif" font-size="14.00">node25</text>
</g>
<!-- node7&#45;&gt;node25 -->
<g id="edge94" class="edge">
<title>node7&#45;&gt;node25</title>
<path fill="none" stroke="black" d="M1568.15,-148C1591.14,-136.32 1627.32,-119.16 1655.07,-106.72"/>
<polygon fill="black" stroke="black" points="1656.15,-110.07 1663.87,-102.81 1653.31,-103.67 1656.15,-110.07"/>
</g>
<!-- node45 -->
<g id="node46" class="node">
<title>node45</title>
<ellipse fill="none" stroke="black" cx="1788.04" cy="-90" rx="38.04" ry="18"/>
<text text-anchor="middle" x="1788.04" y="-84.95" font-family="Times,serif" font-size="14.00">node45</text>
</g>
<!-- node7&#45;&gt;node45 -->
<g id="edge96" class="edge">
<title>node7&#45;&gt;node45</title>
<path fill="none" stroke="black" d="M1569.15,-148.63C1573.72,-146.98 1578.48,-145.39 1583.04,-144 1648.22,-124.16 1666.8,-127.62 1732.04,-108 1736.39,-106.69 1740.92,-105.21 1745.46,-103.68"/>
<polygon fill="black" stroke="black" points="1746.22,-107.12 1754.54,-100.56 1743.95,-100.5 1746.22,-107.12"/>
</g>
<!-- node27&#45;&gt;node49 -->
<g id="edge64" class="edge">
<title>node27&#45;&gt;node49</title>
<path fill="none" stroke="black" d="M1224.34,-170.96C1206.46,-174.23 1184.22,-177.76 1164.04,-180 886.18,-210.81 814.39,-189.86 536.04,-216 505.8,-218.84 471.77,-223.34 444.84,-226.99"/>
<polygon fill="black" stroke="black" points="444.7,-223.48 435.26,-228.3 445.64,-230.42 444.7,-223.48"/>
</g>
<!-- node25&#45;&gt;node7 -->
<g id="edge67" class="edge">
<title>node25&#45;&gt;node7</title>
<path fill="none" stroke="black" d="M1670.97,-104.49C1647.45,-116.4 1610.88,-133.73 1583.3,-146.05"/>
<polygon fill="black" stroke="black" points="1581.96,-142.82 1574.22,-150.06 1584.78,-149.22 1581.96,-142.82"/>
</g>
<!-- node45&#45;&gt;node7 -->
<g id="edge69" class="edge">
<title>node45&#45;&gt;node7</title>
<path fill="none" stroke="black" d="M1762.73,-103.88C1758.52,-105.34 1754.2,-106.75 1750.04,-108 1684.8,-127.62 1666.22,-124.16 1601.04,-144 1596.24,-145.46 1591.21,-147.15 1586.2,-148.89"/>
<polygon fill="black" stroke="black" points="1585.07,-145.58 1576.8,-152.19 1587.39,-152.18 1585.07,-145.58"/>
</g>
<!-- node31&#45;&gt;node32 -->
<g id="edge89" class="edge">
<title>node31&#45;&gt;node32</title>
<path fill="none" stroke="black" d="M1423.96,-103.54C1418.43,-105.24 1412.62,-106.81 1407.04,-108 1405.66,-108.3 1076.12,-143.35 949.6,-156.28"/>
<polygon fill="black" stroke="black" points="949.46,-152.77 939.86,-157.27 950.17,-159.74 949.46,-152.77"/>
</g>
<!-- node24 -->
<g id="node50" class="node">
<title>node24</title>
<ellipse fill="none" stroke="black" cx="1343.04" cy="-18" rx="38.04" ry="18"/>
<text text-anchor="middle" x="1343.04" y="-12.95" font-family="Times,serif" font-size="14.00">node24</text>
</g>
<!-- node31&#45;&gt;node24 -->
<g id="edge88" class="edge">
<title>node31&#45;&gt;node24</title>
<path fill="none" stroke="black" d="M1425.05,-76.16C1408.47,-66.26 1386.89,-52.35 1369.95,-40.72"/>
<polygon fill="black" stroke="black" points="1372.04,-37.91 1361.83,-35.06 1368.03,-43.65 1372.04,-37.91"/>
</g>
<!-- node38&#45;&gt;node32 -->
<g id="edge77" class="edge">
<title>node38&#45;&gt;node32</title>
<path fill="none" stroke="black" d="M1519.65,-104.27C1515.18,-105.72 1510.54,-107.02 1506.04,-108 1316.07,-149.43 1263.62,-125.73 1070.04,-144 1029.57,-147.82 983.4,-152.79 949.44,-156.37"/>
<polygon fill="black" stroke="black" points="949.5,-152.84 939.92,-157.37 950.23,-159.81 949.5,-152.84"/>
</g>
<!-- node21&#45;&gt;node22 -->
<g id="edge84" class="edge">
<title>node21&#45;&gt;node22</title>
<path fill="none" stroke="black" d="M857.14,-32.7C870.55,-42.12 887.24,-54.87 900.68,-65.86"/>
<polygon fill="black" stroke="black" points="898.3,-68.43 908.22,-72.15 902.78,-63.05 898.3,-68.43"/>
</g>
<!-- node24&#45;&gt;node31 -->
<g id="edge98" class="edge">
<title>node24&#45;&gt;node31</title>
<path fill="none" stroke="black" d="M1367.99,-31.81C1384.58,-41.71 1406.18,-55.64 1423.14,-67.28"/>
<polygon fill="black" stroke="black" points="1421.06,-70.09 1431.26,-72.95 1425.06,-64.35 1421.06,-70.09"/>
</g>
</g>
</svg>
