<?xml version="1.0" encoding="UTF-8" standalone="no"?>
<!DOCTYPE svg PUBLIC "-//W3C//DTD SVG 1.1//EN"
 "http://www.w3.org/Graphics/SVG/1.1/DTD/svg11.dtd">
<!-- Generated by graphviz version 12.2.1 (20241206.2353)
 -->
<!-- Pages: 1 -->
<svg width="387pt" height="260pt"
 viewBox="0.00 0.00 387.31 260.00" xmlns="http://www.w3.org/2000/svg" xmlns:xlink="http://www.w3.org/1999/xlink">
<g id="graph0" class="graph" transform="scale(1 1) rotate(0) translate(4 256)">
<polygon fill="white" stroke="none" points="-4,4 -4,-256 383.31,-256 383.31,4 -4,4"/>
<!-- node6 -->
<g id="node1" class="node">
<title>node6</title>
<ellipse fill="none" stroke="black" cx="91.44" cy="-234" rx="33.44" ry="18"/>
<text text-anchor="middle" x="91.44" y="-228.95" font-family="Times,serif" font-size="14.00">node6</text>
</g>
<!-- node1 -->
<g id="node2" class="node">
<title>node1</title>
<ellipse fill="none" stroke="black" cx="56.44" cy="-162" rx="33.44" ry="18"/>
<text text-anchor="middle" x="56.44" y="-156.95" font-family="Times,serif" font-size="14.00">node1</text>
</g>
<!-- node6&#45;&gt;node1 -->
<g id="edge1" class="edge">
<title>node6&#45;&gt;node1</title>
<path fill="none" stroke="black" d="M77.74,-217.12C72.94,-209.32 67.84,-199.69 63.68,-190.73"/>
<polygon fill="black" stroke="black" points="66.95,-189.47 59.77,-181.68 60.53,-192.25 66.95,-189.47"/>
</g>
<!-- node7 -->
<g id="node3" class="node">
<title>node7</title>
<ellipse fill="none" stroke="black" cx="203.44" cy="-18" rx="33.44" ry="18"/>
<text text-anchor="middle" x="203.44" y="-12.95" font-family="Times,serif" font-size="14.00">node7</text>
</g>
<!-- node6&#45;&gt;node7 -->
<g id="edge2" class="edge">
<title>node6&#45;&gt;node7</title>
<path fill="none" stroke="black" d="M95.31,-215.77C106.02,-191.81 131.29,-146.97 151.44,-108 162.39,-86.82 174.12,-62.41 184,-44.52"/>
<polygon fill="black" stroke="black" points="187.02,-46.29 188.98,-35.87 180.95,-42.79 187.02,-46.29"/>
</g>
<!-- node8 -->
<g id="node4" class="node">
<title>node8</title>
<ellipse fill="none" stroke="black" cx="227.44" cy="-162" rx="33.44" ry="18"/>
<text text-anchor="middle" x="227.44" y="-156.95" font-family="Times,serif" font-size="14.00">node8</text>
</g>
<!-- node6&#45;&gt;node8 -->
<g id="edge3" class="edge">
<title>node6&#45;&gt;node8</title>
<path fill="none" stroke="black" d="M112.2,-219.5C133.27,-207.82 166.01,-190.93 191.29,-178.65"/>
<polygon fill="black" stroke="black" points="192.74,-181.84 200.25,-174.36 189.72,-175.53 192.74,-181.84"/>
</g>
<!-- node10 -->
<g id="node5" class="node">
<title>node10</title>
<ellipse fill="none" stroke="black" cx="316.44" cy="-162" rx="38.04" ry="18"/>
<text text-anchor="middle" x="316.44" y="-156.95" font-family="Times,serif" font-size="14.00">node10</text>
</g>
<!-- node6&#45;&gt;node10 -->
<g id="edge4" class="edge">
<title>node6&#45;&gt;node10</title>
<path fill="none" stroke="black" d="M119.02,-223.42C152.72,-213.23 210.83,-196.34 260.44,-180 264.58,-178.63 268.92,-177.15 273.27,-175.64"/>
<polygon fill="black" stroke="black" points="274.3,-178.99 282.61,-172.41 272.01,-172.37 274.3,-178.99"/>
</g>
<!-- node5 -->
<g id="node6" class="node">
<title>node5</title>
<ellipse fill="none" stroke="black" cx="328.44" cy="-90" rx="33.44" ry="18"/>
<text text-anchor="middle" x="328.44" y="-84.95" font-family="Times,serif" font-size="14.00">node5</text>
</g>
<!-- node6&#45;&gt;node5 -->
<g id="edge5" class="edge">
<title>node6&#45;&gt;node5</title>
<path fill="none" stroke="black" d="M124.98,-231.3C189.27,-227.41 325.34,-215.32 354.44,-180 369.54,-161.67 356.83,-136.03 344.25,-116.98"/>
<polygon fill="black" stroke="black" points="347.26,-115.17 338.69,-108.93 341.5,-119.15 347.26,-115.17"/>
</g>
<!-- node1&#45;&gt;node6 -->
<g id="edge9" class="edge">
<title>node1&#45;&gt;node6</title>
<path fill="none" stroke="black" d="M70.01,-178.67C74.83,-186.49 79.97,-196.17 84.16,-205.19"/>
<polygon fill="black" stroke="black" points="80.92,-206.52 88.1,-214.31 87.34,-203.74 80.92,-206.52"/>
</g>
<!-- node2 -->
<g id="node7" class="node">
<title>node2</title>
<ellipse fill="none" stroke="black" cx="33.44" cy="-90" rx="33.44" ry="18"/>
<text text-anchor="middle" x="33.44" y="-84.95" font-family="Times,serif" font-size="14.00">node2</text>
</g>
<!-- node1&#45;&gt;node2 -->
<g id="edge7" class="edge">
<title>node1&#45;&gt;node2</title>
<path fill="none" stroke="black" d="M45.3,-144.76C41.94,-137.13 38.59,-127.79 36.03,-119.06"/>
<polygon fill="black" stroke="black" points="39.47,-118.38 33.55,-109.59 32.69,-120.15 39.47,-118.38"/>
</g>
<!-- node3 -->
<g id="node8" class="node">
<title>node3</title>
<ellipse fill="none" stroke="black" cx="118.44" cy="-90" rx="33.44" ry="18"/>
<text text-anchor="middle" x="118.44" y="-84.95" font-family="Times,serif" font-size="14.00">node3</text>
</g>
<!-- node1&#45;&gt;node3 -->
<g id="edge8" class="edge">
<title>node1&#45;&gt;node3</title>
<path fill="none" stroke="black" d="M65.29,-144.41C72.55,-135.06 82.84,-123.26 92.51,-113.13"/>
<polygon fill="black" stroke="black" points="94.82,-115.77 99.34,-106.19 89.83,-110.86 94.82,-115.77"/>
</g>
<!-- node7&#45;&gt;node6 -->
<g id="edge12" class="edge">
<title>node7&#45;&gt;node6</title>
<path fill="none" stroke="black" d="M202.19,-36.2C196.03,-54.23 182.21,-83.31 169.44,-108 151.33,-143.03 129.08,-182.79 112.67,-207.88"/>
<polygon fill="black" stroke="black" points="109.81,-205.87 107.1,-216.11 115.6,-209.79 109.81,-205.87"/>
</g>
<!-- node8&#45;&gt;node6 -->
<g id="edge6" class="edge">
<title>node8&#45;&gt;node6</title>
<path fill="none" stroke="black" d="M206.56,-176.56C185.53,-188.22 152.95,-205.03 127.73,-217.28"/>
<polygon fill="black" stroke="black" points="126.3,-214.08 118.79,-221.56 129.32,-220.39 126.3,-214.08"/>
</g>
<!-- node10&#45;&gt;node6 -->
<g id="edge14" class="edge">
<title>node10&#45;&gt;node6</title>
<path fill="none" stroke="black" d="M290.8,-175.76C286.69,-177.23 282.48,-178.67 278.44,-180 228.96,-196.3 171.04,-213.13 132.78,-223.34"/>
<polygon fill="black" stroke="black" points="132.3,-219.84 123.51,-225.77 134.08,-226.61 132.3,-219.84"/>
</g>
<!-- node5&#45;&gt;node6 -->
<g id="edge18" class="edge">
<title>node5&#45;&gt;node6</title>
<path fill="none" stroke="black" d="M348.08,-105.03C367.51,-123.84 391.02,-157.45 372.44,-180 343.46,-215.17 208.4,-227.31 136.5,-231.25"/>
<polygon fill="black" stroke="black" points="136.43,-227.75 126.62,-231.75 136.78,-234.74 136.43,-227.75"/>
</g>
<!-- node2&#45;&gt;node1 -->
<g id="edge15" class="edge">
<title>node2&#45;&gt;node1</title>
<path fill="none" stroke="black" d="M44.53,-107.14C47.89,-114.75 51.23,-124.05 53.8,-132.76"/>
<polygon fill="black" stroke="black" points="50.36,-133.45 56.28,-142.23 57.13,-131.67 50.36,-133.45"/>
</g>
<!-- node9 -->
<g id="node10" class="node">
<title>node9</title>
<ellipse fill="none" stroke="black" cx="33.44" cy="-18" rx="33.44" ry="18"/>
<text text-anchor="middle" x="33.44" y="-12.95" font-family="Times,serif" font-size="14.00">node9</text>
</g>
<!-- node2&#45;&gt;node9 -->
<g id="edge16" class="edge">
<title>node2&#45;&gt;node9</title>
<path fill="none" stroke="black" d="M27.56,-72.05C26.77,-64.57 26.51,-55.58 26.8,-47.14"/>
<polygon fill="black" stroke="black" points="30.29,-47.51 27.47,-37.3 23.3,-47.04 30.29,-47.51"/>
</g>
<!-- node3&#45;&gt;node1 -->
<g id="edge10" class="edge">
<title>node3&#45;&gt;node1</title>
<path fill="none" stroke="black" d="M109.5,-107.7C102.32,-116.93 92.22,-128.52 82.68,-138.54"/>
<polygon fill="black" stroke="black" points="80.44,-135.83 75.94,-145.42 85.44,-140.73 80.44,-135.83"/>
</g>
<!-- node4 -->
<g id="node9" class="node">
<title>node4</title>
<ellipse fill="none" stroke="black" cx="118.44" cy="-18" rx="33.44" ry="18"/>
<text text-anchor="middle" x="118.44" y="-12.95" font-family="Times,serif" font-size="14.00">node4</text>
</g>
<!-- node3&#45;&gt;node4 -->
<g id="edge11" class="edge">
<title>node3&#45;&gt;node4</title>
<path fill="none" stroke="black" d="M112.56,-72.05C111.77,-64.57 111.51,-55.58 111.8,-47.14"/>
<polygon fill="black" stroke="black" points="115.29,-47.51 112.47,-37.3 108.3,-47.04 115.29,-47.51"/>
</g>
<!-- node4&#45;&gt;node3 -->
<g id="edge17" class="edge">
<title>node4&#45;&gt;node3</title>
<path fill="none" stroke="black" d="M124.3,-35.79C125.1,-43.25 125.36,-52.24 125.08,-60.69"/>
<polygon fill="black" stroke="black" points="121.59,-60.33 124.42,-70.54 128.58,-60.8 121.59,-60.33"/>
</g>
<!-- node9&#45;&gt;node2 -->
<g id="edge13" class="edge">
<title>node9&#45;&gt;node2</title>
<path fill="none" stroke="black" d="M39.3,-35.79C40.1,-43.25 40.36,-52.24 40.08,-60.69"/>
<polygon fill="black" stroke="black" points="36.59,-60.33 39.42,-70.54 43.58,-60.8 36.59,-60.33"/>
</g>
</g>
</svg>
