<?xml version="1.0" encoding="UTF-8" standalone="no"?>
<!DOCTYPE svg PUBLIC "-//W3C//DTD SVG 1.1//EN"
 "http://www.w3.org/Graphics/SVG/1.1/DTD/svg11.dtd">
<!-- Generated by graphviz version 12.2.1 (20241206.2353)
 -->
<!-- Pages: 1 -->
<svg width="245pt" height="332pt"
 viewBox="0.00 0.00 244.88 332.00" xmlns="http://www.w3.org/2000/svg" xmlns:xlink="http://www.w3.org/1999/xlink">
<g id="graph0" class="graph" transform="scale(1 1) rotate(0) translate(4 328)">
<polygon fill="white" stroke="none" points="-4,4 -4,-328 240.88,-328 240.88,4 -4,4"/>
<!-- node4 -->
<g id="node1" class="node">
<title>node4</title>
<ellipse fill="none" stroke="black" cx="92.44" cy="-306" rx="33.44" ry="18"/>
<text text-anchor="middle" x="92.44" y="-300.95" font-family="Times,serif" font-size="14.00">node4</text>
</g>
<!-- node3 -->
<g id="node2" class="node">
<title>node3</title>
<ellipse fill="none" stroke="black" cx="92.44" cy="-234" rx="33.44" ry="18"/>
<text text-anchor="middle" x="92.44" y="-228.95" font-family="Times,serif" font-size="14.00">node3</text>
</g>
<!-- node4&#45;&gt;node3 -->
<g id="edge1" class="edge">
<title>node4&#45;&gt;node3</title>
<path fill="none" stroke="black" d="M86.56,-288.05C85.77,-280.57 85.51,-271.58 85.8,-263.14"/>
<polygon fill="black" stroke="black" points="89.29,-263.51 86.47,-253.3 82.3,-263.04 89.29,-263.51"/>
</g>
<!-- node3&#45;&gt;node4 -->
<g id="edge12" class="edge">
<title>node3&#45;&gt;node4</title>
<path fill="none" stroke="black" d="M98.3,-251.79C99.1,-259.25 99.36,-268.24 99.08,-276.69"/>
<polygon fill="black" stroke="black" points="95.59,-276.33 98.42,-286.54 102.58,-276.8 95.59,-276.33"/>
</g>
<!-- node8 -->
<g id="node3" class="node">
<title>node8</title>
<ellipse fill="none" stroke="black" cx="50.44" cy="-162" rx="33.44" ry="18"/>
<text text-anchor="middle" x="50.44" y="-156.95" font-family="Times,serif" font-size="14.00">node8</text>
</g>
<!-- node3&#45;&gt;node8 -->
<g id="edge13" class="edge">
<title>node3&#45;&gt;node8</title>
<path fill="none" stroke="black" d="M77.4,-217.46C71.59,-209.39 65.24,-199.28 60.03,-189.98"/>
<polygon fill="black" stroke="black" points="63.21,-188.5 55.44,-181.3 57.03,-191.78 63.21,-188.5"/>
</g>
<!-- node1 -->
<g id="node6" class="node">
<title>node1</title>
<ellipse fill="none" stroke="black" cx="135.44" cy="-162" rx="33.44" ry="18"/>
<text text-anchor="middle" x="135.44" y="-156.95" font-family="Times,serif" font-size="14.00">node1</text>
</g>
<!-- node3&#45;&gt;node1 -->
<g id="edge11" class="edge">
<title>node3&#45;&gt;node1</title>
<path fill="none" stroke="black" d="M97.15,-215.7C101.51,-207.16 107.74,-196.72 113.99,-187.4"/>
<polygon fill="black" stroke="black" points="116.69,-189.64 119.55,-179.44 110.95,-185.63 116.69,-189.64"/>
</g>
<!-- node8&#45;&gt;node3 -->
<g id="edge2" class="edge">
<title>node8&#45;&gt;node3</title>
<path fill="none" stroke="black" d="M65.24,-178.2C71.03,-186.22 77.39,-196.31 82.63,-205.64"/>
<polygon fill="black" stroke="black" points="79.48,-207.17 87.26,-214.36 85.66,-203.89 79.48,-207.17"/>
</g>
<!-- node10 -->
<g id="node4" class="node">
<title>node10</title>
<ellipse fill="none" stroke="black" cx="38.44" cy="-90" rx="38.04" ry="18"/>
<text text-anchor="middle" x="38.44" y="-84.95" font-family="Times,serif" font-size="14.00">node10</text>
</g>
<!-- node9 -->
<g id="node5" class="node">
<title>node9</title>
<ellipse fill="none" stroke="black" cx="33.44" cy="-18" rx="33.44" ry="18"/>
<text text-anchor="middle" x="33.44" y="-12.95" font-family="Times,serif" font-size="14.00">node9</text>
</g>
<!-- node10&#45;&gt;node9 -->
<g id="edge3" class="edge">
<title>node10&#45;&gt;node9</title>
<path fill="none" stroke="black" d="M31.35,-72.05C30.04,-64.68 29.15,-55.84 28.83,-47.51"/>
<polygon fill="black" stroke="black" points="32.33,-47.77 28.77,-37.79 25.33,-47.81 32.33,-47.77"/>
</g>
<!-- node10&#45;&gt;node1 -->
<g id="edge4" class="edge">
<title>node10&#45;&gt;node1</title>
<path fill="none" stroke="black" d="M62.26,-104.27C77.23,-114.07 96.31,-127.63 111.32,-139.04"/>
<polygon fill="black" stroke="black" points="108.82,-141.53 118.87,-144.88 113.11,-136 108.82,-141.53"/>
</g>
<!-- node9&#45;&gt;node10 -->
<g id="edge10" class="edge">
<title>node9&#45;&gt;node10</title>
<path fill="none" stroke="black" d="M40.47,-35.62C41.8,-43.02 42.71,-51.94 43.04,-60.35"/>
<polygon fill="black" stroke="black" points="39.54,-60.21 43.11,-70.18 46.54,-60.16 39.54,-60.21"/>
</g>
<!-- node1&#45;&gt;node3 -->
<g id="edge5" class="edge">
<title>node1&#45;&gt;node3</title>
<path fill="none" stroke="black" d="M130.81,-180.13C126.45,-188.68 120.19,-199.18 113.92,-208.57"/>
<polygon fill="black" stroke="black" points="111.18,-206.37 108.31,-216.57 116.92,-210.38 111.18,-206.37"/>
</g>
<!-- node1&#45;&gt;node10 -->
<g id="edge8" class="edge">
<title>node1&#45;&gt;node10</title>
<path fill="none" stroke="black" d="M112.78,-148.49C97.87,-138.78 78.54,-125.08 63.24,-113.48"/>
<polygon fill="black" stroke="black" points="65.57,-110.86 55.51,-107.52 61.29,-116.4 65.57,-110.86"/>
</g>
<!-- node5 -->
<g id="node7" class="node">
<title>node5</title>
<ellipse fill="none" stroke="black" cx="118.44" cy="-18" rx="33.44" ry="18"/>
<text text-anchor="middle" x="118.44" y="-12.95" font-family="Times,serif" font-size="14.00">node5</text>
</g>
<!-- node1&#45;&gt;node5 -->
<g id="edge6" class="edge">
<title>node1&#45;&gt;node5</title>
<path fill="none" stroke="black" d="M128.8,-143.87C123.42,-119.99 117.88,-76.38 116.32,-47.54"/>
<polygon fill="black" stroke="black" points="119.82,-47.57 115.96,-37.7 112.83,-47.82 119.82,-47.57"/>
</g>
<!-- node6 -->
<g id="node8" class="node">
<title>node6</title>
<ellipse fill="none" stroke="black" cx="194.44" cy="-90" rx="33.44" ry="18"/>
<text text-anchor="middle" x="194.44" y="-84.95" font-family="Times,serif" font-size="14.00">node6</text>
</g>
<!-- node1&#45;&gt;node6 -->
<g id="edge7" class="edge">
<title>node1&#45;&gt;node6</title>
<path fill="none" stroke="black" d="M143.58,-144.41C150.28,-135.28 159.77,-123.81 168.81,-113.85"/>
<polygon fill="black" stroke="black" points="171.24,-116.37 175.52,-106.68 166.13,-111.58 171.24,-116.37"/>
</g>
<!-- node5&#45;&gt;node1 -->
<g id="edge14" class="edge">
<title>node5&#45;&gt;node1</title>
<path fill="none" stroke="black" d="M125.07,-36.11C130.44,-59.92 135.96,-103.37 137.54,-132.22"/>
<polygon fill="black" stroke="black" points="134.04,-132.21 137.91,-142.08 141.04,-131.95 134.04,-132.21"/>
</g>
<!-- node6&#45;&gt;node1 -->
<g id="edge15" class="edge">
<title>node6&#45;&gt;node1</title>
<path fill="none" stroke="black" d="M186.22,-107.7C179.5,-116.84 170.02,-128.29 160.99,-138.24"/>
<polygon fill="black" stroke="black" points="158.57,-135.7 154.29,-145.39 163.68,-140.49 158.57,-135.7"/>
</g>
<!-- node7 -->
<g id="node9" class="node">
<title>node7</title>
<ellipse fill="none" stroke="black" cx="203.44" cy="-18" rx="33.44" ry="18"/>
<text text-anchor="middle" x="203.44" y="-12.95" font-family="Times,serif" font-size="14.00">node7</text>
</g>
<!-- node6&#45;&gt;node7 -->
<g id="edge16" class="edge">
<title>node6&#45;&gt;node7</title>
<path fill="none" stroke="black" d="M190.75,-71.7C190.94,-64.21 191.85,-55.26 193.23,-46.88"/>
<polygon fill="black" stroke="black" points="196.66,-47.6 195.16,-37.11 189.79,-46.24 196.66,-47.6"/>
</g>
<!-- node7&#45;&gt;node6 -->
<g id="edge9" class="edge">
<title>node7&#45;&gt;node6</title>
<path fill="none" stroke="black" d="M207.13,-36.28C206.94,-43.69 206.04,-52.54 204.69,-60.86"/>
<polygon fill="black" stroke="black" points="201.28,-60.08 202.79,-70.57 208.14,-61.43 201.28,-60.08"/>
</g>
<!-- node2 -->
<g id="node10" class="node">
<title>node2</title>
<ellipse fill="none" stroke="black" cx="177.44" cy="-306" rx="33.44" ry="18"/>
<text text-anchor="middle" x="177.44" y="-300.95" font-family="Times,serif" font-size="14.00">node2</text>
</g>
</g>
</svg>
