<?xml version="1.0" encoding="UTF-8" standalone="no"?>
<!DOCTYPE svg PUBLIC "-//W3C//DTD SVG 1.1//EN"
 "http://www.w3.org/Graphics/SVG/1.1/DTD/svg11.dtd">
<!-- Generated by graphviz version 12.2.1 (20241206.2353)
 -->
<!-- Pages: 1 -->
<svg width="665pt" height="404pt"
 viewBox="0.00 0.00 665.09 404.00" xmlns="http://www.w3.org/2000/svg" xmlns:xlink="http://www.w3.org/1999/xlink">
<g id="graph0" class="graph" transform="scale(1 1) rotate(0) translate(4 400)">
<polygon fill="white" stroke="none" points="-4,4 -4,-400 661.09,-400 661.09,4 -4,4"/>
<!-- node5 -->
<g id="node1" class="node">
<title>node5</title>
<ellipse fill="none" stroke="black" cx="129.04" cy="-378" rx="33.44" ry="18"/>
<text text-anchor="middle" x="129.04" y="-372.95" font-family="Times,serif" font-size="14.00">node5</text>
</g>
<!-- node20 -->
<g id="node2" class="node">
<title>node20</title>
<ellipse fill="none" stroke="black" cx="129.04" cy="-306" rx="38.04" ry="18"/>
<text text-anchor="middle" x="129.04" y="-300.95" font-family="Times,serif" font-size="14.00">node20</text>
</g>
<!-- node5&#45;&gt;node20 -->
<g id="edge1" class="edge">
<title>node5&#45;&gt;node20</title>
<path fill="none" stroke="black" d="M123.17,-360.05C122.38,-352.68 122.13,-343.84 122.4,-335.51"/>
<polygon fill="black" stroke="black" points="125.87,-335.99 123.03,-325.79 118.89,-335.54 125.87,-335.99"/>
</g>
<!-- node20&#45;&gt;node5 -->
<g id="edge24" class="edge">
<title>node20&#45;&gt;node5</title>
<path fill="none" stroke="black" d="M134.96,-324.28C135.71,-331.6 135.96,-340.34 135.69,-348.57"/>
<polygon fill="black" stroke="black" points="132.2,-348.33 135.02,-358.54 139.18,-348.8 132.2,-348.33"/>
</g>
<!-- node1 -->
<g id="node11" class="node">
<title>node1</title>
<ellipse fill="none" stroke="black" cx="129.04" cy="-234" rx="33.44" ry="18"/>
<text text-anchor="middle" x="129.04" y="-228.95" font-family="Times,serif" font-size="14.00">node1</text>
</g>
<!-- node20&#45;&gt;node1 -->
<g id="edge23" class="edge">
<title>node20&#45;&gt;node1</title>
<path fill="none" stroke="black" d="M123.17,-288.05C122.37,-280.57 122.12,-271.58 122.41,-263.14"/>
<polygon fill="black" stroke="black" points="125.89,-263.51 123.08,-253.3 118.91,-263.04 125.89,-263.51"/>
</g>
<!-- node14 -->
<g id="node3" class="node">
<title>node14</title>
<ellipse fill="none" stroke="black" cx="38.04" cy="-90" rx="38.04" ry="18"/>
<text text-anchor="middle" x="38.04" y="-84.95" font-family="Times,serif" font-size="14.00">node14</text>
</g>
<!-- node9 -->
<g id="node4" class="node">
<title>node9</title>
<ellipse fill="none" stroke="black" cx="39.04" cy="-18" rx="33.44" ry="18"/>
<text text-anchor="middle" x="39.04" y="-12.95" font-family="Times,serif" font-size="14.00">node9</text>
</g>
<!-- node14&#45;&gt;node9 -->
<g id="edge2" class="edge">
<title>node14&#45;&gt;node9</title>
<path fill="none" stroke="black" d="M32.41,-72.05C31.72,-64.57 31.6,-55.58 32.01,-47.14"/>
<polygon fill="black" stroke="black" points="35.49,-47.55 32.82,-37.3 28.51,-46.98 35.49,-47.55"/>
</g>
<!-- node10 -->
<g id="node5" class="node">
<title>node10</title>
<ellipse fill="none" stroke="black" cx="82.04" cy="-162" rx="38.04" ry="18"/>
<text text-anchor="middle" x="82.04" y="-156.95" font-family="Times,serif" font-size="14.00">node10</text>
</g>
<!-- node14&#45;&gt;node10 -->
<g id="edge3" class="edge">
<title>node14&#45;&gt;node10</title>
<path fill="none" stroke="black" d="M53.63,-106.67C59.59,-114.66 66.12,-124.6 71.54,-133.79"/>
<polygon fill="black" stroke="black" points="68.41,-135.36 76.34,-142.38 74.52,-131.94 68.41,-135.36"/>
</g>
<!-- node9&#45;&gt;node14 -->
<g id="edge29" class="edge">
<title>node9&#45;&gt;node14</title>
<path fill="none" stroke="black" d="M44.67,-35.79C45.36,-43.25 45.49,-52.24 45.09,-60.69"/>
<polygon fill="black" stroke="black" points="41.61,-60.3 44.29,-70.55 48.59,-60.86 41.61,-60.3"/>
</g>
<!-- node10&#45;&gt;node14 -->
<g id="edge22" class="edge">
<title>node10&#45;&gt;node14</title>
<path fill="none" stroke="black" d="M66.3,-145.12C60.37,-137.14 53.88,-127.26 48.51,-118.14"/>
<polygon fill="black" stroke="black" points="51.67,-116.63 43.74,-109.61 45.56,-120.05 51.67,-116.63"/>
</g>
<!-- node10&#45;&gt;node1 -->
<g id="edge20" class="edge">
<title>node10&#45;&gt;node1</title>
<path fill="none" stroke="black" d="M98.05,-178.36C104.53,-186.54 111.74,-196.84 117.68,-206.28"/>
<polygon fill="black" stroke="black" points="114.62,-207.98 122.77,-214.76 120.63,-204.38 114.62,-207.98"/>
</g>
<!-- node2 -->
<g id="node13" class="node">
<title>node2</title>
<ellipse fill="none" stroke="black" cx="128.04" cy="-90" rx="33.44" ry="18"/>
<text text-anchor="middle" x="128.04" y="-84.95" font-family="Times,serif" font-size="14.00">node2</text>
</g>
<!-- node10&#45;&gt;node2 -->
<g id="edge21" class="edge">
<title>node10&#45;&gt;node2</title>
<path fill="none" stroke="black" d="M87.5,-143.7C92.23,-135.16 98.9,-124.72 105.55,-115.4"/>
<polygon fill="black" stroke="black" points="108.32,-117.53 111.47,-107.42 102.7,-113.36 108.32,-117.53"/>
</g>
<!-- node19 -->
<g id="node19" class="node">
<title>node19</title>
<ellipse fill="none" stroke="black" cx="218.04" cy="-90" rx="38.04" ry="18"/>
<text text-anchor="middle" x="218.04" y="-84.95" font-family="Times,serif" font-size="14.00">node19</text>
</g>
<!-- node10&#45;&gt;node19 -->
<g id="edge19" class="edge">
<title>node10&#45;&gt;node19</title>
<path fill="none" stroke="black" d="M104.02,-146.83C124.65,-135.44 155.7,-119.41 180.26,-107.45"/>
<polygon fill="black" stroke="black" points="181.49,-110.74 188.98,-103.25 178.45,-104.44 181.49,-110.74"/>
</g>
<!-- node15 -->
<g id="node6" class="node">
<title>node15</title>
<ellipse fill="none" stroke="black" cx="335.04" cy="-18" rx="38.04" ry="18"/>
<text text-anchor="middle" x="335.04" y="-12.95" font-family="Times,serif" font-size="14.00">node15</text>
</g>
<!-- node11 -->
<g id="node7" class="node">
<title>node11</title>
<ellipse fill="none" stroke="black" cx="233.04" cy="-162" rx="38.04" ry="18"/>
<text text-anchor="middle" x="233.04" y="-156.95" font-family="Times,serif" font-size="14.00">node11</text>
</g>
<!-- node15&#45;&gt;node11 -->
<g id="edge4" class="edge">
<title>node15&#45;&gt;node11</title>
<path fill="none" stroke="black" d="M327.6,-35.69C312.37,-60.63 278.73,-107.79 255.81,-136.6"/>
<polygon fill="black" stroke="black" points="253.32,-134.12 249.74,-144.09 258.76,-138.53 253.32,-134.12"/>
</g>
<!-- node11&#45;&gt;node15 -->
<g id="edge35" class="edge">
<title>node11&#45;&gt;node15</title>
<path fill="none" stroke="black" d="M240.59,-144.15C255.91,-119.1 289.6,-71.88 312.47,-43.15"/>
<polygon fill="black" stroke="black" points="314.94,-45.67 318.53,-35.7 309.51,-41.25 314.94,-45.67"/>
</g>
<!-- node11&#45;&gt;node1 -->
<g id="edge36" class="edge">
<title>node11&#45;&gt;node1</title>
<path fill="none" stroke="black" d="M215.76,-178.48C201.06,-189.24 179.8,-203.61 161.94,-214.9"/>
<polygon fill="black" stroke="black" points="160.36,-211.76 153.71,-220.01 164.05,-217.7 160.36,-211.76"/>
</g>
<!-- node6 -->
<g id="node18" class="node">
<title>node6</title>
<ellipse fill="none" stroke="black" cx="430.04" cy="-18" rx="33.44" ry="18"/>
<text text-anchor="middle" x="430.04" y="-12.95" font-family="Times,serif" font-size="14.00">node6</text>
</g>
<!-- node11&#45;&gt;node6 -->
<g id="edge37" class="edge">
<title>node11&#45;&gt;node6</title>
<path fill="none" stroke="black" d="M247.73,-145.03C261.1,-134.52 280.73,-120.46 298.04,-108 331.77,-83.72 370.6,-55.6 397.56,-37.57"/>
<polygon fill="black" stroke="black" points="399.23,-40.66 405.66,-32.24 395.38,-34.81 399.23,-40.66"/>
</g>
<!-- node3 -->
<g id="node20" class="node">
<title>node3</title>
<ellipse fill="none" stroke="black" cx="436.04" cy="-90" rx="33.44" ry="18"/>
<text text-anchor="middle" x="436.04" y="-84.95" font-family="Times,serif" font-size="14.00">node3</text>
</g>
<!-- node11&#45;&gt;node3 -->
<g id="edge38" class="edge">
<title>node11&#45;&gt;node3</title>
<path fill="none" stroke="black" d="M261.06,-149.3C290.78,-138.69 338.61,-122.53 380.04,-108 385.05,-106.24 390.35,-104.36 395.63,-102.5"/>
<polygon fill="black" stroke="black" points="396.63,-105.86 404.94,-99.28 394.35,-99.24 396.63,-105.86"/>
</g>
<!-- node16 -->
<g id="node8" class="node">
<title>node16</title>
<ellipse fill="none" stroke="black" cx="525.04" cy="-90" rx="38.04" ry="18"/>
<text text-anchor="middle" x="525.04" y="-84.95" font-family="Times,serif" font-size="14.00">node16</text>
</g>
<!-- node13 -->
<g id="node9" class="node">
<title>node13</title>
<ellipse fill="none" stroke="black" cx="522.04" cy="-18" rx="38.04" ry="18"/>
<text text-anchor="middle" x="522.04" y="-12.95" font-family="Times,serif" font-size="14.00">node13</text>
</g>
<!-- node16&#45;&gt;node13 -->
<g id="edge5" class="edge">
<title>node16&#45;&gt;node13</title>
<path fill="none" stroke="black" d="M518.44,-72.05C517.34,-64.68 516.71,-55.84 516.62,-47.51"/>
<polygon fill="black" stroke="black" points="520.11,-47.86 516.84,-37.79 513.12,-47.71 520.11,-47.86"/>
</g>
<!-- node18 -->
<g id="node10" class="node">
<title>node18</title>
<ellipse fill="none" stroke="black" cx="416.04" cy="-162" rx="38.04" ry="18"/>
<text text-anchor="middle" x="416.04" y="-156.95" font-family="Times,serif" font-size="14.00">node18</text>
</g>
<!-- node16&#45;&gt;node18 -->
<g id="edge6" class="edge">
<title>node16&#45;&gt;node18</title>
<path fill="none" stroke="black" d="M507.06,-106.19C491.81,-116.82 469.73,-131.08 451.07,-142.39"/>
<polygon fill="black" stroke="black" points="449.49,-139.25 442.7,-147.39 453.08,-145.26 449.49,-139.25"/>
</g>
<!-- node13&#45;&gt;node16 -->
<g id="edge17" class="edge">
<title>node13&#45;&gt;node16</title>
<path fill="none" stroke="black" d="M528.67,-36.1C529.75,-43.37 530.37,-52.04 530.47,-60.24"/>
<polygon fill="black" stroke="black" points="526.97,-60.11 530.25,-70.18 533.97,-60.26 526.97,-60.11"/>
</g>
<!-- node18&#45;&gt;node16 -->
<g id="edge31" class="edge">
<title>node18&#45;&gt;node16</title>
<path fill="none" stroke="black" d="M434.02,-145.81C449.28,-135.18 471.38,-120.9 490.06,-109.59"/>
<polygon fill="black" stroke="black" points="491.64,-112.72 498.43,-104.59 488.05,-106.71 491.64,-112.72"/>
</g>
<!-- node18&#45;&gt;node1 -->
<g id="edge30" class="edge">
<title>node18&#45;&gt;node1</title>
<path fill="none" stroke="black" d="M383.68,-172.04C331.36,-185.47 228.62,-210.53 170.84,-223.95"/>
<polygon fill="black" stroke="black" points="170.35,-220.48 161.39,-226.14 171.92,-227.3 170.35,-220.48"/>
</g>
<!-- node1&#45;&gt;node20 -->
<g id="edge10" class="edge">
<title>node1&#45;&gt;node20</title>
<path fill="none" stroke="black" d="M134.91,-251.79C135.71,-259.25 135.97,-268.24 135.68,-276.69"/>
<polygon fill="black" stroke="black" points="132.2,-276.33 135.02,-286.54 139.18,-276.8 132.2,-276.33"/>
</g>
<!-- node1&#45;&gt;node10 -->
<g id="edge11" class="edge">
<title>node1&#45;&gt;node10</title>
<path fill="none" stroke="black" d="M113.17,-217.81C106.7,-209.66 99.49,-199.37 93.53,-189.92"/>
<polygon fill="black" stroke="black" points="96.58,-188.19 88.43,-181.42 90.58,-191.8 96.58,-188.19"/>
</g>
<!-- node1&#45;&gt;node11 -->
<g id="edge7" class="edge">
<title>node1&#45;&gt;node11</title>
<path fill="none" stroke="black" d="M145.46,-218.15C159.84,-207.59 180.91,-193.31 198.85,-181.92"/>
<polygon fill="black" stroke="black" points="200.53,-185.01 207.15,-176.74 196.82,-179.07 200.53,-185.01"/>
</g>
<!-- node1&#45;&gt;node18 -->
<g id="edge9" class="edge">
<title>node1&#45;&gt;node18</title>
<path fill="none" stroke="black" d="M158.27,-224.76C208.61,-211.79 311.55,-186.66 371.05,-172.79"/>
<polygon fill="black" stroke="black" points="371.57,-176.26 380.52,-170.6 369.99,-169.44 371.57,-176.26"/>
</g>
<!-- node17 -->
<g id="node12" class="node">
<title>node17</title>
<ellipse fill="none" stroke="black" cx="555.04" cy="-162" rx="38.04" ry="18"/>
<text text-anchor="middle" x="555.04" y="-156.95" font-family="Times,serif" font-size="14.00">node17</text>
</g>
<!-- node1&#45;&gt;node17 -->
<g id="edge8" class="edge">
<title>node1&#45;&gt;node17</title>
<path fill="none" stroke="black" d="M160.62,-227.42C218.87,-218.08 346.42,-198.48 454.04,-180 471.64,-176.98 491.09,-173.42 508.27,-170.34"/>
<polygon fill="black" stroke="black" points="508.46,-173.86 517.69,-168.66 507.23,-166.97 508.46,-173.86"/>
</g>
<!-- node17&#45;&gt;node1 -->
<g id="edge26" class="edge">
<title>node17&#45;&gt;node1</title>
<path fill="none" stroke="black" d="M521.82,-170.92C506.65,-173.86 488.53,-177.17 472.04,-180 364.78,-198.42 237.73,-217.95 172.38,-227.33"/>
<polygon fill="black" stroke="black" points="172.19,-223.82 162.79,-228.69 173.18,-230.75 172.19,-223.82"/>
</g>
<!-- node12 -->
<g id="node17" class="node">
<title>node12</title>
<ellipse fill="none" stroke="black" cx="619.04" cy="-90" rx="38.04" ry="18"/>
<text text-anchor="middle" x="619.04" y="-84.95" font-family="Times,serif" font-size="14.00">node12</text>
</g>
<!-- node17&#45;&gt;node12 -->
<g id="edge27" class="edge">
<title>node17&#45;&gt;node12</title>
<path fill="none" stroke="black" d="M564.37,-144.41C571.8,-135.19 582.24,-123.58 592.08,-113.54"/>
<polygon fill="black" stroke="black" points="594.41,-116.16 599.05,-106.64 589.48,-111.19 594.41,-116.16"/>
</g>
<!-- node2&#45;&gt;node10 -->
<g id="edge14" class="edge">
<title>node2&#45;&gt;node10</title>
<path fill="none" stroke="black" d="M122.78,-107.96C118.1,-116.44 111.45,-126.87 104.81,-136.23"/>
<polygon fill="black" stroke="black" points="102.01,-134.13 98.87,-144.25 107.64,-138.29 102.01,-134.13"/>
</g>
<!-- node4 -->
<g id="node14" class="node">
<title>node4</title>
<ellipse fill="none" stroke="black" cx="126.04" cy="-18" rx="33.44" ry="18"/>
<text text-anchor="middle" x="126.04" y="-12.95" font-family="Times,serif" font-size="14.00">node4</text>
</g>
<!-- node2&#45;&gt;node4 -->
<g id="edge12" class="edge">
<title>node2&#45;&gt;node4</title>
<path fill="none" stroke="black" d="M121.68,-72.05C120.67,-64.57 120.17,-55.58 120.22,-47.14"/>
<polygon fill="black" stroke="black" points="123.71,-47.43 120.6,-37.3 116.71,-47.16 123.71,-47.43"/>
</g>
<!-- node7 -->
<g id="node15" class="node">
<title>node7</title>
<ellipse fill="none" stroke="black" cx="234.04" cy="-18" rx="33.44" ry="18"/>
<text text-anchor="middle" x="234.04" y="-12.95" font-family="Times,serif" font-size="14.00">node7</text>
</g>
<!-- node2&#45;&gt;node7 -->
<g id="edge13" class="edge">
<title>node2&#45;&gt;node7</title>
<path fill="none" stroke="black" d="M144.89,-74.15C160.01,-63.27 182.36,-48.44 200.97,-36.9"/>
<polygon fill="black" stroke="black" points="202.57,-40.02 209.29,-31.82 198.93,-34.04 202.57,-40.02"/>
</g>
<!-- node4&#45;&gt;node2 -->
<g id="edge16" class="edge">
<title>node4&#45;&gt;node2</title>
<path fill="none" stroke="black" d="M132.39,-35.79C133.4,-43.25 133.92,-52.24 133.87,-60.69"/>
<polygon fill="black" stroke="black" points="130.38,-60.42 133.5,-70.54 137.38,-60.68 130.38,-60.42"/>
</g>
<!-- node7&#45;&gt;node2 -->
<g id="edge25" class="edge">
<title>node7&#45;&gt;node2</title>
<path fill="none" stroke="black" d="M217.02,-33.97C202.03,-44.76 180.03,-59.36 161.59,-70.81"/>
<polygon fill="black" stroke="black" points="159.78,-67.82 153.07,-76.02 163.43,-73.79 159.78,-67.82"/>
</g>
<!-- node8 -->
<g id="node16" class="node">
<title>node8</title>
<ellipse fill="none" stroke="black" cx="615.04" cy="-18" rx="33.44" ry="18"/>
<text text-anchor="middle" x="615.04" y="-12.95" font-family="Times,serif" font-size="14.00">node8</text>
</g>
<!-- node8&#45;&gt;node12 -->
<g id="edge15" class="edge">
<title>node8&#45;&gt;node12</title>
<path fill="none" stroke="black" d="M621.92,-36.1C623.09,-43.37 623.84,-52.04 624.05,-60.24"/>
<polygon fill="black" stroke="black" points="620.56,-60.16 623.98,-70.18 627.56,-60.21 620.56,-60.16"/>
</g>
<!-- node12&#45;&gt;node17 -->
<g id="edge32" class="edge">
<title>node12&#45;&gt;node17</title>
<path fill="none" stroke="black" d="M609.56,-107.79C602.19,-116.92 591.91,-128.34 582.2,-138.26"/>
<polygon fill="black" stroke="black" points="579.96,-135.56 575.33,-145.09 584.89,-140.53 579.96,-135.56"/>
</g>
<!-- node12&#45;&gt;node8 -->
<g id="edge33" class="edge">
<title>node12&#45;&gt;node8</title>
<path fill="none" stroke="black" d="M612.2,-72.05C610.99,-64.68 610.23,-55.84 610.03,-47.51"/>
<polygon fill="black" stroke="black" points="613.53,-47.82 610.11,-37.79 606.53,-47.76 613.53,-47.82"/>
</g>
<!-- node6&#45;&gt;node11 -->
<g id="edge18" class="edge">
<title>node6&#45;&gt;node11</title>
<path fill="none" stroke="black" d="M415.24,-34.47C393.23,-52.24 351.77,-82.28 316.04,-108 300.37,-119.28 282.79,-131.88 267.73,-141.95"/>
<polygon fill="black" stroke="black" points="265.94,-138.94 259.5,-147.34 269.78,-144.79 265.94,-138.94"/>
</g>
<!-- node19&#45;&gt;node10 -->
<g id="edge34" class="edge">
<title>node19&#45;&gt;node10</title>
<path fill="none" stroke="black" d="M196.06,-105.17C175.49,-116.53 144.58,-132.49 120.07,-144.43"/>
<polygon fill="black" stroke="black" points="118.85,-141.13 111.36,-148.63 121.89,-147.44 118.85,-141.13"/>
</g>
<!-- node3&#45;&gt;node11 -->
<g id="edge28" class="edge">
<title>node3&#45;&gt;node11</title>
<path fill="none" stroke="black" d="M412.11,-102.97C407.46,-104.67 402.63,-106.39 398.04,-108 357.18,-122.33 310.09,-138.25 276.57,-148.86"/>
<polygon fill="black" stroke="black" points="275.7,-145.47 267.2,-151.8 277.79,-152.15 275.7,-145.47"/>
</g>
</g>
</svg>
