<?xml version="1.0" encoding="UTF-8" standalone="no"?>
<!DOCTYPE svg PUBLIC "-//W3C//DTD SVG 1.1//EN"
 "http://www.w3.org/Graphics/SVG/1.1/DTD/svg11.dtd">
<!-- Generated by graphviz version 12.2.1 (20241206.2353)
 -->
<!-- Pages: 1 -->
<svg width="2194pt" height="476pt"
 viewBox="0.00 0.00 2194.09 476.00" xmlns="http://www.w3.org/2000/svg" xmlns:xlink="http://www.w3.org/1999/xlink">
<g id="graph0" class="graph" transform="scale(1 1) rotate(0) translate(4 472)">
<polygon fill="white" stroke="none" points="-4,4 -4,-472 2190.09,-472 2190.09,4 -4,4"/>
<!-- node7 -->
<g id="node1" class="node">
<title>node7</title>
<ellipse fill="none" stroke="black" cx="152.04" cy="-450" rx="33.44" ry="18"/>
<text text-anchor="middle" x="152.04" y="-444.95" font-family="Times,serif" font-size="14.00">node7</text>
</g>
<!-- node25 -->
<g id="node2" class="node">
<title>node25</title>
<ellipse fill="none" stroke="black" cx="105.04" cy="-378" rx="38.04" ry="18"/>
<text text-anchor="middle" x="105.04" y="-372.95" font-family="Times,serif" font-size="14.00">node25</text>
</g>
<!-- node7&#45;&gt;node25 -->
<g id="edge1" class="edge">
<title>node7&#45;&gt;node25</title>
<path fill="none" stroke="black" d="M136.17,-433.81C129.7,-425.66 122.49,-415.37 116.53,-405.92"/>
<polygon fill="black" stroke="black" points="119.58,-404.19 111.43,-397.42 113.58,-407.8 119.58,-404.19"/>
</g>
<!-- node44 -->
<g id="node3" class="node">
<title>node44</title>
<ellipse fill="none" stroke="black" cx="199.04" cy="-378" rx="38.04" ry="18"/>
<text text-anchor="middle" x="199.04" y="-372.95" font-family="Times,serif" font-size="14.00">node44</text>
</g>
<!-- node7&#45;&gt;node44 -->
<g id="edge2" class="edge">
<title>node7&#45;&gt;node44</title>
<path fill="none" stroke="black" d="M157.54,-432.05C162.42,-423.44 169.36,-412.81 176.24,-403.33"/>
<polygon fill="black" stroke="black" points="178.88,-405.65 182.12,-395.56 173.3,-401.43 178.88,-405.65"/>
</g>
<!-- node45 -->
<g id="node4" class="node">
<title>node45</title>
<ellipse fill="none" stroke="black" cx="293.04" cy="-378" rx="38.04" ry="18"/>
<text text-anchor="middle" x="293.04" y="-372.95" font-family="Times,serif" font-size="14.00">node45</text>
</g>
<!-- node7&#45;&gt;node45 -->
<g id="edge3" class="edge">
<title>node7&#45;&gt;node45</title>
<path fill="none" stroke="black" d="M173.46,-435.67C195.02,-424.16 228.44,-407.51 254.55,-395.23"/>
<polygon fill="black" stroke="black" points="255.91,-398.46 263.51,-391.07 252.96,-392.11 255.91,-398.46"/>
</g>
<!-- node25&#45;&gt;node7 -->
<g id="edge61" class="edge">
<title>node25&#45;&gt;node7</title>
<path fill="none" stroke="black" d="M121.05,-394.36C127.53,-402.54 134.74,-412.84 140.68,-422.28"/>
<polygon fill="black" stroke="black" points="137.62,-423.98 145.77,-430.76 143.63,-420.38 137.62,-423.98"/>
</g>
<!-- node44&#45;&gt;node7 -->
<g id="edge54" class="edge">
<title>node44&#45;&gt;node7</title>
<path fill="none" stroke="black" d="M193.44,-396.13C188.54,-404.77 181.59,-415.4 174.7,-424.86"/>
<polygon fill="black" stroke="black" points="172.09,-422.52 168.84,-432.6 177.67,-426.75 172.09,-422.52"/>
</g>
<!-- node1 -->
<g id="node11" class="node">
<title>node1</title>
<ellipse fill="none" stroke="black" cx="85.04" cy="-306" rx="33.44" ry="18"/>
<text text-anchor="middle" x="85.04" y="-300.95" font-family="Times,serif" font-size="14.00">node1</text>
</g>
<!-- node44&#45;&gt;node1 -->
<g id="edge55" class="edge">
<title>node44&#45;&gt;node1</title>
<path fill="none" stroke="black" d="M173.35,-364.49C155.28,-354.33 131.31,-339.8 112.83,-327.89"/>
<polygon fill="black" stroke="black" points="114.74,-324.96 104.46,-322.41 110.91,-330.82 114.74,-324.96"/>
</g>
<!-- node41 -->
<g id="node27" class="node">
<title>node41</title>
<ellipse fill="none" stroke="black" cx="174.04" cy="-306" rx="38.04" ry="18"/>
<text text-anchor="middle" x="174.04" y="-300.95" font-family="Times,serif" font-size="14.00">node41</text>
</g>
<!-- node44&#45;&gt;node41 -->
<g id="edge53" class="edge">
<title>node44&#45;&gt;node41</title>
<path fill="none" stroke="black" d="M187.28,-360.41C183.81,-352.96 180.32,-343.96 177.57,-335.48"/>
<polygon fill="black" stroke="black" points="180.94,-334.52 174.77,-325.9 174.22,-336.48 180.94,-334.52"/>
</g>
<!-- node30 -->
<g id="node43" class="node">
<title>node30</title>
<ellipse fill="none" stroke="black" cx="268.04" cy="-306" rx="38.04" ry="18"/>
<text text-anchor="middle" x="268.04" y="-300.95" font-family="Times,serif" font-size="14.00">node30</text>
</g>
<!-- node44&#45;&gt;node30 -->
<g id="edge52" class="edge">
<title>node44&#45;&gt;node30</title>
<path fill="none" stroke="black" d="M209.56,-360.41C217.72,-351.1 229.14,-339.35 239.78,-329.24"/>
<polygon fill="black" stroke="black" points="242,-331.96 246.97,-322.6 237.25,-326.82 242,-331.96"/>
</g>
<!-- node45&#45;&gt;node7 -->
<g id="edge47" class="edge">
<title>node45&#45;&gt;node7</title>
<path fill="none" stroke="black" d="M270.49,-392.94C248.3,-404.74 214.32,-421.64 188.36,-433.79"/>
<polygon fill="black" stroke="black" points="187.12,-430.51 179.51,-437.88 190.06,-436.86 187.12,-430.51"/>
</g>
<!-- node8 -->
<g id="node5" class="node">
<title>node8</title>
<ellipse fill="none" stroke="black" cx="615.04" cy="-90" rx="33.44" ry="18"/>
<text text-anchor="middle" x="615.04" y="-84.95" font-family="Times,serif" font-size="14.00">node8</text>
</g>
<!-- node12 -->
<g id="node6" class="node">
<title>node12</title>
<ellipse fill="none" stroke="black" cx="1122.04" cy="-18" rx="38.04" ry="18"/>
<text text-anchor="middle" x="1122.04" y="-12.95" font-family="Times,serif" font-size="14.00">node12</text>
</g>
<!-- node8&#45;&gt;node12 -->
<g id="edge4" class="edge">
<title>node8&#45;&gt;node12</title>
<path fill="none" stroke="black" d="M636.05,-75.64C639.97,-74.22 644.07,-72.95 648.04,-72 828.5,-28.71 882.55,-74.71 1064.04,-36 1069.17,-34.91 1074.49,-33.43 1079.77,-31.81"/>
<polygon fill="black" stroke="black" points="1080.59,-35.22 1089.02,-28.8 1078.42,-28.56 1080.59,-35.22"/>
</g>
<!-- node3 -->
<g id="node7" class="node">
<title>node3</title>
<ellipse fill="none" stroke="black" cx="428.04" cy="-162" rx="33.44" ry="18"/>
<text text-anchor="middle" x="428.04" y="-156.95" font-family="Times,serif" font-size="14.00">node3</text>
</g>
<!-- node8&#45;&gt;node3 -->
<g id="edge5" class="edge">
<title>node8&#45;&gt;node3</title>
<path fill="none" stroke="black" d="M592.54,-103.53C588.72,-105.05 584.79,-106.57 581.04,-108 543.14,-122.47 499.37,-138.48 468.23,-149.08"/>
<polygon fill="black" stroke="black" points="467.17,-145.74 458.8,-152.24 469.4,-152.38 467.17,-145.74"/>
</g>
<!-- node9 -->
<g id="node8" class="node">
<title>node9</title>
<ellipse fill="none" stroke="black" cx="1212.04" cy="-18" rx="33.44" ry="18"/>
<text text-anchor="middle" x="1212.04" y="-12.95" font-family="Times,serif" font-size="14.00">node9</text>
</g>
<!-- node8&#45;&gt;node9 -->
<g id="edge6" class="edge">
<title>node8&#45;&gt;node9</title>
<path fill="none" stroke="black" d="M636.03,-75.58C639.96,-74.17 644.06,-72.92 648.04,-72 870.29,-20.57 937.59,-86.53 1160.04,-36 1164.33,-35.03 1168.74,-33.69 1173.12,-32.2"/>
<polygon fill="black" stroke="black" points="1174.25,-35.51 1182.44,-28.78 1171.84,-28.94 1174.25,-35.51"/>
</g>
<!-- node12&#45;&gt;node8 -->
<g id="edge74" class="edge">
<title>node12&#45;&gt;node8</title>
<path fill="none" stroke="black" d="M1096.99,-31.99C1092.09,-33.54 1086.98,-34.95 1082.04,-36 900.55,-74.71 846.5,-28.71 666.04,-72 661.86,-73 657.55,-74.35 653.27,-75.86"/>
<polygon fill="black" stroke="black" points="652.32,-72.48 644.18,-79.27 654.78,-79.03 652.32,-72.48"/>
</g>
<!-- node3&#45;&gt;node8 -->
<g id="edge88" class="edge">
<title>node3&#45;&gt;node8</title>
<path fill="none" stroke="black" d="M452.85,-149.53C480.1,-138.94 524.59,-122.68 563.04,-108 567.06,-106.47 571.28,-104.83 575.53,-103.2"/>
<polygon fill="black" stroke="black" points="576.5,-106.58 584.61,-99.76 574.02,-100.03 576.5,-106.58"/>
</g>
<!-- node48 -->
<g id="node12" class="node">
<title>node48</title>
<ellipse fill="none" stroke="black" cx="183.04" cy="-234" rx="38.04" ry="18"/>
<text text-anchor="middle" x="183.04" y="-228.95" font-family="Times,serif" font-size="14.00">node48</text>
</g>
<!-- node3&#45;&gt;node48 -->
<g id="edge83" class="edge">
<title>node3&#45;&gt;node48</title>
<path fill="none" stroke="black" d="M400.21,-172.31C357.94,-185.11 277.57,-208.11 227.27,-221.82"/>
<polygon fill="black" stroke="black" points="226.61,-218.38 217.87,-224.37 228.44,-225.13 226.61,-218.38"/>
</g>
<!-- node10 -->
<g id="node25" class="node">
<title>node10</title>
<ellipse fill="none" stroke="black" cx="704.04" cy="-90" rx="38.04" ry="18"/>
<text text-anchor="middle" x="704.04" y="-84.95" font-family="Times,serif" font-size="14.00">node10</text>
</g>
<!-- node3&#45;&gt;node10 -->
<g id="edge92" class="edge">
<title>node3&#45;&gt;node10</title>
<path fill="none" stroke="black" d="M458.19,-153.97C500.96,-144.88 580.93,-127.83 648.04,-108 652.28,-106.75 656.68,-105.33 661.1,-103.85"/>
<polygon fill="black" stroke="black" points="662.23,-107.16 670.56,-100.61 659.96,-100.53 662.23,-107.16"/>
</g>
<!-- node4 -->
<g id="node30" class="node">
<title>node4</title>
<ellipse fill="none" stroke="black" cx="793.04" cy="-90" rx="33.44" ry="18"/>
<text text-anchor="middle" x="793.04" y="-84.95" font-family="Times,serif" font-size="14.00">node4</text>
</g>
<!-- node3&#45;&gt;node4 -->
<g id="edge87" class="edge">
<title>node3&#45;&gt;node4</title>
<path fill="none" stroke="black" d="M460.77,-157.49C518.55,-151.27 641.37,-136.25 742.04,-108 745.99,-106.89 750.06,-105.53 754.13,-104.07"/>
<polygon fill="black" stroke="black" points="755.25,-107.39 763.37,-100.59 752.78,-100.84 755.25,-107.39"/>
</g>
<!-- node18 -->
<g id="node37" class="node">
<title>node18</title>
<ellipse fill="none" stroke="black" cx="882.04" cy="-90" rx="38.04" ry="18"/>
<text text-anchor="middle" x="882.04" y="-84.95" font-family="Times,serif" font-size="14.00">node18</text>
</g>
<!-- node3&#45;&gt;node18 -->
<g id="edge89" class="edge">
<title>node3&#45;&gt;node18</title>
<path fill="none" stroke="black" d="M461.24,-158.79C530.21,-153.99 692.92,-140.33 826.04,-108 830.5,-106.92 835.12,-105.56 839.73,-104.08"/>
<polygon fill="black" stroke="black" points="840.58,-107.49 848.93,-100.98 838.34,-100.85 840.58,-107.49"/>
</g>
<!-- node20 -->
<g id="node38" class="node">
<title>node20</title>
<ellipse fill="none" stroke="black" cx="976.04" cy="-90" rx="38.04" ry="18"/>
<text text-anchor="middle" x="976.04" y="-84.95" font-family="Times,serif" font-size="14.00">node20</text>
</g>
<!-- node3&#45;&gt;node20 -->
<g id="edge84" class="edge">
<title>node3&#45;&gt;node20</title>
<path fill="none" stroke="black" d="M461.5,-160.09C541.77,-157.41 750.43,-147.04 920.04,-108 924.56,-106.96 929.24,-105.61 933.9,-104.13"/>
<polygon fill="black" stroke="black" points="934.85,-107.51 943.22,-101 932.62,-100.87 934.85,-107.51"/>
</g>
<!-- node39 -->
<g id="node45" class="node">
<title>node39</title>
<ellipse fill="none" stroke="black" cx="1070.04" cy="-90" rx="38.04" ry="18"/>
<text text-anchor="middle" x="1070.04" y="-84.95" font-family="Times,serif" font-size="14.00">node39</text>
</g>
<!-- node3&#45;&gt;node39 -->
<g id="edge86" class="edge">
<title>node3&#45;&gt;node39</title>
<path fill="none" stroke="black" d="M461.71,-160.99C552.3,-160.24 807.49,-153.75 1014.04,-108 1018.57,-107 1023.26,-105.67 1027.92,-104.2"/>
<polygon fill="black" stroke="black" points="1028.86,-107.58 1037.23,-101.08 1026.64,-100.94 1028.86,-107.58"/>
</g>
<!-- node29 -->
<g id="node46" class="node">
<title>node29</title>
<ellipse fill="none" stroke="black" cx="1164.04" cy="-90" rx="38.04" ry="18"/>
<text text-anchor="middle" x="1164.04" y="-84.95" font-family="Times,serif" font-size="14.00">node29</text>
</g>
<!-- node3&#45;&gt;node29 -->
<g id="edge90" class="edge">
<title>node3&#45;&gt;node29</title>
<path fill="none" stroke="black" d="M461.62,-159.46C580.75,-154.12 981.81,-135.16 1108.04,-108 1112.58,-107.02 1117.27,-105.72 1121.93,-104.26"/>
<polygon fill="black" stroke="black" points="1122.87,-107.63 1131.24,-101.14 1120.65,-100.99 1122.87,-107.63"/>
</g>
<!-- node26 -->
<g id="node49" class="node">
<title>node26</title>
<ellipse fill="none" stroke="black" cx="1258.04" cy="-90" rx="38.04" ry="18"/>
<text text-anchor="middle" x="1258.04" y="-84.95" font-family="Times,serif" font-size="14.00">node26</text>
</g>
<!-- node3&#45;&gt;node26 -->
<g id="edge85" class="edge">
<title>node3&#45;&gt;node26</title>
<path fill="none" stroke="black" d="M461.63,-159.86C591.1,-155.51 1056.71,-138.57 1202.04,-108 1206.58,-107.05 1211.27,-105.75 1215.94,-104.29"/>
<polygon fill="black" stroke="black" points="1216.88,-107.67 1225.25,-101.18 1214.66,-101.03 1216.88,-107.67"/>
</g>
<!-- node2 -->
<g id="node50" class="node">
<title>node2</title>
<ellipse fill="none" stroke="black" cx="1347.04" cy="-90" rx="33.44" ry="18"/>
<text text-anchor="middle" x="1347.04" y="-84.95" font-family="Times,serif" font-size="14.00">node2</text>
</g>
<!-- node3&#45;&gt;node2 -->
<g id="edge91" class="edge">
<title>node3&#45;&gt;node2</title>
<path fill="none" stroke="black" d="M461.57,-159.49C611.22,-152.97 1213.24,-126.73 1296.04,-108 1300.24,-107.05 1304.56,-105.73 1308.85,-104.24"/>
<polygon fill="black" stroke="black" points="1309.79,-107.63 1317.93,-100.84 1307.34,-101.07 1309.79,-107.63"/>
</g>
<!-- node9&#45;&gt;node8 -->
<g id="edge56" class="edge">
<title>node9&#45;&gt;node8</title>
<path fill="none" stroke="black" d="M1190.79,-32.26C1186.63,-33.73 1182.27,-35.04 1178.04,-36 955.59,-86.53 888.29,-20.57 666.04,-72 661.85,-72.97 657.54,-74.3 653.25,-75.8"/>
<polygon fill="black" stroke="black" points="652.3,-72.41 644.17,-79.2 654.76,-78.97 652.3,-72.41"/>
</g>
<!-- node36 -->
<g id="node9" class="node">
<title>node36</title>
<ellipse fill="none" stroke="black" cx="222.04" cy="-18" rx="38.04" ry="18"/>
<text text-anchor="middle" x="222.04" y="-12.95" font-family="Times,serif" font-size="14.00">node36</text>
</g>
<!-- node50 -->
<g id="node10" class="node">
<title>node50</title>
<ellipse fill="none" stroke="black" cx="38.04" cy="-234" rx="38.04" ry="18"/>
<text text-anchor="middle" x="38.04" y="-228.95" font-family="Times,serif" font-size="14.00">node50</text>
</g>
<!-- node36&#45;&gt;node50 -->
<g id="edge7" class="edge">
<title>node36&#45;&gt;node50</title>
<path fill="none" stroke="black" d="M188.31,-26.83C159.77,-34.27 119.41,-47.99 91.04,-72 62.76,-95.93 59.11,-108.35 49.04,-144 43.48,-163.7 43.14,-186.83 42.86,-204.58"/>
<polygon fill="black" stroke="black" points="39.36,-204.31 42.64,-214.38 46.36,-204.46 39.36,-204.31"/>
</g>
<!-- node50&#45;&gt;node36 -->
<g id="edge51" class="edge">
<title>node50&#45;&gt;node36</title>
<path fill="none" stroke="black" d="M29.33,-216.23C25.27,-198.06 24.15,-168.39 31.04,-144 41.11,-108.35 44.76,-95.93 73.04,-72 101.88,-47.6 143.11,-33.82 175.01,-26.47"/>
<polygon fill="black" stroke="black" points="175.34,-29.97 184.38,-24.45 173.87,-23.13 175.34,-29.97"/>
</g>
<!-- node50&#45;&gt;node1 -->
<g id="edge48" class="edge">
<title>node50&#45;&gt;node1</title>
<path fill="none" stroke="black" d="M54.05,-250.36C60.53,-258.54 67.74,-268.84 73.68,-278.28"/>
<polygon fill="black" stroke="black" points="70.62,-279.98 78.77,-286.76 76.63,-276.38 70.62,-279.98"/>
</g>
<!-- node16 -->
<g id="node18" class="node">
<title>node16</title>
<ellipse fill="none" stroke="black" cx="87.04" cy="-162" rx="38.04" ry="18"/>
<text text-anchor="middle" x="87.04" y="-156.95" font-family="Times,serif" font-size="14.00">node16</text>
</g>
<!-- node50&#45;&gt;node16 -->
<g id="edge49" class="edge">
<title>node50&#45;&gt;node16</title>
<path fill="none" stroke="black" d="M44.03,-216.05C49.15,-207.44 56.39,-196.81 63.55,-187.33"/>
<polygon fill="black" stroke="black" points="66.24,-189.57 69.66,-179.55 60.73,-185.25 66.24,-189.57"/>
</g>
<!-- node17 -->
<g id="node32" class="node">
<title>node17</title>
<ellipse fill="none" stroke="black" cx="196.04" cy="-162" rx="38.04" ry="18"/>
<text text-anchor="middle" x="196.04" y="-156.95" font-family="Times,serif" font-size="14.00">node17</text>
</g>
<!-- node50&#45;&gt;node17 -->
<g id="edge50" class="edge">
<title>node50&#45;&gt;node17</title>
<path fill="none" stroke="black" d="M62.35,-219.83C87.41,-207.98 126.62,-190.57 156.19,-178.15"/>
<polygon fill="black" stroke="black" points="157.31,-181.47 165.2,-174.39 154.62,-175 157.31,-181.47"/>
</g>
<!-- node1&#45;&gt;node44 -->
<g id="edge11" class="edge">
<title>node1&#45;&gt;node44</title>
<path fill="none" stroke="black" d="M109.38,-318.75C127.4,-328.83 151.8,-343.59 170.67,-355.73"/>
<polygon fill="black" stroke="black" points="168.69,-358.62 178.98,-361.16 172.52,-352.76 168.69,-358.62"/>
</g>
<!-- node1&#45;&gt;node50 -->
<g id="edge10" class="edge">
<title>node1&#45;&gt;node50</title>
<path fill="none" stroke="black" d="M69.17,-289.81C62.7,-281.66 55.49,-271.37 49.53,-261.92"/>
<polygon fill="black" stroke="black" points="52.58,-260.19 44.43,-253.42 46.58,-263.8 52.58,-260.19"/>
</g>
<!-- node1&#45;&gt;node48 -->
<g id="edge8" class="edge">
<title>node1&#45;&gt;node48</title>
<path fill="none" stroke="black" d="M100.63,-289.81C113.86,-279.46 133.04,-265.66 149.63,-254.49"/>
<polygon fill="black" stroke="black" points="151.36,-257.54 157.77,-249.11 147.5,-251.7 151.36,-257.54"/>
</g>
<!-- node49 -->
<g id="node13" class="node">
<title>node49</title>
<ellipse fill="none" stroke="black" cx="303.04" cy="-234" rx="38.04" ry="18"/>
<text text-anchor="middle" x="303.04" y="-228.95" font-family="Times,serif" font-size="14.00">node49</text>
</g>
<!-- node1&#45;&gt;node49 -->
<g id="edge9" class="edge">
<title>node1&#45;&gt;node49</title>
<path fill="none" stroke="black" d="M107.17,-292.05C110.78,-290.64 114.48,-289.25 118.04,-288 165.16,-271.41 220.47,-255.29 258.39,-245.27"/>
<polygon fill="black" stroke="black" points="258.82,-248.77 267.62,-242.87 257.06,-242 258.82,-248.77"/>
</g>
<!-- node47 -->
<g id="node14" class="node">
<title>node47</title>
<ellipse fill="none" stroke="black" cx="447.04" cy="-234" rx="38.04" ry="18"/>
<text text-anchor="middle" x="447.04" y="-228.95" font-family="Times,serif" font-size="14.00">node47</text>
</g>
<!-- node1&#45;&gt;node47 -->
<g id="edge12" class="edge">
<title>node1&#45;&gt;node47</title>
<path fill="none" stroke="black" d="M106.57,-291.75C110.35,-290.35 114.26,-289.06 118.04,-288 214.74,-261 242.04,-268.67 341.04,-252 360.17,-248.78 381.4,-245.08 399.89,-241.95"/>
<polygon fill="black" stroke="black" points="400.23,-245.44 409.51,-240.33 399.07,-238.54 400.23,-245.44"/>
</g>
<!-- node48&#45;&gt;node3 -->
<g id="edge70" class="edge">
<title>node48&#45;&gt;node3</title>
<path fill="none" stroke="black" d="M213.74,-222.82C257.73,-209.56 338.43,-186.5 387.34,-173.22"/>
<polygon fill="black" stroke="black" points="387.96,-176.68 396.7,-170.7 386.13,-169.92 387.96,-176.68"/>
</g>
<!-- node48&#45;&gt;node1 -->
<g id="edge69" class="edge">
<title>node48&#45;&gt;node1</title>
<path fill="none" stroke="black" d="M166.94,-250.59C153.41,-261.14 133.93,-275.14 117.29,-286.29"/>
<polygon fill="black" stroke="black" points="115.57,-283.23 109.14,-291.65 119.42,-289.08 115.57,-283.23"/>
</g>
<!-- node49&#45;&gt;node1 -->
<g id="edge26" class="edge">
<title>node49&#45;&gt;node1</title>
<path fill="none" stroke="black" d="M272.56,-245.18C238.79,-255.2 183.3,-271.36 136.04,-288 132.26,-289.33 128.32,-290.81 124.36,-292.32"/>
<polygon fill="black" stroke="black" points="123.43,-288.93 115.35,-295.78 125.94,-295.46 123.43,-288.93"/>
</g>
<!-- node14 -->
<g id="node28" class="node">
<title>node14</title>
<ellipse fill="none" stroke="black" cx="1301.04" cy="-18" rx="38.04" ry="18"/>
<text text-anchor="middle" x="1301.04" y="-12.95" font-family="Times,serif" font-size="14.00">node14</text>
</g>
<!-- node49&#45;&gt;node14 -->
<g id="edge27" class="edge">
<title>node49&#45;&gt;node14</title>
<path fill="none" stroke="black" d="M336.62,-225.04C353.02,-221.97 372.93,-218.57 391.04,-216 404.72,-214.06 1370.82,-118.29 1380.04,-108 1390.73,-96.09 1387.92,-85.93 1380.04,-72 1370.83,-55.7 1354.37,-43.85 1338.78,-35.55"/>
<polygon fill="black" stroke="black" points="1340.62,-32.55 1330.1,-31.26 1337.52,-38.83 1340.62,-32.55"/>
</g>
<!-- node27 -->
<g id="node29" class="node">
<title>node27</title>
<ellipse fill="none" stroke="black" cx="1159.04" cy="-162" rx="38.04" ry="18"/>
<text text-anchor="middle" x="1159.04" y="-156.95" font-family="Times,serif" font-size="14.00">node27</text>
</g>
<!-- node49&#45;&gt;node27 -->
<g id="edge28" class="edge">
<title>node49&#45;&gt;node27</title>
<path fill="none" stroke="black" d="M336.12,-224.77C352.59,-221.62 372.72,-218.24 391.04,-216 399.96,-214.91 941.74,-177.41 1109.9,-166.16"/>
<polygon fill="black" stroke="black" points="1110.09,-169.65 1119.84,-165.49 1109.63,-162.67 1110.09,-169.65"/>
</g>
<!-- node47&#45;&gt;node1 -->
<g id="edge45" class="edge">
<title>node47&#45;&gt;node1</title>
<path fill="none" stroke="black" d="M412.93,-242.57C396.62,-245.56 376.92,-248.99 359.04,-252 260.04,-268.67 232.74,-261 136.04,-288 132.1,-289.1 128.02,-290.46 123.95,-291.92"/>
<polygon fill="black" stroke="black" points="122.84,-288.6 114.72,-295.4 125.31,-295.15 122.84,-288.6"/>
</g>
<!-- node13 -->
<g id="node16" class="node">
<title>node13</title>
<ellipse fill="none" stroke="black" cx="1351.04" cy="-162" rx="38.04" ry="18"/>
<text text-anchor="middle" x="1351.04" y="-156.95" font-family="Times,serif" font-size="14.00">node13</text>
</g>
<!-- node47&#45;&gt;node13 -->
<g id="edge46" class="edge">
<title>node47&#45;&gt;node13</title>
<path fill="none" stroke="black" d="M484.86,-230.76C594.99,-224.49 924.14,-205.51 1197.04,-180 1232.4,-176.69 1272.49,-171.92 1303.01,-168.27"/>
<polygon fill="black" stroke="black" points="1303.19,-171.77 1312.71,-167.11 1302.36,-164.82 1303.19,-171.77"/>
</g>
<!-- node32 -->
<g id="node24" class="node">
<title>node32</title>
<ellipse fill="none" stroke="black" cx="1681.04" cy="-162" rx="38.04" ry="18"/>
<text text-anchor="middle" x="1681.04" y="-156.95" font-family="Times,serif" font-size="14.00">node32</text>
</g>
<!-- node47&#45;&gt;node32 -->
<g id="edge44" class="edge">
<title>node47&#45;&gt;node32</title>
<path fill="none" stroke="black" d="M484.95,-230.74C612.56,-223.53 1037.42,-200.36 1389.04,-180 1474.09,-175.08 1573.5,-169.04 1631.75,-165.65"/>
<polygon fill="black" stroke="black" points="1631.9,-169.14 1641.68,-165.07 1631.49,-162.15 1631.9,-169.14"/>
</g>
<!-- node23 -->
<g id="node15" class="node">
<title>node23</title>
<ellipse fill="none" stroke="black" cx="1492.04" cy="-90" rx="38.04" ry="18"/>
<text text-anchor="middle" x="1492.04" y="-84.95" font-family="Times,serif" font-size="14.00">node23</text>
</g>
<!-- node23&#45;&gt;node13 -->
<g id="edge13" class="edge">
<title>node23&#45;&gt;node13</title>
<path fill="none" stroke="black" d="M1469.74,-104.8C1448.11,-116.32 1415.13,-132.74 1389.35,-144.86"/>
<polygon fill="black" stroke="black" points="1388.12,-141.57 1380.53,-148.96 1391.07,-147.92 1388.12,-141.57"/>
</g>
<!-- node13&#45;&gt;node47 -->
<g id="edge75" class="edge">
<title>node13&#45;&gt;node47</title>
<path fill="none" stroke="black" d="M1315.3,-168.63C1287.86,-172.23 1249.24,-176.8 1215.04,-180 944.3,-205.31 618.19,-224.19 496.15,-230.61"/>
<polygon fill="black" stroke="black" points="496.3,-227.1 486.5,-231.11 496.67,-234.09 496.3,-227.1"/>
</g>
<!-- node13&#45;&gt;node23 -->
<g id="edge78" class="edge">
<title>node13&#45;&gt;node23</title>
<path fill="none" stroke="black" d="M1373.4,-147.17C1394.98,-135.68 1427.83,-119.33 1453.57,-107.22"/>
<polygon fill="black" stroke="black" points="1454.79,-110.51 1462.38,-103.12 1451.84,-104.17 1454.79,-110.51"/>
</g>
<!-- node46 -->
<g id="node17" class="node">
<title>node46</title>
<ellipse fill="none" stroke="black" cx="1395.04" cy="-18" rx="38.04" ry="18"/>
<text text-anchor="middle" x="1395.04" y="-12.95" font-family="Times,serif" font-size="14.00">node46</text>
</g>
<!-- node13&#45;&gt;node46 -->
<g id="edge82" class="edge">
<title>node13&#45;&gt;node46</title>
<path fill="none" stroke="black" d="M1386.53,-155.14C1433.63,-147.18 1512.44,-131.25 1530.04,-108 1539.7,-95.24 1539.2,-85.12 1530.04,-72 1529.66,-71.45 1472.33,-50.45 1432.4,-35.06"/>
<polygon fill="black" stroke="black" points="1433.91,-31.89 1423.32,-31.53 1431.37,-38.42 1433.91,-31.89"/>
</g>
<!-- node19 -->
<g id="node26" class="node">
<title>node19</title>
<ellipse fill="none" stroke="black" cx="1489.04" cy="-18" rx="38.04" ry="18"/>
<text text-anchor="middle" x="1489.04" y="-12.95" font-family="Times,serif" font-size="14.00">node19</text>
</g>
<!-- node13&#45;&gt;node19 -->
<g id="edge76" class="edge">
<title>node13&#45;&gt;node19</title>
<path fill="none" stroke="black" d="M1387.81,-156.62C1441.32,-149.87 1536.06,-134.78 1557.04,-108 1566.91,-95.4 1564.49,-86.16 1557.04,-72 1549.46,-57.58 1535.98,-46.31 1522.94,-37.95"/>
<polygon fill="black" stroke="black" points="1524.84,-35.01 1514.46,-32.89 1521.26,-41.02 1524.84,-35.01"/>
</g>
<!-- node22 -->
<g id="node41" class="node">
<title>node22</title>
<ellipse fill="none" stroke="black" cx="1698.04" cy="-90" rx="38.04" ry="18"/>
<text text-anchor="middle" x="1698.04" y="-84.95" font-family="Times,serif" font-size="14.00">node22</text>
</g>
<!-- node13&#45;&gt;node22 -->
<g id="edge77" class="edge">
<title>node13&#45;&gt;node22</title>
<path fill="none" stroke="black" d="M1386.91,-155.33C1441.5,-147.13 1547.99,-130.44 1637.04,-108 1642.8,-106.55 1648.85,-104.79 1654.83,-102.97"/>
<polygon fill="black" stroke="black" points="1655.5,-106.43 1664,-100.11 1653.41,-99.74 1655.5,-106.43"/>
</g>
<!-- node34 -->
<g id="node42" class="node">
<title>node34</title>
<ellipse fill="none" stroke="black" cx="1677.04" cy="-18" rx="38.04" ry="18"/>
<text text-anchor="middle" x="1677.04" y="-12.95" font-family="Times,serif" font-size="14.00">node34</text>
</g>
<!-- node13&#45;&gt;node34 -->
<g id="edge79" class="edge">
<title>node13&#45;&gt;node34</title>
<path fill="none" stroke="black" d="M1388.6,-158.42C1481.05,-152.07 1713.1,-134.24 1736.04,-108 1746.58,-95.96 1743.07,-86.38 1736.04,-72 1729.68,-58.97 1718.4,-48.21 1707.31,-39.87"/>
<polygon fill="black" stroke="black" points="1709.59,-37.2 1699.4,-34.31 1705.57,-42.93 1709.59,-37.2"/>
</g>
<!-- node37 -->
<g id="node47" class="node">
<title>node37</title>
<ellipse fill="none" stroke="black" cx="1771.04" cy="-18" rx="38.04" ry="18"/>
<text text-anchor="middle" x="1771.04" y="-12.95" font-family="Times,serif" font-size="14.00">node37</text>
</g>
<!-- node13&#45;&gt;node37 -->
<g id="edge80" class="edge">
<title>node13&#45;&gt;node37</title>
<path fill="none" stroke="black" d="M1388.83,-158.79C1485.89,-153.04 1737.29,-136.08 1762.04,-108 1776.26,-91.88 1775.03,-66.99 1772.38,-47.63"/>
<polygon fill="black" stroke="black" points="1775.86,-47.27 1770.9,-37.91 1768.94,-48.33 1775.86,-47.27"/>
</g>
<!-- node40 -->
<g id="node48" class="node">
<title>node40</title>
<ellipse fill="none" stroke="black" cx="1865.04" cy="-18" rx="38.04" ry="18"/>
<text text-anchor="middle" x="1865.04" y="-12.95" font-family="Times,serif" font-size="14.00">node40</text>
</g>
<!-- node13&#45;&gt;node40 -->
<g id="edge81" class="edge">
<title>node13&#45;&gt;node40</title>
<path fill="none" stroke="black" d="M1388.52,-157.97C1488.63,-150.12 1756.27,-128.32 1791.04,-108 1815.64,-93.63 1833.61,-65.88 1846.11,-45.17"/>
<polygon fill="black" stroke="black" points="1849.06,-47.05 1851.21,-36.67 1843.06,-43.45 1849.06,-47.05"/>
</g>
<!-- node46&#45;&gt;node13 -->
<g id="edge14" class="edge">
<title>node46&#45;&gt;node13</title>
<path fill="none" stroke="black" d="M1426.54,-28.46C1471.38,-43.53 1547.6,-71.36 1548.04,-72 1557.2,-85.12 1557.7,-95.24 1548.04,-108 1530.41,-131.3 1451.3,-147.25 1398.75,-155.19"/>
<polygon fill="black" stroke="black" points="1398.53,-151.68 1389.14,-156.58 1399.54,-158.61 1398.53,-151.68"/>
</g>
<!-- node16&#45;&gt;node50 -->
<g id="edge15" class="edge">
<title>node16&#45;&gt;node50</title>
<path fill="none" stroke="black" d="M81.05,-179.96C75.96,-188.53 68.77,-199.09 61.65,-208.52"/>
<polygon fill="black" stroke="black" points="58.99,-206.24 55.57,-216.27 64.5,-210.56 58.99,-206.24"/>
</g>
<!-- node15 -->
<g id="node19" class="node">
<title>node15</title>
<ellipse fill="none" stroke="black" cx="443.04" cy="-18" rx="38.04" ry="18"/>
<text text-anchor="middle" x="443.04" y="-12.95" font-family="Times,serif" font-size="14.00">node15</text>
</g>
<!-- node16&#45;&gt;node15 -->
<g id="edge16" class="edge">
<title>node16&#45;&gt;node15</title>
<path fill="none" stroke="black" d="M78.28,-144.31C73.69,-124.21 73.98,-90.83 93.04,-72 113.93,-51.38 302.56,-31.28 393.99,-22.98"/>
<polygon fill="black" stroke="black" points="394.27,-26.47 403.92,-22.09 393.65,-19.5 394.27,-26.47"/>
</g>
<!-- node33 -->
<g id="node20" class="node">
<title>node33</title>
<ellipse fill="none" stroke="black" cx="600.04" cy="-18" rx="38.04" ry="18"/>
<text text-anchor="middle" x="600.04" y="-12.95" font-family="Times,serif" font-size="14.00">node33</text>
</g>
<!-- node16&#45;&gt;node33 -->
<g id="edge17" class="edge">
<title>node16&#45;&gt;node33</title>
<path fill="none" stroke="black" d="M90.7,-143.82C101.07,-122.9 126.26,-88.34 158.04,-72 286.51,-5.97 337.86,-55.03 481.04,-36 504.43,-32.89 530.52,-28.88 552.4,-25.54"/>
<polygon fill="black" stroke="black" points="552.89,-29 562.25,-24.04 551.83,-22.08 552.89,-29"/>
</g>
<!-- node35 -->
<g id="node21" class="node">
<title>node35</title>
<ellipse fill="none" stroke="black" cx="726.04" cy="-18" rx="38.04" ry="18"/>
<text text-anchor="middle" x="726.04" y="-12.95" font-family="Times,serif" font-size="14.00">node35</text>
</g>
<!-- node16&#45;&gt;node35 -->
<g id="edge18" class="edge">
<title>node16&#45;&gt;node35</title>
<path fill="none" stroke="black" d="M104.21,-145.49C135.54,-122.32 199.95,-80.48 226.04,-72 400.85,-15.18 456.29,-63.39 638.04,-36 651.7,-33.94 666.53,-30.95 680.13,-28.05"/>
<polygon fill="black" stroke="black" points="680.7,-31.51 689.73,-25.98 679.22,-24.67 680.7,-31.51"/>
</g>
<!-- node15&#45;&gt;node16 -->
<g id="edge62" class="edge">
<title>node15&#45;&gt;node16</title>
<path fill="none" stroke="black" d="M405.93,-22.78C323.62,-30.96 132.1,-51.22 111.04,-72 95.44,-87.41 92.41,-112.57 91.41,-132.21"/>
<polygon fill="black" stroke="black" points="87.91,-131.95 91.01,-142.08 94.91,-132.23 87.91,-131.95"/>
</g>
<!-- node33&#45;&gt;node16 -->
<g id="edge25" class="edge">
<title>node33&#45;&gt;node16</title>
<path fill="none" stroke="black" d="M565.43,-26.04C545.93,-29.28 521.26,-33.05 499.04,-36 355.86,-55.03 304.51,-5.97 176.04,-72 147.84,-86.5 124.83,-115.34 108.94,-136.27"/>
<polygon fill="black" stroke="black" points="106.3,-133.96 103.06,-144.05 111.88,-138.18 106.3,-133.96"/>
</g>
<!-- node35&#45;&gt;node16 -->
<g id="edge41" class="edge">
<title>node35&#45;&gt;node16</title>
<path fill="none" stroke="black" d="M694.62,-28.62C682.6,-31.34 668.81,-34.08 656.04,-36 474.29,-63.39 418.85,-15.18 244.04,-72 219.24,-80.06 159.81,-118.26 121.44,-141.92"/>
<polygon fill="black" stroke="black" points="119.69,-138.89 112.99,-147.09 123.34,-144.86 119.69,-138.89"/>
</g>
<!-- node31 -->
<g id="node22" class="node">
<title>node31</title>
<ellipse fill="none" stroke="black" cx="1960.04" cy="-90" rx="38.04" ry="18"/>
<text text-anchor="middle" x="1960.04" y="-84.95" font-family="Times,serif" font-size="14.00">node31</text>
</g>
<!-- node24 -->
<g id="node23" class="node">
<title>node24</title>
<ellipse fill="none" stroke="black" cx="1959.04" cy="-18" rx="38.04" ry="18"/>
<text text-anchor="middle" x="1959.04" y="-12.95" font-family="Times,serif" font-size="14.00">node24</text>
</g>
<!-- node31&#45;&gt;node24 -->
<g id="edge19" class="edge">
<title>node31&#45;&gt;node24</title>
<path fill="none" stroke="black" d="M1953.92,-72.05C1953.04,-64.68 1952.65,-55.84 1952.81,-47.51"/>
<polygon fill="black" stroke="black" points="1956.29,-47.95 1953.3,-37.79 1949.3,-47.6 1956.29,-47.95"/>
</g>
<!-- node31&#45;&gt;node32 -->
<g id="edge20" class="edge">
<title>node31&#45;&gt;node32</title>
<path fill="none" stroke="black" d="M1933.26,-103.12C1927.92,-104.83 1922.35,-106.52 1917.04,-108 1852.23,-126.12 1775.84,-143.06 1727.79,-152.71"/>
<polygon fill="black" stroke="black" points="1727.12,-149.28 1717.99,-154.65 1728.48,-156.14 1727.12,-149.28"/>
</g>
<!-- node24&#45;&gt;node31 -->
<g id="edge63" class="edge">
<title>node24&#45;&gt;node31</title>
<path fill="none" stroke="black" d="M1965.15,-35.79C1966.05,-43.25 1966.44,-52.24 1966.28,-60.69"/>
<polygon fill="black" stroke="black" points="1962.79,-60.37 1965.76,-70.54 1969.78,-60.74 1962.79,-60.37"/>
</g>
<!-- node32&#45;&gt;node47 -->
<g id="edge65" class="edge">
<title>node32&#45;&gt;node47</title>
<path fill="none" stroke="black" d="M1643.66,-165.68C1590.83,-169.08 1491.81,-175.09 1407.04,-180 1058.61,-200.17 638.27,-223.11 496.41,-230.54"/>
<polygon fill="black" stroke="black" points="496.43,-227.03 486.62,-231.05 496.79,-234.02 496.43,-227.03"/>
</g>
<!-- node32&#45;&gt;node31 -->
<g id="edge66" class="edge">
<title>node32&#45;&gt;node31</title>
<path fill="none" stroke="black" d="M1714.17,-152.84C1757.19,-143.21 1833.96,-126.2 1899.04,-108 1904.56,-106.46 1910.37,-104.7 1916.14,-102.91"/>
<polygon fill="black" stroke="black" points="1917.15,-106.26 1925.65,-99.93 1915.06,-99.58 1917.15,-106.26"/>
</g>
<!-- node38 -->
<g id="node39" class="node">
<title>node38</title>
<ellipse fill="none" stroke="black" cx="2054.04" cy="-90" rx="38.04" ry="18"/>
<text text-anchor="middle" x="2054.04" y="-84.95" font-family="Times,serif" font-size="14.00">node38</text>
</g>
<!-- node32&#45;&gt;node38 -->
<g id="edge67" class="edge">
<title>node32&#45;&gt;node38</title>
<path fill="none" stroke="black" d="M1717.9,-156.62C1777.56,-149.61 1898.15,-133.95 1998.04,-108 2002.49,-106.85 2007.1,-105.44 2011.7,-103.95"/>
<polygon fill="black" stroke="black" points="2012.55,-107.35 2020.9,-100.83 2010.3,-100.72 2012.55,-107.35"/>
</g>
<!-- node42 -->
<g id="node44" class="node">
<title>node42</title>
<ellipse fill="none" stroke="black" cx="2148.04" cy="-90" rx="38.04" ry="18"/>
<text text-anchor="middle" x="2148.04" y="-84.95" font-family="Times,serif" font-size="14.00">node42</text>
</g>
<!-- node32&#45;&gt;node42 -->
<g id="edge64" class="edge">
<title>node32&#45;&gt;node42</title>
<path fill="none" stroke="black" d="M1718.87,-158.71C1792,-153.94 1956.82,-140.56 2092.04,-108 2096.5,-106.93 2101.13,-105.57 2105.74,-104.1"/>
<polygon fill="black" stroke="black" points="2106.58,-107.5 2114.94,-101 2104.34,-100.87 2106.58,-107.5"/>
</g>
<!-- node10&#45;&gt;node3 -->
<g id="edge21" class="edge">
<title>node10&#45;&gt;node3</title>
<path fill="none" stroke="black" d="M678.74,-103.92C674.53,-105.37 670.21,-106.77 666.04,-108 599.16,-127.76 519.51,-144.76 471.28,-153.88"/>
<polygon fill="black" stroke="black" points="470.69,-150.42 461.5,-155.69 471.97,-157.31 470.69,-150.42"/>
</g>
<!-- node19&#45;&gt;node13 -->
<g id="edge22" class="edge">
<title>node19&#45;&gt;node13</title>
<path fill="none" stroke="black" d="M1520.7,-28.33C1540.53,-36.74 1564.02,-51.03 1575.04,-72 1582.49,-86.16 1584.91,-95.4 1575.04,-108 1554.04,-134.81 1459.11,-149.9 1399.67,-156.65"/>
<polygon fill="black" stroke="black" points="1399.36,-153.16 1389.8,-157.72 1400.12,-160.12 1399.36,-153.16"/>
</g>
<!-- node41&#45;&gt;node44 -->
<g id="edge23" class="edge">
<title>node41&#45;&gt;node44</title>
<path fill="none" stroke="black" d="M185.6,-323.14C189.18,-330.75 192.78,-340.05 195.6,-348.76"/>
<polygon fill="black" stroke="black" points="192.2,-349.62 198.36,-358.24 198.92,-347.66 192.2,-349.62"/>
</g>
<!-- node14&#45;&gt;node49 -->
<g id="edge24" class="edge">
<title>node14&#45;&gt;node49</title>
<path fill="none" stroke="black" d="M1334.69,-26.91C1357.3,-34.71 1384.97,-48.86 1398.04,-72 1405.92,-85.93 1408.73,-96.09 1398.04,-108 1388.82,-118.29 422.72,-214.06 409.04,-216 389.84,-218.73 368.61,-222.38 350.13,-225.6"/>
<polygon fill="black" stroke="black" points="349.77,-222.11 340.52,-227.27 350.97,-229 349.77,-222.11"/>
</g>
<!-- node27&#45;&gt;node49 -->
<g id="edge97" class="edge">
<title>node27&#45;&gt;node49</title>
<path fill="none" stroke="black" d="M1121.55,-165.82C970.86,-176.64 418.05,-214.9 409.04,-216 389.65,-218.37 368.24,-222.01 349.68,-225.32"/>
<polygon fill="black" stroke="black" points="349.25,-221.84 340.02,-227.05 350.49,-228.73 349.25,-221.84"/>
</g>
<!-- node4&#45;&gt;node3 -->
<g id="edge29" class="edge">
<title>node4&#45;&gt;node3</title>
<path fill="none" stroke="black" d="M771.51,-104.24C767.74,-105.64 763.83,-106.94 760.04,-108 659.61,-136.19 537.12,-151.2 472.54,-157.44"/>
<polygon fill="black" stroke="black" points="472.31,-153.95 462.68,-158.37 472.96,-160.92 472.31,-153.95"/>
</g>
<!-- node5 -->
<g id="node31" class="node">
<title>node5</title>
<ellipse fill="none" stroke="black" cx="831.04" cy="-18" rx="33.44" ry="18"/>
<text text-anchor="middle" x="831.04" y="-12.95" font-family="Times,serif" font-size="14.00">node5</text>
</g>
<!-- node5&#45;&gt;node17 -->
<g id="edge30" class="edge">
<title>node5&#45;&gt;node17</title>
<path fill="none" stroke="black" d="M805.75,-30.28C798.19,-32.5 789.89,-34.58 782.04,-36 675.05,-55.4 392.91,-26.72 294.04,-72 263.41,-86.03 237.4,-115.44 219.58,-136.62"/>
<polygon fill="black" stroke="black" points="216.93,-134.33 213.19,-144.25 222.3,-138.83 216.93,-134.33"/>
</g>
<!-- node17&#45;&gt;node50 -->
<g id="edge33" class="edge">
<title>node17&#45;&gt;node50</title>
<path fill="none" stroke="black" d="M171.7,-176.19C146.62,-188.05 107.38,-205.47 77.83,-217.89"/>
<polygon fill="black" stroke="black" points="76.71,-214.56 68.82,-221.63 79.4,-221.02 76.71,-214.56"/>
</g>
<!-- node17&#45;&gt;node5 -->
<g id="edge35" class="edge">
<title>node17&#45;&gt;node5</title>
<path fill="none" stroke="black" d="M200.98,-143.96C213.11,-122.85 241.67,-87.74 276.04,-72 374.91,-26.72 657.05,-55.4 764.04,-36 772.52,-34.46 781.51,-32.17 790.13,-29.75"/>
<polygon fill="black" stroke="black" points="791.06,-33.13 799.7,-26.99 789.12,-26.4 791.06,-33.13"/>
</g>
<!-- node28 -->
<g id="node33" class="node">
<title>node28</title>
<ellipse fill="none" stroke="black" cx="928.04" cy="-18" rx="38.04" ry="18"/>
<text text-anchor="middle" x="928.04" y="-12.95" font-family="Times,serif" font-size="14.00">node28</text>
</g>
<!-- node17&#45;&gt;node28 -->
<g id="edge31" class="edge">
<title>node17&#45;&gt;node28</title>
<path fill="none" stroke="black" d="M214.27,-145.87C230.68,-135.36 254.89,-120.98 276.04,-108 301.59,-92.33 304.56,-81.3 333.04,-72 557.91,1.4 631.48,-79.22 864.04,-36 870.82,-34.74 877.93,-32.93 884.88,-30.95"/>
<polygon fill="black" stroke="black" points="885.56,-34.4 894.15,-28.2 883.57,-27.69 885.56,-34.4"/>
</g>
<!-- node43 -->
<g id="node34" class="node">
<title>node43</title>
<ellipse fill="none" stroke="black" cx="1026.04" cy="-18" rx="38.04" ry="18"/>
<text text-anchor="middle" x="1026.04" y="-12.95" font-family="Times,serif" font-size="14.00">node43</text>
</g>
<!-- node17&#45;&gt;node43 -->
<g id="edge32" class="edge">
<title>node17&#45;&gt;node43</title>
<path fill="none" stroke="black" d="M224.37,-149.66C251.43,-139.98 292.67,-124.97 327.04,-108 354.25,-94.57 356.14,-81.22 385.04,-72 631.53,6.6 712.07,-85.32 966.04,-36 971.63,-34.92 977.44,-33.38 983.18,-31.68"/>
<polygon fill="black" stroke="black" points="984.12,-35.05 992.61,-28.72 982.02,-28.38 984.12,-35.05"/>
</g>
<!-- node11 -->
<g id="node35" class="node">
<title>node11</title>
<ellipse fill="none" stroke="black" cx="441.04" cy="-90" rx="38.04" ry="18"/>
<text text-anchor="middle" x="441.04" y="-84.95" font-family="Times,serif" font-size="14.00">node11</text>
</g>
<!-- node17&#45;&gt;node11 -->
<g id="edge34" class="edge">
<title>node17&#45;&gt;node11</title>
<path fill="none" stroke="black" d="M226.94,-151.1C263.51,-140.77 325.69,-123.91 379.04,-108 384.83,-106.27 390.95,-104.38 397.03,-102.5"/>
<polygon fill="black" stroke="black" points="397.87,-105.9 406.39,-99.61 395.81,-99.21 397.87,-105.9"/>
</g>
<!-- node6 -->
<g id="node36" class="node">
<title>node6</title>
<ellipse fill="none" stroke="black" cx="530.04" cy="-90" rx="33.44" ry="18"/>
<text text-anchor="middle" x="530.04" y="-84.95" font-family="Times,serif" font-size="14.00">node6</text>
</g>
<!-- node17&#45;&gt;node6 -->
<g id="edge36" class="edge">
<title>node17&#45;&gt;node6</title>
<path fill="none" stroke="black" d="M232.18,-156.1C286.59,-148.83 391.95,-133.24 479.04,-108 482.98,-106.86 487.05,-105.48 491.11,-104.01"/>
<polygon fill="black" stroke="black" points="492.23,-107.33 500.35,-100.52 489.76,-100.78 492.23,-107.33"/>
</g>
<!-- node28&#45;&gt;node17 -->
<g id="edge58" class="edge">
<title>node28&#45;&gt;node17</title>
<path fill="none" stroke="black" d="M901.4,-31.29C895.12,-33.13 888.43,-34.81 882.04,-36 649.48,-79.22 575.91,1.4 351.04,-72 322.56,-81.3 319.59,-92.33 294.04,-108 274.25,-120.14 251.79,-133.51 233.23,-143.79"/>
<polygon fill="black" stroke="black" points="231.81,-140.58 224.69,-148.43 235.15,-146.73 231.81,-140.58"/>
</g>
<!-- node43&#45;&gt;node17 -->
<g id="edge60" class="edge">
<title>node43&#45;&gt;node17</title>
<path fill="none" stroke="black" d="M1000.69,-31.76C995.26,-33.43 989.54,-34.93 984.04,-36 730.07,-85.32 649.53,6.6 403.04,-72 374.14,-81.22 372.25,-94.57 345.04,-108 311.01,-124.81 270.24,-139.69 239.82,-149.37"/>
<polygon fill="black" stroke="black" points="239.08,-145.94 230.56,-152.25 241.15,-152.62 239.08,-145.94"/>
</g>
<!-- node11&#45;&gt;node17 -->
<g id="edge43" class="edge">
<title>node11&#45;&gt;node17</title>
<path fill="none" stroke="black" d="M413.51,-102.9C408.07,-104.65 402.42,-106.4 397.04,-108 344.04,-123.81 282.31,-140.56 241.26,-150.89"/>
<polygon fill="black" stroke="black" points="240.58,-147.46 231.72,-153.27 242.27,-154.25 240.58,-147.46"/>
</g>
<!-- node6&#45;&gt;node17 -->
<g id="edge59" class="edge">
<title>node6&#45;&gt;node17</title>
<path fill="none" stroke="black" d="M508.5,-104.18C504.73,-105.59 500.82,-106.91 497.04,-108 409.88,-133.26 304.42,-148.85 244.18,-156.12"/>
<polygon fill="black" stroke="black" points="244.14,-152.6 234.61,-157.25 244.95,-159.55 244.14,-152.6"/>
</g>
<!-- node18&#45;&gt;node3 -->
<g id="edge37" class="edge">
<title>node18&#45;&gt;node3</title>
<path fill="none" stroke="black" d="M857.35,-104.15C852.97,-105.6 848.43,-106.94 844.04,-108 711.5,-140.19 549.61,-153.88 472.61,-158.73"/>
<polygon fill="black" stroke="black" points="472.72,-155.22 462.95,-159.32 473.14,-162.2 472.72,-155.22"/>
</g>
<!-- node20&#45;&gt;node3 -->
<g id="edge38" class="edge">
<title>node20&#45;&gt;node3</title>
<path fill="none" stroke="black" d="M951.63,-104.17C947.17,-105.64 942.53,-106.97 938.04,-108 769.8,-146.72 563.15,-157.24 473.22,-160.03"/>
<polygon fill="black" stroke="black" points="473.24,-156.53 463.34,-160.31 473.44,-163.52 473.24,-156.53"/>
</g>
<!-- node38&#45;&gt;node32 -->
<g id="edge39" class="edge">
<title>node38&#45;&gt;node32</title>
<path fill="none" stroke="black" d="M2029.32,-104.02C2024.94,-105.49 2020.41,-106.87 2016.04,-108 1916.05,-133.97 1795.32,-149.64 1729.44,-156.64"/>
<polygon fill="black" stroke="black" points="1729.27,-153.14 1719.69,-157.65 1730,-160.1 1729.27,-153.14"/>
</g>
<!-- node21 -->
<g id="node40" class="node">
<title>node21</title>
<ellipse fill="none" stroke="black" cx="1583.04" cy="-18" rx="38.04" ry="18"/>
<text text-anchor="middle" x="1583.04" y="-12.95" font-family="Times,serif" font-size="14.00">node21</text>
</g>
<!-- node21&#45;&gt;node22 -->
<g id="edge40" class="edge">
<title>node21&#45;&gt;node22</title>
<path fill="none" stroke="black" d="M1608.75,-31.42C1626.85,-41.51 1650.9,-55.95 1669.56,-67.85"/>
<polygon fill="black" stroke="black" points="1667.46,-70.67 1677.76,-73.16 1671.27,-64.79 1667.46,-70.67"/>
</g>
<!-- node22&#45;&gt;node13 -->
<g id="edge95" class="edge">
<title>node22&#45;&gt;node13</title>
<path fill="none" stroke="black" d="M1671.6,-103.27C1666.17,-104.99 1660.48,-106.63 1655.04,-108 1565.93,-130.46 1459.36,-147.15 1398.89,-155.35"/>
<polygon fill="black" stroke="black" points="1398.74,-151.84 1389.29,-156.63 1399.66,-158.78 1398.74,-151.84"/>
</g>
<!-- node22&#45;&gt;node21 -->
<g id="edge94" class="edge">
<title>node22&#45;&gt;node21</title>
<path fill="none" stroke="black" d="M1672.17,-76.49C1654,-66.35 1629.87,-51.86 1611.23,-39.96"/>
<polygon fill="black" stroke="black" points="1613.35,-37.16 1603.05,-34.66 1609.54,-43.03 1613.35,-37.16"/>
</g>
<!-- node34&#45;&gt;node13 -->
<g id="edge42" class="edge">
<title>node34&#45;&gt;node13</title>
<path fill="none" stroke="black" d="M1706.67,-29.44C1724.25,-38.28 1744.58,-52.63 1754.04,-72 1761.07,-86.38 1764.58,-95.96 1754.04,-108 1731.27,-134.05 1502.44,-151.81 1400,-158.28"/>
<polygon fill="black" stroke="black" points="1400.01,-154.77 1390.25,-158.89 1400.45,-161.76 1400.01,-154.77"/>
</g>
<!-- node30&#45;&gt;node44 -->
<g id="edge57" class="edge">
<title>node30&#45;&gt;node44</title>
<path fill="none" stroke="black" d="M257.44,-323.7C249.25,-333.02 237.85,-344.76 227.22,-354.84"/>
<polygon fill="black" stroke="black" points="225.01,-352.11 220.05,-361.47 229.76,-357.25 225.01,-352.11"/>
</g>
<!-- node42&#45;&gt;node32 -->
<g id="edge73" class="edge">
<title>node42&#45;&gt;node32</title>
<path fill="none" stroke="black" d="M2123.36,-104.17C2118.97,-105.62 2114.43,-106.94 2110.04,-108 1975.2,-140.47 1810.92,-153.87 1730.28,-158.67"/>
<polygon fill="black" stroke="black" points="1730.3,-155.16 1720.51,-159.23 1730.7,-162.15 1730.3,-155.16"/>
</g>
<!-- node39&#45;&gt;node3 -->
<g id="edge68" class="edge">
<title>node39&#45;&gt;node3</title>
<path fill="none" stroke="black" d="M1045.64,-104.24C1041.18,-105.69 1036.53,-107.01 1032.04,-108 827.27,-153.35 574.69,-160.13 473.21,-160.97"/>
<polygon fill="black" stroke="black" points="473.37,-157.47 463.39,-161.03 473.41,-164.47 473.37,-157.47"/>
</g>
<!-- node29&#45;&gt;node3 -->
<g id="edge71" class="edge">
<title>node29&#45;&gt;node3</title>
<path fill="none" stroke="black" d="M1139.66,-104.29C1135.19,-105.74 1130.54,-107.03 1126.04,-108 1001.09,-134.88 606.85,-153.73 472.94,-159.3"/>
<polygon fill="black" stroke="black" points="472.91,-155.79 463.06,-159.7 473.19,-162.79 472.91,-155.79"/>
</g>
<!-- node37&#45;&gt;node13 -->
<g id="edge72" class="edge">
<title>node37&#45;&gt;node13</title>
<path fill="none" stroke="black" d="M1783.14,-35.37C1791.65,-55.13 1797.52,-88.18 1780.04,-108 1755.48,-135.86 1507.86,-152.77 1400.31,-158.65"/>
<polygon fill="black" stroke="black" points="1400.44,-155.14 1390.64,-159.17 1400.81,-162.13 1400.44,-155.14"/>
</g>
<!-- node40&#45;&gt;node13 -->
<g id="edge98" class="edge">
<title>node40&#45;&gt;node13</title>
<path fill="none" stroke="black" d="M1863.97,-36.46C1856.81,-57.33 1837.29,-91.5 1809.04,-108 1774.56,-128.15 1511.06,-149.76 1400,-157.77"/>
<polygon fill="black" stroke="black" points="1400.04,-154.26 1390.31,-158.47 1400.53,-161.25 1400.04,-154.26"/>
</g>
<!-- node26&#45;&gt;node3 -->
<g id="edge96" class="edge">
<title>node26&#45;&gt;node3</title>
<path fill="none" stroke="black" d="M1233.92,-104.25C1229.37,-105.72 1224.63,-107.04 1220.04,-108 1076.11,-138.28 618.03,-155.18 472.66,-159.73"/>
<polygon fill="black" stroke="black" points="472.95,-156.22 463.07,-160.03 473.17,-163.22 472.95,-156.22"/>
</g>
<!-- node2&#45;&gt;node3 -->
<g id="edge93" class="edge">
<title>node2&#45;&gt;node3</title>
<path fill="none" stroke="black" d="M1326.06,-104.46C1322.14,-105.86 1318.03,-107.1 1314.04,-108 1232.14,-126.53 642.19,-152.4 473.13,-159.27"/>
<polygon fill="black" stroke="black" points="473.06,-155.77 463.21,-159.67 473.35,-162.76 473.06,-155.77"/>
</g>
</g>
</svg>
