<?xml version="1.0" encoding="UTF-8" standalone="no"?>
<!DOCTYPE svg PUBLIC "-//W3C//DTD SVG 1.1//EN"
 "http://www.w3.org/Graphics/SVG/1.1/DTD/svg11.dtd">
<!-- Generated by graphviz version 12.2.1 (20241206.2353)
 -->
<!-- Pages: 1 -->
<svg width="562pt" height="260pt"
 viewBox="0.00 0.00 562.48 260.00" xmlns="http://www.w3.org/2000/svg" xmlns:xlink="http://www.w3.org/1999/xlink">
<g id="graph0" class="graph" transform="scale(1 1) rotate(0) translate(4 256)">
<polygon fill="white" stroke="none" points="-4,4 -4,-256 558.48,-256 558.48,4 -4,4"/>
<!-- node1 -->
<g id="node1" class="node">
<title>node1</title>
<ellipse fill="none" stroke="black" cx="122.04" cy="-234" rx="33.44" ry="18"/>
<text text-anchor="middle" x="122.04" y="-228.95" font-family="Times,serif" font-size="14.00">node1</text>
</g>
<!-- node10 -->
<g id="node2" class="node">
<title>node10</title>
<ellipse fill="none" stroke="black" cx="75.04" cy="-162" rx="38.04" ry="18"/>
<text text-anchor="middle" x="75.04" y="-156.95" font-family="Times,serif" font-size="14.00">node10</text>
</g>
<!-- node1&#45;&gt;node10 -->
<g id="edge1" class="edge">
<title>node1&#45;&gt;node10</title>
<path fill="none" stroke="black" d="M106.17,-217.81C99.7,-209.66 92.49,-199.37 86.53,-189.92"/>
<polygon fill="black" stroke="black" points="89.58,-188.19 81.43,-181.42 83.58,-191.8 89.58,-188.19"/>
</g>
<!-- node11 -->
<g id="node3" class="node">
<title>node11</title>
<ellipse fill="none" stroke="black" cx="188.04" cy="-162" rx="38.04" ry="18"/>
<text text-anchor="middle" x="188.04" y="-156.95" font-family="Times,serif" font-size="14.00">node11</text>
</g>
<!-- node1&#45;&gt;node11 -->
<g id="edge2" class="edge">
<title>node1&#45;&gt;node11</title>
<path fill="none" stroke="black" d="M131.85,-216.41C139.53,-207.19 150.31,-195.58 160.43,-185.54"/>
<polygon fill="black" stroke="black" points="162.85,-188.08 167.62,-178.62 157.99,-183.04 162.85,-188.08"/>
</g>
<!-- node17 -->
<g id="node4" class="node">
<title>node17</title>
<ellipse fill="none" stroke="black" cx="307.04" cy="-162" rx="38.04" ry="18"/>
<text text-anchor="middle" x="307.04" y="-156.95" font-family="Times,serif" font-size="14.00">node17</text>
</g>
<!-- node1&#45;&gt;node17 -->
<g id="edge3" class="edge">
<title>node1&#45;&gt;node17</title>
<path fill="none" stroke="black" d="M144.55,-220.49C148.37,-218.97 152.3,-217.44 156.04,-216 192.36,-202.05 234.09,-186.53 264.6,-175.91"/>
<polygon fill="black" stroke="black" points="265.55,-179.29 273.87,-172.73 263.28,-172.67 265.55,-179.29"/>
</g>
<!-- node18 -->
<g id="node5" class="node">
<title>node18</title>
<ellipse fill="none" stroke="black" cx="414.04" cy="-162" rx="38.04" ry="18"/>
<text text-anchor="middle" x="414.04" y="-156.95" font-family="Times,serif" font-size="14.00">node18</text>
</g>
<!-- node1&#45;&gt;node18 -->
<g id="edge4" class="edge">
<title>node1&#45;&gt;node18</title>
<path fill="none" stroke="black" d="M143.88,-220.03C147.88,-218.56 152.04,-217.16 156.04,-216 238.17,-192.18 261.83,-199.67 345.04,-180 352.87,-178.15 361.2,-175.94 369.31,-173.74"/>
<polygon fill="black" stroke="black" points="369.97,-177.19 378.7,-171.18 368.13,-170.44 369.97,-177.19"/>
</g>
<!-- node20 -->
<g id="node6" class="node">
<title>node20</title>
<ellipse fill="none" stroke="black" cx="514.04" cy="-162" rx="38.04" ry="18"/>
<text text-anchor="middle" x="514.04" y="-156.95" font-family="Times,serif" font-size="14.00">node20</text>
</g>
<!-- node1&#45;&gt;node20 -->
<g id="edge5" class="edge">
<title>node1&#45;&gt;node20</title>
<path fill="none" stroke="black" d="M143.35,-219.94C147.5,-218.44 151.84,-217.07 156.04,-216 284.49,-183.37 322.59,-208.37 452.04,-180 458.21,-178.65 464.68,-176.88 471.05,-174.99"/>
<polygon fill="black" stroke="black" points="471.62,-178.48 480.16,-172.21 469.57,-171.79 471.62,-178.48"/>
</g>
<!-- node10&#45;&gt;node1 -->
<g id="edge20" class="edge">
<title>node10&#45;&gt;node1</title>
<path fill="none" stroke="black" d="M91.05,-178.36C97.53,-186.54 104.74,-196.84 110.68,-206.28"/>
<polygon fill="black" stroke="black" points="107.62,-207.98 115.77,-214.76 113.63,-204.38 107.62,-207.98"/>
</g>
<!-- node14 -->
<g id="node12" class="node">
<title>node14</title>
<ellipse fill="none" stroke="black" cx="38.04" cy="-90" rx="38.04" ry="18"/>
<text text-anchor="middle" x="38.04" y="-84.95" font-family="Times,serif" font-size="14.00">node14</text>
</g>
<!-- node10&#45;&gt;node14 -->
<g id="edge21" class="edge">
<title>node10&#45;&gt;node14</title>
<path fill="none" stroke="black" d="M60.89,-145.12C55.86,-137.32 50.49,-127.69 46.08,-118.73"/>
<polygon fill="black" stroke="black" points="49.27,-117.28 41.9,-109.67 42.91,-120.21 49.27,-117.28"/>
</g>
<!-- node19 -->
<g id="node16" class="node">
<title>node19</title>
<ellipse fill="none" stroke="black" cx="132.04" cy="-90" rx="38.04" ry="18"/>
<text text-anchor="middle" x="132.04" y="-84.95" font-family="Times,serif" font-size="14.00">node19</text>
</g>
<!-- node10&#45;&gt;node19 -->
<g id="edge22" class="edge">
<title>node10&#45;&gt;node19</title>
<path fill="none" stroke="black" d="M82.96,-144.05C89.28,-135.13 98.13,-124.06 106.64,-114.33"/>
<polygon fill="black" stroke="black" points="109.15,-116.77 113.26,-107.01 103.96,-112.08 109.15,-116.77"/>
</g>
<!-- node11&#45;&gt;node1 -->
<g id="edge9" class="edge">
<title>node11&#45;&gt;node1</title>
<path fill="none" stroke="black" d="M178.02,-179.86C170.24,-189.17 159.38,-200.84 149.23,-210.88"/>
<polygon fill="black" stroke="black" points="146.83,-208.33 142.04,-217.79 151.68,-213.38 146.83,-208.33"/>
</g>
<!-- node15 -->
<g id="node9" class="node">
<title>node15</title>
<ellipse fill="none" stroke="black" cx="154.04" cy="-18" rx="38.04" ry="18"/>
<text text-anchor="middle" x="154.04" y="-12.95" font-family="Times,serif" font-size="14.00">node15</text>
</g>
<!-- node11&#45;&gt;node15 -->
<g id="edge8" class="edge">
<title>node11&#45;&gt;node15</title>
<path fill="none" stroke="black" d="M181.35,-143.95C178.61,-125.8 176.82,-96.39 170.04,-72 167.68,-63.47 164.03,-54.62 160.6,-46.65"/>
<polygon fill="black" stroke="black" points="163.83,-45.28 156.66,-37.48 157.4,-48.05 163.83,-45.28"/>
</g>
<!-- node3 -->
<g id="node10" class="node">
<title>node3</title>
<ellipse fill="none" stroke="black" cx="248.04" cy="-18" rx="33.44" ry="18"/>
<text text-anchor="middle" x="248.04" y="-12.95" font-family="Times,serif" font-size="14.00">node3</text>
</g>
<!-- node11&#45;&gt;node3 -->
<g id="edge10" class="edge">
<title>node11&#45;&gt;node3</title>
<path fill="none" stroke="black" d="M190.79,-143.59C198.6,-119.03 217.37,-74.01 231.53,-45.35"/>
<polygon fill="black" stroke="black" points="234.57,-47.08 236.01,-36.58 228.34,-43.9 234.57,-47.08"/>
</g>
<!-- node17&#45;&gt;node1 -->
<g id="edge15" class="edge">
<title>node17&#45;&gt;node1</title>
<path fill="none" stroke="black" d="M280.58,-175.35C253.59,-185.97 211.01,-201.8 174.04,-216 170.03,-217.54 165.81,-219.19 161.57,-220.82"/>
<polygon fill="black" stroke="black" points="160.6,-217.44 152.48,-224.26 163.07,-223.99 160.6,-217.44"/>
</g>
<!-- node12 -->
<g id="node15" class="node">
<title>node12</title>
<ellipse fill="none" stroke="black" cx="338.04" cy="-90" rx="38.04" ry="18"/>
<text text-anchor="middle" x="338.04" y="-84.95" font-family="Times,serif" font-size="14.00">node12</text>
</g>
<!-- node17&#45;&gt;node12 -->
<g id="edge16" class="edge">
<title>node17&#45;&gt;node12</title>
<path fill="none" stroke="black" d="M308.79,-143.7C311.49,-135.75 315.52,-126.16 319.81,-117.34"/>
<polygon fill="black" stroke="black" points="322.91,-118.98 324.41,-108.49 316.7,-115.75 322.91,-118.98"/>
</g>
<!-- node18&#45;&gt;node1 -->
<g id="edge6" class="edge">
<title>node18&#45;&gt;node1</title>
<path fill="none" stroke="black" d="M385.23,-174.21C378.02,-176.25 370.31,-178.28 363.04,-180 279.83,-199.67 256.17,-192.18 174.04,-216 169.83,-217.22 165.45,-218.7 161.09,-220.27"/>
<polygon fill="black" stroke="black" points="159.94,-216.96 151.78,-223.72 162.37,-223.52 159.94,-216.96"/>
</g>
<!-- node16 -->
<g id="node7" class="node">
<title>node16</title>
<ellipse fill="none" stroke="black" cx="432.04" cy="-90" rx="38.04" ry="18"/>
<text text-anchor="middle" x="432.04" y="-84.95" font-family="Times,serif" font-size="14.00">node16</text>
</g>
<!-- node18&#45;&gt;node16 -->
<g id="edge7" class="edge">
<title>node18&#45;&gt;node16</title>
<path fill="none" stroke="black" d="M412.58,-143.7C413.76,-136.04 415.89,-126.85 418.42,-118.3"/>
<polygon fill="black" stroke="black" points="421.66,-119.65 421.45,-109.06 415.01,-117.47 421.66,-119.65"/>
</g>
<!-- node20&#45;&gt;node1 -->
<g id="edge17" class="edge">
<title>node20&#45;&gt;node1</title>
<path fill="none" stroke="black" d="M487.54,-175.37C481.83,-177.11 475.8,-178.74 470.04,-180 340.59,-208.37 302.49,-183.37 174.04,-216 169.79,-217.08 165.39,-218.48 161.01,-220"/>
<polygon fill="black" stroke="black" points="159.87,-216.69 151.7,-223.43 162.3,-223.26 159.87,-216.69"/>
</g>
<!-- node5 -->
<g id="node17" class="node">
<title>node5</title>
<ellipse fill="none" stroke="black" cx="521.04" cy="-90" rx="33.44" ry="18"/>
<text text-anchor="middle" x="521.04" y="-84.95" font-family="Times,serif" font-size="14.00">node5</text>
</g>
<!-- node20&#45;&gt;node5 -->
<g id="edge18" class="edge">
<title>node20&#45;&gt;node5</title>
<path fill="none" stroke="black" d="M509.86,-143.7C509.84,-136.21 510.49,-127.26 511.63,-118.88"/>
<polygon fill="black" stroke="black" points="515.07,-119.56 513.29,-109.11 508.17,-118.39 515.07,-119.56"/>
</g>
<!-- node16&#45;&gt;node18 -->
<g id="edge29" class="edge">
<title>node16&#45;&gt;node18</title>
<path fill="none" stroke="black" d="M433.49,-108.45C432.31,-116.01 430.22,-125.05 427.73,-133.48"/>
<polygon fill="black" stroke="black" points="424.41,-132.38 424.62,-142.97 431.06,-134.56 424.41,-132.38"/>
</g>
<!-- node13 -->
<g id="node18" class="node">
<title>node13</title>
<ellipse fill="none" stroke="black" cx="428.04" cy="-18" rx="38.04" ry="18"/>
<text text-anchor="middle" x="428.04" y="-12.95" font-family="Times,serif" font-size="14.00">node13</text>
</g>
<!-- node16&#45;&gt;node13 -->
<g id="edge28" class="edge">
<title>node16&#45;&gt;node13</title>
<path fill="none" stroke="black" d="M425.2,-72.05C423.99,-64.68 423.23,-55.84 423.03,-47.51"/>
<polygon fill="black" stroke="black" points="426.53,-47.82 423.11,-37.79 419.53,-47.76 426.53,-47.82"/>
</g>
<!-- node4 -->
<g id="node8" class="node">
<title>node4</title>
<ellipse fill="none" stroke="black" cx="207.04" cy="-234" rx="33.44" ry="18"/>
<text text-anchor="middle" x="207.04" y="-228.95" font-family="Times,serif" font-size="14.00">node4</text>
</g>
<!-- node15&#45;&gt;node11 -->
<g id="edge27" class="edge">
<title>node15&#45;&gt;node11</title>
<path fill="none" stroke="black" d="M170.59,-34.23C177.52,-44.54 184.34,-58.67 188.04,-72 193.55,-91.82 195.76,-114.95 195.38,-132.66"/>
<polygon fill="black" stroke="black" points="191.9,-132.25 194.79,-142.44 198.88,-132.67 191.9,-132.25"/>
</g>
<!-- node3&#45;&gt;node11 -->
<g id="edge19" class="edge">
<title>node3&#45;&gt;node11</title>
<path fill="none" stroke="black" d="M245.32,-36.35C237.55,-60.79 218.89,-105.59 204.74,-134.29"/>
<polygon fill="black" stroke="black" points="201.68,-132.59 200.26,-143.08 207.92,-135.77 201.68,-132.59"/>
</g>
<!-- node2 -->
<g id="node11" class="node">
<title>node2</title>
<ellipse fill="none" stroke="black" cx="292.04" cy="-234" rx="33.44" ry="18"/>
<text text-anchor="middle" x="292.04" y="-228.95" font-family="Times,serif" font-size="14.00">node2</text>
</g>
<!-- node14&#45;&gt;node10 -->
<g id="edge11" class="edge">
<title>node14&#45;&gt;node10</title>
<path fill="none" stroke="black" d="M52.37,-107.14C57.36,-114.92 62.68,-124.47 67.05,-133.35"/>
<polygon fill="black" stroke="black" points="63.82,-134.71 71.18,-142.32 70.17,-131.78 63.82,-134.71"/>
</g>
<!-- node9 -->
<g id="node13" class="node">
<title>node9</title>
<ellipse fill="none" stroke="black" cx="56.04" cy="-18" rx="33.44" ry="18"/>
<text text-anchor="middle" x="56.04" y="-12.95" font-family="Times,serif" font-size="14.00">node9</text>
</g>
<!-- node14&#45;&gt;node9 -->
<g id="edge12" class="edge">
<title>node14&#45;&gt;node9</title>
<path fill="none" stroke="black" d="M36.58,-71.7C37.76,-64.04 39.89,-54.85 42.42,-46.3"/>
<polygon fill="black" stroke="black" points="45.66,-47.65 45.45,-37.06 39.01,-45.47 45.66,-47.65"/>
</g>
<!-- node9&#45;&gt;node14 -->
<g id="edge30" class="edge">
<title>node9&#45;&gt;node14</title>
<path fill="none" stroke="black" d="M57.49,-36.45C56.31,-44.01 54.22,-53.05 51.73,-61.48"/>
<polygon fill="black" stroke="black" points="48.41,-60.38 48.62,-70.97 55.06,-62.56 48.41,-60.38"/>
</g>
<!-- node8 -->
<g id="node14" class="node">
<title>node8</title>
<ellipse fill="none" stroke="black" cx="335.04" cy="-18" rx="33.44" ry="18"/>
<text text-anchor="middle" x="335.04" y="-12.95" font-family="Times,serif" font-size="14.00">node8</text>
</g>
<!-- node8&#45;&gt;node12 -->
<g id="edge13" class="edge">
<title>node8&#45;&gt;node12</title>
<path fill="none" stroke="black" d="M341.67,-36.1C342.75,-43.37 343.37,-52.04 343.47,-60.24"/>
<polygon fill="black" stroke="black" points="339.97,-60.11 343.25,-70.18 346.97,-60.26 339.97,-60.11"/>
</g>
<!-- node12&#45;&gt;node17 -->
<g id="edge25" class="edge">
<title>node12&#45;&gt;node17</title>
<path fill="none" stroke="black" d="M336.36,-108.12C333.64,-116.15 329.55,-125.89 325.2,-134.82"/>
<polygon fill="black" stroke="black" points="322.23,-132.93 320.73,-143.42 328.44,-136.16 322.23,-132.93"/>
</g>
<!-- node12&#45;&gt;node8 -->
<g id="edge26" class="edge">
<title>node12&#45;&gt;node8</title>
<path fill="none" stroke="black" d="M331.44,-72.05C330.34,-64.68 329.71,-55.84 329.62,-47.51"/>
<polygon fill="black" stroke="black" points="333.11,-47.86 329.84,-37.79 326.12,-47.71 333.11,-47.86"/>
</g>
<!-- node19&#45;&gt;node10 -->
<g id="edge14" class="edge">
<title>node19&#45;&gt;node10</title>
<path fill="none" stroke="black" d="M124.35,-107.63C118.09,-116.5 109.27,-127.57 100.75,-137.32"/>
<polygon fill="black" stroke="black" points="98.21,-134.92 94.1,-144.69 103.4,-139.61 98.21,-134.92"/>
</g>
<!-- node5&#45;&gt;node20 -->
<g id="edge24" class="edge">
<title>node5&#45;&gt;node20</title>
<path fill="none" stroke="black" d="M525.23,-108.28C525.25,-115.69 524.61,-124.54 523.49,-132.86"/>
<polygon fill="black" stroke="black" points="520.07,-132.12 521.87,-142.56 526.97,-133.28 520.07,-132.12"/>
</g>
<!-- node13&#45;&gt;node16 -->
<g id="edge23" class="edge">
<title>node13&#45;&gt;node16</title>
<path fill="none" stroke="black" d="M434.92,-36.1C436.09,-43.37 436.84,-52.04 437.05,-60.24"/>
<polygon fill="black" stroke="black" points="433.56,-60.16 436.98,-70.18 440.56,-60.21 433.56,-60.16"/>
</g>
<!-- node6 -->
<g id="node19" class="node">
<title>node6</title>
<ellipse fill="none" stroke="black" cx="377.04" cy="-234" rx="33.44" ry="18"/>
<text text-anchor="middle" x="377.04" y="-228.95" font-family="Times,serif" font-size="14.00">node6</text>
</g>
<!-- node7 -->
<g id="node20" class="node">
<title>node7</title>
<ellipse fill="none" stroke="black" cx="462.04" cy="-234" rx="33.44" ry="18"/>
<text text-anchor="middle" x="462.04" y="-228.95" font-family="Times,serif" font-size="14.00">node7</text>
</g>
</g>
</svg>
