<?xml version="1.0" encoding="UTF-8" standalone="no"?>
<!DOCTYPE svg PUBLIC "-//W3C//DTD SVG 1.1//EN"
 "http://www.w3.org/Graphics/SVG/1.1/DTD/svg11.dtd">
<!-- Generated by graphviz version 12.2.1 (20241206.2353)
 -->
<!-- Pages: 1 -->
<svg width="295pt" height="332pt"
 viewBox="0.00 0.00 294.88 332.00" xmlns="http://www.w3.org/2000/svg" xmlns:xlink="http://www.w3.org/1999/xlink">
<g id="graph0" class="graph" transform="scale(1 1) rotate(0) translate(4 328)">
<polygon fill="white" stroke="none" points="-4,4 -4,-328 290.88,-328 290.88,4 -4,4"/>
<!-- node8 -->
<g id="node1" class="node">
<title>node8</title>
<ellipse fill="none" stroke="black" cx="119.44" cy="-306" rx="33.44" ry="18"/>
<text text-anchor="middle" x="119.44" y="-300.95" font-family="Times,serif" font-size="14.00">node8</text>
</g>
<!-- node2 -->
<g id="node2" class="node">
<title>node2</title>
<ellipse fill="none" stroke="black" cx="119.44" cy="-234" rx="33.44" ry="18"/>
<text text-anchor="middle" x="119.44" y="-228.95" font-family="Times,serif" font-size="14.00">node2</text>
</g>
<!-- node8&#45;&gt;node2 -->
<g id="edge1" class="edge">
<title>node8&#45;&gt;node2</title>
<path fill="none" stroke="black" d="M113.56,-288.05C112.77,-280.57 112.51,-271.58 112.8,-263.14"/>
<polygon fill="black" stroke="black" points="116.29,-263.51 113.47,-253.3 109.3,-263.04 116.29,-263.51"/>
</g>
<!-- node2&#45;&gt;node8 -->
<g id="edge12" class="edge">
<title>node2&#45;&gt;node8</title>
<path fill="none" stroke="black" d="M125.3,-251.79C126.1,-259.25 126.36,-268.24 126.08,-276.69"/>
<polygon fill="black" stroke="black" points="122.59,-276.33 125.42,-286.54 129.58,-276.8 122.59,-276.33"/>
</g>
<!-- node1 -->
<g id="node3" class="node">
<title>node1</title>
<ellipse fill="none" stroke="black" cx="84.44" cy="-162" rx="33.44" ry="18"/>
<text text-anchor="middle" x="84.44" y="-156.95" font-family="Times,serif" font-size="14.00">node1</text>
</g>
<!-- node2&#45;&gt;node1 -->
<g id="edge14" class="edge">
<title>node2&#45;&gt;node1</title>
<path fill="none" stroke="black" d="M105.74,-217.12C100.94,-209.32 95.84,-199.69 91.68,-190.73"/>
<polygon fill="black" stroke="black" points="94.95,-189.47 87.77,-181.68 88.53,-192.25 94.95,-189.47"/>
</g>
<!-- node10 -->
<g id="node8" class="node">
<title>node10</title>
<ellipse fill="none" stroke="black" cx="164.44" cy="-90" rx="38.04" ry="18"/>
<text text-anchor="middle" x="164.44" y="-84.95" font-family="Times,serif" font-size="14.00">node10</text>
</g>
<!-- node2&#45;&gt;node10 -->
<g id="edge13" class="edge">
<title>node2&#45;&gt;node10</title>
<path fill="none" stroke="black" d="M120.34,-215.59C125.51,-191.27 139.3,-146.89 150.38,-118.19"/>
<polygon fill="black" stroke="black" points="153.56,-119.66 154.05,-109.08 147.07,-117.04 153.56,-119.66"/>
</g>
<!-- node5 -->
<g id="node9" class="node">
<title>node5</title>
<ellipse fill="none" stroke="black" cx="241.44" cy="-162" rx="33.44" ry="18"/>
<text text-anchor="middle" x="241.44" y="-156.95" font-family="Times,serif" font-size="14.00">node5</text>
</g>
<!-- node2&#45;&gt;node5 -->
<g id="edge11" class="edge">
<title>node2&#45;&gt;node5</title>
<path fill="none" stroke="black" d="M138.58,-218.83C156.8,-207.52 184.37,-191.65 206.46,-179.71"/>
<polygon fill="black" stroke="black" points="207.96,-182.88 215.14,-175.08 204.67,-176.7 207.96,-182.88"/>
</g>
<!-- node1&#45;&gt;node2 -->
<g id="edge2" class="edge">
<title>node1&#45;&gt;node2</title>
<path fill="none" stroke="black" d="M98.01,-178.67C102.83,-186.49 107.97,-196.17 112.16,-205.19"/>
<polygon fill="black" stroke="black" points="108.92,-206.52 116.1,-214.31 115.34,-203.74 108.92,-206.52"/>
</g>
<!-- node3 -->
<g id="node4" class="node">
<title>node3</title>
<ellipse fill="none" stroke="black" cx="75.44" cy="-90" rx="33.44" ry="18"/>
<text text-anchor="middle" x="75.44" y="-84.95" font-family="Times,serif" font-size="14.00">node3</text>
</g>
<!-- node1&#45;&gt;node3 -->
<g id="edge3" class="edge">
<title>node1&#45;&gt;node3</title>
<path fill="none" stroke="black" d="M76.38,-144.05C74.65,-136.68 73.26,-127.84 72.46,-119.51"/>
<polygon fill="black" stroke="black" points="75.97,-119.54 71.84,-109.79 68.98,-119.99 75.97,-119.54"/>
</g>
<!-- node3&#45;&gt;node1 -->
<g id="edge5" class="edge">
<title>node3&#45;&gt;node1</title>
<path fill="none" stroke="black" d="M83.42,-107.62C85.17,-115.02 86.59,-123.94 87.4,-132.35"/>
<polygon fill="black" stroke="black" points="83.9,-132.43 88.03,-142.19 90.89,-131.98 83.9,-132.43"/>
</g>
<!-- node9 -->
<g id="node5" class="node">
<title>node9</title>
<ellipse fill="none" stroke="black" cx="33.44" cy="-18" rx="33.44" ry="18"/>
<text text-anchor="middle" x="33.44" y="-12.95" font-family="Times,serif" font-size="14.00">node9</text>
</g>
<!-- node3&#45;&gt;node9 -->
<g id="edge8" class="edge">
<title>node3&#45;&gt;node9</title>
<path fill="none" stroke="black" d="M60.4,-73.46C54.59,-65.39 48.24,-55.28 43.03,-45.98"/>
<polygon fill="black" stroke="black" points="46.21,-44.5 38.44,-37.3 40.03,-47.78 46.21,-44.5"/>
</g>
<!-- node4 -->
<g id="node6" class="node">
<title>node4</title>
<ellipse fill="none" stroke="black" cx="118.44" cy="-18" rx="33.44" ry="18"/>
<text text-anchor="middle" x="118.44" y="-12.95" font-family="Times,serif" font-size="14.00">node4</text>
</g>
<!-- node3&#45;&gt;node4 -->
<g id="edge6" class="edge">
<title>node3&#45;&gt;node4</title>
<path fill="none" stroke="black" d="M80.15,-71.7C84.51,-63.16 90.74,-52.72 96.99,-43.4"/>
<polygon fill="black" stroke="black" points="99.69,-45.64 102.55,-35.44 93.95,-41.63 99.69,-45.64"/>
</g>
<!-- node7 -->
<g id="node7" class="node">
<title>node7</title>
<ellipse fill="none" stroke="black" cx="203.44" cy="-18" rx="33.44" ry="18"/>
<text text-anchor="middle" x="203.44" y="-12.95" font-family="Times,serif" font-size="14.00">node7</text>
</g>
<!-- node3&#45;&gt;node7 -->
<g id="edge7" class="edge">
<title>node3&#45;&gt;node7</title>
<path fill="none" stroke="black" d="M95.22,-75.17C114.73,-63.65 144.68,-47.22 168.2,-35.11"/>
<polygon fill="black" stroke="black" points="169.49,-38.38 176.82,-30.73 166.32,-32.14 169.49,-38.38"/>
</g>
<!-- node9&#45;&gt;node3 -->
<g id="edge4" class="edge">
<title>node9&#45;&gt;node3</title>
<path fill="none" stroke="black" d="M48.24,-34.2C54.03,-42.22 60.39,-52.31 65.63,-61.64"/>
<polygon fill="black" stroke="black" points="62.48,-63.17 70.26,-70.36 68.66,-59.89 62.48,-63.17"/>
</g>
<!-- node4&#45;&gt;node3 -->
<g id="edge16" class="edge">
<title>node4&#45;&gt;node3</title>
<path fill="none" stroke="black" d="M113.81,-36.13C109.45,-44.68 103.19,-55.18 96.92,-64.57"/>
<polygon fill="black" stroke="black" points="94.18,-62.37 91.31,-72.57 99.92,-66.38 94.18,-62.37"/>
</g>
<!-- node7&#45;&gt;node3 -->
<g id="edge9" class="edge">
<title>node7&#45;&gt;node3</title>
<path fill="none" stroke="black" d="M183.48,-32.93C164.07,-44.39 134.46,-60.64 111.06,-72.7"/>
<polygon fill="black" stroke="black" points="109.49,-69.57 102.16,-77.22 112.66,-75.81 109.49,-69.57"/>
</g>
<!-- node10&#45;&gt;node2 -->
<g id="edge10" class="edge">
<title>node10&#45;&gt;node2</title>
<path fill="none" stroke="black" d="M163.55,-108.35C158.38,-132.68 144.55,-177.19 133.46,-205.91"/>
<polygon fill="black" stroke="black" points="130.28,-204.45 129.78,-215.03 136.77,-207.07 130.28,-204.45"/>
</g>
<!-- node5&#45;&gt;node2 -->
<g id="edge17" class="edge">
<title>node5&#45;&gt;node2</title>
<path fill="none" stroke="black" d="M222.48,-177.05C204.28,-188.36 176.65,-204.28 154.5,-216.24"/>
<polygon fill="black" stroke="black" points="152.97,-213.09 145.79,-220.89 156.26,-219.27 152.97,-213.09"/>
</g>
<!-- node6 -->
<g id="node10" class="node">
<title>node6</title>
<ellipse fill="none" stroke="black" cx="253.44" cy="-90" rx="33.44" ry="18"/>
<text text-anchor="middle" x="253.44" y="-84.95" font-family="Times,serif" font-size="14.00">node6</text>
</g>
<!-- node5&#45;&gt;node6 -->
<g id="edge18" class="edge">
<title>node5&#45;&gt;node6</title>
<path fill="none" stroke="black" d="M238.49,-143.7C239.01,-136.13 240.33,-127.06 242.09,-118.59"/>
<polygon fill="black" stroke="black" points="245.44,-119.64 244.39,-109.09 238.64,-117.99 245.44,-119.64"/>
</g>
<!-- node6&#45;&gt;node5 -->
<g id="edge15" class="edge">
<title>node6&#45;&gt;node5</title>
<path fill="none" stroke="black" d="M256.41,-107.96C255.91,-115.57 254.59,-124.75 252.8,-133.31"/>
<polygon fill="black" stroke="black" points="249.42,-132.4 250.48,-142.94 256.23,-134.04 249.42,-132.4"/>
</g>
</g>
</svg>
