<?xml version="1.0" encoding="UTF-8" standalone="no"?>
<!DOCTYPE svg PUBLIC "-//W3C//DTD SVG 1.1//EN"
 "http://www.w3.org/Graphics/SVG/1.1/DTD/svg11.dtd">
<!-- Generated by graphviz version 12.2.1 (20241206.2353)
 -->
<!-- Pages: 1 -->
<svg width="845pt" height="332pt"
 viewBox="0.00 0.00 845.09 332.00" xmlns="http://www.w3.org/2000/svg" xmlns:xlink="http://www.w3.org/1999/xlink">
<g id="graph0" class="graph" transform="scale(1 1) rotate(0) translate(4 328)">
<polygon fill="white" stroke="none" points="-4,4 -4,-328 841.09,-328 841.09,4 -4,4"/>
<!-- node20 -->
<g id="node1" class="node">
<title>node20</title>
<ellipse fill="none" stroke="black" cx="70.04" cy="-306" rx="38.04" ry="18"/>
<text text-anchor="middle" x="70.04" y="-300.95" font-family="Times,serif" font-size="14.00">node20</text>
</g>
<!-- node10 -->
<g id="node2" class="node">
<title>node10</title>
<ellipse fill="none" stroke="black" cx="38.04" cy="-18" rx="38.04" ry="18"/>
<text text-anchor="middle" x="38.04" y="-12.95" font-family="Times,serif" font-size="14.00">node10</text>
</g>
<!-- node20&#45;&gt;node10 -->
<g id="edge1" class="edge">
<title>node20&#45;&gt;node10</title>
<path fill="none" stroke="black" d="M60.38,-288.29C57.96,-277.86 56.41,-264.15 55.04,-252 46.77,-178.4 37.12,-91.71 35.47,-47.72"/>
<polygon fill="black" stroke="black" points="38.97,-47.68 35.25,-37.76 31.97,-47.83 38.97,-47.68"/>
</g>
<!-- node1 -->
<g id="node3" class="node">
<title>node1</title>
<ellipse fill="none" stroke="black" cx="106.04" cy="-234" rx="33.44" ry="18"/>
<text text-anchor="middle" x="106.04" y="-228.95" font-family="Times,serif" font-size="14.00">node1</text>
</g>
<!-- node20&#45;&gt;node1 -->
<g id="edge2" class="edge">
<title>node20&#45;&gt;node1</title>
<path fill="none" stroke="black" d="M73.03,-287.7C76.41,-279.46 81.36,-269.45 86.48,-260.37"/>
<polygon fill="black" stroke="black" points="89.37,-262.36 91.48,-251.97 83.35,-258.78 89.37,-262.36"/>
</g>
<!-- node4 -->
<g id="node4" class="node">
<title>node4</title>
<ellipse fill="none" stroke="black" cx="677.04" cy="-18" rx="33.44" ry="18"/>
<text text-anchor="middle" x="677.04" y="-12.95" font-family="Times,serif" font-size="14.00">node4</text>
</g>
<!-- node20&#45;&gt;node4 -->
<g id="edge3" class="edge">
<title>node20&#45;&gt;node4</title>
<path fill="none" stroke="black" d="M100.13,-294.76C158.19,-277.2 289.06,-240.85 401.04,-216 487.94,-196.72 513.74,-208.54 598.04,-180 631.37,-168.72 720.68,-138.01 739.04,-108 747.4,-94.35 746.22,-86.3 739.04,-72 732.08,-58.11 719.56,-46.93 707.5,-38.49"/>
<polygon fill="black" stroke="black" points="709.6,-35.68 699.32,-33.13 705.77,-41.53 709.6,-35.68"/>
</g>
<!-- node9 -->
<g id="node5" class="node">
<title>node9</title>
<ellipse fill="none" stroke="black" cx="452.04" cy="-234" rx="33.44" ry="18"/>
<text text-anchor="middle" x="452.04" y="-228.95" font-family="Times,serif" font-size="14.00">node9</text>
</g>
<!-- node20&#45;&gt;node9 -->
<g id="edge4" class="edge">
<title>node20&#45;&gt;node9</title>
<path fill="none" stroke="black" d="M104.5,-297.9C174.45,-284.48 332.49,-255.52 409.04,-242.1"/>
<polygon fill="black" stroke="black" points="409.42,-245.58 418.67,-240.42 408.21,-238.69 409.42,-245.58"/>
</g>
<!-- node10&#45;&gt;node20 -->
<g id="edge30" class="edge">
<title>node10&#45;&gt;node20</title>
<path fill="none" stroke="black" d="M44.64,-35.96C53.2,-74.4 63.95,-171.1 73.04,-252 73.94,-259.94 74.91,-268.56 75.46,-276.49"/>
<polygon fill="black" stroke="black" points="71.96,-276.45 75.85,-286.3 78.95,-276.17 71.96,-276.45"/>
</g>
<!-- node1&#45;&gt;node20 -->
<g id="edge34" class="edge">
<title>node1&#45;&gt;node20</title>
<path fill="none" stroke="black" d="M103.07,-252.29C99.7,-260.48 94.79,-270.42 89.71,-279.45"/>
<polygon fill="black" stroke="black" points="86.84,-277.43 84.75,-287.81 92.86,-281 86.84,-277.43"/>
</g>
<!-- node15 -->
<g id="node7" class="node">
<title>node15</title>
<ellipse fill="none" stroke="black" cx="125.04" cy="-162" rx="38.04" ry="18"/>
<text text-anchor="middle" x="125.04" y="-156.95" font-family="Times,serif" font-size="14.00">node15</text>
</g>
<!-- node1&#45;&gt;node15 -->
<g id="edge31" class="edge">
<title>node1&#45;&gt;node15</title>
<path fill="none" stroke="black" d="M104.83,-215.7C106.11,-208.04 108.38,-198.85 111.03,-190.3"/>
<polygon fill="black" stroke="black" points="114.27,-191.65 114.2,-181.05 107.65,-189.38 114.27,-191.65"/>
</g>
<!-- node13 -->
<g id="node9" class="node">
<title>node13</title>
<ellipse fill="none" stroke="black" cx="297.04" cy="-162" rx="38.04" ry="18"/>
<text text-anchor="middle" x="297.04" y="-156.95" font-family="Times,serif" font-size="14.00">node13</text>
</g>
<!-- node1&#45;&gt;node13 -->
<g id="edge35" class="edge">
<title>node1&#45;&gt;node13</title>
<path fill="none" stroke="black" d="M131.22,-221.91C162.83,-209.56 217.17,-189.6 255.07,-176.39"/>
<polygon fill="black" stroke="black" points="256.04,-179.76 264.35,-173.18 253.75,-173.14 256.04,-179.76"/>
</g>
<!-- node18 -->
<g id="node13" class="node">
<title>node18</title>
<ellipse fill="none" stroke="black" cx="441.04" cy="-162" rx="38.04" ry="18"/>
<text text-anchor="middle" x="441.04" y="-156.95" font-family="Times,serif" font-size="14.00">node18</text>
</g>
<!-- node1&#45;&gt;node18 -->
<g id="edge32" class="edge">
<title>node1&#45;&gt;node18</title>
<path fill="none" stroke="black" d="M136.33,-225.77C195.26,-212.8 325.2,-185.63 394.9,-171.67"/>
<polygon fill="black" stroke="black" points="395.35,-175.15 404.47,-169.77 393.98,-168.29 395.35,-175.15"/>
</g>
<!-- node19 -->
<g id="node14" class="node">
<title>node19</title>
<ellipse fill="none" stroke="black" cx="560.04" cy="-162" rx="38.04" ry="18"/>
<text text-anchor="middle" x="560.04" y="-156.95" font-family="Times,serif" font-size="14.00">node19</text>
</g>
<!-- node1&#45;&gt;node19 -->
<g id="edge33" class="edge">
<title>node1&#45;&gt;node19</title>
<path fill="none" stroke="black" d="M138.61,-228.94C203.75,-221.3 353.83,-203.41 479.04,-180 490.53,-177.85 502.93,-175.09 514.57,-172.41"/>
<polygon fill="black" stroke="black" points="515,-175.9 523.95,-170.24 513.42,-169.08 515,-175.9"/>
</g>
<!-- node4&#45;&gt;node20 -->
<g id="edge11" class="edge">
<title>node4&#45;&gt;node20</title>
<path fill="none" stroke="black" d="M705.35,-28.13C724.1,-36.72 746.7,-51.37 757.04,-72 764.22,-86.3 765.4,-94.35 757.04,-108 738.68,-138.01 649.37,-168.72 616.04,-180 531.74,-208.54 505.94,-196.72 419.04,-216 308.68,-240.49 179.97,-276.15 113.87,-293.98"/>
<polygon fill="black" stroke="black" points="113.25,-290.53 104.5,-296.5 115.07,-297.29 113.25,-290.53"/>
</g>
<!-- node9&#45;&gt;node20 -->
<g id="edge19" class="edge">
<title>node9&#45;&gt;node20</title>
<path fill="none" stroke="black" d="M421.23,-241.4C354.31,-254.29 195.86,-283.34 116.65,-297.27"/>
<polygon fill="black" stroke="black" points="116.3,-293.78 107.05,-298.95 117.5,-300.67 116.3,-293.78"/>
</g>
<!-- node14 -->
<g id="node18" class="node">
<title>node14</title>
<ellipse fill="none" stroke="black" cx="799.04" cy="-18" rx="38.04" ry="18"/>
<text text-anchor="middle" x="799.04" y="-12.95" font-family="Times,serif" font-size="14.00">node14</text>
</g>
<!-- node9&#45;&gt;node14 -->
<g id="edge18" class="edge">
<title>node9&#45;&gt;node14</title>
<path fill="none" stroke="black" d="M485.38,-231.23C535.68,-227.51 632.36,-215.93 706.04,-180 750.24,-158.45 769.5,-152.67 790.04,-108 798.69,-89.2 798.29,-65.72 797.23,-47.6"/>
<polygon fill="black" stroke="black" points="800.74,-47.57 796.61,-37.81 793.75,-48.01 800.74,-47.57"/>
</g>
<!-- node7 -->
<g id="node6" class="node">
<title>node7</title>
<ellipse fill="none" stroke="black" cx="98.04" cy="-90" rx="33.44" ry="18"/>
<text text-anchor="middle" x="98.04" y="-84.95" font-family="Times,serif" font-size="14.00">node7</text>
</g>
<!-- node7&#45;&gt;node15 -->
<g id="edge5" class="edge">
<title>node7&#45;&gt;node15</title>
<path fill="none" stroke="black" d="M110.06,-107.14C113.86,-114.75 117.72,-124.05 120.79,-132.76"/>
<polygon fill="black" stroke="black" points="117.45,-133.8 123.82,-142.25 124.11,-131.66 117.45,-133.8"/>
</g>
<!-- node15&#45;&gt;node1 -->
<g id="edge26" class="edge">
<title>node15&#45;&gt;node1</title>
<path fill="none" stroke="black" d="M126.24,-180.45C124.94,-188.1 122.68,-197.26 120.03,-205.77"/>
<polygon fill="black" stroke="black" points="116.81,-204.38 116.88,-214.98 123.43,-206.65 116.81,-204.38"/>
</g>
<!-- node15&#45;&gt;node7 -->
<g id="edge28" class="edge">
<title>node15&#45;&gt;node7</title>
<path fill="none" stroke="black" d="M112.98,-144.76C109.18,-137.13 105.3,-127.79 102.24,-119.06"/>
<polygon fill="black" stroke="black" points="105.58,-118.03 99.21,-109.57 98.91,-120.16 105.58,-118.03"/>
</g>
<!-- node16 -->
<g id="node8" class="node">
<title>node16</title>
<ellipse fill="none" stroke="black" cx="150.04" cy="-18" rx="38.04" ry="18"/>
<text text-anchor="middle" x="150.04" y="-12.95" font-family="Times,serif" font-size="14.00">node16</text>
</g>
<!-- node15&#45;&gt;node16 -->
<g id="edge29" class="edge">
<title>node15&#45;&gt;node16</title>
<path fill="none" stroke="black" d="M122.81,-143.99C124.82,-133.68 128.65,-120.2 131.04,-108 135.01,-87.79 137.55,-64.67 140.32,-47.06"/>
<polygon fill="black" stroke="black" points="143.75,-47.8 142.04,-37.35 136.85,-46.59 143.75,-47.8"/>
</g>
<!-- node5 -->
<g id="node19" class="node">
<title>node5</title>
<ellipse fill="none" stroke="black" cx="238.04" cy="-90" rx="33.44" ry="18"/>
<text text-anchor="middle" x="238.04" y="-84.95" font-family="Times,serif" font-size="14.00">node5</text>
</g>
<!-- node15&#45;&gt;node5 -->
<g id="edge27" class="edge">
<title>node15&#45;&gt;node5</title>
<path fill="none" stroke="black" d="M143.63,-145.98C160.05,-134.97 184.15,-119.98 203.97,-108.44"/>
<polygon fill="black" stroke="black" points="205.63,-111.52 212.56,-103.5 202.15,-105.45 205.63,-111.52"/>
</g>
<!-- node17 -->
<g id="node20" class="node">
<title>node17</title>
<ellipse fill="none" stroke="black" cx="327.04" cy="-90" rx="38.04" ry="18"/>
<text text-anchor="middle" x="327.04" y="-84.95" font-family="Times,serif" font-size="14.00">node17</text>
</g>
<!-- node15&#45;&gt;node17 -->
<g id="edge25" class="edge">
<title>node15&#45;&gt;node17</title>
<path fill="none" stroke="black" d="M152.83,-149.28C182.34,-138.66 229.86,-122.49 271.04,-108 275.16,-106.55 279.48,-105.02 283.82,-103.48"/>
<polygon fill="black" stroke="black" points="284.86,-106.83 293.15,-100.23 282.56,-100.22 284.86,-106.83"/>
</g>
<!-- node16&#45;&gt;node15 -->
<g id="edge6" class="edge">
<title>node16&#45;&gt;node15</title>
<path fill="none" stroke="black" d="M155.67,-36.19C156.61,-54.21 153.9,-83.28 149.04,-108 147.35,-116.64 144.93,-125.93 142.11,-134.28"/>
<polygon fill="black" stroke="black" points="138.88,-132.92 138.58,-143.52 145.42,-135.42 138.88,-132.92"/>
</g>
<!-- node13&#45;&gt;node1 -->
<g id="edge9" class="edge">
<title>node13&#45;&gt;node1</title>
<path fill="none" stroke="black" d="M269.84,-174.88C237.09,-187.62 182.16,-207.77 144.95,-220.68"/>
<polygon fill="black" stroke="black" points="144.24,-217.22 135.92,-223.78 146.52,-223.84 144.24,-217.22"/>
</g>
<!-- node2 -->
<g id="node10" class="node">
<title>node2</title>
<ellipse fill="none" stroke="black" cx="301.04" cy="-18" rx="33.44" ry="18"/>
<text text-anchor="middle" x="301.04" y="-12.95" font-family="Times,serif" font-size="14.00">node2</text>
</g>
<!-- node13&#45;&gt;node2 -->
<g id="edge7" class="edge">
<title>node13&#45;&gt;node2</title>
<path fill="none" stroke="black" d="M321.16,-147.88C336.73,-139.22 355.53,-126.1 365.04,-108 372.49,-93.84 372.31,-86.25 365.04,-72 357.79,-57.77 344.73,-46.46 332.21,-38.01"/>
<polygon fill="black" stroke="black" points="334.45,-35.29 324.12,-32.91 330.71,-41.21 334.45,-35.29"/>
</g>
<!-- node3 -->
<g id="node11" class="node">
<title>node3</title>
<ellipse fill="none" stroke="black" cx="472.04" cy="-90" rx="33.44" ry="18"/>
<text text-anchor="middle" x="472.04" y="-84.95" font-family="Times,serif" font-size="14.00">node3</text>
</g>
<!-- node13&#45;&gt;node3 -->
<g id="edge8" class="edge">
<title>node13&#45;&gt;node3</title>
<path fill="none" stroke="black" d="M323.02,-148.49C352.36,-135.99 400.12,-116.88 433.72,-104.16"/>
<polygon fill="black" stroke="black" points="434.54,-107.6 442.68,-100.81 432.08,-101.04 434.54,-107.6"/>
</g>
<!-- node2&#45;&gt;node13 -->
<g id="edge10" class="edge">
<title>node2&#45;&gt;node13</title>
<path fill="none" stroke="black" d="M329.55,-27.8C348.84,-36.28 372.3,-50.93 383.04,-72 390.31,-86.25 390.49,-93.84 383.04,-108 373.83,-125.53 355.9,-138.39 338.68,-147.05"/>
<polygon fill="black" stroke="black" points="337.68,-143.66 330.07,-151.03 340.62,-150.01 337.68,-143.66"/>
</g>
<!-- node3&#45;&gt;node13 -->
<g id="edge17" class="edge">
<title>node3&#45;&gt;node13</title>
<path fill="none" stroke="black" d="M447.68,-102.83C419.23,-114.98 372.04,-133.91 337.98,-146.85"/>
<polygon fill="black" stroke="black" points="336.96,-143.49 328.84,-150.29 339.43,-150.04 336.96,-143.49"/>
</g>
<!-- node12 -->
<g id="node17" class="node">
<title>node12</title>
<ellipse fill="none" stroke="black" cx="421.04" cy="-18" rx="38.04" ry="18"/>
<text text-anchor="middle" x="421.04" y="-12.95" font-family="Times,serif" font-size="14.00">node12</text>
</g>
<!-- node3&#45;&gt;node12 -->
<g id="edge16" class="edge">
<title>node3&#45;&gt;node12</title>
<path fill="none" stroke="black" d="M455.59,-74.15C448.52,-65.87 440.51,-55.31 433.88,-45.65"/>
<polygon fill="black" stroke="black" points="436.82,-43.74 428.4,-37.3 430.97,-47.58 436.82,-43.74"/>
</g>
<!-- node6 -->
<g id="node12" class="node">
<title>node6</title>
<ellipse fill="none" stroke="black" cx="526.04" cy="-18" rx="33.44" ry="18"/>
<text text-anchor="middle" x="526.04" y="-12.95" font-family="Times,serif" font-size="14.00">node6</text>
</g>
<!-- node6&#45;&gt;node18 -->
<g id="edge12" class="edge">
<title>node6&#45;&gt;node18</title>
<path fill="none" stroke="black" d="M534.04,-35.69C537.43,-54.58 536.4,-85.65 523.04,-108 513.49,-123.99 497.06,-136.57 481.29,-145.44"/>
<polygon fill="black" stroke="black" points="479.71,-142.32 472.45,-150.05 482.94,-148.53 479.71,-142.32"/>
</g>
<!-- node18&#45;&gt;node1 -->
<g id="edge23" class="edge">
<title>node18&#45;&gt;node1</title>
<path fill="none" stroke="black" d="M407.38,-170.97C345.86,-184.46 215.84,-211.63 148.42,-225.08"/>
<polygon fill="black" stroke="black" points="147.98,-221.6 138.86,-226.98 149.35,-228.46 147.98,-221.6"/>
</g>
<!-- node18&#45;&gt;node6 -->
<g id="edge24" class="edge">
<title>node18&#45;&gt;node6</title>
<path fill="none" stroke="black" d="M462.64,-146.99C477.08,-138.05 494.93,-124.94 505.04,-108 515.93,-89.77 518.63,-65.75 520.13,-47.26"/>
<polygon fill="black" stroke="black" points="523.6,-47.78 520.89,-37.54 516.62,-47.23 523.6,-47.78"/>
</g>
<!-- node19&#45;&gt;node1 -->
<g id="edge13" class="edge">
<title>node19&#45;&gt;node1</title>
<path fill="none" stroke="black" d="M529.26,-173.02C519.05,-175.5 507.65,-178.02 497.04,-180 372.26,-203.34 222.77,-221.18 149.96,-228.86"/>
<polygon fill="black" stroke="black" points="150.04,-225.34 140.46,-229.85 150.77,-232.3 150.04,-225.34"/>
</g>
<!-- node8 -->
<g id="node15" class="node">
<title>node8</title>
<ellipse fill="none" stroke="black" cx="612.04" cy="-90" rx="33.44" ry="18"/>
<text text-anchor="middle" x="612.04" y="-84.95" font-family="Times,serif" font-size="14.00">node8</text>
</g>
<!-- node19&#45;&gt;node8 -->
<g id="edge14" class="edge">
<title>node19&#45;&gt;node8</title>
<path fill="none" stroke="black" d="M566.75,-144.05C572.38,-135.22 580.32,-124.28 588.07,-114.63"/>
<polygon fill="black" stroke="black" points="590.67,-116.98 594.38,-107.05 585.29,-112.5 590.67,-116.98"/>
</g>
<!-- node11 -->
<g id="node16" class="node">
<title>node11</title>
<ellipse fill="none" stroke="black" cx="701.04" cy="-90" rx="38.04" ry="18"/>
<text text-anchor="middle" x="701.04" y="-84.95" font-family="Times,serif" font-size="14.00">node11</text>
</g>
<!-- node19&#45;&gt;node11 -->
<g id="edge15" class="edge">
<title>node19&#45;&gt;node11</title>
<path fill="none" stroke="black" d="M582.4,-147.17C603.98,-135.68 636.83,-119.33 662.57,-107.22"/>
<polygon fill="black" stroke="black" points="663.79,-110.51 671.38,-103.12 660.84,-104.17 663.79,-110.51"/>
</g>
<!-- node8&#45;&gt;node19 -->
<g id="edge37" class="edge">
<title>node8&#45;&gt;node19</title>
<path fill="none" stroke="black" d="M605.32,-107.96C599.81,-116.62 592.06,-127.31 584.46,-136.82"/>
<polygon fill="black" stroke="black" points="581.95,-134.36 578.27,-144.3 587.34,-138.83 581.95,-134.36"/>
</g>
<!-- node11&#45;&gt;node19 -->
<g id="edge22" class="edge">
<title>node11&#45;&gt;node19</title>
<path fill="none" stroke="black" d="M678.74,-104.8C657.11,-116.32 624.13,-132.74 598.35,-144.86"/>
<polygon fill="black" stroke="black" points="597.12,-141.57 589.53,-148.96 600.07,-147.92 597.12,-141.57"/>
</g>
<!-- node12&#45;&gt;node3 -->
<g id="edge20" class="edge">
<title>node12&#45;&gt;node3</title>
<path fill="none" stroke="black" d="M437.93,-34.36C444.95,-42.62 452.84,-53.06 459.36,-62.58"/>
<polygon fill="black" stroke="black" points="456.34,-64.35 464.75,-70.79 462.19,-60.51 456.34,-64.35"/>
</g>
<!-- node14&#45;&gt;node9 -->
<g id="edge38" class="edge">
<title>node14&#45;&gt;node9</title>
<path fill="none" stroke="black" d="M809.56,-35.63C815.58,-54.19 818.76,-84.7 808.04,-108 787.5,-152.67 768.24,-158.45 724.04,-180 649.98,-216.12 552.68,-227.63 496.66,-231.29"/>
<polygon fill="black" stroke="black" points="496.64,-227.79 486.87,-231.87 497.05,-234.77 496.64,-227.79"/>
</g>
<!-- node5&#45;&gt;node15 -->
<g id="edge21" class="edge">
<title>node5&#45;&gt;node15</title>
<path fill="none" stroke="black" d="M220.2,-105.52C204.22,-116.27 180.58,-131.01 160.79,-142.59"/>
<polygon fill="black" stroke="black" points="159.07,-139.54 152.16,-147.57 162.57,-145.6 159.07,-139.54"/>
</g>
<!-- node17&#45;&gt;node15 -->
<g id="edge36" class="edge">
<title>node17&#45;&gt;node15</title>
<path fill="none" stroke="black" d="M301.35,-103.6C297.25,-105.1 293.06,-106.59 289.04,-108 248.43,-122.29 201.65,-138.21 168.33,-148.84"/>
<polygon fill="black" stroke="black" points="167.51,-145.43 159.02,-151.78 169.61,-152.11 167.51,-145.43"/>
</g>
</g>
</svg>
