<?xml version="1.0" encoding="UTF-8" standalone="no"?>
<!DOCTYPE svg PUBLIC "-//W3C//DTD SVG 1.1//EN"
 "http://www.w3.org/Graphics/SVG/1.1/DTD/svg11.dtd">
<!-- Generated by graphviz version 12.2.1 (20241206.2353)
 -->
<!-- Pages: 1 -->
<svg width="537pt" height="404pt"
 viewBox="0.00 0.00 537.48 404.00" xmlns="http://www.w3.org/2000/svg" xmlns:xlink="http://www.w3.org/1999/xlink">
<g id="graph0" class="graph" transform="scale(1 1) rotate(0) translate(4 400)">
<polygon fill="white" stroke="none" points="-4,4 -4,-400 533.48,-400 533.48,4 -4,4"/>
<!-- node10 -->
<g id="node1" class="node">
<title>node10</title>
<ellipse fill="none" stroke="black" cx="127.04" cy="-378" rx="38.04" ry="18"/>
<text text-anchor="middle" x="127.04" y="-372.95" font-family="Times,serif" font-size="14.00">node10</text>
</g>
<!-- node18 -->
<g id="node2" class="node">
<title>node18</title>
<ellipse fill="none" stroke="black" cx="127.04" cy="-306" rx="38.04" ry="18"/>
<text text-anchor="middle" x="127.04" y="-300.95" font-family="Times,serif" font-size="14.00">node18</text>
</g>
<!-- node10&#45;&gt;node18 -->
<g id="edge1" class="edge">
<title>node10&#45;&gt;node18</title>
<path fill="none" stroke="black" d="M121.17,-360.05C120.38,-352.68 120.13,-343.84 120.4,-335.51"/>
<polygon fill="black" stroke="black" points="123.87,-335.99 121.03,-325.79 116.89,-335.54 123.87,-335.99"/>
</g>
<!-- node18&#45;&gt;node10 -->
<g id="edge6" class="edge">
<title>node18&#45;&gt;node10</title>
<path fill="none" stroke="black" d="M132.96,-324.28C133.71,-331.6 133.96,-340.34 133.69,-348.57"/>
<polygon fill="black" stroke="black" points="130.2,-348.33 133.02,-358.54 137.18,-348.8 130.2,-348.33"/>
</g>
<!-- node1 -->
<g id="node4" class="node">
<title>node1</title>
<ellipse fill="none" stroke="black" cx="85.04" cy="-234" rx="33.44" ry="18"/>
<text text-anchor="middle" x="85.04" y="-228.95" font-family="Times,serif" font-size="14.00">node1</text>
</g>
<!-- node18&#45;&gt;node1 -->
<g id="edge4" class="edge">
<title>node18&#45;&gt;node1</title>
<path fill="none" stroke="black" d="M111.75,-289.12C106.11,-281.23 99.98,-271.48 94.9,-262.43"/>
<polygon fill="black" stroke="black" points="98,-260.82 90.22,-253.63 91.82,-264.1 98,-260.82"/>
</g>
<!-- node3 -->
<g id="node8" class="node">
<title>node3</title>
<ellipse fill="none" stroke="black" cx="275.04" cy="-234" rx="33.44" ry="18"/>
<text text-anchor="middle" x="275.04" y="-228.95" font-family="Times,serif" font-size="14.00">node3</text>
</g>
<!-- node18&#45;&gt;node3 -->
<g id="edge5" class="edge">
<title>node18&#45;&gt;node3</title>
<path fill="none" stroke="black" d="M150.45,-291.34C174.06,-279.39 210.59,-262.09 238.08,-249.82"/>
<polygon fill="black" stroke="black" points="239.38,-253.07 247.11,-245.83 236.55,-246.67 239.38,-253.07"/>
</g>
<!-- node9 -->
<g id="node9" class="node">
<title>node9</title>
<ellipse fill="none" stroke="black" cx="496.04" cy="-18" rx="33.44" ry="18"/>
<text text-anchor="middle" x="496.04" y="-12.95" font-family="Times,serif" font-size="14.00">node9</text>
</g>
<!-- node18&#45;&gt;node9 -->
<g id="edge7" class="edge">
<title>node18&#45;&gt;node9</title>
<path fill="none" stroke="black" d="M163.46,-299.94C225.99,-289.69 352.94,-260.17 420.04,-180 453.56,-139.95 472.33,-80.77 483.76,-46.43"/>
<polygon fill="black" stroke="black" points="486.98,-47.83 486.88,-37.23 480.36,-45.58 486.98,-47.83"/>
</g>
<!-- node19 -->
<g id="node3" class="node">
<title>node19</title>
<ellipse fill="none" stroke="black" cx="38.04" cy="-162" rx="38.04" ry="18"/>
<text text-anchor="middle" x="38.04" y="-156.95" font-family="Times,serif" font-size="14.00">node19</text>
</g>
<!-- node19&#45;&gt;node1 -->
<g id="edge2" class="edge">
<title>node19&#45;&gt;node1</title>
<path fill="none" stroke="black" d="M54.05,-178.36C60.53,-186.54 67.74,-196.84 73.68,-206.28"/>
<polygon fill="black" stroke="black" points="70.62,-207.98 78.77,-214.76 76.63,-204.38 70.62,-207.98"/>
</g>
<!-- node17 -->
<g id="node5" class="node">
<title>node17</title>
<ellipse fill="none" stroke="black" cx="62.04" cy="-18" rx="38.04" ry="18"/>
<text text-anchor="middle" x="62.04" y="-12.95" font-family="Times,serif" font-size="14.00">node17</text>
</g>
<!-- node19&#45;&gt;node17 -->
<g id="edge3" class="edge">
<title>node19&#45;&gt;node17</title>
<path fill="none" stroke="black" d="M36.37,-143.59C37.93,-119.5 45.03,-75.75 51.8,-47.03"/>
<polygon fill="black" stroke="black" points="55.14,-48.13 54.2,-37.58 48.35,-46.41 55.14,-48.13"/>
</g>
<!-- node1&#45;&gt;node18 -->
<g id="edge13" class="edge">
<title>node1&#45;&gt;node18</title>
<path fill="none" stroke="black" d="M99.85,-250.2C105.63,-258.22 112,-268.31 117.23,-277.64"/>
<polygon fill="black" stroke="black" points="114.08,-279.17 121.87,-286.36 120.27,-275.89 114.08,-279.17"/>
</g>
<!-- node1&#45;&gt;node19 -->
<g id="edge14" class="edge">
<title>node1&#45;&gt;node19</title>
<path fill="none" stroke="black" d="M69.17,-217.81C62.7,-209.66 55.49,-199.37 49.53,-189.92"/>
<polygon fill="black" stroke="black" points="52.58,-188.19 44.43,-181.42 46.58,-191.8 52.58,-188.19"/>
</g>
<!-- node14 -->
<g id="node11" class="node">
<title>node14</title>
<ellipse fill="none" stroke="black" cx="146.04" cy="-162" rx="38.04" ry="18"/>
<text text-anchor="middle" x="146.04" y="-156.95" font-family="Times,serif" font-size="14.00">node14</text>
</g>
<!-- node1&#45;&gt;node14 -->
<g id="edge12" class="edge">
<title>node1&#45;&gt;node14</title>
<path fill="none" stroke="black" d="M93.66,-216.41C100.53,-207.41 110.17,-196.13 119.38,-186.26"/>
<polygon fill="black" stroke="black" points="121.82,-188.76 126.23,-179.13 116.78,-183.91 121.82,-188.76"/>
</g>
<!-- node20 -->
<g id="node15" class="node">
<title>node20</title>
<ellipse fill="none" stroke="black" cx="247.04" cy="-162" rx="38.04" ry="18"/>
<text text-anchor="middle" x="247.04" y="-156.95" font-family="Times,serif" font-size="14.00">node20</text>
</g>
<!-- node1&#45;&gt;node20 -->
<g id="edge10" class="edge">
<title>node1&#45;&gt;node20</title>
<path fill="none" stroke="black" d="M108.34,-220.65C134.15,-208.71 175.91,-190.61 206.95,-177.89"/>
<polygon fill="black" stroke="black" points="208.09,-181.2 216.04,-174.2 205.46,-174.72 208.09,-181.2"/>
</g>
<!-- node12 -->
<g id="node16" class="node">
<title>node12</title>
<ellipse fill="none" stroke="black" cx="345.04" cy="-162" rx="38.04" ry="18"/>
<text text-anchor="middle" x="345.04" y="-156.95" font-family="Times,serif" font-size="14.00">node12</text>
</g>
<!-- node1&#45;&gt;node12 -->
<g id="edge11" class="edge">
<title>node1&#45;&gt;node12</title>
<path fill="none" stroke="black" d="M114.3,-224.79C153.54,-214.98 224.69,-197.68 285.04,-180 290.39,-178.43 296.02,-176.67 301.62,-174.89"/>
<polygon fill="black" stroke="black" points="302.37,-178.33 310.84,-171.95 300.25,-171.66 302.37,-178.33"/>
</g>
<!-- node17&#45;&gt;node19 -->
<g id="edge20" class="edge">
<title>node17&#45;&gt;node19</title>
<path fill="none" stroke="black" d="M63.73,-36.19C62.2,-60.21 55.09,-104.11 48.3,-132.91"/>
<polygon fill="black" stroke="black" points="44.96,-131.85 45.9,-142.4 51.74,-133.57 44.96,-131.85"/>
</g>
<!-- node2 -->
<g id="node6" class="node">
<title>node2</title>
<ellipse fill="none" stroke="black" cx="216.04" cy="-378" rx="33.44" ry="18"/>
<text text-anchor="middle" x="216.04" y="-372.95" font-family="Times,serif" font-size="14.00">node2</text>
</g>
<!-- node4 -->
<g id="node7" class="node">
<title>node4</title>
<ellipse fill="none" stroke="black" cx="301.04" cy="-378" rx="33.44" ry="18"/>
<text text-anchor="middle" x="301.04" y="-372.95" font-family="Times,serif" font-size="14.00">node4</text>
</g>
<!-- node3&#45;&gt;node18 -->
<g id="edge18" class="edge">
<title>node3&#45;&gt;node18</title>
<path fill="none" stroke="black" d="M253.06,-247.94C230.01,-259.65 193.62,-276.92 165.79,-289.39"/>
<polygon fill="black" stroke="black" points="164.69,-286.04 156.97,-293.29 167.53,-292.44 164.69,-286.04"/>
</g>
<!-- node15 -->
<g id="node17" class="node">
<title>node15</title>
<ellipse fill="none" stroke="black" cx="396.04" cy="-18" rx="38.04" ry="18"/>
<text text-anchor="middle" x="396.04" y="-12.95" font-family="Times,serif" font-size="14.00">node15</text>
</g>
<!-- node3&#45;&gt;node15 -->
<g id="edge17" class="edge">
<title>node3&#45;&gt;node15</title>
<path fill="none" stroke="black" d="M303.58,-224.19C327.53,-216.34 360.94,-202.52 383.04,-180 418.02,-144.36 425.7,-120.56 414.04,-72 411.96,-63.3 408.19,-54.42 404.47,-46.48"/>
<polygon fill="black" stroke="black" points="407.73,-45.19 400.24,-37.7 401.43,-48.23 407.73,-45.19"/>
</g>
<!-- node9&#45;&gt;node18 -->
<g id="edge15" class="edge">
<title>node9&#45;&gt;node18</title>
<path fill="none" stroke="black" d="M497.72,-36.29C494.19,-67.86 475.16,-135.66 438.04,-180 371.11,-259.96 244.65,-289.54 175.29,-299.86"/>
<polygon fill="black" stroke="black" points="175.17,-296.34 165.75,-301.2 176.14,-303.27 175.17,-296.34"/>
</g>
<!-- node7 -->
<g id="node10" class="node">
<title>node7</title>
<ellipse fill="none" stroke="black" cx="118.04" cy="-90" rx="33.44" ry="18"/>
<text text-anchor="middle" x="118.04" y="-84.95" font-family="Times,serif" font-size="14.00">node7</text>
</g>
<!-- node7&#45;&gt;node14 -->
<g id="edge8" class="edge">
<title>node7&#45;&gt;node14</title>
<path fill="none" stroke="black" d="M130.29,-107.14C134.24,-114.84 138.29,-124.26 141.49,-133.06"/>
<polygon fill="black" stroke="black" points="138.08,-133.88 144.56,-142.26 144.72,-131.67 138.08,-133.88"/>
</g>
<!-- node14&#45;&gt;node1 -->
<g id="edge31" class="edge">
<title>node14&#45;&gt;node1</title>
<path fill="none" stroke="black" d="M137.15,-179.95C130.17,-189.07 120.43,-200.43 111.19,-210.3"/>
<polygon fill="black" stroke="black" points="108.76,-207.78 104.33,-217.41 113.79,-212.64 108.76,-207.78"/>
</g>
<!-- node14&#45;&gt;node7 -->
<g id="edge32" class="edge">
<title>node14&#45;&gt;node7</title>
<path fill="none" stroke="black" d="M133.75,-144.76C129.79,-137.04 125.74,-127.59 122.53,-118.77"/>
<polygon fill="black" stroke="black" points="125.95,-117.95 119.47,-109.56 119.3,-120.15 125.95,-117.95"/>
</g>
<!-- node8 -->
<g id="node19" class="node">
<title>node8</title>
<ellipse fill="none" stroke="black" cx="203.04" cy="-90" rx="33.44" ry="18"/>
<text text-anchor="middle" x="203.04" y="-84.95" font-family="Times,serif" font-size="14.00">node8</text>
</g>
<!-- node14&#45;&gt;node8 -->
<g id="edge30" class="edge">
<title>node14&#45;&gt;node8</title>
<path fill="none" stroke="black" d="M153.96,-144.05C160.37,-135.01 169.37,-123.75 177.99,-113.93"/>
<polygon fill="black" stroke="black" points="180.57,-116.3 184.7,-106.54 175.39,-111.6 180.57,-116.3"/>
</g>
<!-- node6 -->
<g id="node12" class="node">
<title>node6</title>
<ellipse fill="none" stroke="black" cx="386.04" cy="-378" rx="33.44" ry="18"/>
<text text-anchor="middle" x="386.04" y="-372.95" font-family="Times,serif" font-size="14.00">node6</text>
</g>
<!-- node13 -->
<g id="node13" class="node">
<title>node13</title>
<ellipse fill="none" stroke="black" cx="281.04" cy="-18" rx="38.04" ry="18"/>
<text text-anchor="middle" x="281.04" y="-12.95" font-family="Times,serif" font-size="14.00">node13</text>
</g>
<!-- node11 -->
<g id="node14" class="node">
<title>node11</title>
<ellipse fill="none" stroke="black" cx="292.04" cy="-90" rx="38.04" ry="18"/>
<text text-anchor="middle" x="292.04" y="-84.95" font-family="Times,serif" font-size="14.00">node11</text>
</g>
<!-- node13&#45;&gt;node11 -->
<g id="edge9" class="edge">
<title>node13&#45;&gt;node11</title>
<path fill="none" stroke="black" d="M289.5,-35.62C291.47,-43.02 293.14,-51.94 294.19,-60.35"/>
<polygon fill="black" stroke="black" points="290.7,-60.55 295.1,-70.19 297.67,-59.91 290.7,-60.55"/>
</g>
<!-- node11&#45;&gt;node13 -->
<g id="edge21" class="edge">
<title>node11&#45;&gt;node13</title>
<path fill="none" stroke="black" d="M283.5,-72.05C281.56,-64.68 279.92,-55.84 278.88,-47.51"/>
<polygon fill="black" stroke="black" points="282.39,-47.42 277.98,-37.78 275.41,-48.06 282.39,-47.42"/>
</g>
<!-- node11&#45;&gt;node20 -->
<g id="edge22" class="edge">
<title>node11&#45;&gt;node20</title>
<path fill="none" stroke="black" d="M287.02,-107.96C282.47,-116.44 275.97,-126.87 269.46,-136.23"/>
<polygon fill="black" stroke="black" points="266.68,-134.09 263.64,-144.24 272.35,-138.2 266.68,-134.09"/>
</g>
<!-- node20&#45;&gt;node1 -->
<g id="edge26" class="edge">
<title>node20&#45;&gt;node1</title>
<path fill="none" stroke="black" d="M222.11,-176.11C195.51,-188.36 153.34,-206.6 122.72,-219.1"/>
<polygon fill="black" stroke="black" points="121.78,-215.71 113.82,-222.7 124.4,-222.2 121.78,-215.71"/>
</g>
<!-- node20&#45;&gt;node11 -->
<g id="edge27" class="edge">
<title>node20&#45;&gt;node11</title>
<path fill="none" stroke="black" d="M252.25,-143.7C256.79,-135.28 263.2,-125.02 269.62,-115.79"/>
<polygon fill="black" stroke="black" points="272.31,-118.05 275.35,-107.9 266.64,-113.94 272.31,-118.05"/>
</g>
<!-- node12&#45;&gt;node1 -->
<g id="edge24" class="edge">
<title>node12&#45;&gt;node1</title>
<path fill="none" stroke="black" d="M318.39,-175.22C313.32,-176.89 308.06,-178.53 303.04,-180 242.86,-197.63 171.94,-214.89 127.59,-224.7"/>
<polygon fill="black" stroke="black" points="126.87,-221.28 117.84,-226.83 128.36,-228.12 126.87,-221.28"/>
</g>
<!-- node5 -->
<g id="node20" class="node">
<title>node5</title>
<ellipse fill="none" stroke="black" cx="381.04" cy="-90" rx="33.44" ry="18"/>
<text text-anchor="middle" x="381.04" y="-84.95" font-family="Times,serif" font-size="14.00">node5</text>
</g>
<!-- node12&#45;&gt;node5 -->
<g id="edge25" class="edge">
<title>node12&#45;&gt;node5</title>
<path fill="none" stroke="black" d="M348.03,-143.7C351.41,-135.46 356.36,-125.45 361.48,-116.37"/>
<polygon fill="black" stroke="black" points="364.37,-118.36 366.48,-107.97 358.35,-114.78 364.37,-118.36"/>
</g>
<!-- node15&#45;&gt;node3 -->
<g id="edge16" class="edge">
<title>node15&#45;&gt;node3</title>
<path fill="none" stroke="black" d="M413.77,-34.02C421.35,-44.24 428.77,-58.34 432.04,-72 443.7,-120.56 436.02,-144.36 401.04,-180 378.6,-202.87 344.49,-216.77 317.29,-224.55"/>
<polygon fill="black" stroke="black" points="316.71,-221.09 307.95,-227.04 318.51,-227.85 316.71,-221.09"/>
</g>
<!-- node16 -->
<g id="node18" class="node">
<title>node16</title>
<ellipse fill="none" stroke="black" cx="177.04" cy="-18" rx="38.04" ry="18"/>
<text text-anchor="middle" x="177.04" y="-12.95" font-family="Times,serif" font-size="14.00">node16</text>
</g>
<!-- node16&#45;&gt;node8 -->
<g id="edge19" class="edge">
<title>node16&#45;&gt;node8</title>
<path fill="none" stroke="black" d="M188.83,-35.14C192.52,-42.75 196.25,-52.05 199.19,-60.76"/>
<polygon fill="black" stroke="black" points="195.82,-61.71 202.09,-70.25 202.52,-59.66 195.82,-61.71"/>
</g>
<!-- node8&#45;&gt;node14 -->
<g id="edge28" class="edge">
<title>node8&#45;&gt;node14</title>
<path fill="none" stroke="black" d="M195.35,-107.63C189.09,-116.5 180.27,-127.57 171.75,-137.32"/>
<polygon fill="black" stroke="black" points="169.21,-134.92 165.1,-144.69 174.4,-139.61 169.21,-134.92"/>
</g>
<!-- node8&#45;&gt;node16 -->
<g id="edge29" class="edge">
<title>node8&#45;&gt;node16</title>
<path fill="none" stroke="black" d="M191.21,-72.76C187.52,-65.13 183.78,-55.79 180.84,-47.06"/>
<polygon fill="black" stroke="black" points="184.21,-46.12 177.95,-37.57 177.51,-48.16 184.21,-46.12"/>
</g>
<!-- node5&#45;&gt;node12 -->
<g id="edge23" class="edge">
<title>node5&#45;&gt;node12</title>
<path fill="none" stroke="black" d="M378.07,-108.29C374.7,-116.48 369.79,-126.42 364.71,-135.45"/>
<polygon fill="black" stroke="black" points="361.84,-133.43 359.75,-143.81 367.86,-137 361.84,-133.43"/>
</g>
</g>
</svg>
