<?xml version="1.0" encoding="UTF-8" standalone="no"?>
<!DOCTYPE svg PUBLIC "-//W3C//DTD SVG 1.1//EN"
 "http://www.w3.org/Graphics/SVG/1.1/DTD/svg11.dtd">
<!-- Generated by graphviz version 12.2.1 (20241206.2353)
 -->
<!-- Pages: 1 -->
<svg width="552pt" height="404pt"
 viewBox="0.00 0.00 552.09 404.00" xmlns="http://www.w3.org/2000/svg" xmlns:xlink="http://www.w3.org/1999/xlink">
<g id="graph0" class="graph" transform="scale(1 1) rotate(0) translate(4 400)">
<polygon fill="white" stroke="none" points="-4,4 -4,-400 548.09,-400 548.09,4 -4,4"/>
<!-- node10 -->
<g id="node1" class="node">
<title>node10</title>
<ellipse fill="none" stroke="black" cx="167.04" cy="-378" rx="38.04" ry="18"/>
<text text-anchor="middle" x="167.04" y="-372.95" font-family="Times,serif" font-size="14.00">node10</text>
</g>
<!-- node18 -->
<g id="node2" class="node">
<title>node18</title>
<ellipse fill="none" stroke="black" cx="167.04" cy="-306" rx="38.04" ry="18"/>
<text text-anchor="middle" x="167.04" y="-300.95" font-family="Times,serif" font-size="14.00">node18</text>
</g>
<!-- node10&#45;&gt;node18 -->
<g id="edge1" class="edge">
<title>node10&#45;&gt;node18</title>
<path fill="none" stroke="black" d="M161.17,-360.05C160.38,-352.68 160.13,-343.84 160.4,-335.51"/>
<polygon fill="black" stroke="black" points="163.87,-335.99 161.03,-325.79 156.89,-335.54 163.87,-335.99"/>
</g>
<!-- node18&#45;&gt;node10 -->
<g id="edge4" class="edge">
<title>node18&#45;&gt;node10</title>
<path fill="none" stroke="black" d="M172.96,-324.28C173.71,-331.6 173.96,-340.34 173.69,-348.57"/>
<polygon fill="black" stroke="black" points="170.2,-348.33 173.02,-358.54 177.18,-348.8 170.2,-348.33"/>
</g>
<!-- node1 -->
<g id="node3" class="node">
<title>node1</title>
<ellipse fill="none" stroke="black" cx="125.04" cy="-234" rx="33.44" ry="18"/>
<text text-anchor="middle" x="125.04" y="-228.95" font-family="Times,serif" font-size="14.00">node1</text>
</g>
<!-- node18&#45;&gt;node1 -->
<g id="edge2" class="edge">
<title>node18&#45;&gt;node1</title>
<path fill="none" stroke="black" d="M151.75,-289.12C146.11,-281.23 139.98,-271.48 134.9,-262.43"/>
<polygon fill="black" stroke="black" points="138,-260.82 130.22,-253.63 131.82,-264.1 138,-260.82"/>
</g>
<!-- node3 -->
<g id="node4" class="node">
<title>node3</title>
<ellipse fill="none" stroke="black" cx="322.04" cy="-234" rx="33.44" ry="18"/>
<text text-anchor="middle" x="322.04" y="-228.95" font-family="Times,serif" font-size="14.00">node3</text>
</g>
<!-- node18&#45;&gt;node3 -->
<g id="edge3" class="edge">
<title>node18&#45;&gt;node3</title>
<path fill="none" stroke="black" d="M191.13,-291.67C216.14,-279.6 255.35,-261.88 284.41,-249.47"/>
<polygon fill="black" stroke="black" points="285.76,-252.7 293.61,-245.59 283.04,-246.25 285.76,-252.7"/>
</g>
<!-- node9 -->
<g id="node5" class="node">
<title>node9</title>
<ellipse fill="none" stroke="black" cx="407.04" cy="-234" rx="33.44" ry="18"/>
<text text-anchor="middle" x="407.04" y="-228.95" font-family="Times,serif" font-size="14.00">node9</text>
</g>
<!-- node18&#45;&gt;node9 -->
<g id="edge5" class="edge">
<title>node18&#45;&gt;node9</title>
<path fill="none" stroke="black" d="M199.17,-295.92C236.95,-286.26 300.91,-269.92 355.04,-252 359.13,-250.65 363.39,-249.12 367.65,-247.54"/>
<polygon fill="black" stroke="black" points="368.61,-250.92 376.75,-244.14 366.15,-244.36 368.61,-250.92"/>
</g>
<!-- node1&#45;&gt;node18 -->
<g id="edge30" class="edge">
<title>node1&#45;&gt;node18</title>
<path fill="none" stroke="black" d="M139.85,-250.2C145.63,-258.22 152,-268.31 157.23,-277.64"/>
<polygon fill="black" stroke="black" points="154.08,-279.17 161.87,-286.36 160.27,-275.89 154.08,-279.17"/>
</g>
<!-- node20 -->
<g id="node11" class="node">
<title>node20</title>
<ellipse fill="none" stroke="black" cx="78.04" cy="-162" rx="38.04" ry="18"/>
<text text-anchor="middle" x="78.04" y="-156.95" font-family="Times,serif" font-size="14.00">node20</text>
</g>
<!-- node1&#45;&gt;node20 -->
<g id="edge27" class="edge">
<title>node1&#45;&gt;node20</title>
<path fill="none" stroke="black" d="M109.17,-217.81C102.7,-209.66 95.49,-199.37 89.53,-189.92"/>
<polygon fill="black" stroke="black" points="92.58,-188.19 84.43,-181.42 86.58,-191.8 92.58,-188.19"/>
</g>
<!-- node14 -->
<g id="node12" class="node">
<title>node14</title>
<ellipse fill="none" stroke="black" cx="192.04" cy="-162" rx="38.04" ry="18"/>
<text text-anchor="middle" x="192.04" y="-156.95" font-family="Times,serif" font-size="14.00">node14</text>
</g>
<!-- node1&#45;&gt;node14 -->
<g id="edge29" class="edge">
<title>node1&#45;&gt;node14</title>
<path fill="none" stroke="black" d="M135.08,-216.41C142.93,-207.16 153.91,-195.51 164.21,-185.45"/>
<polygon fill="black" stroke="black" points="166.32,-188.28 171.15,-178.85 161.49,-183.2 166.32,-188.28"/>
</g>
<!-- node19 -->
<g id="node14" class="node">
<title>node19</title>
<ellipse fill="none" stroke="black" cx="312.04" cy="-162" rx="38.04" ry="18"/>
<text text-anchor="middle" x="312.04" y="-156.95" font-family="Times,serif" font-size="14.00">node19</text>
</g>
<!-- node1&#45;&gt;node19 -->
<g id="edge31" class="edge">
<title>node1&#45;&gt;node19</title>
<path fill="none" stroke="black" d="M149.97,-221.75C180.89,-209.41 233.71,-189.59 270.69,-176.44"/>
<polygon fill="black" stroke="black" points="271.45,-179.88 279.72,-173.25 269.12,-173.28 271.45,-179.88"/>
</g>
<!-- node12 -->
<g id="node18" class="node">
<title>node12</title>
<ellipse fill="none" stroke="black" cx="419.04" cy="-162" rx="38.04" ry="18"/>
<text text-anchor="middle" x="419.04" y="-156.95" font-family="Times,serif" font-size="14.00">node12</text>
</g>
<!-- node1&#45;&gt;node12 -->
<g id="edge28" class="edge">
<title>node1&#45;&gt;node12</title>
<path fill="none" stroke="black" d="M155.02,-225.42C198.38,-215.63 280.41,-197.74 350.04,-180 357.83,-178.02 366.15,-175.75 374.26,-173.54"/>
<polygon fill="black" stroke="black" points="374.92,-176.99 383.65,-170.98 373.08,-170.23 374.92,-176.99"/>
</g>
<!-- node3&#45;&gt;node18 -->
<g id="edge18" class="edge">
<title>node3&#45;&gt;node18</title>
<path fill="none" stroke="black" d="M299.4,-247.64C275.03,-259.44 236.1,-277.07 206.69,-289.67"/>
<polygon fill="black" stroke="black" points="205.56,-286.35 197.72,-293.47 208.29,-292.79 205.56,-286.35"/>
</g>
<!-- node15 -->
<g id="node16" class="node">
<title>node15</title>
<ellipse fill="none" stroke="black" cx="506.04" cy="-18" rx="38.04" ry="18"/>
<text text-anchor="middle" x="506.04" y="-12.95" font-family="Times,serif" font-size="14.00">node15</text>
</g>
<!-- node3&#45;&gt;node15 -->
<g id="edge17" class="edge">
<title>node3&#45;&gt;node15</title>
<path fill="none" stroke="black" d="M344.53,-220.43C348.36,-218.92 352.29,-217.41 356.04,-216 400.65,-199.24 420.21,-210.24 457.04,-180 485.85,-156.35 490.13,-143.93 500.04,-108 504.3,-92.58 500.5,-87.99 500.04,-72 499.82,-64.05 499.41,-55.43 499.3,-47.5"/>
<polygon fill="black" stroke="black" points="502.8,-47.73 499.42,-37.69 495.8,-47.64 502.8,-47.73"/>
</g>
<!-- node9&#45;&gt;node18 -->
<g id="edge7" class="edge">
<title>node9&#45;&gt;node18</title>
<path fill="none" stroke="black" d="M384.66,-247.86C380.82,-249.32 376.85,-250.74 373.04,-252 318.99,-269.89 255.14,-286.21 212.88,-295.88"/>
<polygon fill="black" stroke="black" points="212.29,-292.43 203.3,-298.04 213.83,-299.25 212.29,-292.43"/>
</g>
<!-- node2 -->
<g id="node6" class="node">
<title>node2</title>
<ellipse fill="none" stroke="black" cx="228.04" cy="-18" rx="33.44" ry="18"/>
<text text-anchor="middle" x="228.04" y="-12.95" font-family="Times,serif" font-size="14.00">node2</text>
</g>
<!-- node7 -->
<g id="node7" class="node">
<title>node7</title>
<ellipse fill="none" stroke="black" cx="224.04" cy="-90" rx="33.44" ry="18"/>
<text text-anchor="middle" x="224.04" y="-84.95" font-family="Times,serif" font-size="14.00">node7</text>
</g>
<!-- node2&#45;&gt;node7 -->
<g id="edge6" class="edge">
<title>node2&#45;&gt;node7</title>
<path fill="none" stroke="black" d="M232.97,-36.28C233.31,-43.69 233.05,-52.54 232.29,-60.86"/>
<polygon fill="black" stroke="black" points="228.84,-60.2 231.08,-70.55 235.79,-61.06 228.84,-60.2"/>
</g>
<!-- node7&#45;&gt;node2 -->
<g id="edge38" class="edge">
<title>node7&#45;&gt;node2</title>
<path fill="none" stroke="black" d="M219.12,-71.7C218.78,-64.32 219.04,-55.52 219.79,-47.25"/>
<polygon fill="black" stroke="black" points="223.23,-47.96 220.99,-37.61 216.28,-47.1 223.23,-47.96"/>
</g>
<!-- node7&#45;&gt;node14 -->
<g id="edge37" class="edge">
<title>node7&#45;&gt;node14</title>
<path fill="none" stroke="black" d="M222.11,-108.12C219.28,-116.15 215.05,-125.89 210.57,-134.82"/>
<polygon fill="black" stroke="black" points="207.59,-132.96 205.98,-143.43 213.77,-136.25 207.59,-132.96"/>
</g>
<!-- node11 -->
<g id="node8" class="node">
<title>node11</title>
<ellipse fill="none" stroke="black" cx="38.04" cy="-90" rx="38.04" ry="18"/>
<text text-anchor="middle" x="38.04" y="-84.95" font-family="Times,serif" font-size="14.00">node11</text>
</g>
<!-- node6 -->
<g id="node9" class="node">
<title>node6</title>
<ellipse fill="none" stroke="black" cx="44.04" cy="-18" rx="33.44" ry="18"/>
<text text-anchor="middle" x="44.04" y="-12.95" font-family="Times,serif" font-size="14.00">node6</text>
</g>
<!-- node11&#45;&gt;node6 -->
<g id="edge8" class="edge">
<title>node11&#45;&gt;node6</title>
<path fill="none" stroke="black" d="M33.61,-71.7C33.48,-64.21 34.01,-55.26 35.03,-46.88"/>
<polygon fill="black" stroke="black" points="38.47,-47.54 36.54,-37.12 31.55,-46.46 38.47,-47.54"/>
</g>
<!-- node13 -->
<g id="node10" class="node">
<title>node13</title>
<ellipse fill="none" stroke="black" cx="137.04" cy="-18" rx="38.04" ry="18"/>
<text text-anchor="middle" x="137.04" y="-12.95" font-family="Times,serif" font-size="14.00">node13</text>
</g>
<!-- node11&#45;&gt;node13 -->
<g id="edge9" class="edge">
<title>node11&#45;&gt;node13</title>
<path fill="none" stroke="black" d="M54.3,-73.46C67.73,-63.09 87,-49.38 103.63,-38.31"/>
<polygon fill="black" stroke="black" points="105.34,-41.38 111.79,-32.97 101.5,-35.52 105.34,-41.38"/>
</g>
<!-- node11&#45;&gt;node20 -->
<g id="edge10" class="edge">
<title>node11&#45;&gt;node20</title>
<path fill="none" stroke="black" d="M52.74,-106.67C58.18,-114.57 64.08,-124.39 68.94,-133.49"/>
<polygon fill="black" stroke="black" points="65.77,-134.99 73.39,-142.34 72.02,-131.84 65.77,-134.99"/>
</g>
<!-- node6&#45;&gt;node11 -->
<g id="edge19" class="edge">
<title>node6&#45;&gt;node11</title>
<path fill="none" stroke="black" d="M48.48,-36.28C48.61,-43.69 48.09,-52.54 47.09,-60.86"/>
<polygon fill="black" stroke="black" points="43.66,-60.14 45.6,-70.56 50.58,-61.2 43.66,-60.14"/>
</g>
<!-- node13&#45;&gt;node11 -->
<g id="edge34" class="edge">
<title>node13&#45;&gt;node11</title>
<path fill="none" stroke="black" d="M120.87,-34.48C107.5,-44.8 88.34,-58.44 71.74,-69.5"/>
<polygon fill="black" stroke="black" points="70.04,-66.43 63.6,-74.84 73.88,-72.29 70.04,-66.43"/>
</g>
<!-- node20&#45;&gt;node1 -->
<g id="edge24" class="edge">
<title>node20&#45;&gt;node1</title>
<path fill="none" stroke="black" d="M94.05,-178.36C100.53,-186.54 107.74,-196.84 113.68,-206.28"/>
<polygon fill="black" stroke="black" points="110.62,-207.98 118.77,-214.76 116.63,-204.38 110.62,-207.98"/>
</g>
<!-- node20&#45;&gt;node11 -->
<g id="edge25" class="edge">
<title>node20&#45;&gt;node11</title>
<path fill="none" stroke="black" d="M63.21,-145.12C57.79,-137.23 51.94,-127.48 47.11,-118.43"/>
<polygon fill="black" stroke="black" points="50.31,-117 42.69,-109.64 44.06,-120.15 50.31,-117"/>
</g>
<!-- node4 -->
<g id="node19" class="node">
<title>node4</title>
<ellipse fill="none" stroke="black" cx="135.04" cy="-90" rx="33.44" ry="18"/>
<text text-anchor="middle" x="135.04" y="-84.95" font-family="Times,serif" font-size="14.00">node4</text>
</g>
<!-- node20&#45;&gt;node4 -->
<g id="edge26" class="edge">
<title>node20&#45;&gt;node4</title>
<path fill="none" stroke="black" d="M85.96,-144.05C92.37,-135.01 101.37,-123.75 109.99,-113.93"/>
<polygon fill="black" stroke="black" points="112.57,-116.3 116.7,-106.54 107.39,-111.6 112.57,-116.3"/>
</g>
<!-- node14&#45;&gt;node1 -->
<g id="edge13" class="edge">
<title>node14&#45;&gt;node1</title>
<path fill="none" stroke="black" d="M181.99,-179.61C174,-189.03 162.75,-200.94 152.29,-211.12"/>
<polygon fill="black" stroke="black" points="150.1,-208.38 145.25,-217.79 154.92,-213.46 150.1,-208.38"/>
</g>
<!-- node14&#45;&gt;node7 -->
<g id="edge11" class="edge">
<title>node14&#45;&gt;node7</title>
<path fill="none" stroke="black" d="M194.04,-143.7C196.92,-135.55 201.24,-125.66 205.78,-116.67"/>
<polygon fill="black" stroke="black" points="208.78,-118.47 210.43,-108 202.62,-115.16 208.78,-118.47"/>
</g>
<!-- node8 -->
<g id="node13" class="node">
<title>node8</title>
<ellipse fill="none" stroke="black" cx="313.04" cy="-90" rx="33.44" ry="18"/>
<text text-anchor="middle" x="313.04" y="-84.95" font-family="Times,serif" font-size="14.00">node8</text>
</g>
<!-- node14&#45;&gt;node8 -->
<g id="edge12" class="edge">
<title>node14&#45;&gt;node8</title>
<path fill="none" stroke="black" d="M211.8,-146.33C229.79,-135.09 256.5,-119.59 278.05,-107.85"/>
<polygon fill="black" stroke="black" points="279.66,-110.96 286.82,-103.14 276.35,-104.79 279.66,-110.96"/>
</g>
<!-- node8&#45;&gt;node14 -->
<g id="edge32" class="edge">
<title>node8&#45;&gt;node14</title>
<path fill="none" stroke="black" d="M294.12,-105.16C276.54,-116.17 250.15,-131.51 228.54,-143.33"/>
<polygon fill="black" stroke="black" points="227.16,-140.1 220.02,-147.93 230.48,-146.26 227.16,-140.1"/>
</g>
<!-- node16 -->
<g id="node20" class="node">
<title>node16</title>
<ellipse fill="none" stroke="black" cx="318.04" cy="-18" rx="38.04" ry="18"/>
<text text-anchor="middle" x="318.04" y="-12.95" font-family="Times,serif" font-size="14.00">node16</text>
</g>
<!-- node8&#45;&gt;node16 -->
<g id="edge33" class="edge">
<title>node8&#45;&gt;node16</title>
<path fill="none" stroke="black" d="M308.36,-71.7C308.13,-64.32 308.52,-55.52 309.39,-47.25"/>
<polygon fill="black" stroke="black" points="312.82,-47.99 310.72,-37.6 305.89,-47.03 312.82,-47.99"/>
</g>
<!-- node19&#45;&gt;node1 -->
<g id="edge14" class="edge">
<title>node19&#45;&gt;node1</title>
<path fill="none" stroke="black" d="M285.04,-175.07C253.2,-187.73 200.34,-207.53 164.08,-220.38"/>
<polygon fill="black" stroke="black" points="163.1,-217.02 154.83,-223.63 165.42,-223.62 163.1,-217.02"/>
</g>
<!-- node17 -->
<g id="node15" class="node">
<title>node17</title>
<ellipse fill="none" stroke="black" cx="412.04" cy="-18" rx="38.04" ry="18"/>
<text text-anchor="middle" x="412.04" y="-12.95" font-family="Times,serif" font-size="14.00">node17</text>
</g>
<!-- node19&#45;&gt;node17 -->
<g id="edge15" class="edge">
<title>node19&#45;&gt;node17</title>
<path fill="none" stroke="black" d="M318.66,-144.2C326.08,-133.96 337.02,-120.49 346.04,-108 361.18,-87.04 376.93,-62.19 389.52,-44.08"/>
<polygon fill="black" stroke="black" points="392.32,-46.19 395.29,-36.02 386.63,-42.11 392.32,-46.19"/>
</g>
<!-- node17&#45;&gt;node19 -->
<g id="edge16" class="edge">
<title>node17&#45;&gt;node19</title>
<path fill="none" stroke="black" d="M408.55,-36.1C399.88,-54.3 381.56,-83.76 364.04,-108 356.68,-118.19 348.04,-129.04 339.8,-138.25"/>
<polygon fill="black" stroke="black" points="337.39,-135.7 333.11,-145.39 342.5,-140.48 337.39,-135.7"/>
</g>
<!-- node15&#45;&gt;node3 -->
<g id="edge21" class="edge">
<title>node15&#45;&gt;node3</title>
<path fill="none" stroke="black" d="M515,-35.7C516.91,-46.13 517.7,-59.84 518.04,-72 518.5,-87.99 522.3,-92.58 518.04,-108 508.13,-143.93 503.85,-156.35 475.04,-180 438.21,-210.24 418.65,-199.24 374.04,-216 370.02,-217.51 365.79,-219.14 361.54,-220.76"/>
<polygon fill="black" stroke="black" points="360.58,-217.39 352.46,-224.19 363.05,-223.93 360.58,-217.39"/>
</g>
<!-- node5 -->
<g id="node17" class="node">
<title>node5</title>
<ellipse fill="none" stroke="black" cx="467.04" cy="-90" rx="33.44" ry="18"/>
<text text-anchor="middle" x="467.04" y="-84.95" font-family="Times,serif" font-size="14.00">node5</text>
</g>
<!-- node5&#45;&gt;node12 -->
<g id="edge20" class="edge">
<title>node5&#45;&gt;node12</title>
<path fill="none" stroke="black" d="M461.29,-107.96C456.32,-116.53 449.28,-127.09 442.3,-136.52"/>
<polygon fill="black" stroke="black" points="439.67,-134.21 436.34,-144.27 445.21,-138.48 439.67,-134.21"/>
</g>
<!-- node12&#45;&gt;node1 -->
<g id="edge22" class="edge">
<title>node12&#45;&gt;node1</title>
<path fill="none" stroke="black" d="M390.18,-174.01C382.98,-176.07 375.28,-178.16 368.04,-180 298.54,-197.7 216.67,-215.57 167.77,-225.37"/>
<polygon fill="black" stroke="black" points="167.29,-221.9 158.16,-227.27 168.65,-228.77 167.29,-221.9"/>
</g>
<!-- node12&#45;&gt;node5 -->
<g id="edge23" class="edge">
<title>node12&#45;&gt;node5</title>
<path fill="none" stroke="black" d="M424.79,-144.05C429.85,-135.32 437.08,-124.51 444.19,-114.93"/>
<polygon fill="black" stroke="black" points="446.91,-117.13 450.27,-107.08 441.38,-112.85 446.91,-117.13"/>
</g>
<!-- node4&#45;&gt;node20 -->
<g id="edge36" class="edge">
<title>node4&#45;&gt;node20</title>
<path fill="none" stroke="black" d="M127.35,-107.63C121.09,-116.5 112.27,-127.57 103.75,-137.32"/>
<polygon fill="black" stroke="black" points="101.21,-134.92 97.1,-144.69 106.4,-139.61 101.21,-134.92"/>
</g>
<!-- node16&#45;&gt;node8 -->
<g id="edge35" class="edge">
<title>node16&#45;&gt;node8</title>
<path fill="none" stroke="black" d="M322.72,-36.28C322.96,-43.69 322.57,-52.54 321.69,-60.86"/>
<polygon fill="black" stroke="black" points="318.25,-60.17 320.34,-70.56 325.18,-61.13 318.25,-60.17"/>
</g>
</g>
</svg>
