<?xml version="1.0" encoding="UTF-8" standalone="no"?>
<!DOCTYPE svg PUBLIC "-//W3C//DTD SVG 1.1//EN"
 "http://www.w3.org/Graphics/SVG/1.1/DTD/svg11.dtd">
<!-- Generated by graphviz version 12.2.1 (20241206.2353)
 -->
<!-- Pages: 1 -->
<svg width="792pt" height="332pt"
 viewBox="0.00 0.00 792.48 332.00" xmlns="http://www.w3.org/2000/svg" xmlns:xlink="http://www.w3.org/1999/xlink">
<g id="graph0" class="graph" transform="scale(1 1) rotate(0) translate(4 328)">
<polygon fill="white" stroke="none" points="-4,4 -4,-328 788.48,-328 788.48,4 -4,4"/>
<!-- node15 -->
<g id="node1" class="node">
<title>node15</title>
<ellipse fill="none" stroke="black" cx="38.04" cy="-306" rx="38.04" ry="18"/>
<text text-anchor="middle" x="38.04" y="-300.95" font-family="Times,serif" font-size="14.00">node15</text>
</g>
<!-- node7 -->
<g id="node2" class="node">
<title>node7</title>
<ellipse fill="none" stroke="black" cx="111.04" cy="-18" rx="33.44" ry="18"/>
<text text-anchor="middle" x="111.04" y="-12.95" font-family="Times,serif" font-size="14.00">node7</text>
</g>
<!-- node15&#45;&gt;node7 -->
<g id="edge1" class="edge">
<title>node15&#45;&gt;node7</title>
<path fill="none" stroke="black" d="M34.07,-287.74C31.82,-248.27 39.79,-148.92 69.04,-72 73.01,-61.58 79.11,-50.99 85.58,-42.03"/>
<polygon fill="black" stroke="black" points="88.28,-44.26 91.72,-34.24 82.78,-39.93 88.28,-44.26"/>
</g>
<!-- node16 -->
<g id="node3" class="node">
<title>node16</title>
<ellipse fill="none" stroke="black" cx="245.04" cy="-18" rx="38.04" ry="18"/>
<text text-anchor="middle" x="245.04" y="-12.95" font-family="Times,serif" font-size="14.00">node16</text>
</g>
<!-- node15&#45;&gt;node16 -->
<g id="edge2" class="edge">
<title>node15&#45;&gt;node16</title>
<path fill="none" stroke="black" d="M43.37,-287.74C58.57,-257.9 98.84,-194.96 136.04,-144 162.72,-107.46 195.91,-66.84 218.86,-42.11"/>
<polygon fill="black" stroke="black" points="221.12,-44.81 225.48,-35.15 216.05,-39.98 221.12,-44.81"/>
</g>
<!-- node17 -->
<g id="node4" class="node">
<title>node17</title>
<ellipse fill="none" stroke="black" cx="160.04" cy="-234" rx="38.04" ry="18"/>
<text text-anchor="middle" x="160.04" y="-228.95" font-family="Times,serif" font-size="14.00">node17</text>
</g>
<!-- node15&#45;&gt;node17 -->
<g id="edge3" class="edge">
<title>node15&#45;&gt;node17</title>
<path fill="none" stroke="black" d="M58.01,-290.33C75.82,-279.3 102.11,-264.16 123.6,-252.5"/>
<polygon fill="black" stroke="black" points="125.21,-255.61 132.38,-247.81 121.91,-249.44 125.21,-255.61"/>
</g>
<!-- node1 -->
<g id="node5" class="node">
<title>node1</title>
<ellipse fill="none" stroke="black" cx="253.04" cy="-234" rx="33.44" ry="18"/>
<text text-anchor="middle" x="253.04" y="-228.95" font-family="Times,serif" font-size="14.00">node1</text>
</g>
<!-- node15&#45;&gt;node1 -->
<g id="edge4" class="edge">
<title>node15&#45;&gt;node1</title>
<path fill="none" stroke="black" d="M67.52,-294.15C99.82,-283.79 152.65,-267.5 198.04,-252 202.8,-250.38 207.8,-248.6 212.8,-246.83"/>
<polygon fill="black" stroke="black" points="213.93,-250.14 222.2,-243.51 211.6,-243.54 213.93,-250.14"/>
</g>
<!-- node5 -->
<g id="node6" class="node">
<title>node5</title>
<ellipse fill="none" stroke="black" cx="338.04" cy="-234" rx="33.44" ry="18"/>
<text text-anchor="middle" x="338.04" y="-228.95" font-family="Times,serif" font-size="14.00">node5</text>
</g>
<!-- node15&#45;&gt;node5 -->
<g id="edge5" class="edge">
<title>node15&#45;&gt;node5</title>
<path fill="none" stroke="black" d="M73.22,-298.72C121.8,-290.44 211.39,-274.27 286.04,-252 290.25,-250.74 294.62,-249.25 298.99,-247.68"/>
<polygon fill="black" stroke="black" points="300.14,-250.98 308.29,-244.22 297.7,-244.42 300.14,-250.98"/>
</g>
<!-- node7&#45;&gt;node15 -->
<g id="edge38" class="edge">
<title>node7&#45;&gt;node15</title>
<path fill="none" stroke="black" d="M105.84,-36.25C99.97,-46.2 91.9,-59.23 87.04,-72 60.25,-142.46 51.31,-231.74 45.08,-276.58"/>
<polygon fill="black" stroke="black" points="41.65,-275.84 43.64,-286.24 48.57,-276.87 41.65,-275.84"/>
</g>
<!-- node16&#45;&gt;node15 -->
<g id="edge10" class="edge">
<title>node16&#45;&gt;node15</title>
<path fill="none" stroke="black" d="M236.67,-36.01C219.75,-59.72 183.05,-104.27 154.04,-144 119.79,-190.92 82.94,-247.99 59.88,-280.04"/>
<polygon fill="black" stroke="black" points="57.19,-277.8 54.08,-287.93 62.83,-281.94 57.19,-277.8"/>
</g>
<!-- node17&#45;&gt;node15 -->
<g id="edge20" class="edge">
<title>node17&#45;&gt;node15</title>
<path fill="none" stroke="black" d="M140.01,-249.72C122.24,-260.71 96.09,-275.78 74.65,-287.41"/>
<polygon fill="black" stroke="black" points="73.06,-284.29 65.9,-292.09 76.36,-290.46 73.06,-284.29"/>
</g>
<!-- node1&#45;&gt;node15 -->
<g id="edge36" class="edge">
<title>node1&#45;&gt;node15</title>
<path fill="none" stroke="black" d="M229.85,-247.1C225.3,-248.78 220.56,-250.46 216.04,-252 170.95,-267.39 118.52,-283.57 82.17,-293.94"/>
<polygon fill="black" stroke="black" points="81.56,-290.48 72.88,-296.56 83.46,-297.22 81.56,-290.48"/>
</g>
<!-- node20 -->
<g id="node8" class="node">
<title>node20</title>
<ellipse fill="none" stroke="black" cx="192.04" cy="-162" rx="38.04" ry="18"/>
<text text-anchor="middle" x="192.04" y="-156.95" font-family="Times,serif" font-size="14.00">node20</text>
</g>
<!-- node1&#45;&gt;node20 -->
<g id="edge34" class="edge">
<title>node1&#45;&gt;node20</title>
<path fill="none" stroke="black" d="M234.81,-218.5C226.23,-209.91 216.22,-198.79 207.95,-188.75"/>
<polygon fill="black" stroke="black" points="210.85,-186.77 201.88,-181.13 205.37,-191.14 210.85,-186.77"/>
</g>
<!-- node18 -->
<g id="node13" class="node">
<title>node18</title>
<ellipse fill="none" stroke="black" cx="333.04" cy="-162" rx="38.04" ry="18"/>
<text text-anchor="middle" x="333.04" y="-156.95" font-family="Times,serif" font-size="14.00">node18</text>
</g>
<!-- node1&#45;&gt;node18 -->
<g id="edge32" class="edge">
<title>node1&#45;&gt;node18</title>
<path fill="none" stroke="black" d="M265.44,-217.12C275.47,-207.35 289.74,-194.72 302.66,-184.11"/>
<polygon fill="black" stroke="black" points="304.53,-187.1 310.14,-178.11 300.15,-181.64 304.53,-187.1"/>
</g>
<!-- node19 -->
<g id="node15" class="node">
<title>node19</title>
<ellipse fill="none" stroke="black" cx="450.04" cy="-162" rx="38.04" ry="18"/>
<text text-anchor="middle" x="450.04" y="-156.95" font-family="Times,serif" font-size="14.00">node19</text>
</g>
<!-- node1&#45;&gt;node19 -->
<g id="edge33" class="edge">
<title>node1&#45;&gt;node19</title>
<path fill="none" stroke="black" d="M275.52,-220.39C279.34,-218.89 283.28,-217.39 287.04,-216 327.08,-201.21 373.44,-185.43 406.59,-174.98"/>
<polygon fill="black" stroke="black" points="407.35,-178.41 415.86,-172.1 405.27,-171.72 407.35,-178.41"/>
</g>
<!-- node13 -->
<g id="node18" class="node">
<title>node13</title>
<ellipse fill="none" stroke="black" cx="579.04" cy="-162" rx="38.04" ry="18"/>
<text text-anchor="middle" x="579.04" y="-156.95" font-family="Times,serif" font-size="14.00">node13</text>
</g>
<!-- node1&#45;&gt;node13 -->
<g id="edge35" class="edge">
<title>node1&#45;&gt;node13</title>
<path fill="none" stroke="black" d="M274.87,-219.99C278.87,-218.52 283.03,-217.14 287.04,-216 374.34,-191.19 398.94,-197.21 488.04,-180 502.35,-177.24 518.02,-174.03 532.34,-171.15"/>
<polygon fill="black" stroke="black" points="532.87,-174.62 541.99,-169.23 531.5,-167.75 532.87,-174.62"/>
</g>
<!-- node5&#45;&gt;node15 -->
<g id="edge18" class="edge">
<title>node5&#45;&gt;node15</title>
<path fill="none" stroke="black" d="M316.19,-247.91C312.19,-249.4 308.04,-250.81 304.04,-252 229.41,-274.27 139.85,-290.43 85.9,-298.71"/>
<polygon fill="black" stroke="black" points="85.48,-295.23 76.11,-300.18 86.52,-302.16 85.48,-295.23"/>
</g>
<!-- node10 -->
<g id="node7" class="node">
<title>node10</title>
<ellipse fill="none" stroke="black" cx="361.04" cy="-18" rx="38.04" ry="18"/>
<text text-anchor="middle" x="361.04" y="-12.95" font-family="Times,serif" font-size="14.00">node10</text>
</g>
<!-- node10&#45;&gt;node20 -->
<g id="edge6" class="edge">
<title>node10&#45;&gt;node20</title>
<path fill="none" stroke="black" d="M332.01,-29.91C300.15,-40.88 252.1,-58.12 238.04,-72 221.13,-88.71 211.59,-114.3 204.91,-133.75"/>
<polygon fill="black" stroke="black" points="201.69,-132.36 201.77,-142.95 208.31,-134.62 201.69,-132.36"/>
</g>
<!-- node20&#45;&gt;node1 -->
<g id="edge28" class="edge">
<title>node20&#45;&gt;node1</title>
<path fill="none" stroke="black" d="M210.81,-178.04C219.4,-186.68 229.34,-197.76 237.51,-207.7"/>
<polygon fill="black" stroke="black" points="234.53,-209.57 243.49,-215.23 240.01,-205.22 234.53,-209.57"/>
</g>
<!-- node20&#45;&gt;node10 -->
<g id="edge27" class="edge">
<title>node20&#45;&gt;node10</title>
<path fill="none" stroke="black" d="M188.61,-143.68C190.36,-123.91 200.05,-91.76 220.04,-72 233.9,-58.32 280.77,-41.38 316.83,-30.39"/>
<polygon fill="black" stroke="black" points="317.58,-33.82 326.17,-27.61 315.59,-27.11 317.58,-33.82"/>
</g>
<!-- node9 -->
<g id="node9" class="node">
<title>node9</title>
<ellipse fill="none" stroke="black" cx="271.04" cy="-90" rx="33.44" ry="18"/>
<text text-anchor="middle" x="271.04" y="-84.95" font-family="Times,serif" font-size="14.00">node9</text>
</g>
<!-- node20&#45;&gt;node9 -->
<g id="edge26" class="edge">
<title>node20&#45;&gt;node9</title>
<path fill="none" stroke="black" d="M204.57,-144.76C214.54,-134.95 228.63,-122.34 241.34,-111.8"/>
<polygon fill="black" stroke="black" points="243.53,-114.53 249.1,-105.51 239.13,-109.09 243.53,-114.53"/>
</g>
<!-- node4 -->
<g id="node20" class="node">
<title>node4</title>
<ellipse fill="none" stroke="black" cx="356.04" cy="-90" rx="33.44" ry="18"/>
<text text-anchor="middle" x="356.04" y="-84.95" font-family="Times,serif" font-size="14.00">node4</text>
</g>
<!-- node20&#45;&gt;node4 -->
<g id="edge25" class="edge">
<title>node20&#45;&gt;node4</title>
<path fill="none" stroke="black" d="M217.12,-148C244.1,-135.72 287.03,-117.38 318.11,-104.84"/>
<polygon fill="black" stroke="black" points="319.17,-108.19 327.15,-101.23 316.57,-101.69 319.17,-108.19"/>
</g>
<!-- node9&#45;&gt;node20 -->
<g id="edge8" class="edge">
<title>node9&#45;&gt;node20</title>
<path fill="none" stroke="black" d="M258.66,-107.1C248.86,-116.76 235.03,-129.15 222.45,-139.62"/>
<polygon fill="black" stroke="black" points="220.3,-136.85 214.75,-145.88 224.72,-142.28 220.3,-136.85"/>
</g>
<!-- node14 -->
<g id="node10" class="node">
<title>node14</title>
<ellipse fill="none" stroke="black" cx="466.04" cy="-18" rx="38.04" ry="18"/>
<text text-anchor="middle" x="466.04" y="-12.95" font-family="Times,serif" font-size="14.00">node14</text>
</g>
<!-- node9&#45;&gt;node14 -->
<g id="edge7" class="edge">
<title>node9&#45;&gt;node14</title>
<path fill="none" stroke="black" d="M293.52,-76.41C297.35,-74.9 301.28,-73.4 305.04,-72 344.46,-57.34 390.06,-41.6 422.78,-31.12"/>
<polygon fill="black" stroke="black" points="423.44,-34.58 431.92,-28.23 421.33,-27.91 423.44,-34.58"/>
</g>
<!-- node14&#45;&gt;node9 -->
<g id="edge22" class="edge">
<title>node14&#45;&gt;node9</title>
<path fill="none" stroke="black" d="M438.28,-30.7C409.28,-41.18 362.99,-57.15 323.04,-72 319.01,-73.5 314.78,-75.12 310.53,-76.74"/>
<polygon fill="black" stroke="black" points="309.57,-73.36 301.45,-80.17 312.04,-79.91 309.57,-73.36"/>
</g>
<!-- node12 -->
<g id="node11" class="node">
<title>node12</title>
<ellipse fill="none" stroke="black" cx="663.04" cy="-18" rx="38.04" ry="18"/>
<text text-anchor="middle" x="663.04" y="-12.95" font-family="Times,serif" font-size="14.00">node12</text>
</g>
<!-- node3 -->
<g id="node12" class="node">
<title>node3</title>
<ellipse fill="none" stroke="black" cx="666.04" cy="-90" rx="33.44" ry="18"/>
<text text-anchor="middle" x="666.04" y="-84.95" font-family="Times,serif" font-size="14.00">node3</text>
</g>
<!-- node12&#45;&gt;node3 -->
<g id="edge9" class="edge">
<title>node12&#45;&gt;node3</title>
<path fill="none" stroke="black" d="M669.63,-35.79C670.75,-43.25 671.39,-52.24 671.47,-60.69"/>
<polygon fill="black" stroke="black" points="667.97,-60.46 671.23,-70.54 674.97,-60.63 667.97,-60.46"/>
</g>
<!-- node3&#45;&gt;node12 -->
<g id="edge16" class="edge">
<title>node3&#45;&gt;node12</title>
<path fill="none" stroke="black" d="M659.44,-72.05C658.34,-64.68 657.71,-55.84 657.62,-47.51"/>
<polygon fill="black" stroke="black" points="661.11,-47.86 657.84,-37.79 654.12,-47.71 661.11,-47.86"/>
</g>
<!-- node3&#45;&gt;node13 -->
<g id="edge17" class="edge">
<title>node3&#45;&gt;node13</title>
<path fill="none" stroke="black" d="M652.21,-106.76C640.99,-116.72 625,-129.7 610.77,-140.47"/>
<polygon fill="black" stroke="black" points="608.9,-137.5 602.95,-146.27 613.07,-143.12 608.9,-137.5"/>
</g>
<!-- node18&#45;&gt;node1 -->
<g id="edge12" class="edge">
<title>node18&#45;&gt;node1</title>
<path fill="none" stroke="black" d="M320.11,-179.41C309.88,-189.33 295.47,-202.04 282.56,-212.6"/>
<polygon fill="black" stroke="black" points="280.73,-209.58 275.11,-218.56 285.1,-215.04 280.73,-209.58"/>
</g>
<!-- node6 -->
<g id="node14" class="node">
<title>node6</title>
<ellipse fill="none" stroke="black" cx="441.04" cy="-90" rx="33.44" ry="18"/>
<text text-anchor="middle" x="441.04" y="-84.95" font-family="Times,serif" font-size="14.00">node6</text>
</g>
<!-- node18&#45;&gt;node6 -->
<g id="edge11" class="edge">
<title>node18&#45;&gt;node6</title>
<path fill="none" stroke="black" d="M350.8,-145.81C366.3,-134.9 388.94,-120.17 407.74,-108.72"/>
<polygon fill="black" stroke="black" points="409.36,-111.83 416.14,-103.69 405.76,-105.83 409.36,-111.83"/>
</g>
<!-- node6&#45;&gt;node18 -->
<g id="edge19" class="edge">
<title>node6&#45;&gt;node18</title>
<path fill="none" stroke="black" d="M423.99,-105.7C408.9,-116.35 386.7,-130.83 367.94,-142.31"/>
<polygon fill="black" stroke="black" points="366.27,-139.22 359.51,-147.38 369.89,-145.22 366.27,-139.22"/>
</g>
<!-- node19&#45;&gt;node1 -->
<g id="edge13" class="edge">
<title>node19&#45;&gt;node1</title>
<path fill="none" stroke="black" d="M422.1,-174.55C392.71,-185 345.62,-201 305.04,-216 301.01,-217.49 296.78,-219.1 292.53,-220.72"/>
<polygon fill="black" stroke="black" points="291.56,-217.34 283.44,-224.15 294.03,-223.89 291.56,-217.34"/>
</g>
<!-- node8 -->
<g id="node16" class="node">
<title>node8</title>
<ellipse fill="none" stroke="black" cx="526.04" cy="-90" rx="33.44" ry="18"/>
<text text-anchor="middle" x="526.04" y="-84.95" font-family="Times,serif" font-size="14.00">node8</text>
</g>
<!-- node19&#45;&gt;node8 -->
<g id="edge14" class="edge">
<title>node19&#45;&gt;node8</title>
<path fill="none" stroke="black" d="M461.87,-144.76C471.43,-134.95 484.97,-122.34 497.23,-111.8"/>
<polygon fill="black" stroke="black" points="499.29,-114.64 504.7,-105.53 494.79,-109.28 499.29,-114.64"/>
</g>
<!-- node11 -->
<g id="node17" class="node">
<title>node11</title>
<ellipse fill="none" stroke="black" cx="566.04" cy="-18" rx="38.04" ry="18"/>
<text text-anchor="middle" x="566.04" y="-12.95" font-family="Times,serif" font-size="14.00">node11</text>
</g>
<!-- node19&#45;&gt;node11 -->
<g id="edge15" class="edge">
<title>node19&#45;&gt;node11</title>
<path fill="none" stroke="black" d="M484.65,-153.96C509.95,-147.1 542.39,-133.74 559.04,-108 570.48,-90.33 569.18,-66.28 566.82,-47.63"/>
<polygon fill="black" stroke="black" points="570.29,-47.2 565.44,-37.78 563.36,-48.17 570.29,-47.2"/>
</g>
<!-- node8&#45;&gt;node19 -->
<g id="edge24" class="edge">
<title>node8&#45;&gt;node19</title>
<path fill="none" stroke="black" d="M514.35,-107.1C504.96,-116.76 491.67,-129.15 479.53,-139.62"/>
<polygon fill="black" stroke="black" points="477.52,-136.74 472.13,-145.86 482.03,-142.09 477.52,-136.74"/>
</g>
<!-- node11&#45;&gt;node19 -->
<g id="edge21" class="edge">
<title>node11&#45;&gt;node19</title>
<path fill="none" stroke="black" d="M577.91,-35.25C585.82,-54.31 591.23,-86.07 577.04,-108 559.97,-134.38 526.31,-147.76 497.82,-154.46"/>
<polygon fill="black" stroke="black" points="497.34,-150.99 488.29,-156.48 498.79,-157.84 497.34,-150.99"/>
</g>
<!-- node13&#45;&gt;node1 -->
<g id="edge29" class="edge">
<title>node13&#45;&gt;node1</title>
<path fill="none" stroke="black" d="M546.36,-171.78C533.77,-174.49 519.32,-177.44 506.04,-180 416.94,-197.21 392.34,-191.19 305.04,-216 300.82,-217.2 296.44,-218.66 292.07,-220.22"/>
<polygon fill="black" stroke="black" points="290.93,-216.91 282.77,-223.67 293.36,-223.48 290.93,-216.91"/>
</g>
<!-- node13&#45;&gt;node3 -->
<g id="edge31" class="edge">
<title>node13&#45;&gt;node3</title>
<path fill="none" stroke="black" d="M593.03,-145.12C604.52,-134.92 620.93,-121.61 635.36,-110.74"/>
<polygon fill="black" stroke="black" points="637.3,-113.66 643.27,-104.91 633.14,-108.03 637.3,-113.66"/>
</g>
<!-- node2 -->
<g id="node19" class="node">
<title>node2</title>
<ellipse fill="none" stroke="black" cx="751.04" cy="-90" rx="33.44" ry="18"/>
<text text-anchor="middle" x="751.04" y="-84.95" font-family="Times,serif" font-size="14.00">node2</text>
</g>
<!-- node13&#45;&gt;node2 -->
<g id="edge30" class="edge">
<title>node13&#45;&gt;node2</title>
<path fill="none" stroke="black" d="M604.85,-148.32C633.45,-135.93 679.59,-117.14 712.46,-104.48"/>
<polygon fill="black" stroke="black" points="713.54,-107.82 721.64,-100.98 711.05,-101.28 713.54,-107.82"/>
</g>
<!-- node2&#45;&gt;node13 -->
<g id="edge23" class="edge">
<title>node2&#45;&gt;node13</title>
<path fill="none" stroke="black" d="M727.04,-102.9C699.19,-115.01 653.16,-133.79 619.75,-146.7"/>
<polygon fill="black" stroke="black" points="618.88,-143.28 610.79,-150.13 621.38,-149.82 618.88,-143.28"/>
</g>
<!-- node4&#45;&gt;node20 -->
<g id="edge37" class="edge">
<title>node4&#45;&gt;node20</title>
<path fill="none" stroke="black" d="M332.58,-103.27C306.46,-115.2 264.07,-133.34 232.6,-146.1"/>
<polygon fill="black" stroke="black" points="231.34,-142.83 223.37,-149.8 233.95,-149.33 231.34,-142.83"/>
</g>
</g>
</svg>
