<?xml version="1.0" encoding="UTF-8" standalone="no"?>
<!DOCTYPE svg PUBLIC "-//W3C//DTD SVG 1.1//EN"
 "http://www.w3.org/Graphics/SVG/1.1/DTD/svg11.dtd">
<!-- Generated by graphviz version 12.2.1 (20241206.2353)
 -->
<!-- Pages: 1 -->
<svg width="988pt" height="188pt"
 viewBox="0.00 0.00 988.09 188.00" xmlns="http://www.w3.org/2000/svg" xmlns:xlink="http://www.w3.org/1999/xlink">
<g id="graph0" class="graph" transform="scale(1 1) rotate(0) translate(4 184)">
<polygon fill="white" stroke="none" points="-4,4 -4,-184 984.09,-184 984.09,4 -4,4"/>
<!-- node1 -->
<g id="node1" class="node">
<title>node1</title>
<ellipse fill="none" stroke="black" cx="45.04" cy="-162" rx="33.44" ry="18"/>
<text text-anchor="middle" x="45.04" y="-156.95" font-family="Times,serif" font-size="14.00">node1</text>
</g>
<!-- node17 -->
<g id="node2" class="node">
<title>node17</title>
<ellipse fill="none" stroke="black" cx="38.04" cy="-18" rx="38.04" ry="18"/>
<text text-anchor="middle" x="38.04" y="-12.95" font-family="Times,serif" font-size="14.00">node17</text>
</g>
<!-- node1&#45;&gt;node17 -->
<g id="edge1" class="edge">
<title>node1&#45;&gt;node17</title>
<path fill="none" stroke="black" d="M39.62,-143.87C35.91,-119.99 33.45,-76.38 33.92,-47.54"/>
<polygon fill="black" stroke="black" points="37.41,-47.81 34.25,-37.7 30.41,-47.58 37.41,-47.81"/>
</g>
<!-- node9 -->
<g id="node3" class="node">
<title>node9</title>
<ellipse fill="none" stroke="black" cx="88.04" cy="-90" rx="33.44" ry="18"/>
<text text-anchor="middle" x="88.04" y="-84.95" font-family="Times,serif" font-size="14.00">node9</text>
</g>
<!-- node1&#45;&gt;node9 -->
<g id="edge2" class="edge">
<title>node1&#45;&gt;node9</title>
<path fill="none" stroke="black" d="M49.76,-143.7C54.12,-135.16 60.35,-124.72 66.59,-115.4"/>
<polygon fill="black" stroke="black" points="69.29,-117.64 72.16,-107.44 63.56,-113.63 69.29,-117.64"/>
</g>
<!-- node3 -->
<g id="node4" class="node">
<title>node3</title>
<ellipse fill="none" stroke="black" cx="177.04" cy="-90" rx="33.44" ry="18"/>
<text text-anchor="middle" x="177.04" y="-84.95" font-family="Times,serif" font-size="14.00">node3</text>
</g>
<!-- node1&#45;&gt;node3 -->
<g id="edge3" class="edge">
<title>node1&#45;&gt;node3</title>
<path fill="none" stroke="black" d="M65.33,-147.34C85.57,-135.76 116.8,-119.15 141.17,-106.96"/>
<polygon fill="black" stroke="black" points="142.71,-110.11 150.13,-102.54 139.61,-103.83 142.71,-110.11"/>
</g>
<!-- node5 -->
<g id="node5" class="node">
<title>node5</title>
<ellipse fill="none" stroke="black" cx="269.04" cy="-90" rx="33.44" ry="18"/>
<text text-anchor="middle" x="269.04" y="-84.95" font-family="Times,serif" font-size="14.00">node5</text>
</g>
<!-- node1&#45;&gt;node5 -->
<g id="edge4" class="edge">
<title>node1&#45;&gt;node5</title>
<path fill="none" stroke="black" d="M67.44,-148.16C71.28,-146.69 75.24,-145.27 79.04,-144 136.32,-124.87 152.32,-125.73 210.04,-108 215.91,-106.2 222.12,-104.18 228.26,-102.18"/>
<polygon fill="black" stroke="black" points="229.27,-105.53 237.7,-99.11 227.1,-98.87 229.27,-105.53"/>
</g>
<!-- node15 -->
<g id="node6" class="node">
<title>node15</title>
<ellipse fill="none" stroke="black" cx="361.04" cy="-90" rx="38.04" ry="18"/>
<text text-anchor="middle" x="361.04" y="-84.95" font-family="Times,serif" font-size="14.00">node15</text>
</g>
<!-- node1&#45;&gt;node15 -->
<g id="edge5" class="edge">
<title>node1&#45;&gt;node15</title>
<path fill="none" stroke="black" d="M66.85,-147.93C70.86,-146.46 75.02,-145.11 79.04,-144 175.85,-117.39 204.62,-132.24 302.04,-108 307.22,-106.71 312.63,-105.13 318,-103.46"/>
<polygon fill="black" stroke="black" points="319,-106.81 327.44,-100.42 316.85,-100.15 319,-106.81"/>
</g>
<!-- node17&#45;&gt;node1 -->
<g id="edge13" class="edge">
<title>node17&#45;&gt;node1</title>
<path fill="none" stroke="black" d="M43.48,-36.19C47.18,-60.1 49.65,-103.72 49.17,-132.53"/>
<polygon fill="black" stroke="black" points="45.68,-132.25 48.84,-142.36 52.68,-132.48 45.68,-132.25"/>
</g>
<!-- node9&#45;&gt;node1 -->
<g id="edge10" class="edge">
<title>node9&#45;&gt;node1</title>
<path fill="none" stroke="black" d="M83.42,-108.13C79.06,-116.68 72.8,-127.18 66.52,-136.57"/>
<polygon fill="black" stroke="black" points="63.79,-134.37 60.92,-144.57 69.52,-138.38 63.79,-134.37"/>
</g>
<!-- node3&#45;&gt;node1 -->
<g id="edge16" class="edge">
<title>node3&#45;&gt;node1</title>
<path fill="none" stroke="black" d="M156.62,-104.75C136.4,-116.3 105.32,-132.83 81.02,-144.99"/>
<polygon fill="black" stroke="black" points="79.51,-141.83 72.09,-149.39 82.61,-148.11 79.51,-141.83"/>
</g>
<!-- node11 -->
<g id="node8" class="node">
<title>node11</title>
<ellipse fill="none" stroke="black" cx="154.04" cy="-18" rx="38.04" ry="18"/>
<text text-anchor="middle" x="154.04" y="-12.95" font-family="Times,serif" font-size="14.00">node11</text>
</g>
<!-- node3&#45;&gt;node11 -->
<g id="edge15" class="edge">
<title>node3&#45;&gt;node11</title>
<path fill="none" stroke="black" d="M165.91,-72.76C162.54,-65.13 159.2,-55.79 156.63,-47.06"/>
<polygon fill="black" stroke="black" points="160.07,-46.38 154.16,-37.59 153.3,-48.15 160.07,-46.38"/>
</g>
<!-- node13 -->
<g id="node18" class="node">
<title>node13</title>
<ellipse fill="none" stroke="black" cx="248.04" cy="-18" rx="38.04" ry="18"/>
<text text-anchor="middle" x="248.04" y="-12.95" font-family="Times,serif" font-size="14.00">node13</text>
</g>
<!-- node3&#45;&gt;node13 -->
<g id="edge17" class="edge">
<title>node3&#45;&gt;node13</title>
<path fill="none" stroke="black" d="M187.71,-72.76C196.25,-63.3 208.31,-51.24 219.47,-40.94"/>
<polygon fill="black" stroke="black" points="221.55,-43.79 226.64,-34.5 216.86,-38.58 221.55,-43.79"/>
</g>
<!-- node5&#45;&gt;node1 -->
<g id="edge11" class="edge">
<title>node5&#45;&gt;node1</title>
<path fill="none" stroke="black" d="M244.39,-102.71C239.03,-104.53 233.39,-106.36 228.04,-108 170.32,-125.73 154.32,-124.87 97.04,-144 92.96,-145.36 88.71,-146.9 84.44,-148.48"/>
<polygon fill="black" stroke="black" points="83.49,-145.1 75.35,-151.88 85.94,-151.66 83.49,-145.1"/>
</g>
<!-- node19 -->
<g id="node12" class="node">
<title>node19</title>
<ellipse fill="none" stroke="black" cx="342.04" cy="-18" rx="38.04" ry="18"/>
<text text-anchor="middle" x="342.04" y="-12.95" font-family="Times,serif" font-size="14.00">node19</text>
</g>
<!-- node5&#45;&gt;node19 -->
<g id="edge12" class="edge">
<title>node5&#45;&gt;node19</title>
<path fill="none" stroke="black" d="M280.17,-72.76C288.98,-63.3 301.39,-51.24 312.85,-40.94"/>
<polygon fill="black" stroke="black" points="315,-43.71 320.21,-34.48 310.39,-38.44 315,-43.71"/>
</g>
<!-- node15&#45;&gt;node1 -->
<g id="edge7" class="edge">
<title>node15&#45;&gt;node1</title>
<path fill="none" stroke="black" d="M335.2,-103.65C330.22,-105.25 325.03,-106.76 320.04,-108 222.62,-132.24 193.85,-117.39 97.04,-144 92.81,-145.16 88.42,-146.61 84.06,-148.15"/>
<polygon fill="black" stroke="black" points="82.91,-144.85 74.75,-151.6 85.34,-151.41 82.91,-144.85"/>
</g>
<!-- node7 -->
<g id="node11" class="node">
<title>node7</title>
<ellipse fill="none" stroke="black" cx="431.04" cy="-18" rx="33.44" ry="18"/>
<text text-anchor="middle" x="431.04" y="-12.95" font-family="Times,serif" font-size="14.00">node7</text>
</g>
<!-- node15&#45;&gt;node7 -->
<g id="edge8" class="edge">
<title>node15&#45;&gt;node7</title>
<path fill="none" stroke="black" d="M371.79,-72.41C380.35,-62.81 392.39,-50.63 403.46,-40.32"/>
<polygon fill="black" stroke="black" points="405.48,-43.21 410.54,-33.9 400.78,-38.02 405.48,-43.21"/>
</g>
<!-- node2 -->
<g id="node7" class="node">
<title>node2</title>
<ellipse fill="none" stroke="black" cx="130.04" cy="-162" rx="33.44" ry="18"/>
<text text-anchor="middle" x="130.04" y="-156.95" font-family="Times,serif" font-size="14.00">node2</text>
</g>
<!-- node11&#45;&gt;node3 -->
<g id="edge6" class="edge">
<title>node11&#45;&gt;node3</title>
<path fill="none" stroke="black" d="M165.35,-35.62C168.62,-43.1 171.86,-52.14 174.37,-60.64"/>
<polygon fill="black" stroke="black" points="170.96,-61.45 176.89,-70.23 177.73,-59.67 170.96,-61.45"/>
</g>
<!-- node8 -->
<g id="node9" class="node">
<title>node8</title>
<ellipse fill="none" stroke="black" cx="215.04" cy="-162" rx="33.44" ry="18"/>
<text text-anchor="middle" x="215.04" y="-156.95" font-family="Times,serif" font-size="14.00">node8</text>
</g>
<!-- node12 -->
<g id="node10" class="node">
<title>node12</title>
<ellipse fill="none" stroke="black" cx="304.04" cy="-162" rx="38.04" ry="18"/>
<text text-anchor="middle" x="304.04" y="-156.95" font-family="Times,serif" font-size="14.00">node12</text>
</g>
<!-- node7&#45;&gt;node15 -->
<g id="edge18" class="edge">
<title>node7&#45;&gt;node15</title>
<path fill="none" stroke="black" d="M420.42,-35.45C412.11,-44.79 400.45,-56.62 389.59,-66.78"/>
<polygon fill="black" stroke="black" points="387.29,-64.15 382.26,-73.48 392.01,-69.32 387.29,-64.15"/>
</g>
<!-- node19&#45;&gt;node5 -->
<g id="edge9" class="edge">
<title>node19&#45;&gt;node5</title>
<path fill="none" stroke="black" d="M330.66,-35.51C321.68,-45.13 309.07,-57.37 297.52,-67.71"/>
<polygon fill="black" stroke="black" points="295.34,-64.96 290.11,-74.17 299.95,-70.23 295.34,-64.96"/>
</g>
<!-- node6 -->
<g id="node13" class="node">
<title>node6</title>
<ellipse fill="none" stroke="black" cx="393.04" cy="-162" rx="33.44" ry="18"/>
<text text-anchor="middle" x="393.04" y="-156.95" font-family="Times,serif" font-size="14.00">node6</text>
</g>
<!-- node10 -->
<g id="node14" class="node">
<title>node10</title>
<ellipse fill="none" stroke="black" cx="482.04" cy="-162" rx="38.04" ry="18"/>
<text text-anchor="middle" x="482.04" y="-156.95" font-family="Times,serif" font-size="14.00">node10</text>
</g>
<!-- node20 -->
<g id="node15" class="node">
<title>node20</title>
<ellipse fill="none" stroke="black" cx="576.04" cy="-162" rx="38.04" ry="18"/>
<text text-anchor="middle" x="576.04" y="-156.95" font-family="Times,serif" font-size="14.00">node20</text>
</g>
<!-- node4 -->
<g id="node16" class="node">
<title>node4</title>
<ellipse fill="none" stroke="black" cx="665.04" cy="-162" rx="33.44" ry="18"/>
<text text-anchor="middle" x="665.04" y="-156.95" font-family="Times,serif" font-size="14.00">node4</text>
</g>
<!-- node14 -->
<g id="node17" class="node">
<title>node14</title>
<ellipse fill="none" stroke="black" cx="754.04" cy="-162" rx="38.04" ry="18"/>
<text text-anchor="middle" x="754.04" y="-156.95" font-family="Times,serif" font-size="14.00">node14</text>
</g>
<!-- node13&#45;&gt;node3 -->
<g id="edge14" class="edge">
<title>node13&#45;&gt;node3</title>
<path fill="none" stroke="black" d="M237.13,-35.51C228.43,-45.13 216.16,-57.37 204.91,-67.71"/>
<polygon fill="black" stroke="black" points="202.82,-64.88 197.7,-74.16 207.49,-70.1 202.82,-64.88"/>
</g>
<!-- node18 -->
<g id="node19" class="node">
<title>node18</title>
<ellipse fill="none" stroke="black" cx="848.04" cy="-162" rx="38.04" ry="18"/>
<text text-anchor="middle" x="848.04" y="-156.95" font-family="Times,serif" font-size="14.00">node18</text>
</g>
<!-- node16 -->
<g id="node20" class="node">
<title>node16</title>
<ellipse fill="none" stroke="black" cx="942.04" cy="-162" rx="38.04" ry="18"/>
<text text-anchor="middle" x="942.04" y="-156.95" font-family="Times,serif" font-size="14.00">node16</text>
</g>
</g>
</svg>
