<?xml version="1.0" encoding="UTF-8" standalone="no"?>
<!DOCTYPE svg PUBLIC "-//W3C//DTD SVG 1.1//EN"
 "http://www.w3.org/Graphics/SVG/1.1/DTD/svg11.dtd">
<!-- Generated by graphviz version 12.2.1 (20241206.2353)
 -->
<!-- Pages: 1 -->
<svg width="804pt" height="260pt"
 viewBox="0.00 0.00 804.09 260.00" xmlns="http://www.w3.org/2000/svg" xmlns:xlink="http://www.w3.org/1999/xlink">
<g id="graph0" class="graph" transform="scale(1 1) rotate(0) translate(4 256)">
<polygon fill="white" stroke="none" points="-4,4 -4,-256 800.09,-256 800.09,4 -4,4"/>
<!-- node12 -->
<g id="node1" class="node">
<title>node12</title>
<ellipse fill="none" stroke="black" cx="48.04" cy="-234" rx="38.04" ry="18"/>
<text text-anchor="middle" x="48.04" y="-228.95" font-family="Times,serif" font-size="14.00">node12</text>
</g>
<!-- node3 -->
<g id="node2" class="node">
<title>node3</title>
<ellipse fill="none" stroke="black" cx="48.04" cy="-162" rx="33.44" ry="18"/>
<text text-anchor="middle" x="48.04" y="-156.95" font-family="Times,serif" font-size="14.00">node3</text>
</g>
<!-- node12&#45;&gt;node3 -->
<g id="edge1" class="edge">
<title>node12&#45;&gt;node3</title>
<path fill="none" stroke="black" d="M42.17,-216.05C41.37,-208.57 41.12,-199.58 41.41,-191.14"/>
<polygon fill="black" stroke="black" points="44.89,-191.51 42.08,-181.3 37.91,-191.04 44.89,-191.51"/>
</g>
<!-- node3&#45;&gt;node12 -->
<g id="edge23" class="edge">
<title>node3&#45;&gt;node12</title>
<path fill="none" stroke="black" d="M53.91,-179.79C54.71,-187.25 54.97,-196.24 54.68,-204.69"/>
<polygon fill="black" stroke="black" points="51.2,-204.33 54.02,-214.54 58.18,-204.8 51.2,-204.33"/>
</g>
<!-- node18 -->
<g id="node3" class="node">
<title>node18</title>
<ellipse fill="none" stroke="black" cx="38.04" cy="-18" rx="38.04" ry="18"/>
<text text-anchor="middle" x="38.04" y="-12.95" font-family="Times,serif" font-size="14.00">node18</text>
</g>
<!-- node3&#45;&gt;node18 -->
<g id="edge20" class="edge">
<title>node3&#45;&gt;node18</title>
<path fill="none" stroke="black" d="M42.25,-143.87C38.05,-119.99 34.66,-76.38 34.52,-47.54"/>
<polygon fill="black" stroke="black" points="38.02,-47.75 34.64,-37.7 31.02,-47.66 38.02,-47.75"/>
</g>
<!-- node8 -->
<g id="node4" class="node">
<title>node8</title>
<ellipse fill="none" stroke="black" cx="89.04" cy="-90" rx="33.44" ry="18"/>
<text text-anchor="middle" x="89.04" y="-84.95" font-family="Times,serif" font-size="14.00">node8</text>
</g>
<!-- node3&#45;&gt;node8 -->
<g id="edge26" class="edge">
<title>node3&#45;&gt;node8</title>
<path fill="none" stroke="black" d="M52.26,-143.7C56.34,-135.25 62.19,-124.94 68.1,-115.69"/>
<polygon fill="black" stroke="black" points="70.96,-117.71 73.62,-107.46 65.14,-113.82 70.96,-117.71"/>
</g>
<!-- node16 -->
<g id="node6" class="node">
<title>node16</title>
<ellipse fill="none" stroke="black" cx="254.04" cy="-18" rx="38.04" ry="18"/>
<text text-anchor="middle" x="254.04" y="-12.95" font-family="Times,serif" font-size="14.00">node16</text>
</g>
<!-- node3&#45;&gt;node16 -->
<g id="edge19" class="edge">
<title>node3&#45;&gt;node16</title>
<path fill="none" stroke="black" d="M64.67,-146.06C79.94,-135.63 102.54,-121.27 122.04,-108 156.01,-84.89 194.21,-56.93 220.93,-38.59"/>
<polygon fill="black" stroke="black" points="222.65,-41.65 228.97,-33.15 218.73,-35.86 222.65,-41.65"/>
</g>
<!-- node13 -->
<g id="node7" class="node">
<title>node13</title>
<ellipse fill="none" stroke="black" cx="263.04" cy="-90" rx="38.04" ry="18"/>
<text text-anchor="middle" x="263.04" y="-84.95" font-family="Times,serif" font-size="14.00">node13</text>
</g>
<!-- node3&#45;&gt;node13 -->
<g id="edge27" class="edge">
<title>node3&#45;&gt;node13</title>
<path fill="none" stroke="black" d="M74.81,-150.67C111.32,-138.04 176.79,-116.69 220.15,-103.25"/>
<polygon fill="black" stroke="black" points="220.97,-106.66 229.49,-100.37 218.91,-99.97 220.97,-106.66"/>
</g>
<!-- node5 -->
<g id="node9" class="node">
<title>node5</title>
<ellipse fill="none" stroke="black" cx="359.04" cy="-90" rx="33.44" ry="18"/>
<text text-anchor="middle" x="359.04" y="-84.95" font-family="Times,serif" font-size="14.00">node5</text>
</g>
<!-- node3&#45;&gt;node5 -->
<g id="edge28" class="edge">
<title>node3&#45;&gt;node5</title>
<path fill="none" stroke="black" d="M79.24,-155.09C127.43,-146.6 222.03,-129.59 301.04,-108 306.85,-106.41 312.97,-104.49 319,-102.53"/>
<polygon fill="black" stroke="black" points="319.84,-105.93 328.23,-99.47 317.64,-99.29 319.84,-105.93"/>
</g>
<!-- node7 -->
<g id="node11" class="node">
<title>node7</title>
<ellipse fill="none" stroke="black" cx="452.04" cy="-90" rx="33.44" ry="18"/>
<text text-anchor="middle" x="452.04" y="-84.95" font-family="Times,serif" font-size="14.00">node7</text>
</g>
<!-- node3&#45;&gt;node7 -->
<g id="edge22" class="edge">
<title>node3&#45;&gt;node7</title>
<path fill="none" stroke="black" d="M80.61,-157.47C142.21,-150.93 279.05,-135.1 392.04,-108 398.44,-106.47 405.18,-104.49 411.78,-102.43"/>
<polygon fill="black" stroke="black" points="412.76,-105.79 421.21,-99.41 410.62,-99.12 412.76,-105.79"/>
</g>
<!-- node19 -->
<g id="node13" class="node">
<title>node19</title>
<ellipse fill="none" stroke="black" cx="541.04" cy="-90" rx="38.04" ry="18"/>
<text text-anchor="middle" x="541.04" y="-84.95" font-family="Times,serif" font-size="14.00">node19</text>
</g>
<!-- node3&#45;&gt;node19 -->
<g id="edge21" class="edge">
<title>node3&#45;&gt;node19</title>
<path fill="none" stroke="black" d="M81.44,-159.39C155.29,-155.49 336.9,-143.1 485.04,-108 489.51,-106.94 494.13,-105.6 498.74,-104.13"/>
<polygon fill="black" stroke="black" points="499.58,-107.54 507.95,-101.03 497.35,-100.9 499.58,-107.54"/>
</g>
<!-- node9 -->
<g id="node14" class="node">
<title>node9</title>
<ellipse fill="none" stroke="black" cx="630.04" cy="-90" rx="33.44" ry="18"/>
<text text-anchor="middle" x="630.04" y="-84.95" font-family="Times,serif" font-size="14.00">node9</text>
</g>
<!-- node3&#45;&gt;node9 -->
<g id="edge24" class="edge">
<title>node3&#45;&gt;node9</title>
<path fill="none" stroke="black" d="M81.69,-160.98C166.58,-160.13 394.95,-153.29 579.04,-108 583.22,-106.97 587.53,-105.61 591.81,-104.1"/>
<polygon fill="black" stroke="black" points="592.76,-107.48 600.89,-100.68 590.3,-100.93 592.76,-107.48"/>
</g>
<!-- node10 -->
<g id="node16" class="node">
<title>node10</title>
<ellipse fill="none" stroke="black" cx="719.04" cy="-90" rx="38.04" ry="18"/>
<text text-anchor="middle" x="719.04" y="-84.95" font-family="Times,serif" font-size="14.00">node10</text>
</g>
<!-- node3&#45;&gt;node10 -->
<g id="edge29" class="edge">
<title>node3&#45;&gt;node10</title>
<path fill="none" stroke="black" d="M81.83,-161.21C175.5,-161.02 445.07,-155.81 663.04,-108 667.57,-107.01 672.26,-105.69 676.92,-104.22"/>
<polygon fill="black" stroke="black" points="677.87,-107.6 686.24,-101.1 675.64,-100.96 677.87,-107.6"/>
</g>
<!-- node20 -->
<g id="node17" class="node">
<title>node20</title>
<ellipse fill="none" stroke="black" cx="758.04" cy="-18" rx="38.04" ry="18"/>
<text text-anchor="middle" x="758.04" y="-12.95" font-family="Times,serif" font-size="14.00">node20</text>
</g>
<!-- node3&#45;&gt;node20 -->
<g id="edge25" class="edge">
<title>node3&#45;&gt;node20</title>
<path fill="none" stroke="black" d="M81.5,-161.14C215.88,-161.29 710.36,-158.25 757.04,-108 771.89,-92.02 768.01,-66.74 762.99,-47.2"/>
<polygon fill="black" stroke="black" points="766.39,-46.36 760.36,-37.65 759.65,-48.22 766.39,-46.36"/>
</g>
<!-- node18&#45;&gt;node3 -->
<g id="edge2" class="edge">
<title>node18&#45;&gt;node3</title>
<path fill="none" stroke="black" d="M43.85,-36.19C48.05,-60.1 51.44,-103.72 51.57,-132.53"/>
<polygon fill="black" stroke="black" points="48.07,-132.31 51.44,-142.36 55.07,-132.4 48.07,-132.31"/>
</g>
<!-- node8&#45;&gt;node3 -->
<g id="edge3" class="edge">
<title>node8&#45;&gt;node3</title>
<path fill="none" stroke="black" d="M84.99,-107.96C80.96,-116.35 75.14,-126.65 69.23,-135.93"/>
<polygon fill="black" stroke="black" points="66.35,-133.95 63.7,-144.21 72.17,-137.83 66.35,-133.95"/>
</g>
<!-- node15 -->
<g id="node5" class="node">
<title>node15</title>
<ellipse fill="none" stroke="black" cx="151.04" cy="-18" rx="38.04" ry="18"/>
<text text-anchor="middle" x="151.04" y="-12.95" font-family="Times,serif" font-size="14.00">node15</text>
</g>
<!-- node8&#45;&gt;node15 -->
<g id="edge4" class="edge">
<title>node8&#45;&gt;node15</title>
<path fill="none" stroke="black" d="M97.9,-72.41C104.89,-63.41 114.69,-52.13 124.05,-42.26"/>
<polygon fill="black" stroke="black" points="126.53,-44.72 131.01,-35.12 121.52,-39.83 126.53,-44.72"/>
</g>
<!-- node15&#45;&gt;node8 -->
<g id="edge17" class="edge">
<title>node15&#45;&gt;node8</title>
<path fill="none" stroke="black" d="M141.91,-35.95C134.8,-45.07 124.9,-56.43 115.51,-66.3"/>
<polygon fill="black" stroke="black" points="113.04,-63.82 108.54,-73.41 118.04,-68.72 113.04,-63.82"/>
</g>
<!-- node16&#45;&gt;node3 -->
<g id="edge5" class="edge">
<title>node16&#45;&gt;node3</title>
<path fill="none" stroke="black" d="M239.48,-34.81C217.69,-52.91 176.44,-83.24 140.04,-108 121.73,-120.46 100.69,-133.88 83.21,-144.1"/>
<polygon fill="black" stroke="black" points="81.64,-140.97 74.69,-148.97 85.11,-147.05 81.64,-140.97"/>
</g>
<!-- node13&#45;&gt;node3 -->
<g id="edge7" class="edge">
<title>node13&#45;&gt;node3</title>
<path fill="none" stroke="black" d="M234.24,-102.03C196.51,-115.03 130.52,-136.53 88,-149.66"/>
<polygon fill="black" stroke="black" points="87.18,-146.25 78.65,-152.53 89.24,-152.94 87.18,-146.25"/>
</g>
<!-- node1 -->
<g id="node8" class="node">
<title>node1</title>
<ellipse fill="none" stroke="black" cx="348.04" cy="-18" rx="33.44" ry="18"/>
<text text-anchor="middle" x="348.04" y="-12.95" font-family="Times,serif" font-size="14.00">node1</text>
</g>
<!-- node13&#45;&gt;node1 -->
<g id="edge6" class="edge">
<title>node13&#45;&gt;node1</title>
<path fill="none" stroke="black" d="M276.96,-72.76C288.13,-62.63 303.95,-49.51 317.9,-38.76"/>
<polygon fill="black" stroke="black" points="319.64,-41.83 325.52,-33.02 315.43,-36.24 319.64,-41.83"/>
</g>
<!-- node1&#45;&gt;node13 -->
<g id="edge30" class="edge">
<title>node1&#45;&gt;node13</title>
<path fill="none" stroke="black" d="M334.66,-34.76C323.72,-44.72 308.11,-57.7 294.18,-68.47"/>
<polygon fill="black" stroke="black" points="292.4,-65.43 286.55,-74.26 296.63,-71.01 292.4,-65.43"/>
</g>
<!-- node5&#45;&gt;node3 -->
<g id="edge9" class="edge">
<title>node5&#45;&gt;node3</title>
<path fill="none" stroke="black" d="M335.17,-103.04C329.9,-104.83 324.34,-106.55 319.04,-108 240.22,-129.54 145.88,-146.52 91.73,-155.03"/>
<polygon fill="black" stroke="black" points="91.33,-151.55 81.98,-156.53 92.39,-158.47 91.33,-151.55"/>
</g>
<!-- node14 -->
<g id="node10" class="node">
<title>node14</title>
<ellipse fill="none" stroke="black" cx="439.04" cy="-18" rx="38.04" ry="18"/>
<text text-anchor="middle" x="439.04" y="-12.95" font-family="Times,serif" font-size="14.00">node14</text>
</g>
<!-- node5&#45;&gt;node14 -->
<g id="edge8" class="edge">
<title>node5&#45;&gt;node14</title>
<path fill="none" stroke="black" d="M371.44,-73.12C381.47,-63.35 395.74,-50.72 408.66,-40.11"/>
<polygon fill="black" stroke="black" points="410.53,-43.1 416.14,-34.11 406.15,-37.64 410.53,-43.1"/>
</g>
<!-- node14&#45;&gt;node5 -->
<g id="edge10" class="edge">
<title>node14&#45;&gt;node5</title>
<path fill="none" stroke="black" d="M426.11,-35.41C415.88,-45.33 401.47,-58.04 388.56,-68.6"/>
<polygon fill="black" stroke="black" points="386.73,-65.58 381.11,-74.56 391.1,-71.04 386.73,-65.58"/>
</g>
<!-- node7&#45;&gt;node3 -->
<g id="edge11" class="edge">
<title>node7&#45;&gt;node3</title>
<path fill="none" stroke="black" d="M427.94,-102.91C422.14,-104.79 415.94,-106.59 410.04,-108 297.53,-134.98 161.38,-150.8 92.42,-157.38"/>
<polygon fill="black" stroke="black" points="92.28,-153.88 82.65,-158.29 92.93,-160.85 92.28,-153.88"/>
</g>
<!-- node11 -->
<g id="node12" class="node">
<title>node11</title>
<ellipse fill="none" stroke="black" cx="534.04" cy="-18" rx="38.04" ry="18"/>
<text text-anchor="middle" x="534.04" y="-12.95" font-family="Times,serif" font-size="14.00">node11</text>
</g>
<!-- node7&#45;&gt;node11 -->
<g id="edge12" class="edge">
<title>node7&#45;&gt;node11</title>
<path fill="none" stroke="black" d="M464.89,-73.12C475.27,-63.28 490.03,-50.55 503.32,-39.9"/>
<polygon fill="black" stroke="black" points="505.32,-42.79 511.02,-33.86 500.99,-37.28 505.32,-42.79"/>
</g>
<!-- node11&#45;&gt;node7 -->
<g id="edge31" class="edge">
<title>node11&#45;&gt;node7</title>
<path fill="none" stroke="black" d="M520.75,-35.31C510.13,-45.33 495.13,-58.24 481.78,-68.89"/>
<polygon fill="black" stroke="black" points="479.8,-65.99 474.07,-74.9 484.11,-71.51 479.8,-65.99"/>
</g>
<!-- node19&#45;&gt;node3 -->
<g id="edge13" class="edge">
<title>node19&#45;&gt;node3</title>
<path fill="none" stroke="black" d="M516.36,-104.2C511.98,-105.64 507.43,-106.96 503.04,-108 355.88,-142.87 175.69,-155.33 93.09,-159.31"/>
<polygon fill="black" stroke="black" points="92.96,-155.82 83.13,-159.77 93.28,-162.81 92.96,-155.82"/>
</g>
<!-- node9&#45;&gt;node3 -->
<g id="edge14" class="edge">
<title>node9&#45;&gt;node3</title>
<path fill="none" stroke="black" d="M609.03,-104.32C605.11,-105.74 601.02,-107.02 597.04,-108 414.36,-152.94 188.08,-160.02 93.12,-160.96"/>
<polygon fill="black" stroke="black" points="93.16,-157.46 83.18,-161.04 93.21,-164.46 93.16,-157.46"/>
</g>
<!-- node17 -->
<g id="node15" class="node">
<title>node17</title>
<ellipse fill="none" stroke="black" cx="629.04" cy="-18" rx="38.04" ry="18"/>
<text text-anchor="middle" x="629.04" y="-12.95" font-family="Times,serif" font-size="14.00">node17</text>
</g>
<!-- node9&#45;&gt;node17 -->
<g id="edge15" class="edge">
<title>node9&#45;&gt;node17</title>
<path fill="none" stroke="black" d="M623.92,-72.05C623.04,-64.68 622.65,-55.84 622.81,-47.51"/>
<polygon fill="black" stroke="black" points="626.29,-47.95 623.3,-37.79 619.3,-47.6 626.29,-47.95"/>
</g>
<!-- node17&#45;&gt;node9 -->
<g id="edge32" class="edge">
<title>node17&#45;&gt;node9</title>
<path fill="none" stroke="black" d="M635.15,-35.79C636.05,-43.25 636.44,-52.24 636.28,-60.69"/>
<polygon fill="black" stroke="black" points="632.79,-60.37 635.76,-70.54 639.78,-60.74 632.79,-60.37"/>
</g>
<!-- node10&#45;&gt;node3 -->
<g id="edge16" class="edge">
<title>node10&#45;&gt;node3</title>
<path fill="none" stroke="black" d="M694.65,-104.26C690.18,-105.71 685.54,-107.01 681.04,-108 464.77,-155.43 197.7,-160.94 92.99,-161.21"/>
<polygon fill="black" stroke="black" points="93.13,-157.71 83.13,-161.22 93.13,-164.71 93.13,-157.71"/>
</g>
<!-- node20&#45;&gt;node3 -->
<g id="edge18" class="edge">
<title>node20&#45;&gt;node3</title>
<path fill="none" stroke="black" d="M772.2,-35.14C783.35,-54.99 793.2,-88.45 775.04,-108 728.88,-157.7 244.66,-161.22 93.07,-161.14"/>
<polygon fill="black" stroke="black" points="93.43,-157.64 83.42,-161.13 93.42,-164.64 93.43,-157.64"/>
</g>
</g>
</svg>
