<?xml version="1.0" encoding="UTF-8" standalone="no"?>
<!DOCTYPE svg PUBLIC "-//W3C//DTD SVG 1.1//EN"
 "http://www.w3.org/Graphics/SVG/1.1/DTD/svg11.dtd">
<!-- Generated by graphviz version 12.2.1 (20241206.2353)
 -->
<!-- Pages: 1 -->
<svg width="986pt" height="404pt"
 viewBox="0.00 0.00 985.88 404.00" xmlns="http://www.w3.org/2000/svg" xmlns:xlink="http://www.w3.org/1999/xlink">
<g id="graph0" class="graph" transform="scale(1 1) rotate(0) translate(4 400)">
<polygon fill="white" stroke="none" points="-4,4 -4,-400 981.88,-400 981.88,4 -4,4"/>
<!-- node6 -->
<g id="node1" class="node">
<title>node6</title>
<ellipse fill="none" stroke="black" cx="33.44" cy="-378" rx="33.44" ry="18"/>
<text text-anchor="middle" x="33.44" y="-372.95" font-family="Times,serif" font-size="14.00">node6</text>
</g>
<!-- node10 -->
<g id="node2" class="node">
<title>node10</title>
<ellipse fill="none" stroke="black" cx="122.44" cy="-378" rx="38.04" ry="18"/>
<text text-anchor="middle" x="122.44" y="-372.95" font-family="Times,serif" font-size="14.00">node10</text>
</g>
<!-- node16 -->
<g id="node3" class="node">
<title>node16</title>
<ellipse fill="none" stroke="black" cx="216.44" cy="-378" rx="38.04" ry="18"/>
<text text-anchor="middle" x="216.44" y="-372.95" font-family="Times,serif" font-size="14.00">node16</text>
</g>
<!-- node15 -->
<g id="node4" class="node">
<title>node15</title>
<ellipse fill="none" stroke="black" cx="310.44" cy="-378" rx="38.04" ry="18"/>
<text text-anchor="middle" x="310.44" y="-372.95" font-family="Times,serif" font-size="14.00">node15</text>
</g>
<!-- node13 -->
<g id="node5" class="node">
<title>node13</title>
<ellipse fill="none" stroke="black" cx="310.44" cy="-306" rx="38.04" ry="18"/>
<text text-anchor="middle" x="310.44" y="-300.95" font-family="Times,serif" font-size="14.00">node13</text>
</g>
<!-- node15&#45;&gt;node13 -->
<g id="edge1" class="edge">
<title>node15&#45;&gt;node13</title>
<path fill="none" stroke="black" d="M304.56,-360.05C303.78,-352.68 303.52,-343.84 303.79,-335.51"/>
<polygon fill="black" stroke="black" points="307.27,-335.99 304.43,-325.79 300.28,-335.54 307.27,-335.99"/>
</g>
<!-- node13&#45;&gt;node15 -->
<g id="edge17" class="edge">
<title>node13&#45;&gt;node15</title>
<path fill="none" stroke="black" d="M316.35,-324.28C317.11,-331.6 317.35,-340.34 317.08,-348.57"/>
<polygon fill="black" stroke="black" points="313.59,-348.33 316.42,-358.54 320.57,-348.8 313.59,-348.33"/>
</g>
<!-- node1 -->
<g id="node12" class="node">
<title>node1</title>
<ellipse fill="none" stroke="black" cx="310.44" cy="-234" rx="33.44" ry="18"/>
<text text-anchor="middle" x="310.44" y="-228.95" font-family="Times,serif" font-size="14.00">node1</text>
</g>
<!-- node13&#45;&gt;node1 -->
<g id="edge16" class="edge">
<title>node13&#45;&gt;node1</title>
<path fill="none" stroke="black" d="M304.56,-288.05C303.77,-280.57 303.51,-271.58 303.8,-263.14"/>
<polygon fill="black" stroke="black" points="307.29,-263.51 304.47,-253.3 300.3,-263.04 307.29,-263.51"/>
</g>
<!-- node17 -->
<g id="node6" class="node">
<title>node17</title>
<ellipse fill="none" stroke="black" cx="257.44" cy="-18" rx="38.04" ry="18"/>
<text text-anchor="middle" x="257.44" y="-12.95" font-family="Times,serif" font-size="14.00">node17</text>
</g>
<!-- node3 -->
<g id="node7" class="node">
<title>node3</title>
<ellipse fill="none" stroke="black" cx="268.44" cy="-162" rx="33.44" ry="18"/>
<text text-anchor="middle" x="268.44" y="-156.95" font-family="Times,serif" font-size="14.00">node3</text>
</g>
<!-- node17&#45;&gt;node3 -->
<g id="edge2" class="edge">
<title>node17&#45;&gt;node3</title>
<path fill="none" stroke="black" d="M263.35,-36.11C267.71,-59.92 271.4,-103.37 271.76,-132.22"/>
<polygon fill="black" stroke="black" points="268.26,-132.06 271.71,-142.07 275.26,-132.09 268.26,-132.06"/>
</g>
<!-- node3&#45;&gt;node17 -->
<g id="edge12" class="edge">
<title>node3&#45;&gt;node17</title>
<path fill="none" stroke="black" d="M262.53,-143.87C258.15,-119.99 254.46,-76.38 254.11,-47.54"/>
<polygon fill="black" stroke="black" points="257.61,-47.72 254.17,-37.7 250.61,-47.68 257.61,-47.72"/>
</g>
<!-- node3&#45;&gt;node1 -->
<g id="edge11" class="edge">
<title>node3&#45;&gt;node1</title>
<path fill="none" stroke="black" d="M283.24,-178.2C289.03,-186.22 295.39,-196.31 300.63,-205.64"/>
<polygon fill="black" stroke="black" points="297.48,-207.17 305.26,-214.36 303.66,-203.89 297.48,-207.17"/>
</g>
<!-- node7 -->
<g id="node13" class="node">
<title>node7</title>
<ellipse fill="none" stroke="black" cx="362.44" cy="-18" rx="33.44" ry="18"/>
<text text-anchor="middle" x="362.44" y="-12.95" font-family="Times,serif" font-size="14.00">node7</text>
</g>
<!-- node3&#45;&gt;node7 -->
<g id="edge9" class="edge">
<title>node3&#45;&gt;node7</title>
<path fill="none" stroke="black" d="M275.19,-143.87C289.13,-118.82 319.86,-72.06 341.03,-43.42"/>
<polygon fill="black" stroke="black" points="343.66,-45.75 346.9,-35.66 338.07,-41.53 343.66,-45.75"/>
</g>
<!-- node19 -->
<g id="node16" class="node">
<title>node19</title>
<ellipse fill="none" stroke="black" cx="379.44" cy="-90" rx="38.04" ry="18"/>
<text text-anchor="middle" x="379.44" y="-84.95" font-family="Times,serif" font-size="14.00">node19</text>
</g>
<!-- node3&#45;&gt;node19 -->
<g id="edge10" class="edge">
<title>node3&#45;&gt;node19</title>
<path fill="none" stroke="black" d="M285.84,-146.5C301.55,-135.72 324.84,-120.94 344.33,-109.34"/>
<polygon fill="black" stroke="black" points="345.95,-112.45 352.81,-104.37 342.41,-106.41 345.95,-112.45"/>
</g>
<!-- node9 -->
<g id="node8" class="node">
<title>node9</title>
<ellipse fill="none" stroke="black" cx="468.44" cy="-90" rx="33.44" ry="18"/>
<text text-anchor="middle" x="468.44" y="-84.95" font-family="Times,serif" font-size="14.00">node9</text>
</g>
<!-- node5 -->
<g id="node9" class="node">
<title>node5</title>
<ellipse fill="none" stroke="black" cx="406.44" cy="-162" rx="33.44" ry="18"/>
<text text-anchor="middle" x="406.44" y="-156.95" font-family="Times,serif" font-size="14.00">node5</text>
</g>
<!-- node9&#45;&gt;node5 -->
<g id="edge3" class="edge">
<title>node9&#45;&gt;node5</title>
<path fill="none" stroke="black" d="M459.5,-107.7C452.32,-116.93 442.22,-128.52 432.68,-138.54"/>
<polygon fill="black" stroke="black" points="430.44,-135.83 425.94,-145.42 435.44,-140.73 430.44,-135.83"/>
</g>
<!-- node11 -->
<g id="node10" class="node">
<title>node11</title>
<ellipse fill="none" stroke="black" cx="459.44" cy="-18" rx="38.04" ry="18"/>
<text text-anchor="middle" x="459.44" y="-12.95" font-family="Times,serif" font-size="14.00">node11</text>
</g>
<!-- node9&#45;&gt;node11 -->
<g id="edge4" class="edge">
<title>node9&#45;&gt;node11</title>
<path fill="none" stroke="black" d="M460.38,-72.05C458.65,-64.68 457.26,-55.84 456.46,-47.51"/>
<polygon fill="black" stroke="black" points="459.97,-47.54 455.84,-37.79 452.98,-47.99 459.97,-47.54"/>
</g>
<!-- node5&#45;&gt;node9 -->
<g id="edge15" class="edge">
<title>node5&#45;&gt;node9</title>
<path fill="none" stroke="black" d="M415.29,-144.41C422.55,-135.06 432.84,-123.26 442.51,-113.13"/>
<polygon fill="black" stroke="black" points="444.82,-115.77 449.34,-106.19 439.83,-110.86 444.82,-115.77"/>
</g>
<!-- node5&#45;&gt;node1 -->
<g id="edge14" class="edge">
<title>node5&#45;&gt;node1</title>
<path fill="none" stroke="black" d="M391.1,-178.34C377.88,-188.91 358.65,-203.01 342.21,-214.25"/>
<polygon fill="black" stroke="black" points="340.53,-211.16 334.17,-219.64 344.43,-216.98 340.53,-211.16"/>
</g>
<!-- node11&#45;&gt;node9 -->
<g id="edge13" class="edge">
<title>node11&#45;&gt;node9</title>
<path fill="none" stroke="black" d="M467.42,-35.62C469.17,-43.02 470.59,-51.94 471.4,-60.35"/>
<polygon fill="black" stroke="black" points="467.9,-60.43 472.03,-70.19 474.89,-59.98 467.9,-60.43"/>
</g>
<!-- node12 -->
<g id="node11" class="node">
<title>node12</title>
<ellipse fill="none" stroke="black" cx="404.44" cy="-378" rx="38.04" ry="18"/>
<text text-anchor="middle" x="404.44" y="-372.95" font-family="Times,serif" font-size="14.00">node12</text>
</g>
<!-- node1&#45;&gt;node13 -->
<g id="edge6" class="edge">
<title>node1&#45;&gt;node13</title>
<path fill="none" stroke="black" d="M316.3,-251.79C317.1,-259.25 317.36,-268.24 317.08,-276.69"/>
<polygon fill="black" stroke="black" points="313.59,-276.33 316.42,-286.54 320.58,-276.8 313.59,-276.33"/>
</g>
<!-- node1&#45;&gt;node3 -->
<g id="edge7" class="edge">
<title>node1&#45;&gt;node3</title>
<path fill="none" stroke="black" d="M295.4,-217.46C289.59,-209.39 283.24,-199.28 278.03,-189.98"/>
<polygon fill="black" stroke="black" points="281.21,-188.5 273.44,-181.3 275.03,-191.78 281.21,-188.5"/>
</g>
<!-- node1&#45;&gt;node5 -->
<g id="edge5" class="edge">
<title>node1&#45;&gt;node5</title>
<path fill="none" stroke="black" d="M325.59,-217.81C338.78,-207.26 358.04,-193.12 374.53,-181.84"/>
<polygon fill="black" stroke="black" points="376.24,-184.91 382.59,-176.43 372.34,-179.1 376.24,-184.91"/>
</g>
<!-- node7&#45;&gt;node3 -->
<g id="edge8" class="edge">
<title>node7&#45;&gt;node3</title>
<path fill="none" stroke="black" d="M355.89,-35.76C342.06,-60.71 311.16,-107.73 289.89,-136.53"/>
<polygon fill="black" stroke="black" points="287.23,-134.24 283.99,-144.33 292.81,-138.46 287.23,-134.24"/>
</g>
<!-- node20 -->
<g id="node14" class="node">
<title>node20</title>
<ellipse fill="none" stroke="black" cx="498.44" cy="-378" rx="38.04" ry="18"/>
<text text-anchor="middle" x="498.44" y="-372.95" font-family="Times,serif" font-size="14.00">node20</text>
</g>
<!-- node8 -->
<g id="node15" class="node">
<title>node8</title>
<ellipse fill="none" stroke="black" cx="587.44" cy="-378" rx="33.44" ry="18"/>
<text text-anchor="middle" x="587.44" y="-372.95" font-family="Times,serif" font-size="14.00">node8</text>
</g>
<!-- node19&#45;&gt;node3 -->
<g id="edge18" class="edge">
<title>node19&#45;&gt;node3</title>
<path fill="none" stroke="black" d="M361.14,-106.11C345.09,-117.09 321.59,-131.96 302.19,-143.46"/>
<polygon fill="black" stroke="black" points="300.66,-140.3 293.79,-148.36 304.19,-146.34 300.66,-140.3"/>
</g>
<!-- node4 -->
<g id="node17" class="node">
<title>node4</title>
<ellipse fill="none" stroke="black" cx="672.44" cy="-378" rx="33.44" ry="18"/>
<text text-anchor="middle" x="672.44" y="-372.95" font-family="Times,serif" font-size="14.00">node4</text>
</g>
<!-- node14 -->
<g id="node18" class="node">
<title>node14</title>
<ellipse fill="none" stroke="black" cx="761.44" cy="-378" rx="38.04" ry="18"/>
<text text-anchor="middle" x="761.44" y="-372.95" font-family="Times,serif" font-size="14.00">node14</text>
</g>
<!-- node18 -->
<g id="node19" class="node">
<title>node18</title>
<ellipse fill="none" stroke="black" cx="855.44" cy="-378" rx="38.04" ry="18"/>
<text text-anchor="middle" x="855.44" y="-372.95" font-family="Times,serif" font-size="14.00">node18</text>
</g>
<!-- node2 -->
<g id="node20" class="node">
<title>node2</title>
<ellipse fill="none" stroke="black" cx="944.44" cy="-378" rx="33.44" ry="18"/>
<text text-anchor="middle" x="944.44" y="-372.95" font-family="Times,serif" font-size="14.00">node2</text>
</g>
</g>
</svg>
