<?xml version="1.0" encoding="UTF-8" standalone="no"?>
<!DOCTYPE svg PUBLIC "-//W3C//DTD SVG 1.1//EN"
 "http://www.w3.org/Graphics/SVG/1.1/DTD/svg11.dtd">
<!-- Generated by graphviz version 12.2.1 (20241206.2353)
 -->
<!-- Pages: 1 -->
<svg width="809pt" height="332pt"
 viewBox="0.00 0.00 809.19 332.00" xmlns="http://www.w3.org/2000/svg" xmlns:xlink="http://www.w3.org/1999/xlink">
<g id="graph0" class="graph" transform="scale(1 1) rotate(0) translate(4 328)">
<polygon fill="white" stroke="none" points="-4,4 -4,-328 805.19,-328 805.19,4 -4,4"/>
<!-- node1 -->
<g id="node1" class="node">
<title>node1</title>
<ellipse fill="none" stroke="black" cx="99.04" cy="-306" rx="33.44" ry="18"/>
<text text-anchor="middle" x="99.04" y="-300.95" font-family="Times,serif" font-size="14.00">node1</text>
</g>
<!-- node5 -->
<g id="node2" class="node">
<title>node5</title>
<ellipse fill="none" stroke="black" cx="57.04" cy="-234" rx="33.44" ry="18"/>
<text text-anchor="middle" x="57.04" y="-228.95" font-family="Times,serif" font-size="14.00">node5</text>
</g>
<!-- node1&#45;&gt;node5 -->
<g id="edge1" class="edge">
<title>node1&#45;&gt;node5</title>
<path fill="none" stroke="black" d="M84,-289.46C78.2,-281.39 71.85,-271.28 66.64,-261.98"/>
<polygon fill="black" stroke="black" points="69.82,-260.5 62.05,-253.3 63.63,-263.78 69.82,-260.5"/>
</g>
<!-- node6 -->
<g id="node3" class="node">
<title>node6</title>
<ellipse fill="none" stroke="black" cx="156.04" cy="-234" rx="33.44" ry="18"/>
<text text-anchor="middle" x="156.04" y="-228.95" font-family="Times,serif" font-size="14.00">node6</text>
</g>
<!-- node1&#45;&gt;node6 -->
<g id="edge2" class="edge">
<title>node1&#45;&gt;node6</title>
<path fill="none" stroke="black" d="M106.96,-288.05C113.37,-279.01 122.37,-267.75 130.99,-257.93"/>
<polygon fill="black" stroke="black" points="133.57,-260.3 137.7,-250.54 128.39,-255.6 133.57,-260.3"/>
</g>
<!-- node10 -->
<g id="node4" class="node">
<title>node10</title>
<ellipse fill="none" stroke="black" cx="282.04" cy="-234" rx="38.04" ry="18"/>
<text text-anchor="middle" x="282.04" y="-228.95" font-family="Times,serif" font-size="14.00">node10</text>
</g>
<!-- node1&#45;&gt;node10 -->
<g id="edge3" class="edge">
<title>node1&#45;&gt;node10</title>
<path fill="none" stroke="black" d="M123.71,-293.6C153.73,-281.34 204.52,-261.87 240.55,-248.77"/>
<polygon fill="black" stroke="black" points="241.57,-252.12 249.79,-245.44 239.2,-245.54 241.57,-252.12"/>
</g>
<!-- node2 -->
<g id="node5" class="node">
<title>node2</title>
<ellipse fill="none" stroke="black" cx="464.04" cy="-234" rx="33.44" ry="18"/>
<text text-anchor="middle" x="464.04" y="-228.95" font-family="Times,serif" font-size="14.00">node2</text>
</g>
<!-- node1&#45;&gt;node2 -->
<g id="edge4" class="edge">
<title>node1&#45;&gt;node2</title>
<path fill="none" stroke="black" d="M129.86,-298.29C195.01,-285.15 346.29,-256.12 420.95,-242.43"/>
<polygon fill="black" stroke="black" points="421.55,-245.88 430.76,-240.64 420.3,-238.99 421.55,-245.88"/>
</g>
<!-- node5&#45;&gt;node1 -->
<g id="edge9" class="edge">
<title>node5&#45;&gt;node1</title>
<path fill="none" stroke="black" d="M71.85,-250.2C77.63,-258.22 84,-268.31 89.23,-277.64"/>
<polygon fill="black" stroke="black" points="86.08,-279.17 93.87,-286.36 92.27,-275.89 86.08,-279.17"/>
</g>
<!-- node15 -->
<g id="node8" class="node">
<title>node15</title>
<ellipse fill="none" stroke="black" cx="38.04" cy="-90" rx="38.04" ry="18"/>
<text text-anchor="middle" x="38.04" y="-84.95" font-family="Times,serif" font-size="14.00">node15</text>
</g>
<!-- node5&#45;&gt;node15 -->
<g id="edge7" class="edge">
<title>node5&#45;&gt;node15</title>
<path fill="none" stroke="black" d="M50.24,-216.15C44.5,-192.37 38.32,-148.62 36.34,-119.67"/>
<polygon fill="black" stroke="black" points="39.84,-119.59 35.83,-109.78 32.85,-119.94 39.84,-119.59"/>
</g>
<!-- node4 -->
<g id="node9" class="node">
<title>node4</title>
<ellipse fill="none" stroke="black" cx="101.04" cy="-162" rx="33.44" ry="18"/>
<text text-anchor="middle" x="101.04" y="-156.95" font-family="Times,serif" font-size="14.00">node4</text>
</g>
<!-- node5&#45;&gt;node4 -->
<g id="edge8" class="edge">
<title>node5&#45;&gt;node4</title>
<path fill="none" stroke="black" d="M61.82,-216.05C66.27,-207.53 72.67,-197.03 79.09,-187.63"/>
<polygon fill="black" stroke="black" points="81.86,-189.76 84.81,-179.59 76.16,-185.7 81.86,-189.76"/>
</g>
<!-- node6&#45;&gt;node1 -->
<g id="edge24" class="edge">
<title>node6&#45;&gt;node1</title>
<path fill="none" stroke="black" d="M148.12,-251.95C141.73,-260.97 132.76,-272.2 124.16,-282"/>
<polygon fill="black" stroke="black" points="121.59,-279.62 117.46,-289.38 126.78,-284.32 121.59,-279.62"/>
</g>
<!-- node7 -->
<g id="node7" class="node">
<title>node7</title>
<ellipse fill="none" stroke="black" cx="188.04" cy="-18" rx="33.44" ry="18"/>
<text text-anchor="middle" x="188.04" y="-12.95" font-family="Times,serif" font-size="14.00">node7</text>
</g>
<!-- node6&#45;&gt;node7 -->
<g id="edge26" class="edge">
<title>node6&#45;&gt;node7</title>
<path fill="none" stroke="black" d="M152.69,-215.61C153.43,-191.47 160.32,-146.43 166.04,-108 169.09,-87.55 172.47,-64.43 176.26,-46.89"/>
<polygon fill="black" stroke="black" points="179.65,-47.75 178.6,-37.21 172.85,-46.11 179.65,-47.75"/>
</g>
<!-- node13 -->
<g id="node17" class="node">
<title>node13</title>
<ellipse fill="none" stroke="black" cx="247.04" cy="-162" rx="38.04" ry="18"/>
<text text-anchor="middle" x="247.04" y="-156.95" font-family="Times,serif" font-size="14.00">node13</text>
</g>
<!-- node6&#45;&gt;node13 -->
<g id="edge25" class="edge">
<title>node6&#45;&gt;node13</title>
<path fill="none" stroke="black" d="M170.52,-217.46C182.5,-207.32 199.69,-193.99 214.81,-183.05"/>
<polygon fill="black" stroke="black" points="216.53,-186.12 222.66,-177.48 212.48,-180.41 216.53,-186.12"/>
</g>
<!-- node10&#45;&gt;node1 -->
<g id="edge15" class="edge">
<title>node10&#45;&gt;node1</title>
<path fill="none" stroke="black" d="M255.25,-247.27C224.19,-259.89 173.05,-279.46 137.71,-292.25"/>
<polygon fill="black" stroke="black" points="136.95,-288.81 128.72,-295.48 139.32,-295.4 136.95,-288.81"/>
</g>
<!-- node20 -->
<g id="node6" class="node">
<title>node20</title>
<ellipse fill="none" stroke="black" cx="277.04" cy="-18" rx="38.04" ry="18"/>
<text text-anchor="middle" x="277.04" y="-12.95" font-family="Times,serif" font-size="14.00">node20</text>
</g>
<!-- node10&#45;&gt;node20 -->
<g id="edge14" class="edge">
<title>node10&#45;&gt;node20</title>
<path fill="none" stroke="black" d="M279.09,-215.98C280.61,-205.67 283.68,-192.19 285.04,-180 286.82,-164.1 286.12,-159.96 285.04,-144 282.79,-110.76 277.22,-72.89 274.95,-47.63"/>
<polygon fill="black" stroke="black" points="278.45,-47.55 274.24,-37.82 271.47,-48.05 278.45,-47.55"/>
</g>
<!-- node11 -->
<g id="node13" class="node">
<title>node11</title>
<ellipse fill="none" stroke="black" cx="339.04" cy="-90" rx="38.04" ry="18"/>
<text text-anchor="middle" x="339.04" y="-84.95" font-family="Times,serif" font-size="14.00">node11</text>
</g>
<!-- node10&#45;&gt;node11 -->
<g id="edge16" class="edge">
<title>node10&#45;&gt;node11</title>
<path fill="none" stroke="black" d="M301.08,-218.07C313.55,-209 328.56,-196.07 336.04,-180 344.8,-161.2 342.75,-137.72 340.1,-119.6"/>
<polygon fill="black" stroke="black" points="343.57,-119.14 338.57,-109.8 336.65,-120.22 343.57,-119.14"/>
</g>
<!-- node14 -->
<g id="node14" class="node">
<title>node14</title>
<ellipse fill="none" stroke="black" cx="399.04" cy="-18" rx="38.04" ry="18"/>
<text text-anchor="middle" x="399.04" y="-12.95" font-family="Times,serif" font-size="14.00">node14</text>
</g>
<!-- node10&#45;&gt;node14 -->
<g id="edge17" class="edge">
<title>node10&#45;&gt;node14</title>
<path fill="none" stroke="black" d="M308.23,-220.76C326.08,-212.2 348.57,-198.89 362.04,-180 390.19,-140.54 393.24,-82.03 394.83,-47.49"/>
<polygon fill="black" stroke="black" points="398.31,-48 395.3,-37.85 391.32,-47.67 398.31,-48"/>
</g>
<!-- node19 -->
<g id="node15" class="node">
<title>node19</title>
<ellipse fill="none" stroke="black" cx="489.04" cy="-90" rx="38.04" ry="18"/>
<text text-anchor="middle" x="489.04" y="-84.95" font-family="Times,serif" font-size="14.00">node19</text>
</g>
<!-- node10&#45;&gt;node19 -->
<g id="edge18" class="edge">
<title>node10&#45;&gt;node19</title>
<path fill="none" stroke="black" d="M319.69,-230.46C356.84,-225.93 412.72,-213.56 448.04,-180 464.88,-164 472.88,-138.51 478.19,-118.9"/>
<polygon fill="black" stroke="black" points="481.54,-119.9 480.73,-109.34 474.78,-118.1 481.54,-119.9"/>
</g>
<!-- node2&#45;&gt;node1 -->
<g id="edge37" class="edge">
<title>node2&#45;&gt;node1</title>
<path fill="none" stroke="black" d="M433.26,-241.71C368.15,-254.84 216.89,-283.86 142.19,-297.56"/>
<polygon fill="black" stroke="black" points="141.59,-294.11 132.38,-299.35 142.84,-301 141.59,-294.11"/>
</g>
<!-- node8 -->
<g id="node10" class="node">
<title>node8</title>
<ellipse fill="none" stroke="black" cx="560.04" cy="-162" rx="33.44" ry="18"/>
<text text-anchor="middle" x="560.04" y="-156.95" font-family="Times,serif" font-size="14.00">node8</text>
</g>
<!-- node2&#45;&gt;node8 -->
<g id="edge34" class="edge">
<title>node2&#45;&gt;node8</title>
<path fill="none" stroke="black" d="M479.2,-217.81C492.39,-207.26 511.65,-193.12 528.14,-181.84"/>
<polygon fill="black" stroke="black" points="529.85,-184.91 536.2,-176.43 525.95,-179.1 529.85,-184.91"/>
</g>
<!-- node12 -->
<g id="node18" class="node">
<title>node12</title>
<ellipse fill="none" stroke="black" cx="649.04" cy="-162" rx="38.04" ry="18"/>
<text text-anchor="middle" x="649.04" y="-156.95" font-family="Times,serif" font-size="14.00">node12</text>
</g>
<!-- node2&#45;&gt;node12 -->
<g id="edge35" class="edge">
<title>node2&#45;&gt;node12</title>
<path fill="none" stroke="black" d="M489.04,-221.6C519.49,-209.31 571.05,-189.76 607.47,-176.66"/>
<polygon fill="black" stroke="black" points="608.58,-179.98 616.82,-173.32 606.23,-173.39 608.58,-179.98"/>
</g>
<!-- node3 -->
<g id="node19" class="node">
<title>node3</title>
<ellipse fill="none" stroke="black" cx="738.04" cy="-162" rx="33.44" ry="18"/>
<text text-anchor="middle" x="738.04" y="-156.95" font-family="Times,serif" font-size="14.00">node3</text>
</g>
<!-- node2&#45;&gt;node3 -->
<g id="edge33" class="edge">
<title>node2&#45;&gt;node3</title>
<path fill="none" stroke="black" d="M494.8,-226.43C538.3,-217.81 619.45,-201.25 687.04,-180 690.95,-178.77 695.01,-177.34 699.06,-175.84"/>
<polygon fill="black" stroke="black" points="700.19,-179.16 708.29,-172.33 697.7,-172.61 700.19,-179.16"/>
</g>
<!-- node16 -->
<g id="node20" class="node">
<title>node16</title>
<ellipse fill="none" stroke="black" cx="650.04" cy="-18" rx="38.04" ry="18"/>
<text text-anchor="middle" x="650.04" y="-12.95" font-family="Times,serif" font-size="14.00">node16</text>
</g>
<!-- node2&#45;&gt;node16 -->
<g id="edge36" class="edge">
<title>node2&#45;&gt;node16</title>
<path fill="none" stroke="black" d="M497.77,-232.47C570.15,-230.53 735.92,-221.51 771.04,-180 813.27,-130.1 729.79,-69.79 681.2,-39.09"/>
<polygon fill="black" stroke="black" points="683.33,-36.29 672.99,-33.98 679.63,-42.23 683.33,-36.29"/>
</g>
<!-- node20&#45;&gt;node10 -->
<g id="edge5" class="edge">
<title>node20&#45;&gt;node10</title>
<path fill="none" stroke="black" d="M286.06,-35.91C293.22,-59.87 300.41,-105.1 303.04,-144 304.12,-159.96 304.82,-164.1 303.04,-180 302.08,-188.64 300.25,-197.92 297.89,-206.27"/>
<polygon fill="black" stroke="black" points="294.66,-204.89 294.85,-215.48 301.31,-207.09 294.66,-204.89"/>
</g>
<!-- node7&#45;&gt;node6 -->
<g id="edge6" class="edge">
<title>node7&#45;&gt;node6</title>
<path fill="none" stroke="black" d="M192.3,-36.07C191.99,-53.99 187.77,-82.98 184.04,-108 179.04,-141.55 173.16,-180.14 167.3,-205.46"/>
<polygon fill="black" stroke="black" points="163.96,-204.4 164.89,-214.96 170.74,-206.12 163.96,-204.4"/>
</g>
<!-- node15&#45;&gt;node5 -->
<g id="edge21" class="edge">
<title>node15&#45;&gt;node5</title>
<path fill="none" stroke="black" d="M44.92,-108.11C50.62,-131.92 56.76,-175.37 58.74,-204.22"/>
<polygon fill="black" stroke="black" points="55.24,-204.27 59.25,-214.08 62.23,-203.91 55.24,-204.27"/>
</g>
<!-- node4&#45;&gt;node5 -->
<g id="edge32" class="edge">
<title>node4&#45;&gt;node5</title>
<path fill="none" stroke="black" d="M96.18,-180.13C91.69,-188.68 85.28,-199.18 78.87,-208.57"/>
<polygon fill="black" stroke="black" points="76.11,-206.41 73.15,-216.58 81.81,-210.48 76.11,-206.41"/>
</g>
<!-- node9 -->
<g id="node16" class="node">
<title>node9</title>
<ellipse fill="none" stroke="black" cx="133.04" cy="-90" rx="33.44" ry="18"/>
<text text-anchor="middle" x="133.04" y="-84.95" font-family="Times,serif" font-size="14.00">node9</text>
</g>
<!-- node4&#45;&gt;node9 -->
<g id="edge31" class="edge">
<title>node4&#45;&gt;node9</title>
<path fill="none" stroke="black" d="M103.04,-143.7C105.92,-135.55 110.24,-125.66 114.78,-116.67"/>
<polygon fill="black" stroke="black" points="117.78,-118.47 119.43,-108 111.62,-115.16 117.78,-118.47"/>
</g>
<!-- node8&#45;&gt;node2 -->
<g id="edge10" class="edge">
<title>node8&#45;&gt;node2</title>
<path fill="none" stroke="black" d="M544.71,-178.34C531.49,-188.91 512.26,-203.01 495.82,-214.25"/>
<polygon fill="black" stroke="black" points="494.13,-211.16 487.78,-219.64 498.03,-216.98 494.13,-211.16"/>
</g>
<!-- node18 -->
<g id="node11" class="node">
<title>node18</title>
<ellipse fill="none" stroke="black" cx="658.04" cy="-90" rx="38.04" ry="18"/>
<text text-anchor="middle" x="658.04" y="-84.95" font-family="Times,serif" font-size="14.00">node18</text>
</g>
<!-- node8&#45;&gt;node18 -->
<g id="edge11" class="edge">
<title>node8&#45;&gt;node18</title>
<path fill="none" stroke="black" d="M575.63,-145.81C588.86,-135.46 608.04,-121.66 624.63,-110.49"/>
<polygon fill="black" stroke="black" points="626.36,-113.54 632.77,-105.11 622.5,-107.7 626.36,-113.54"/>
</g>
<!-- node18&#45;&gt;node8 -->
<g id="edge13" class="edge">
<title>node18&#45;&gt;node8</title>
<path fill="none" stroke="black" d="M641.94,-106.59C628.41,-117.14 608.93,-131.14 592.29,-142.29"/>
<polygon fill="black" stroke="black" points="590.57,-139.23 584.14,-147.65 594.42,-145.08 590.57,-139.23"/>
</g>
<!-- node17 -->
<g id="node12" class="node">
<title>node17</title>
<ellipse fill="none" stroke="black" cx="535.04" cy="-18" rx="38.04" ry="18"/>
<text text-anchor="middle" x="535.04" y="-12.95" font-family="Times,serif" font-size="14.00">node17</text>
</g>
<!-- node18&#45;&gt;node17 -->
<g id="edge12" class="edge">
<title>node18&#45;&gt;node17</title>
<path fill="none" stroke="black" d="M631.35,-76.81C611.75,-66.55 585.29,-51.67 564.99,-39.58"/>
<polygon fill="black" stroke="black" points="566.96,-36.68 556.59,-34.5 563.34,-42.67 566.96,-36.68"/>
</g>
<!-- node17&#45;&gt;node18 -->
<g id="edge19" class="edge">
<title>node17&#45;&gt;node18</title>
<path fill="none" stroke="black" d="M561.55,-31.09C581.18,-41.36 607.77,-56.31 628.15,-68.45"/>
<polygon fill="black" stroke="black" points="626.21,-71.37 636.58,-73.54 629.83,-65.38 626.21,-71.37"/>
</g>
<!-- node11&#45;&gt;node10 -->
<g id="edge29" class="edge">
<title>node11&#45;&gt;node10</title>
<path fill="none" stroke="black" d="M351.18,-107.29C359.08,-125.82 364.96,-156.55 354.04,-180 347.15,-194.81 333.86,-206.95 320.46,-215.87"/>
<polygon fill="black" stroke="black" points="318.77,-212.79 312.06,-220.99 322.42,-218.77 318.77,-212.79"/>
</g>
<!-- node14&#45;&gt;node10 -->
<g id="edge20" class="edge">
<title>node14&#45;&gt;node10</title>
<path fill="none" stroke="black" d="M405.8,-35.84C411.61,-67.26 411.67,-135.65 380.04,-180 366.86,-198.49 345.02,-211.64 325.19,-220.21"/>
<polygon fill="black" stroke="black" points="324.15,-216.86 316.17,-223.83 326.75,-223.36 324.15,-216.86"/>
</g>
<!-- node19&#45;&gt;node10 -->
<g id="edge22" class="edge">
<title>node19&#45;&gt;node10</title>
<path fill="none" stroke="black" d="M493.85,-108.23C493.66,-128.22 486.16,-160.89 466.04,-180 430.05,-214.2 372.7,-226.4 331.48,-230.71"/>
<polygon fill="black" stroke="black" points="331.2,-227.22 321.56,-231.61 331.83,-234.19 331.2,-227.22"/>
</g>
<!-- node9&#45;&gt;node4 -->
<g id="edge23" class="edge">
<title>node9&#45;&gt;node4</title>
<path fill="none" stroke="black" d="M131.05,-108.29C128.19,-116.39 123.91,-126.2 119.4,-135.15"/>
<polygon fill="black" stroke="black" points="116.42,-133.31 114.78,-143.78 122.59,-136.62 116.42,-133.31"/>
</g>
<!-- node13&#45;&gt;node6 -->
<g id="edge28" class="edge">
<title>node13&#45;&gt;node6</title>
<path fill="none" stroke="black" d="M232.07,-178.95C219.83,-189.29 202.36,-202.81 187.19,-213.74"/>
<polygon fill="black" stroke="black" points="185.48,-210.66 179.34,-219.29 189.52,-216.37 185.48,-210.66"/>
</g>
<!-- node12&#45;&gt;node2 -->
<g id="edge27" class="edge">
<title>node12&#45;&gt;node2</title>
<path fill="none" stroke="black" d="M622.21,-175.14C590.83,-187.76 538.93,-207.41 503.11,-220.24"/>
<polygon fill="black" stroke="black" points="502.23,-216.84 493.98,-223.49 504.57,-223.44 502.23,-216.84"/>
</g>
<!-- node3&#45;&gt;node2 -->
<g id="edge30" class="edge">
<title>node3&#45;&gt;node2</title>
<path fill="none" stroke="black" d="M716.45,-176.02C712.69,-177.45 708.8,-178.82 705.04,-180 637.36,-201.28 556.08,-217.86 507.19,-226.47"/>
<polygon fill="black" stroke="black" points="506.83,-222.98 497.57,-228.13 508.02,-229.88 506.83,-222.98"/>
</g>
<!-- node16&#45;&gt;node2 -->
<g id="edge38" class="edge">
<title>node16&#45;&gt;node2</title>
<path fill="none" stroke="black" d="M677.36,-30.87C730.01,-57.74 835.46,-125.15 789.04,-180 754.11,-221.28 589.95,-230.43 509.07,-232.44"/>
<polygon fill="black" stroke="black" points="509.2,-228.94 499.28,-232.66 509.36,-235.94 509.2,-228.94"/>
</g>
</g>
</svg>
