<?xml version="1.0" encoding="UTF-8" standalone="no"?>
<!DOCTYPE svg PUBLIC "-//W3C//DTD SVG 1.1//EN"
 "http://www.w3.org/Graphics/SVG/1.1/DTD/svg11.dtd">
<!-- Generated by graphviz version 12.2.1 (20241206.2353)
 -->
<!-- Pages: 1 -->
<svg width="634pt" height="404pt"
 viewBox="0.00 0.00 634.48 404.00" xmlns="http://www.w3.org/2000/svg" xmlns:xlink="http://www.w3.org/1999/xlink">
<g id="graph0" class="graph" transform="scale(1 1) rotate(0) translate(4 400)">
<polygon fill="white" stroke="none" points="-4,4 -4,-400 630.48,-400 630.48,4 -4,4"/>
<!-- node9 -->
<g id="node1" class="node">
<title>node9</title>
<ellipse fill="none" stroke="black" cx="33.44" cy="-378" rx="33.44" ry="18"/>
<text text-anchor="middle" x="33.44" y="-372.95" font-family="Times,serif" font-size="14.00">node9</text>
</g>
<!-- node14 -->
<g id="node2" class="node">
<title>node14</title>
<ellipse fill="none" stroke="black" cx="72.44" cy="-18" rx="38.04" ry="18"/>
<text text-anchor="middle" x="72.44" y="-12.95" font-family="Times,serif" font-size="14.00">node14</text>
</g>
<!-- node9&#45;&gt;node14 -->
<g id="edge1" class="edge">
<title>node9&#45;&gt;node14</title>
<path fill="none" stroke="black" d="M22.26,-360.85C18.91,-350.4 16.49,-336.46 15.44,-324 14.09,-308.06 14.7,-303.98 15.44,-288 19.89,-191.69 7.94,-164.41 35.44,-72 38.34,-62.25 43.11,-52.22 48.39,-43.54"/>
<polygon fill="black" stroke="black" points="51.24,-45.58 53.91,-35.33 45.43,-41.68 51.24,-45.58"/>
</g>
<!-- node20 -->
<g id="node3" class="node">
<title>node20</title>
<ellipse fill="none" stroke="black" cx="71.44" cy="-306" rx="38.04" ry="18"/>
<text text-anchor="middle" x="71.44" y="-300.95" font-family="Times,serif" font-size="14.00">node20</text>
</g>
<!-- node9&#45;&gt;node20 -->
<g id="edge2" class="edge">
<title>node9&#45;&gt;node20</title>
<path fill="none" stroke="black" d="M36.92,-359.7C40.54,-351.46 45.77,-341.45 51.15,-332.37"/>
<polygon fill="black" stroke="black" points="54.07,-334.29 56.39,-323.96 48.13,-330.59 54.07,-334.29"/>
</g>
<!-- node14&#45;&gt;node9 -->
<g id="edge3" class="edge">
<title>node14&#45;&gt;node9</title>
<path fill="none" stroke="black" d="M68.93,-36.4C64.02,-46.4 57.18,-59.43 53.44,-72 25.94,-164.41 37.89,-191.69 33.44,-288 32.7,-303.98 32.09,-308.06 33.44,-324 34.11,-332.03 35.36,-340.67 36.37,-348.6"/>
<polygon fill="black" stroke="black" points="32.87,-348.84 37.44,-358.4 39.83,-348.08 32.87,-348.84"/>
</g>
<!-- node20&#45;&gt;node9 -->
<g id="edge14" class="edge">
<title>node20&#45;&gt;node9</title>
<path fill="none" stroke="black" d="M68.11,-323.96C64.44,-332.35 59.06,-342.65 53.55,-351.93"/>
<polygon fill="black" stroke="black" points="50.73,-349.85 48.39,-360.18 56.66,-353.56 50.73,-349.85"/>
</g>
<!-- node10 -->
<g id="node4" class="node">
<title>node10</title>
<ellipse fill="none" stroke="black" cx="83.44" cy="-234" rx="38.04" ry="18"/>
<text text-anchor="middle" x="83.44" y="-228.95" font-family="Times,serif" font-size="14.00">node10</text>
</g>
<!-- node20&#45;&gt;node10 -->
<g id="edge15" class="edge">
<title>node20&#45;&gt;node10</title>
<path fill="none" stroke="black" d="M68.49,-287.7C69.01,-280.13 70.33,-271.06 72.09,-262.59"/>
<polygon fill="black" stroke="black" points="75.44,-263.64 74.39,-253.09 68.64,-261.99 75.44,-263.64"/>
</g>
<!-- node1 -->
<g id="node9" class="node">
<title>node1</title>
<ellipse fill="none" stroke="black" cx="178.44" cy="-234" rx="33.44" ry="18"/>
<text text-anchor="middle" x="178.44" y="-228.95" font-family="Times,serif" font-size="14.00">node1</text>
</g>
<!-- node20&#45;&gt;node1 -->
<g id="edge13" class="edge">
<title>node20&#45;&gt;node1</title>
<path fill="none" stroke="black" d="M88.98,-289.81C104.15,-279.02 126.26,-264.49 144.78,-253.1"/>
<polygon fill="black" stroke="black" points="146.59,-256.09 153.33,-247.92 142.97,-250.1 146.59,-256.09"/>
</g>
<!-- node10&#45;&gt;node20 -->
<g id="edge4" class="edge">
<title>node10&#45;&gt;node20</title>
<path fill="none" stroke="black" d="M86.39,-252.28C85.88,-259.69 84.61,-268.54 82.9,-276.86"/>
<polygon fill="black" stroke="black" points="79.49,-276.04 80.57,-286.58 86.3,-277.67 79.49,-276.04"/>
</g>
<!-- node12 -->
<g id="node5" class="node">
<title>node12</title>
<ellipse fill="none" stroke="black" cx="458.44" cy="-18" rx="38.04" ry="18"/>
<text text-anchor="middle" x="458.44" y="-12.95" font-family="Times,serif" font-size="14.00">node12</text>
</g>
<!-- node3 -->
<g id="node6" class="node">
<title>node3</title>
<ellipse fill="none" stroke="black" cx="555.44" cy="-90" rx="33.44" ry="18"/>
<text text-anchor="middle" x="555.44" y="-84.95" font-family="Times,serif" font-size="14.00">node3</text>
</g>
<!-- node12&#45;&gt;node3 -->
<g id="edge5" class="edge">
<title>node12&#45;&gt;node3</title>
<path fill="none" stroke="black" d="M482.26,-32.27C497.23,-42.07 516.31,-55.63 531.32,-67.04"/>
<polygon fill="black" stroke="black" points="528.82,-69.53 538.87,-72.88 533.11,-64 528.82,-69.53"/>
</g>
<!-- node3&#45;&gt;node12 -->
<g id="edge16" class="edge">
<title>node3&#45;&gt;node12</title>
<path fill="none" stroke="black" d="M532.78,-76.49C517.87,-66.78 498.54,-53.08 483.24,-41.48"/>
<polygon fill="black" stroke="black" points="485.57,-38.86 475.51,-35.52 481.29,-44.4 485.57,-38.86"/>
</g>
<!-- node13 -->
<g id="node17" class="node">
<title>node13</title>
<ellipse fill="none" stroke="black" cx="430.44" cy="-162" rx="38.04" ry="18"/>
<text text-anchor="middle" x="430.44" y="-156.95" font-family="Times,serif" font-size="14.00">node13</text>
</g>
<!-- node3&#45;&gt;node13 -->
<g id="edge17" class="edge">
<title>node3&#45;&gt;node13</title>
<path fill="none" stroke="black" d="M535.9,-105.04C517.45,-116.2 489.61,-131.87 467.09,-143.78"/>
<polygon fill="black" stroke="black" points="465.75,-140.53 458.51,-148.27 468.99,-146.74 465.75,-140.53"/>
</g>
<!-- node19 -->
<g id="node7" class="node">
<title>node19</title>
<ellipse fill="none" stroke="black" cx="91.44" cy="-162" rx="38.04" ry="18"/>
<text text-anchor="middle" x="91.44" y="-156.95" font-family="Times,serif" font-size="14.00">node19</text>
</g>
<!-- node11 -->
<g id="node8" class="node">
<title>node11</title>
<ellipse fill="none" stroke="black" cx="91.44" cy="-90" rx="38.04" ry="18"/>
<text text-anchor="middle" x="91.44" y="-84.95" font-family="Times,serif" font-size="14.00">node11</text>
</g>
<!-- node19&#45;&gt;node11 -->
<g id="edge6" class="edge">
<title>node19&#45;&gt;node11</title>
<path fill="none" stroke="black" d="M85.56,-144.05C84.78,-136.68 84.52,-127.84 84.79,-119.51"/>
<polygon fill="black" stroke="black" points="88.27,-119.99 85.43,-109.79 81.28,-119.54 88.27,-119.99"/>
</g>
<!-- node19&#45;&gt;node1 -->
<g id="edge7" class="edge">
<title>node19&#45;&gt;node1</title>
<path fill="none" stroke="black" d="M114.13,-176.83C127.24,-186.34 143.5,-199.19 156.47,-210.2"/>
<polygon fill="black" stroke="black" points="153.86,-212.57 163.71,-216.47 158.44,-207.28 153.86,-212.57"/>
</g>
<!-- node8 -->
<g id="node10" class="node">
<title>node8</title>
<ellipse fill="none" stroke="black" cx="180.44" cy="-90" rx="33.44" ry="18"/>
<text text-anchor="middle" x="180.44" y="-84.95" font-family="Times,serif" font-size="14.00">node8</text>
</g>
<!-- node19&#45;&gt;node8 -->
<g id="edge8" class="edge">
<title>node19&#45;&gt;node8</title>
<path fill="none" stroke="black" d="M105.87,-145.12C117.66,-134.92 134.45,-121.61 149.19,-110.74"/>
<polygon fill="black" stroke="black" points="151.23,-113.59 157.28,-104.9 147.13,-107.92 151.23,-113.59"/>
</g>
<!-- node11&#45;&gt;node19 -->
<g id="edge18" class="edge">
<title>node11&#45;&gt;node19</title>
<path fill="none" stroke="black" d="M97.35,-108.28C98.11,-115.6 98.35,-124.34 98.08,-132.57"/>
<polygon fill="black" stroke="black" points="94.59,-132.33 97.42,-142.54 101.57,-132.8 94.59,-132.33"/>
</g>
<!-- node1&#45;&gt;node20 -->
<g id="edge31" class="edge">
<title>node1&#45;&gt;node20</title>
<path fill="none" stroke="black" d="M161.24,-249.94C146.37,-260.53 124.67,-274.82 106.25,-286.19"/>
<polygon fill="black" stroke="black" points="104.45,-283.19 97.72,-291.37 108.08,-289.17 104.45,-283.19"/>
</g>
<!-- node1&#45;&gt;node19 -->
<g id="edge30" class="edge">
<title>node1&#45;&gt;node19</title>
<path fill="none" stroke="black" d="M156.66,-219.83C143.64,-210.44 127.29,-197.55 114.13,-186.42"/>
<polygon fill="black" stroke="black" points="116.61,-183.94 106.76,-180.05 112.04,-189.23 116.61,-183.94"/>
</g>
<!-- node15 -->
<g id="node12" class="node">
<title>node15</title>
<ellipse fill="none" stroke="black" cx="217.44" cy="-162" rx="38.04" ry="18"/>
<text text-anchor="middle" x="217.44" y="-156.95" font-family="Times,serif" font-size="14.00">node15</text>
</g>
<!-- node1&#45;&gt;node15 -->
<g id="edge28" class="edge">
<title>node1&#45;&gt;node15</title>
<path fill="none" stroke="black" d="M182.16,-215.7C185.9,-207.46 191.28,-197.45 196.78,-188.37"/>
<polygon fill="black" stroke="black" points="199.73,-190.26 202.16,-179.95 193.83,-186.5 199.73,-190.26"/>
</g>
<!-- node1&#45;&gt;node13 -->
<g id="edge32" class="edge">
<title>node1&#45;&gt;node13</title>
<path fill="none" stroke="black" d="M206.65,-223.85C250.31,-211.01 334.21,-187.67 386.03,-173.93"/>
<polygon fill="black" stroke="black" points="386.65,-177.39 395.43,-171.45 384.86,-170.62 386.65,-177.39"/>
</g>
<!-- node18 -->
<g id="node19" class="node">
<title>node18</title>
<ellipse fill="none" stroke="black" cx="588.44" cy="-18" rx="38.04" ry="18"/>
<text text-anchor="middle" x="588.44" y="-12.95" font-family="Times,serif" font-size="14.00">node18</text>
</g>
<!-- node1&#45;&gt;node18 -->
<g id="edge29" class="edge">
<title>node1&#45;&gt;node18</title>
<path fill="none" stroke="black" d="M211.56,-230.63C266.6,-226.08 379.06,-213.43 468.44,-180 526.69,-158.21 557.79,-162.12 588.44,-108 598.79,-89.71 595.68,-65.88 591.78,-47.48"/>
<polygon fill="black" stroke="black" points="595.2,-46.74 589.57,-37.77 588.38,-48.29 595.2,-46.74"/>
</g>
<!-- node8&#45;&gt;node19 -->
<g id="edge9" class="edge">
<title>node8&#45;&gt;node19</title>
<path fill="none" stroke="black" d="M166.27,-106.65C154.65,-116.72 138.05,-129.9 123.36,-140.76"/>
<polygon fill="black" stroke="black" points="121.32,-137.91 115.28,-146.61 125.43,-143.58 121.32,-137.91"/>
</g>
<!-- node5 -->
<g id="node11" class="node">
<title>node5</title>
<ellipse fill="none" stroke="black" cx="189.44" cy="-18" rx="33.44" ry="18"/>
<text text-anchor="middle" x="189.44" y="-12.95" font-family="Times,serif" font-size="14.00">node5</text>
</g>
<!-- node5&#45;&gt;node15 -->
<g id="edge10" class="edge">
<title>node5&#45;&gt;node15</title>
<path fill="none" stroke="black" d="M208.58,-32.8C217.79,-42.93 227.27,-57.41 231.44,-72 237.17,-92.04 235.48,-115.64 231.29,-133.49"/>
<polygon fill="black" stroke="black" points="227.92,-132.53 228.55,-143.11 234.66,-134.45 227.92,-132.53"/>
</g>
<!-- node15&#45;&gt;node1 -->
<g id="edge26" class="edge">
<title>node15&#45;&gt;node1</title>
<path fill="none" stroke="black" d="M213.87,-179.96C210.08,-188.35 204.55,-198.65 198.91,-207.93"/>
<polygon fill="black" stroke="black" points="196.07,-205.88 193.63,-216.19 201.96,-209.65 196.07,-205.88"/>
</g>
<!-- node15&#45;&gt;node5 -->
<g id="edge27" class="edge">
<title>node15&#45;&gt;node5</title>
<path fill="none" stroke="black" d="M215.03,-143.56C216.5,-125.34 220.33,-96.11 213.44,-72 210.83,-62.87 206.14,-53.78 201.46,-45.78"/>
<polygon fill="black" stroke="black" points="204.47,-43.98 196.28,-37.26 198.49,-47.62 204.47,-43.98"/>
</g>
<!-- node16 -->
<g id="node13" class="node">
<title>node16</title>
<ellipse fill="none" stroke="black" cx="292.44" cy="-18" rx="38.04" ry="18"/>
<text text-anchor="middle" x="292.44" y="-12.95" font-family="Times,serif" font-size="14.00">node16</text>
</g>
<!-- node15&#45;&gt;node16 -->
<g id="edge24" class="edge">
<title>node15&#45;&gt;node16</title>
<path fill="none" stroke="black" d="M219.55,-143.93C224.32,-133.6 231.95,-120.12 238.44,-108 249.78,-86.82 262.05,-62.45 272.34,-44.57"/>
<polygon fill="black" stroke="black" points="275.24,-46.55 277.37,-36.17 269.23,-42.95 275.24,-46.55"/>
</g>
<!-- node17 -->
<g id="node14" class="node">
<title>node17</title>
<ellipse fill="none" stroke="black" cx="381.44" cy="-90" rx="38.04" ry="18"/>
<text text-anchor="middle" x="381.44" y="-84.95" font-family="Times,serif" font-size="14.00">node17</text>
</g>
<!-- node15&#45;&gt;node17 -->
<g id="edge25" class="edge">
<title>node15&#45;&gt;node17</title>
<path fill="none" stroke="black" d="M242.51,-148C268.79,-136.04 310.21,-118.33 341.06,-105.83"/>
<polygon fill="black" stroke="black" points="342.11,-109.18 350.08,-102.21 339.5,-102.68 342.11,-109.18"/>
</g>
<!-- node7 -->
<g id="node18" class="node">
<title>node7</title>
<ellipse fill="none" stroke="black" cx="470.44" cy="-90" rx="33.44" ry="18"/>
<text text-anchor="middle" x="470.44" y="-84.95" font-family="Times,serif" font-size="14.00">node7</text>
</g>
<!-- node15&#45;&gt;node7 -->
<g id="edge23" class="edge">
<title>node15&#45;&gt;node7</title>
<path fill="none" stroke="black" d="M250.52,-152.74C290.94,-143.46 360.73,-127.15 419.44,-108 423.33,-106.73 427.38,-105.27 431.43,-103.76"/>
<polygon fill="black" stroke="black" points="432.56,-107.07 440.66,-100.24 430.07,-100.53 432.56,-107.07"/>
</g>
<!-- node16&#45;&gt;node15 -->
<g id="edge11" class="edge">
<title>node16&#45;&gt;node15</title>
<path fill="none" stroke="black" d="M290.77,-36.18C284.18,-54.2 269.68,-83.27 256.44,-108 251.43,-117.35 245.75,-127.5 240.14,-136.4"/>
<polygon fill="black" stroke="black" points="237.35,-134.27 234.72,-144.54 243.18,-138.15 237.35,-134.27"/>
</g>
<!-- node17&#45;&gt;node15 -->
<g id="edge12" class="edge">
<title>node17&#45;&gt;node15</title>
<path fill="none" stroke="black" d="M356.37,-104C330.08,-115.96 288.65,-133.68 257.79,-146.18"/>
<polygon fill="black" stroke="black" points="256.74,-142.83 248.76,-149.8 259.34,-149.33 256.74,-142.83"/>
</g>
<!-- node4 -->
<g id="node15" class="node">
<title>node4</title>
<ellipse fill="none" stroke="black" cx="118.44" cy="-378" rx="33.44" ry="18"/>
<text text-anchor="middle" x="118.44" y="-372.95" font-family="Times,serif" font-size="14.00">node4</text>
</g>
<!-- node2 -->
<g id="node16" class="node">
<title>node2</title>
<ellipse fill="none" stroke="black" cx="203.44" cy="-378" rx="33.44" ry="18"/>
<text text-anchor="middle" x="203.44" y="-372.95" font-family="Times,serif" font-size="14.00">node2</text>
</g>
<!-- node13&#45;&gt;node3 -->
<g id="edge22" class="edge">
<title>node13&#45;&gt;node3</title>
<path fill="none" stroke="black" d="M450.75,-146.5C469.54,-135.16 497.62,-119.39 520.04,-107.55"/>
<polygon fill="black" stroke="black" points="521.61,-110.68 528.87,-102.96 518.38,-104.47 521.61,-110.68"/>
</g>
<!-- node13&#45;&gt;node1 -->
<g id="edge21" class="edge">
<title>node13&#45;&gt;node1</title>
<path fill="none" stroke="black" d="M399.78,-172.87C354.55,-186.13 270.2,-209.56 219.63,-222.92"/>
<polygon fill="black" stroke="black" points="219.01,-219.46 210.23,-225.39 220.79,-226.24 219.01,-219.46"/>
</g>
<!-- node7&#45;&gt;node15 -->
<g id="edge19" class="edge">
<title>node7&#45;&gt;node15</title>
<path fill="none" stroke="black" d="M448.82,-103.94C445.06,-105.39 441.18,-106.78 437.44,-108 378.81,-127.13 309.13,-143.42 264.01,-152.71"/>
<polygon fill="black" stroke="black" points="263.4,-149.26 254.3,-154.67 264.79,-156.12 263.4,-149.26"/>
</g>
<!-- node18&#45;&gt;node1 -->
<g id="edge20" class="edge">
<title>node18&#45;&gt;node1</title>
<path fill="none" stroke="black" d="M601.91,-35.27C611.4,-54.06 619.29,-85.3 606.44,-108 575.79,-162.12 544.69,-158.21 486.44,-180 396.91,-213.49 284.21,-226.13 222.88,-230.65"/>
<polygon fill="black" stroke="black" points="222.92,-227.14 213.19,-231.32 223.41,-234.12 222.92,-227.14"/>
</g>
<!-- node6 -->
<g id="node20" class="node">
<title>node6</title>
<ellipse fill="none" stroke="black" cx="288.44" cy="-378" rx="33.44" ry="18"/>
<text text-anchor="middle" x="288.44" y="-372.95" font-family="Times,serif" font-size="14.00">node6</text>
</g>
</g>
</svg>
