<?xml version="1.0" encoding="UTF-8" standalone="no"?>
<!DOCTYPE svg PUBLIC "-//W3C//DTD SVG 1.1//EN"
 "http://www.w3.org/Graphics/SVG/1.1/DTD/svg11.dtd">
<!-- Generated by graphviz version 12.2.1 (20241206.2353)
 -->
<!-- Pages: 1 -->
<svg width="835pt" height="332pt"
 viewBox="0.00 0.00 835.48 332.00" xmlns="http://www.w3.org/2000/svg" xmlns:xlink="http://www.w3.org/1999/xlink">
<g id="graph0" class="graph" transform="scale(1 1) rotate(0) translate(4 328)">
<polygon fill="white" stroke="none" points="-4,4 -4,-328 831.48,-328 831.48,4 -4,4"/>
<!-- node14 -->
<g id="node1" class="node">
<title>node14</title>
<ellipse fill="none" stroke="black" cx="120.04" cy="-306" rx="38.04" ry="18"/>
<text text-anchor="middle" x="120.04" y="-300.95" font-family="Times,serif" font-size="14.00">node14</text>
</g>
<!-- node1 -->
<g id="node2" class="node">
<title>node1</title>
<ellipse fill="none" stroke="black" cx="85.04" cy="-234" rx="33.44" ry="18"/>
<text text-anchor="middle" x="85.04" y="-228.95" font-family="Times,serif" font-size="14.00">node1</text>
</g>
<!-- node14&#45;&gt;node1 -->
<g id="edge1" class="edge">
<title>node14&#45;&gt;node1</title>
<path fill="none" stroke="black" d="M106.13,-288.76C101.34,-280.95 96.29,-271.37 92.17,-262.48"/>
<polygon fill="black" stroke="black" points="95.48,-261.31 88.31,-253.51 89.05,-264.08 95.48,-261.31"/>
</g>
<!-- node5 -->
<g id="node3" class="node">
<title>node5</title>
<ellipse fill="none" stroke="black" cx="574.04" cy="-18" rx="33.44" ry="18"/>
<text text-anchor="middle" x="574.04" y="-12.95" font-family="Times,serif" font-size="14.00">node5</text>
</g>
<!-- node14&#45;&gt;node5 -->
<g id="edge2" class="edge">
<title>node14&#45;&gt;node5</title>
<path fill="none" stroke="black" d="M150.53,-294.99C208.12,-278.08 336.14,-243.07 445.04,-216 514.1,-198.84 547.52,-226.89 601.04,-180 638.26,-147.4 648.93,-116.85 628.04,-72 622.17,-59.37 611.63,-48.68 601.34,-40.28"/>
<polygon fill="black" stroke="black" points="603.75,-37.71 593.68,-34.41 599.49,-43.27 603.75,-37.71"/>
</g>
<!-- node2 -->
<g id="node4" class="node">
<title>node2</title>
<ellipse fill="none" stroke="black" cx="496.04" cy="-234" rx="33.44" ry="18"/>
<text text-anchor="middle" x="496.04" y="-228.95" font-family="Times,serif" font-size="14.00">node2</text>
</g>
<!-- node14&#45;&gt;node2 -->
<g id="edge3" class="edge">
<title>node14&#45;&gt;node2</title>
<path fill="none" stroke="black" d="M154.56,-297.77C223.58,-284.32 377.97,-255.57 453.27,-242.16"/>
<polygon fill="black" stroke="black" points="453.49,-245.68 462.73,-240.49 452.27,-238.79 453.49,-245.68"/>
</g>
<!-- node8 -->
<g id="node5" class="node">
<title>node8</title>
<ellipse fill="none" stroke="black" cx="794.04" cy="-18" rx="33.44" ry="18"/>
<text text-anchor="middle" x="794.04" y="-12.95" font-family="Times,serif" font-size="14.00">node8</text>
</g>
<!-- node14&#45;&gt;node8 -->
<g id="edge4" class="edge">
<title>node14&#45;&gt;node8</title>
<path fill="none" stroke="black" d="M157.76,-302.45C277.72,-293.91 646.5,-262.1 728.04,-180 764.27,-143.52 777.58,-82.59 785.18,-47.07"/>
<polygon fill="black" stroke="black" points="788.55,-48.07 787.25,-37.55 781.71,-46.58 788.55,-48.07"/>
</g>
<!-- node1&#45;&gt;node14 -->
<g id="edge19" class="edge">
<title>node1&#45;&gt;node14</title>
<path fill="none" stroke="black" d="M98.62,-250.67C103.44,-258.49 108.58,-268.17 112.76,-277.19"/>
<polygon fill="black" stroke="black" points="109.52,-278.52 116.71,-286.31 115.95,-275.74 109.52,-278.52"/>
</g>
<!-- node17 -->
<g id="node7" class="node">
<title>node17</title>
<ellipse fill="none" stroke="black" cx="38.04" cy="-162" rx="38.04" ry="18"/>
<text text-anchor="middle" x="38.04" y="-156.95" font-family="Times,serif" font-size="14.00">node17</text>
</g>
<!-- node1&#45;&gt;node17 -->
<g id="edge14" class="edge">
<title>node1&#45;&gt;node17</title>
<path fill="none" stroke="black" d="M69.17,-217.81C62.7,-209.66 55.49,-199.37 49.53,-189.92"/>
<polygon fill="black" stroke="black" points="52.58,-188.19 44.43,-181.42 46.58,-191.8 52.58,-188.19"/>
</g>
<!-- node20 -->
<g id="node8" class="node">
<title>node20</title>
<ellipse fill="none" stroke="black" cx="170.04" cy="-162" rx="38.04" ry="18"/>
<text text-anchor="middle" x="170.04" y="-156.95" font-family="Times,serif" font-size="14.00">node20</text>
</g>
<!-- node1&#45;&gt;node20 -->
<g id="edge17" class="edge">
<title>node1&#45;&gt;node20</title>
<path fill="none" stroke="black" d="M98.57,-217.12C109.48,-207.19 124.98,-194.3 138.82,-183.6"/>
<polygon fill="black" stroke="black" points="140.56,-186.67 146.41,-177.84 136.33,-181.09 140.56,-186.67"/>
</g>
<!-- node13 -->
<g id="node12" class="node">
<title>node13</title>
<ellipse fill="none" stroke="black" cx="283.04" cy="-162" rx="38.04" ry="18"/>
<text text-anchor="middle" x="283.04" y="-156.95" font-family="Times,serif" font-size="14.00">node13</text>
</g>
<!-- node1&#45;&gt;node13 -->
<g id="edge18" class="edge">
<title>node1&#45;&gt;node13</title>
<path fill="none" stroke="black" d="M110.92,-222.06C143.91,-209.65 201.06,-189.4 240.47,-176.14"/>
<polygon fill="black" stroke="black" points="241.52,-179.48 249.9,-172.99 239.3,-172.84 241.52,-179.48"/>
</g>
<!-- node18 -->
<g id="node14" class="node">
<title>node18</title>
<ellipse fill="none" stroke="black" cx="386.04" cy="-162" rx="38.04" ry="18"/>
<text text-anchor="middle" x="386.04" y="-156.95" font-family="Times,serif" font-size="14.00">node18</text>
</g>
<!-- node1&#45;&gt;node18 -->
<g id="edge15" class="edge">
<title>node1&#45;&gt;node18</title>
<path fill="none" stroke="black" d="M115.62,-226.02C160.91,-216.67 247.75,-199.02 321.04,-180 327.76,-178.26 334.87,-176.24 341.86,-174.21"/>
<polygon fill="black" stroke="black" points="342.61,-177.64 351.23,-171.48 340.65,-170.92 342.61,-177.64"/>
</g>
<!-- node19 -->
<g id="node15" class="node">
<title>node19</title>
<ellipse fill="none" stroke="black" cx="520.04" cy="-162" rx="38.04" ry="18"/>
<text text-anchor="middle" x="520.04" y="-156.95" font-family="Times,serif" font-size="14.00">node19</text>
</g>
<!-- node1&#45;&gt;node19 -->
<g id="edge16" class="edge">
<title>node1&#45;&gt;node19</title>
<path fill="none" stroke="black" d="M116.75,-227.86C176.95,-218.93 311.15,-199.62 424.04,-180 440.03,-177.22 457.6,-173.85 473.37,-170.84"/>
<polygon fill="black" stroke="black" points="473.83,-174.32 483,-169.01 472.52,-167.44 473.83,-174.32"/>
</g>
<!-- node16 -->
<g id="node16" class="node">
<title>node16</title>
<ellipse fill="none" stroke="black" cx="429.04" cy="-18" rx="38.04" ry="18"/>
<text text-anchor="middle" x="429.04" y="-12.95" font-family="Times,serif" font-size="14.00">node16</text>
</g>
<!-- node1&#45;&gt;node16 -->
<g id="edge20" class="edge">
<title>node1&#45;&gt;node16</title>
<path fill="none" stroke="black" d="M118.06,-229.86C222.58,-220.42 539.44,-192.22 558.04,-180 600.95,-151.81 629.77,-113.14 599.04,-72 583.88,-51.7 520.44,-36.42 475.42,-27.61"/>
<polygon fill="black" stroke="black" points="476.09,-24.17 465.62,-25.74 474.78,-31.05 476.09,-24.17"/>
</g>
<!-- node5&#45;&gt;node14 -->
<g id="edge22" class="edge">
<title>node5&#45;&gt;node14</title>
<path fill="none" stroke="black" d="M600.72,-29.1C617.46,-38.1 637.12,-52.82 646.04,-72 666.93,-116.85 656.26,-147.4 619.04,-180 565.52,-226.89 532.1,-198.84 463.04,-216 355.69,-242.68 229.76,-277.08 164.31,-294.25"/>
<polygon fill="black" stroke="black" points="163.83,-290.76 155.04,-296.67 165.6,-297.54 163.83,-290.76"/>
</g>
<!-- node2&#45;&gt;node14 -->
<g id="edge28" class="edge">
<title>node2&#45;&gt;node14</title>
<path fill="none" stroke="black" d="M465.14,-241.52C399.14,-254.44 244.66,-283.22 166.67,-297.15"/>
<polygon fill="black" stroke="black" points="166.46,-293.63 157.23,-298.83 167.69,-300.52 166.46,-293.63"/>
</g>
<!-- node12 -->
<g id="node20" class="node">
<title>node12</title>
<ellipse fill="none" stroke="black" cx="691.04" cy="-18" rx="38.04" ry="18"/>
<text text-anchor="middle" x="691.04" y="-12.95" font-family="Times,serif" font-size="14.00">node12</text>
</g>
<!-- node2&#45;&gt;node12 -->
<g id="edge27" class="edge">
<title>node2&#45;&gt;node12</title>
<path fill="none" stroke="black" d="M526.46,-226.07C579.44,-214.88 683.44,-192.8 695.04,-180 727.45,-144.25 716.23,-119.16 706.04,-72 704.19,-63.41 700.82,-54.54 697.54,-46.57"/>
<polygon fill="black" stroke="black" points="700.8,-45.29 693.71,-37.42 694.34,-47.99 700.8,-45.29"/>
</g>
<!-- node8&#45;&gt;node14 -->
<g id="edge31" class="edge">
<title>node8&#45;&gt;node14</title>
<path fill="none" stroke="black" d="M797.86,-36.33C798.23,-68.87 786.27,-139.5 746.04,-180 665.3,-261.3 302.93,-293.28 169.47,-302.19"/>
<polygon fill="black" stroke="black" points="169.29,-298.69 159.54,-302.83 169.75,-305.68 169.29,-298.69"/>
</g>
<!-- node15 -->
<g id="node6" class="node">
<title>node15</title>
<ellipse fill="none" stroke="black" cx="49.04" cy="-90" rx="38.04" ry="18"/>
<text text-anchor="middle" x="49.04" y="-84.95" font-family="Times,serif" font-size="14.00">node15</text>
</g>
<!-- node15&#45;&gt;node17 -->
<g id="edge5" class="edge">
<title>node15&#45;&gt;node17</title>
<path fill="none" stroke="black" d="M52.24,-108.28C51.84,-115.69 50.69,-124.54 49.1,-132.86"/>
<polygon fill="black" stroke="black" points="45.69,-132.05 46.92,-142.58 52.52,-133.59 45.69,-132.05"/>
</g>
<!-- node17&#45;&gt;node1 -->
<g id="edge10" class="edge">
<title>node17&#45;&gt;node1</title>
<path fill="none" stroke="black" d="M54.05,-178.36C60.53,-186.54 67.74,-196.84 73.68,-206.28"/>
<polygon fill="black" stroke="black" points="70.62,-207.98 78.77,-214.76 76.63,-204.38 70.62,-207.98"/>
</g>
<!-- node17&#45;&gt;node15 -->
<g id="edge11" class="edge">
<title>node17&#45;&gt;node15</title>
<path fill="none" stroke="black" d="M34.85,-143.7C35.26,-136.13 36.45,-127.06 38.09,-118.59"/>
<polygon fill="black" stroke="black" points="41.45,-119.63 40.25,-109.1 34.62,-118.07 41.45,-119.63"/>
</g>
<!-- node9 -->
<g id="node13" class="node">
<title>node9</title>
<ellipse fill="none" stroke="black" cx="134.04" cy="-18" rx="33.44" ry="18"/>
<text text-anchor="middle" x="134.04" y="-12.95" font-family="Times,serif" font-size="14.00">node9</text>
</g>
<!-- node17&#45;&gt;node9 -->
<g id="edge9" class="edge">
<title>node17&#45;&gt;node9</title>
<path fill="none" stroke="black" d="M51.85,-144.95C62.67,-135.28 77.02,-122.13 87.04,-108 100.63,-88.85 110.71,-64.07 118.53,-45.53"/>
<polygon fill="black" stroke="black" points="121.65,-47.12 122.39,-36.55 115.22,-44.35 121.65,-47.12"/>
</g>
<!-- node20&#45;&gt;node1 -->
<g id="edge6" class="edge">
<title>node20&#45;&gt;node1</title>
<path fill="none" stroke="black" d="M156.33,-179.06C145.18,-189.19 129.31,-202.36 115.31,-213.14"/>
<polygon fill="black" stroke="black" points="113.53,-210.1 107.65,-218.92 117.74,-215.69 113.53,-210.1"/>
</g>
<!-- node10 -->
<g id="node9" class="node">
<title>node10</title>
<ellipse fill="none" stroke="black" cx="223.04" cy="-18" rx="38.04" ry="18"/>
<text text-anchor="middle" x="223.04" y="-12.95" font-family="Times,serif" font-size="14.00">node10</text>
</g>
<!-- node6 -->
<g id="node10" class="node">
<title>node6</title>
<ellipse fill="none" stroke="black" cx="218.04" cy="-90" rx="33.44" ry="18"/>
<text text-anchor="middle" x="218.04" y="-84.95" font-family="Times,serif" font-size="14.00">node6</text>
</g>
<!-- node10&#45;&gt;node6 -->
<g id="edge7" class="edge">
<title>node10&#45;&gt;node6</title>
<path fill="none" stroke="black" d="M227.72,-36.28C227.96,-43.69 227.57,-52.54 226.69,-60.86"/>
<polygon fill="black" stroke="black" points="223.25,-60.17 225.34,-70.56 230.18,-61.13 223.25,-60.17"/>
</g>
<!-- node6&#45;&gt;node10 -->
<g id="edge12" class="edge">
<title>node6&#45;&gt;node10</title>
<path fill="none" stroke="black" d="M213.36,-71.7C213.13,-64.32 213.52,-55.52 214.39,-47.25"/>
<polygon fill="black" stroke="black" points="217.82,-47.99 215.72,-37.6 210.89,-47.03 217.82,-47.99"/>
</g>
<!-- node6&#45;&gt;node13 -->
<g id="edge13" class="edge">
<title>node6&#45;&gt;node13</title>
<path fill="none" stroke="black" d="M236.69,-105.11C246,-113.89 257.05,-125.44 266.12,-135.76"/>
<polygon fill="black" stroke="black" points="263.35,-137.91 272.5,-143.26 268.68,-133.37 263.35,-137.91"/>
</g>
<!-- node11 -->
<g id="node11" class="node">
<title>node11</title>
<ellipse fill="none" stroke="black" cx="307.04" cy="-90" rx="38.04" ry="18"/>
<text text-anchor="middle" x="307.04" y="-84.95" font-family="Times,serif" font-size="14.00">node11</text>
</g>
<!-- node11&#45;&gt;node13 -->
<g id="edge8" class="edge">
<title>node11&#45;&gt;node13</title>
<path fill="none" stroke="black" d="M306.99,-108.45C305.13,-116.18 302.17,-125.46 298.87,-134.06"/>
<polygon fill="black" stroke="black" points="295.75,-132.44 295.15,-143.01 302.22,-135.12 295.75,-132.44"/>
</g>
<!-- node13&#45;&gt;node1 -->
<g id="edge37" class="edge">
<title>node13&#45;&gt;node1</title>
<path fill="none" stroke="black" d="M255.17,-174.69C221.1,-187.46 163.5,-207.83 124.8,-220.81"/>
<polygon fill="black" stroke="black" points="123.76,-217.46 115.37,-223.94 125.97,-224.11 123.76,-217.46"/>
</g>
<!-- node13&#45;&gt;node6 -->
<g id="edge36" class="edge">
<title>node13&#45;&gt;node6</title>
<path fill="none" stroke="black" d="M263.62,-146.15C254.33,-137.34 243.46,-125.94 234.57,-115.79"/>
<polygon fill="black" stroke="black" points="237.48,-113.81 228.34,-108.44 232.14,-118.33 237.48,-113.81"/>
</g>
<!-- node13&#45;&gt;node11 -->
<g id="edge35" class="edge">
<title>node13&#45;&gt;node11</title>
<path fill="none" stroke="black" d="M283.06,-143.7C284.92,-135.95 287.88,-126.64 291.19,-118.02"/>
<polygon fill="black" stroke="black" points="294.32,-119.6 294.92,-109.02 287.86,-116.92 294.32,-119.6"/>
</g>
<!-- node9&#45;&gt;node17 -->
<g id="edge32" class="edge">
<title>node9&#45;&gt;node17</title>
<path fill="none" stroke="black" d="M135.72,-36.17C132.23,-54.95 121.08,-85.39 105.04,-108 96.2,-120.47 83.99,-132.17 72.3,-141.4"/>
<polygon fill="black" stroke="black" points="70.26,-138.55 64.32,-147.33 74.43,-144.17 70.26,-138.55"/>
</g>
<!-- node18&#45;&gt;node1 -->
<g id="edge24" class="edge">
<title>node18&#45;&gt;node1</title>
<path fill="none" stroke="black" d="M357.98,-174.68C351.78,-176.55 345.24,-178.39 339.04,-180 265.77,-199.01 178.96,-216.66 128.01,-226.02"/>
<polygon fill="black" stroke="black" points="127.49,-222.55 118.27,-227.78 128.73,-229.44 127.49,-222.55"/>
</g>
<!-- node7 -->
<g id="node18" class="node">
<title>node7</title>
<ellipse fill="none" stroke="black" cx="396.04" cy="-90" rx="33.44" ry="18"/>
<text text-anchor="middle" x="396.04" y="-84.95" font-family="Times,serif" font-size="14.00">node7</text>
</g>
<!-- node18&#45;&gt;node7 -->
<g id="edge25" class="edge">
<title>node18&#45;&gt;node7</title>
<path fill="none" stroke="black" d="M382.6,-143.7C382.9,-136.21 383.94,-127.26 385.44,-118.88"/>
<polygon fill="black" stroke="black" points="388.86,-119.61 387.51,-109.1 382.01,-118.16 388.86,-119.61"/>
</g>
<!-- node4 -->
<g id="node19" class="node">
<title>node4</title>
<ellipse fill="none" stroke="black" cx="481.04" cy="-90" rx="33.44" ry="18"/>
<text text-anchor="middle" x="481.04" y="-84.95" font-family="Times,serif" font-size="14.00">node4</text>
</g>
<!-- node18&#45;&gt;node4 -->
<g id="edge26" class="edge">
<title>node18&#45;&gt;node4</title>
<path fill="none" stroke="black" d="M401.41,-145.46C414.42,-134.96 433.22,-121.02 449.35,-109.88"/>
<polygon fill="black" stroke="black" points="450.92,-113.05 457.23,-104.54 446.99,-107.25 450.92,-113.05"/>
</g>
<!-- node19&#45;&gt;node1 -->
<g id="edge30" class="edge">
<title>node19&#45;&gt;node1</title>
<path fill="none" stroke="black" d="M487.01,-171.48C473.14,-174.32 456.9,-177.42 442.04,-180 329.63,-199.53 196.09,-218.77 128.54,-227.75"/>
<polygon fill="black" stroke="black" points="128.45,-224.23 118.99,-229 129.37,-231.17 128.45,-224.23"/>
</g>
<!-- node3 -->
<g id="node17" class="node">
<title>node3</title>
<ellipse fill="none" stroke="black" cx="566.04" cy="-90" rx="33.44" ry="18"/>
<text text-anchor="middle" x="566.04" y="-84.95" font-family="Times,serif" font-size="14.00">node3</text>
</g>
<!-- node19&#45;&gt;node3 -->
<g id="edge29" class="edge">
<title>node19&#45;&gt;node3</title>
<path fill="none" stroke="black" d="M525.5,-143.7C530.23,-135.16 536.9,-124.72 543.55,-115.4"/>
<polygon fill="black" stroke="black" points="546.32,-117.53 549.47,-107.42 540.7,-113.36 546.32,-117.53"/>
</g>
<!-- node16&#45;&gt;node1 -->
<g id="edge23" class="edge">
<title>node16&#45;&gt;node1</title>
<path fill="none" stroke="black" d="M465.39,-23.61C515,-31.27 599.25,-48.17 617.04,-72 647.77,-113.14 618.95,-151.81 576.04,-180 557.64,-192.1 247.11,-219.84 129.54,-229.56"/>
<polygon fill="black" stroke="black" points="129.31,-226.07 119.63,-230.37 129.89,-233.04 129.31,-226.07"/>
</g>
<!-- node3&#45;&gt;node19 -->
<g id="edge21" class="edge">
<title>node3&#45;&gt;node19</title>
<path fill="none" stroke="black" d="M560.78,-107.96C556.1,-116.44 549.45,-126.87 542.81,-136.23"/>
<polygon fill="black" stroke="black" points="540.01,-134.13 536.87,-144.25 545.64,-138.29 540.01,-134.13"/>
</g>
<!-- node7&#45;&gt;node18 -->
<g id="edge34" class="edge">
<title>node7&#45;&gt;node18</title>
<path fill="none" stroke="black" d="M399.49,-108.28C399.2,-115.69 398.17,-124.54 396.7,-132.86"/>
<polygon fill="black" stroke="black" points="393.29,-132.07 394.65,-142.57 400.14,-133.51 393.29,-132.07"/>
</g>
<!-- node4&#45;&gt;node18 -->
<g id="edge33" class="edge">
<title>node4&#45;&gt;node18</title>
<path fill="none" stroke="black" d="M465.84,-106.41C453.25,-116.58 435.16,-130.02 419.32,-141.02"/>
<polygon fill="black" stroke="black" points="417.36,-138.12 411.07,-146.65 421.3,-143.91 417.36,-138.12"/>
</g>
<!-- node12&#45;&gt;node2 -->
<g id="edge38" class="edge">
<title>node12&#45;&gt;node2</title>
<path fill="none" stroke="black" d="M707.66,-34.17C714.55,-44.45 721.15,-58.57 724.04,-72 734.23,-119.16 745.45,-144.25 713.04,-180 701.52,-192.71 598.97,-214.55 538.94,-225.82"/>
<polygon fill="black" stroke="black" points="538.59,-222.33 529.39,-227.58 539.86,-229.21 538.59,-222.33"/>
</g>
</g>
</svg>
