<?xml version="1.0" encoding="UTF-8" standalone="no"?>
<!DOCTYPE svg PUBLIC "-//W3C//DTD SVG 1.1//EN"
 "http://www.w3.org/Graphics/SVG/1.1/DTD/svg11.dtd">
<!-- Generated by graphviz version 12.2.1 (20241206.2353)
 -->
<!-- Pages: 1 -->
<svg width="696pt" height="476pt"
 viewBox="0.00 0.00 696.09 476.00" xmlns="http://www.w3.org/2000/svg" xmlns:xlink="http://www.w3.org/1999/xlink">
<g id="graph0" class="graph" transform="scale(1 1) rotate(0) translate(4 472)">
<polygon fill="white" stroke="none" points="-4,4 -4,-472 692.09,-472 692.09,4 -4,4"/>
<!-- node17 -->
<g id="node1" class="node">
<title>node17</title>
<ellipse fill="none" stroke="black" cx="38.04" cy="-450" rx="38.04" ry="18"/>
<text text-anchor="middle" x="38.04" y="-444.95" font-family="Times,serif" font-size="14.00">node17</text>
</g>
<!-- node10 -->
<g id="node2" class="node">
<title>node10</title>
<ellipse fill="none" stroke="black" cx="38.04" cy="-378" rx="38.04" ry="18"/>
<text text-anchor="middle" x="38.04" y="-372.95" font-family="Times,serif" font-size="14.00">node10</text>
</g>
<!-- node17&#45;&gt;node10 -->
<g id="edge1" class="edge">
<title>node17&#45;&gt;node10</title>
<path fill="none" stroke="black" d="M32.17,-432.05C31.38,-424.68 31.13,-415.84 31.4,-407.51"/>
<polygon fill="black" stroke="black" points="34.87,-407.99 32.03,-397.79 27.89,-407.54 34.87,-407.99"/>
</g>
<!-- node10&#45;&gt;node17 -->
<g id="edge19" class="edge">
<title>node10&#45;&gt;node17</title>
<path fill="none" stroke="black" d="M43.96,-396.28C44.71,-403.6 44.96,-412.34 44.69,-420.57"/>
<polygon fill="black" stroke="black" points="41.2,-420.33 44.02,-430.54 48.18,-420.8 41.2,-420.33"/>
</g>
<!-- node3 -->
<g id="node4" class="node">
<title>node3</title>
<ellipse fill="none" stroke="black" cx="38.04" cy="-306" rx="33.44" ry="18"/>
<text text-anchor="middle" x="38.04" y="-300.95" font-family="Times,serif" font-size="14.00">node3</text>
</g>
<!-- node10&#45;&gt;node3 -->
<g id="edge18" class="edge">
<title>node10&#45;&gt;node3</title>
<path fill="none" stroke="black" d="M32.17,-360.05C31.37,-352.57 31.12,-343.58 31.41,-335.14"/>
<polygon fill="black" stroke="black" points="34.89,-335.51 32.08,-325.3 27.91,-335.04 34.89,-335.51"/>
</g>
<!-- node7 -->
<g id="node3" class="node">
<title>node7</title>
<ellipse fill="none" stroke="black" cx="49.04" cy="-18" rx="33.44" ry="18"/>
<text text-anchor="middle" x="49.04" y="-12.95" font-family="Times,serif" font-size="14.00">node7</text>
</g>
<!-- node7&#45;&gt;node3 -->
<g id="edge2" class="edge">
<title>node7&#45;&gt;node3</title>
<path fill="none" stroke="black" d="M50.3,-36.24C47.19,-74.87 31.24,-171.29 38.04,-252 38.72,-260.03 39.97,-268.67 40.97,-276.6"/>
<polygon fill="black" stroke="black" points="37.48,-276.84 42.05,-286.4 44.44,-276.08 37.48,-276.84"/>
</g>
<!-- node3&#45;&gt;node10 -->
<g id="edge7" class="edge">
<title>node3&#45;&gt;node10</title>
<path fill="none" stroke="black" d="M43.91,-323.79C44.71,-331.25 44.97,-340.24 44.68,-348.69"/>
<polygon fill="black" stroke="black" points="41.2,-348.33 44.02,-358.54 48.18,-348.8 41.2,-348.33"/>
</g>
<!-- node3&#45;&gt;node7 -->
<g id="edge6" class="edge">
<title>node3&#45;&gt;node7</title>
<path fill="none" stroke="black" d="M26.87,-288.85C23.51,-278.4 21.09,-264.46 20.04,-252 13.8,-177.88 26.73,-90.52 37.9,-46.83"/>
<polygon fill="black" stroke="black" points="41.21,-47.98 40.5,-37.41 34.46,-46.12 41.21,-47.98"/>
</g>
<!-- node12 -->
<g id="node5" class="node">
<title>node12</title>
<ellipse fill="none" stroke="black" cx="76.04" cy="-234" rx="38.04" ry="18"/>
<text text-anchor="middle" x="76.04" y="-228.95" font-family="Times,serif" font-size="14.00">node12</text>
</g>
<!-- node3&#45;&gt;node12 -->
<g id="edge8" class="edge">
<title>node3&#45;&gt;node12</title>
<path fill="none" stroke="black" d="M41.52,-287.7C45.14,-279.46 50.38,-269.45 55.75,-260.37"/>
<polygon fill="black" stroke="black" points="58.68,-262.29 61,-251.96 52.74,-258.59 58.68,-262.29"/>
</g>
<!-- node18 -->
<g id="node6" class="node">
<title>node18</title>
<ellipse fill="none" stroke="black" cx="168.04" cy="-18" rx="38.04" ry="18"/>
<text text-anchor="middle" x="168.04" y="-12.95" font-family="Times,serif" font-size="14.00">node18</text>
</g>
<!-- node3&#45;&gt;node18 -->
<g id="edge4" class="edge">
<title>node3&#45;&gt;node18</title>
<path fill="none" stroke="black" d="M63.35,-293.68C80.99,-285.33 102.99,-271.92 114.04,-252 121.81,-238.01 119.96,-230.87 114.04,-216 105.91,-195.55 88.18,-200.45 80.04,-180 71.74,-159.12 83.77,-79.46 88.04,-72 97.07,-56.23 112.89,-43.73 128.19,-34.84"/>
<polygon fill="black" stroke="black" points="129.6,-38.05 136.76,-30.24 126.29,-31.89 129.6,-38.05"/>
</g>
<!-- node1 -->
<g id="node7" class="node">
<title>node1</title>
<ellipse fill="none" stroke="black" cx="221.04" cy="-234" rx="33.44" ry="18"/>
<text text-anchor="middle" x="221.04" y="-228.95" font-family="Times,serif" font-size="14.00">node1</text>
</g>
<!-- node3&#45;&gt;node1 -->
<g id="edge5" class="edge">
<title>node3&#45;&gt;node1</title>
<path fill="none" stroke="black" d="M62.71,-293.6C93.41,-281.06 145.86,-260.97 182,-247.88"/>
<polygon fill="black" stroke="black" points="183,-251.24 191.23,-244.57 180.64,-244.65 183,-251.24"/>
</g>
<!-- node13 -->
<g id="node8" class="node">
<title>node13</title>
<ellipse fill="none" stroke="black" cx="310.04" cy="-234" rx="38.04" ry="18"/>
<text text-anchor="middle" x="310.04" y="-228.95" font-family="Times,serif" font-size="14.00">node13</text>
</g>
<!-- node3&#45;&gt;node13 -->
<g id="edge9" class="edge">
<title>node3&#45;&gt;node13</title>
<path fill="none" stroke="black" d="M68.29,-297.74C110.43,-288.54 188.46,-271.51 254.04,-252 258.4,-250.71 262.93,-249.23 267.47,-247.7"/>
<polygon fill="black" stroke="black" points="268.23,-251.14 276.55,-244.59 265.96,-244.52 268.23,-251.14"/>
</g>
<!-- node16 -->
<g id="node9" class="node">
<title>node16</title>
<ellipse fill="none" stroke="black" cx="346.04" cy="-162" rx="38.04" ry="18"/>
<text text-anchor="middle" x="346.04" y="-156.95" font-family="Times,serif" font-size="14.00">node16</text>
</g>
<!-- node3&#45;&gt;node16 -->
<g id="edge10" class="edge">
<title>node3&#45;&gt;node16</title>
<path fill="none" stroke="black" d="M71.86,-304.54C144.81,-302.72 312.52,-293.92 348.04,-252 362.12,-235.4 357.54,-210.39 351.95,-191.11"/>
<polygon fill="black" stroke="black" points="355.34,-190.21 349.04,-181.69 348.65,-192.28 355.34,-190.21"/>
</g>
<!-- node12&#45;&gt;node3 -->
<g id="edge3" class="edge">
<title>node12&#45;&gt;node3</title>
<path fill="none" stroke="black" d="M72.72,-251.96C69.05,-260.35 63.67,-270.65 58.16,-279.93"/>
<polygon fill="black" stroke="black" points="55.33,-277.85 53,-288.18 61.27,-281.56 55.33,-277.85"/>
</g>
<!-- node18&#45;&gt;node3 -->
<g id="edge22" class="edge">
<title>node18&#45;&gt;node3</title>
<path fill="none" stroke="black" d="M146.76,-33.32C132.75,-42.29 115.6,-55.32 106.04,-72 101.77,-79.46 89.74,-159.12 98.04,-180 106.18,-200.45 123.91,-195.55 132.04,-216 137.96,-230.87 139.81,-238.01 132.04,-252 120.96,-271.98 98.86,-285.41 78.76,-293.75"/>
<polygon fill="black" stroke="black" points="77.71,-290.41 69.61,-297.23 80.2,-296.95 77.71,-290.41"/>
</g>
<!-- node1&#45;&gt;node3 -->
<g id="edge35" class="edge">
<title>node1&#45;&gt;node3</title>
<path fill="none" stroke="black" d="M196.36,-246.41C165.62,-258.96 113.08,-279.08 76.94,-292.17"/>
<polygon fill="black" stroke="black" points="75.95,-288.81 67.72,-295.48 78.32,-295.4 75.95,-288.81"/>
</g>
<!-- node5 -->
<g id="node10" class="node">
<title>node5</title>
<ellipse fill="none" stroke="black" cx="131.04" cy="-162" rx="33.44" ry="18"/>
<text text-anchor="middle" x="131.04" y="-156.95" font-family="Times,serif" font-size="14.00">node5</text>
</g>
<!-- node1&#45;&gt;node5 -->
<g id="edge36" class="edge">
<title>node1&#45;&gt;node5</title>
<path fill="none" stroke="black" d="M199.17,-220.16C185.45,-210.58 167.95,-197.23 154.04,-185.84"/>
<polygon fill="black" stroke="black" points="156.57,-183.39 146.65,-179.67 152.08,-188.77 156.57,-183.39"/>
</g>
<!-- node2 -->
<g id="node18" class="node">
<title>node2</title>
<ellipse fill="none" stroke="black" cx="218.04" cy="-162" rx="33.44" ry="18"/>
<text text-anchor="middle" x="218.04" y="-156.95" font-family="Times,serif" font-size="14.00">node2</text>
</g>
<!-- node1&#45;&gt;node2 -->
<g id="edge37" class="edge">
<title>node1&#45;&gt;node2</title>
<path fill="none" stroke="black" d="M214.44,-216.05C213.34,-208.68 212.71,-199.84 212.62,-191.51"/>
<polygon fill="black" stroke="black" points="216.11,-191.86 212.84,-181.79 209.12,-191.71 216.11,-191.86"/>
</g>
<!-- node13&#45;&gt;node3 -->
<g id="edge25" class="edge">
<title>node13&#45;&gt;node3</title>
<path fill="none" stroke="black" d="M284.73,-247.9C280.53,-249.36 276.2,-250.76 272.04,-252 206.48,-271.51 128.48,-288.53 81.01,-297.73"/>
<polygon fill="black" stroke="black" points="80.57,-294.26 71.4,-299.56 81.88,-301.13 80.57,-294.26"/>
</g>
<!-- node16&#45;&gt;node3 -->
<g id="edge34" class="edge">
<title>node16&#45;&gt;node3</title>
<path fill="none" stroke="black" d="M360.68,-178.86C372.44,-198.42 383.36,-231.57 366.04,-252 330.71,-293.69 164.64,-302.62 83.15,-304.51"/>
<polygon fill="black" stroke="black" points="83.21,-301.01 73.28,-304.71 83.35,-308.01 83.21,-301.01"/>
</g>
<!-- node5&#45;&gt;node1 -->
<g id="edge11" class="edge">
<title>node5&#45;&gt;node1</title>
<path fill="none" stroke="black" d="M153.02,-175.91C166.8,-185.54 184.35,-198.93 198.25,-210.33"/>
<polygon fill="black" stroke="black" points="195.71,-212.76 205.63,-216.49 200.2,-207.39 195.71,-212.76"/>
</g>
<!-- node6 -->
<g id="node11" class="node">
<title>node6</title>
<ellipse fill="none" stroke="black" cx="139.04" cy="-90" rx="33.44" ry="18"/>
<text text-anchor="middle" x="139.04" y="-84.95" font-family="Times,serif" font-size="14.00">node6</text>
</g>
<!-- node5&#45;&gt;node6 -->
<g id="edge12" class="edge">
<title>node5&#45;&gt;node6</title>
<path fill="none" stroke="black" d="M127.11,-143.7C127.19,-136.21 127.98,-127.26 129.23,-118.88"/>
<polygon fill="black" stroke="black" points="132.66,-119.58 131.03,-109.11 125.78,-118.31 132.66,-119.58"/>
</g>
<!-- node8 -->
<g id="node12" class="node">
<title>node8</title>
<ellipse fill="none" stroke="black" cx="224.04" cy="-90" rx="33.44" ry="18"/>
<text text-anchor="middle" x="224.04" y="-84.95" font-family="Times,serif" font-size="14.00">node8</text>
</g>
<!-- node5&#45;&gt;node8 -->
<g id="edge13" class="edge">
<title>node5&#45;&gt;node8</title>
<path fill="none" stroke="black" d="M145.96,-145.46C158.56,-135.06 176.73,-121.28 192.45,-110.19"/>
<polygon fill="black" stroke="black" points="194.37,-113.12 200.6,-104.55 190.39,-107.36 194.37,-113.12"/>
</g>
<!-- node9 -->
<g id="node13" class="node">
<title>node9</title>
<ellipse fill="none" stroke="black" cx="309.04" cy="-90" rx="33.44" ry="18"/>
<text text-anchor="middle" x="309.04" y="-84.95" font-family="Times,serif" font-size="14.00">node9</text>
</g>
<!-- node5&#45;&gt;node9 -->
<g id="edge14" class="edge">
<title>node5&#45;&gt;node9</title>
<path fill="none" stroke="black" d="M154.54,-149.02C179.98,-138.29 221.2,-122.12 257.04,-108 261.05,-106.42 265.26,-104.76 269.5,-103.12"/>
<polygon fill="black" stroke="black" points="270.47,-106.49 278.58,-99.68 267.99,-99.95 270.47,-106.49"/>
</g>
<!-- node19 -->
<g id="node14" class="node">
<title>node19</title>
<ellipse fill="none" stroke="black" cx="277.04" cy="-18" rx="38.04" ry="18"/>
<text text-anchor="middle" x="277.04" y="-12.95" font-family="Times,serif" font-size="14.00">node19</text>
</g>
<!-- node5&#45;&gt;node19 -->
<g id="edge15" class="edge">
<title>node5&#45;&gt;node19</title>
<path fill="none" stroke="black" d="M153.4,-148.47C157.87,-146.85 162.55,-145.3 167.04,-144 243.31,-121.9 291.87,-169.55 342.04,-108 352.15,-95.6 349.36,-86.23 342.04,-72 334.92,-58.14 322.3,-47.09 309.99,-38.74"/>
<polygon fill="black" stroke="black" points="311.91,-35.81 301.58,-33.44 308.17,-41.73 311.91,-35.81"/>
</g>
<!-- node4 -->
<g id="node15" class="node">
<title>node4</title>
<ellipse fill="none" stroke="black" cx="449.04" cy="-90" rx="33.44" ry="18"/>
<text text-anchor="middle" x="449.04" y="-84.95" font-family="Times,serif" font-size="14.00">node4</text>
</g>
<!-- node5&#45;&gt;node4 -->
<g id="edge16" class="edge">
<title>node5&#45;&gt;node4</title>
<path fill="none" stroke="black" d="M153.34,-148.28C157.83,-146.69 162.52,-145.2 167.04,-144 265.35,-117.89 294.56,-133.41 393.04,-108 398.47,-106.6 404.15,-104.82 409.76,-102.95"/>
<polygon fill="black" stroke="black" points="410.61,-106.36 418.93,-99.8 408.33,-99.74 410.61,-106.36"/>
</g>
<!-- node6&#45;&gt;node5 -->
<g id="edge17" class="edge">
<title>node6&#45;&gt;node5</title>
<path fill="none" stroke="black" d="M142.98,-108.28C142.9,-115.69 142.13,-124.54 140.89,-132.86"/>
<polygon fill="black" stroke="black" points="137.47,-132.1 139.13,-142.57 144.36,-133.35 137.47,-132.1"/>
</g>
<!-- node8&#45;&gt;node5 -->
<g id="edge31" class="edge">
<title>node8&#45;&gt;node5</title>
<path fill="none" stroke="black" d="M209.23,-106.45C196.7,-116.81 178.58,-130.55 162.87,-141.65"/>
<polygon fill="black" stroke="black" points="160.94,-138.73 154.71,-147.3 164.92,-144.48 160.94,-138.73"/>
</g>
<!-- node9&#45;&gt;node5 -->
<g id="edge23" class="edge">
<title>node9&#45;&gt;node5</title>
<path fill="none" stroke="black" d="M286.51,-103.45C282.69,-104.98 278.78,-106.53 275.04,-108 239.83,-121.87 199.44,-137.72 170.25,-148.45"/>
<polygon fill="black" stroke="black" points="169.28,-145.08 161.08,-151.78 171.67,-151.66 169.28,-145.08"/>
</g>
<!-- node19&#45;&gt;node5 -->
<g id="edge32" class="edge">
<title>node19&#45;&gt;node5</title>
<path fill="none" stroke="black" d="M308.18,-28.76C327.22,-37.32 349.57,-51.62 360.04,-72 367.36,-86.23 370.15,-95.6 360.04,-108 309.87,-169.55 261.31,-121.9 185.04,-144 180.31,-145.37 175.38,-147.01 170.47,-148.73"/>
<polygon fill="black" stroke="black" points="169.52,-145.35 161.28,-152.01 171.87,-151.94 169.52,-145.35"/>
</g>
<!-- node4&#45;&gt;node5 -->
<g id="edge20" class="edge">
<title>node4&#45;&gt;node5</title>
<path fill="none" stroke="black" d="M426.33,-103.35C421.35,-105.07 416.09,-106.7 411.04,-108 312.56,-133.41 283.35,-117.89 185.04,-144 180.28,-145.26 175.33,-146.85 170.41,-148.54"/>
<polygon fill="black" stroke="black" points="169.47,-145.16 161.22,-151.81 171.82,-151.75 169.47,-145.16"/>
</g>
<!-- node14 -->
<g id="node16" class="node">
<title>node14</title>
<ellipse fill="none" stroke="black" cx="379.04" cy="-18" rx="38.04" ry="18"/>
<text text-anchor="middle" x="379.04" y="-12.95" font-family="Times,serif" font-size="14.00">node14</text>
</g>
<!-- node4&#45;&gt;node14 -->
<g id="edge21" class="edge">
<title>node4&#45;&gt;node14</title>
<path fill="none" stroke="black" d="M429.71,-75.17C419.6,-66.27 407.44,-54.44 397.48,-43.93"/>
<polygon fill="black" stroke="black" points="400.1,-41.61 390.75,-36.62 394.95,-46.35 400.1,-41.61"/>
</g>
<!-- node14&#45;&gt;node4 -->
<g id="edge33" class="edge">
<title>node14&#45;&gt;node4</title>
<path fill="none" stroke="black" d="M399.12,-33.48C409.21,-42.42 421.2,-54.12 430.99,-64.48"/>
<polygon fill="black" stroke="black" points="428.24,-66.65 437.59,-71.65 433.4,-61.92 428.24,-66.65"/>
</g>
<!-- node11 -->
<g id="node17" class="node">
<title>node11</title>
<ellipse fill="none" stroke="black" cx="477.04" cy="-18" rx="38.04" ry="18"/>
<text text-anchor="middle" x="477.04" y="-12.95" font-family="Times,serif" font-size="14.00">node11</text>
</g>
<!-- node11&#45;&gt;node2 -->
<g id="edge24" class="edge">
<title>node11&#45;&gt;node2</title>
<path fill="none" stroke="black" d="M492.4,-34.77C505,-54.24 517.23,-87.3 500.04,-108 472.32,-141.4 350.62,-135.54 308.04,-144 292.77,-147.03 275.91,-150.55 260.87,-153.59"/>
<polygon fill="black" stroke="black" points="260.37,-150.12 251.25,-155.51 261.74,-156.98 260.37,-150.12"/>
</g>
<!-- node2&#45;&gt;node1 -->
<g id="edge29" class="edge">
<title>node2&#45;&gt;node1</title>
<path fill="none" stroke="black" d="M224.63,-179.79C225.75,-187.25 226.39,-196.24 226.47,-204.69"/>
<polygon fill="black" stroke="black" points="222.97,-204.46 226.23,-214.54 229.97,-204.63 222.97,-204.46"/>
</g>
<!-- node2&#45;&gt;node11 -->
<g id="edge26" class="edge">
<title>node2&#45;&gt;node11</title>
<path fill="none" stroke="black" d="M247.46,-152.87C260.51,-150.01 275.95,-146.8 290.04,-144 332.62,-135.54 454.32,-141.4 482.04,-108 496.01,-91.18 490.55,-66.19 484.18,-46.97"/>
<polygon fill="black" stroke="black" points="487.49,-45.85 480.87,-37.58 480.89,-48.17 487.49,-45.85"/>
</g>
<!-- node15 -->
<g id="node19" class="node">
<title>node15</title>
<ellipse fill="none" stroke="black" cx="573.04" cy="-18" rx="38.04" ry="18"/>
<text text-anchor="middle" x="573.04" y="-12.95" font-family="Times,serif" font-size="14.00">node15</text>
</g>
<!-- node2&#45;&gt;node15 -->
<g id="edge27" class="edge">
<title>node2&#45;&gt;node15</title>
<path fill="none" stroke="black" d="M247.03,-152.78C260.16,-149.88 275.78,-146.67 290.04,-144 387,-125.87 427.09,-162.89 509.04,-108 531.18,-93.18 546,-66.13 556.32,-45.73"/>
<polygon fill="black" stroke="black" points="559.42,-47.35 560.78,-36.84 553.17,-44.21 559.42,-47.35"/>
</g>
<!-- node20 -->
<g id="node20" class="node">
<title>node20</title>
<ellipse fill="none" stroke="black" cx="650.04" cy="-90" rx="38.04" ry="18"/>
<text text-anchor="middle" x="650.04" y="-84.95" font-family="Times,serif" font-size="14.00">node20</text>
</g>
<!-- node2&#45;&gt;node20 -->
<g id="edge28" class="edge">
<title>node2&#45;&gt;node20</title>
<path fill="none" stroke="black" d="M246.97,-152.45C260.1,-149.5 275.73,-146.36 290.04,-144 422.11,-122.23 458.36,-136.94 589.04,-108 594.9,-106.7 601.03,-105.01 607.07,-103.2"/>
<polygon fill="black" stroke="black" points="607.84,-106.63 616.35,-100.32 605.76,-99.95 607.84,-106.63"/>
</g>
<!-- node15&#45;&gt;node2 -->
<g id="edge30" class="edge">
<title>node15&#45;&gt;node2</title>
<path fill="none" stroke="black" d="M573.73,-36.2C568.72,-56.81 552.85,-90.72 527.04,-108 445.09,-162.89 405,-125.87 308.04,-144 292.74,-146.86 275.87,-150.35 260.83,-153.42"/>
<polygon fill="black" stroke="black" points="260.33,-149.95 251.22,-155.36 261.72,-156.81 260.33,-149.95"/>
</g>
<!-- node20&#45;&gt;node2 -->
<g id="edge38" class="edge">
<title>node20&#45;&gt;node2</title>
<path fill="none" stroke="black" d="M623.94,-103.47C618.42,-105.18 612.61,-106.77 607.04,-108 476.36,-136.94 440.11,-122.23 308.04,-144 292.68,-146.53 275.81,-149.97 260.77,-153.09"/>
<polygon fill="black" stroke="black" points="260.25,-149.62 251.17,-155.08 261.68,-156.47 260.25,-149.62"/>
</g>
</g>
</svg>
