<?xml version="1.0" encoding="UTF-8" standalone="no"?>
<!DOCTYPE svg PUBLIC "-//W3C//DTD SVG 1.1//EN"
 "http://www.w3.org/Graphics/SVG/1.1/DTD/svg11.dtd">
<!-- Generated by graphviz version 12.2.1 (20241206.2353)
 -->
<!-- Pages: 1 -->
<svg width="749pt" height="332pt"
 viewBox="0.00 0.00 749.09 332.00" xmlns="http://www.w3.org/2000/svg" xmlns:xlink="http://www.w3.org/1999/xlink">
<g id="graph0" class="graph" transform="scale(1 1) rotate(0) translate(4 328)">
<polygon fill="white" stroke="none" points="-4,4 -4,-328 745.09,-328 745.09,4 -4,4"/>
<!-- node11 -->
<g id="node1" class="node">
<title>node11</title>
<ellipse fill="none" stroke="black" cx="127.04" cy="-306" rx="38.04" ry="18"/>
<text text-anchor="middle" x="127.04" y="-300.95" font-family="Times,serif" font-size="14.00">node11</text>
</g>
<!-- node8 -->
<g id="node2" class="node">
<title>node8</title>
<ellipse fill="none" stroke="black" cx="127.04" cy="-234" rx="33.44" ry="18"/>
<text text-anchor="middle" x="127.04" y="-228.95" font-family="Times,serif" font-size="14.00">node8</text>
</g>
<!-- node11&#45;&gt;node8 -->
<g id="edge1" class="edge">
<title>node11&#45;&gt;node8</title>
<path fill="none" stroke="black" d="M121.17,-288.05C120.37,-280.57 120.12,-271.58 120.41,-263.14"/>
<polygon fill="black" stroke="black" points="123.89,-263.51 121.08,-253.3 116.91,-263.04 123.89,-263.51"/>
</g>
<!-- node8&#45;&gt;node11 -->
<g id="edge28" class="edge">
<title>node8&#45;&gt;node11</title>
<path fill="none" stroke="black" d="M132.91,-251.79C133.71,-259.25 133.97,-268.24 133.68,-276.69"/>
<polygon fill="black" stroke="black" points="130.2,-276.33 133.02,-286.54 137.18,-276.8 130.2,-276.33"/>
</g>
<!-- node3 -->
<g id="node6" class="node">
<title>node3</title>
<ellipse fill="none" stroke="black" cx="127.04" cy="-162" rx="33.44" ry="18"/>
<text text-anchor="middle" x="127.04" y="-156.95" font-family="Times,serif" font-size="14.00">node3</text>
</g>
<!-- node8&#45;&gt;node3 -->
<g id="edge29" class="edge">
<title>node8&#45;&gt;node3</title>
<path fill="none" stroke="black" d="M121.17,-216.05C120.37,-208.57 120.12,-199.58 120.41,-191.14"/>
<polygon fill="black" stroke="black" points="123.89,-191.51 121.08,-181.3 116.91,-191.04 123.89,-191.51"/>
</g>
<!-- node12 -->
<g id="node3" class="node">
<title>node12</title>
<ellipse fill="none" stroke="black" cx="80.04" cy="-90" rx="38.04" ry="18"/>
<text text-anchor="middle" x="80.04" y="-84.95" font-family="Times,serif" font-size="14.00">node12</text>
</g>
<!-- node19 -->
<g id="node4" class="node">
<title>node19</title>
<ellipse fill="none" stroke="black" cx="38.04" cy="-18" rx="38.04" ry="18"/>
<text text-anchor="middle" x="38.04" y="-12.95" font-family="Times,serif" font-size="14.00">node19</text>
</g>
<!-- node12&#45;&gt;node19 -->
<g id="edge2" class="edge">
<title>node12&#45;&gt;node19</title>
<path fill="none" stroke="black" d="M64.75,-73.12C59.11,-65.23 52.98,-55.48 47.9,-46.43"/>
<polygon fill="black" stroke="black" points="51,-44.82 43.22,-37.63 44.82,-48.1 51,-44.82"/>
</g>
<!-- node1 -->
<g id="node5" class="node">
<title>node1</title>
<ellipse fill="none" stroke="black" cx="127.04" cy="-18" rx="33.44" ry="18"/>
<text text-anchor="middle" x="127.04" y="-12.95" font-family="Times,serif" font-size="14.00">node1</text>
</g>
<!-- node12&#45;&gt;node1 -->
<g id="edge3" class="edge">
<title>node12&#45;&gt;node1</title>
<path fill="none" stroke="black" d="M85.54,-72.05C90.48,-63.32 97.55,-52.51 104.54,-42.93"/>
<polygon fill="black" stroke="black" points="107.23,-45.17 110.49,-35.09 101.65,-40.94 107.23,-45.17"/>
</g>
<!-- node12&#45;&gt;node3 -->
<g id="edge4" class="edge">
<title>node12&#45;&gt;node3</title>
<path fill="none" stroke="black" d="M96.05,-106.36C102.53,-114.54 109.74,-124.84 115.68,-134.28"/>
<polygon fill="black" stroke="black" points="112.62,-135.98 120.77,-142.76 118.63,-132.38 112.62,-135.98"/>
</g>
<!-- node19&#45;&gt;node12 -->
<g id="edge19" class="edge">
<title>node19&#45;&gt;node12</title>
<path fill="none" stroke="black" d="M53.18,-34.67C58.91,-42.66 65.16,-52.6 70.32,-61.79"/>
<polygon fill="black" stroke="black" points="67.09,-63.17 74.87,-70.36 73.27,-59.89 67.09,-63.17"/>
</g>
<!-- node1&#45;&gt;node12 -->
<g id="edge23" class="edge">
<title>node1&#45;&gt;node12</title>
<path fill="none" stroke="black" d="M121.54,-35.96C116.69,-44.53 109.8,-55.09 102.95,-64.52"/>
<polygon fill="black" stroke="black" points="100.34,-62.17 97.11,-72.26 105.93,-66.39 100.34,-62.17"/>
</g>
<!-- node3&#45;&gt;node8 -->
<g id="edge13" class="edge">
<title>node3&#45;&gt;node8</title>
<path fill="none" stroke="black" d="M132.91,-179.79C133.71,-187.25 133.97,-196.24 133.68,-204.69"/>
<polygon fill="black" stroke="black" points="130.2,-204.33 133.02,-214.54 137.18,-204.8 130.2,-204.33"/>
</g>
<!-- node3&#45;&gt;node12 -->
<g id="edge16" class="edge">
<title>node3&#45;&gt;node12</title>
<path fill="none" stroke="black" d="M111.17,-145.81C104.7,-137.66 97.49,-127.37 91.53,-117.92"/>
<polygon fill="black" stroke="black" points="94.58,-116.19 86.43,-109.42 88.58,-119.8 94.58,-116.19"/>
</g>
<!-- node10 -->
<g id="node8" class="node">
<title>node10</title>
<ellipse fill="none" stroke="black" cx="195.04" cy="-90" rx="38.04" ry="18"/>
<text text-anchor="middle" x="195.04" y="-84.95" font-family="Times,serif" font-size="14.00">node10</text>
</g>
<!-- node3&#45;&gt;node10 -->
<g id="edge15" class="edge">
<title>node3&#45;&gt;node10</title>
<path fill="none" stroke="black" d="M137.32,-144.41C145.3,-135.16 156.45,-123.51 166.89,-113.45"/>
<polygon fill="black" stroke="black" points="169.03,-116.24 173.93,-106.84 164.24,-111.13 169.03,-116.24"/>
</g>
<!-- node18 -->
<g id="node11" class="node">
<title>node18</title>
<ellipse fill="none" stroke="black" cx="349.04" cy="-90" rx="38.04" ry="18"/>
<text text-anchor="middle" x="349.04" y="-84.95" font-family="Times,serif" font-size="14.00">node18</text>
</g>
<!-- node3&#45;&gt;node18 -->
<g id="edge11" class="edge">
<title>node3&#45;&gt;node18</title>
<path fill="none" stroke="black" d="M153.95,-150.97C191.73,-138.32 260.53,-116.59 305.59,-103.05"/>
<polygon fill="black" stroke="black" points="306.46,-106.44 315.05,-100.23 304.46,-99.73 306.46,-106.44"/>
</g>
<!-- node5 -->
<g id="node12" class="node">
<title>node5</title>
<ellipse fill="none" stroke="black" cx="468.04" cy="-90" rx="33.44" ry="18"/>
<text text-anchor="middle" x="468.04" y="-84.95" font-family="Times,serif" font-size="14.00">node5</text>
</g>
<!-- node3&#45;&gt;node5 -->
<g id="edge12" class="edge">
<title>node3&#45;&gt;node5</title>
<path fill="none" stroke="black" d="M157.71,-154.23C206.53,-144.55 304.24,-125.93 387.04,-108 399.44,-105.32 412.99,-102.17 425.47,-99.32"/>
<polygon fill="black" stroke="black" points="426.12,-102.77 435.1,-97.15 424.57,-95.94 426.12,-102.77"/>
</g>
<!-- node9 -->
<g id="node13" class="node">
<title>node9</title>
<ellipse fill="none" stroke="black" cx="614.04" cy="-90" rx="33.44" ry="18"/>
<text text-anchor="middle" x="614.04" y="-84.95" font-family="Times,serif" font-size="14.00">node9</text>
</g>
<!-- node3&#45;&gt;node9 -->
<g id="edge14" class="edge">
<title>node3&#45;&gt;node9</title>
<path fill="none" stroke="black" d="M159.05,-156.15C223.86,-147.16 374.43,-127.11 501.04,-108 523.79,-104.57 549.27,-100.41 570.39,-97.06"/>
<polygon fill="black" stroke="black" points="570.8,-100.54 580.13,-95.53 569.71,-93.62 570.8,-100.54"/>
</g>
<!-- node15 -->
<g id="node14" class="node">
<title>node15</title>
<ellipse fill="none" stroke="black" cx="703.04" cy="-90" rx="38.04" ry="18"/>
<text text-anchor="middle" x="703.04" y="-84.95" font-family="Times,serif" font-size="14.00">node15</text>
</g>
<!-- node3&#45;&gt;node15 -->
<g id="edge17" class="edge">
<title>node3&#45;&gt;node15</title>
<path fill="none" stroke="black" d="M160.73,-160.39C244.31,-158.29 466.58,-149.01 647.04,-108 651.57,-106.97 656.25,-105.63 660.91,-104.16"/>
<polygon fill="black" stroke="black" points="661.86,-107.53 670.22,-101.03 659.63,-100.9 661.86,-107.53"/>
</g>
<!-- node13 -->
<g id="node7" class="node">
<title>node13</title>
<ellipse fill="none" stroke="black" cx="216.04" cy="-18" rx="38.04" ry="18"/>
<text text-anchor="middle" x="216.04" y="-12.95" font-family="Times,serif" font-size="14.00">node13</text>
</g>
<!-- node13&#45;&gt;node10 -->
<g id="edge5" class="edge">
<title>node13&#45;&gt;node10</title>
<path fill="none" stroke="black" d="M216.74,-36.45C215.23,-44.1 212.7,-53.26 209.81,-61.77"/>
<polygon fill="black" stroke="black" points="206.59,-60.4 206.39,-70.99 213.15,-62.84 206.59,-60.4"/>
</g>
<!-- node10&#45;&gt;node3 -->
<g id="edge8" class="edge">
<title>node10&#45;&gt;node3</title>
<path fill="none" stroke="black" d="M184.75,-107.61C176.63,-117.03 165.21,-128.94 154.61,-139.12"/>
<polygon fill="black" stroke="black" points="152.38,-136.42 147.46,-145.8 157.16,-141.53 152.38,-136.42"/>
</g>
<!-- node10&#45;&gt;node13 -->
<g id="edge9" class="edge">
<title>node10&#45;&gt;node13</title>
<path fill="none" stroke="black" d="M194.32,-71.7C195.83,-64.04 198.36,-54.85 201.25,-46.3"/>
<polygon fill="black" stroke="black" points="204.49,-47.63 204.69,-37.04 197.93,-45.2 204.49,-47.63"/>
</g>
<!-- node14 -->
<g id="node9" class="node">
<title>node14</title>
<ellipse fill="none" stroke="black" cx="310.04" cy="-18" rx="38.04" ry="18"/>
<text text-anchor="middle" x="310.04" y="-12.95" font-family="Times,serif" font-size="14.00">node14</text>
</g>
<!-- node10&#45;&gt;node14 -->
<g id="edge10" class="edge">
<title>node10&#45;&gt;node14</title>
<path fill="none" stroke="black" d="M214.06,-73.98C230.48,-63.17 254.41,-48.54 274.34,-37.08"/>
<polygon fill="black" stroke="black" points="276.04,-40.14 283.02,-32.17 272.59,-34.05 276.04,-40.14"/>
</g>
<!-- node20 -->
<g id="node10" class="node">
<title>node20</title>
<ellipse fill="none" stroke="black" cx="404.04" cy="-18" rx="38.04" ry="18"/>
<text text-anchor="middle" x="404.04" y="-12.95" font-family="Times,serif" font-size="14.00">node20</text>
</g>
<!-- node10&#45;&gt;node20 -->
<g id="edge7" class="edge">
<title>node10&#45;&gt;node20</title>
<path fill="none" stroke="black" d="M223.54,-77.73C254.44,-67.21 304.68,-50.93 348.04,-36 352.17,-34.58 356.49,-33.06 360.84,-31.54"/>
<polygon fill="black" stroke="black" points="361.88,-34.88 370.17,-28.29 359.58,-28.27 361.88,-34.88"/>
</g>
<!-- node14&#45;&gt;node10 -->
<g id="edge6" class="edge">
<title>node14&#45;&gt;node10</title>
<path fill="none" stroke="black" d="M291.31,-33.83C274.86,-44.67 250.73,-59.43 230.68,-70.96"/>
<polygon fill="black" stroke="black" points="229.21,-67.76 222.24,-75.74 232.66,-73.85 229.21,-67.76"/>
</g>
<!-- node20&#45;&gt;node10 -->
<g id="edge24" class="edge">
<title>node20&#45;&gt;node10</title>
<path fill="none" stroke="black" d="M378.37,-31.65C374.27,-33.14 370.06,-34.62 366.04,-36 323.12,-50.78 273.47,-66.88 238.63,-77.41"/>
<polygon fill="black" stroke="black" points="237.9,-73.97 229.32,-80.19 239.9,-80.68 237.9,-73.97"/>
</g>
<!-- node18&#45;&gt;node3 -->
<g id="edge21" class="edge">
<title>node18&#45;&gt;node3</title>
<path fill="none" stroke="black" d="M319.72,-101.84C280.58,-114.89 211.45,-136.69 167.43,-149.87"/>
<polygon fill="black" stroke="black" points="166.58,-146.47 157.99,-152.68 168.58,-153.18 166.58,-146.47"/>
</g>
<!-- node5&#45;&gt;node3 -->
<g id="edge25" class="edge">
<title>node5&#45;&gt;node3</title>
<path fill="none" stroke="black" d="M439.7,-100C428.87,-102.66 416.47,-105.53 405.04,-108 322.52,-125.86 225.21,-144.42 170.23,-154.13"/>
<polygon fill="black" stroke="black" points="169.9,-150.63 160.65,-155.8 171.1,-157.53 169.9,-150.63"/>
</g>
<!-- node16 -->
<g id="node16" class="node">
<title>node16</title>
<ellipse fill="none" stroke="black" cx="498.04" cy="-18" rx="38.04" ry="18"/>
<text text-anchor="middle" x="498.04" y="-12.95" font-family="Times,serif" font-size="14.00">node16</text>
</g>
<!-- node5&#45;&gt;node16 -->
<g id="edge27" class="edge">
<title>node5&#45;&gt;node16</title>
<path fill="none" stroke="black" d="M469.54,-71.7C472.13,-63.75 476.03,-54.16 480.19,-45.34"/>
<polygon fill="black" stroke="black" points="483.28,-47 484.65,-36.5 477.03,-43.85 483.28,-47"/>
</g>
<!-- node7 -->
<g id="node17" class="node">
<title>node7</title>
<ellipse fill="none" stroke="black" cx="587.04" cy="-18" rx="33.44" ry="18"/>
<text text-anchor="middle" x="587.04" y="-12.95" font-family="Times,serif" font-size="14.00">node7</text>
</g>
<!-- node5&#45;&gt;node7 -->
<g id="edge26" class="edge">
<title>node5&#45;&gt;node7</title>
<path fill="none" stroke="black" d="M486.84,-74.67C504.43,-63.46 530.86,-47.85 552.24,-36.01"/>
<polygon fill="black" stroke="black" points="553.84,-39.13 560.94,-31.26 550.48,-32.98 553.84,-39.13"/>
</g>
<!-- node9&#45;&gt;node3 -->
<g id="edge31" class="edge">
<title>node9&#45;&gt;node3</title>
<path fill="none" stroke="black" d="M583.16,-97.6C564.56,-100.85 540.57,-104.75 519.04,-108 393.04,-127.01 243.29,-146.97 170.64,-156.02"/>
<polygon fill="black" stroke="black" points="170.66,-152.49 161.16,-157.19 171.51,-159.44 170.66,-152.49"/>
</g>
<!-- node17 -->
<g id="node15" class="node">
<title>node17</title>
<ellipse fill="none" stroke="black" cx="676.04" cy="-18" rx="38.04" ry="18"/>
<text text-anchor="middle" x="676.04" y="-12.95" font-family="Times,serif" font-size="14.00">node17</text>
</g>
<!-- node9&#45;&gt;node17 -->
<g id="edge32" class="edge">
<title>node9&#45;&gt;node17</title>
<path fill="none" stroke="black" d="M622.9,-72.41C629.89,-63.41 639.69,-52.13 649.05,-42.26"/>
<polygon fill="black" stroke="black" points="651.53,-44.72 656.01,-35.12 646.52,-39.83 651.53,-44.72"/>
</g>
<!-- node15&#45;&gt;node3 -->
<g id="edge18" class="edge">
<title>node15&#45;&gt;node3</title>
<path fill="none" stroke="black" d="M678.63,-104.19C674.17,-105.66 669.53,-106.98 665.04,-108 485.73,-148.75 265.12,-158.17 171.85,-160.35"/>
<polygon fill="black" stroke="black" points="172.04,-156.84 162.11,-160.56 172.19,-163.84 172.04,-156.84"/>
</g>
<!-- node17&#45;&gt;node9 -->
<g id="edge20" class="edge">
<title>node17&#45;&gt;node9</title>
<path fill="none" stroke="black" d="M666.91,-35.95C659.8,-45.07 649.9,-56.43 640.51,-66.3"/>
<polygon fill="black" stroke="black" points="638.04,-63.82 633.54,-73.41 643.04,-68.72 638.04,-63.82"/>
</g>
<!-- node16&#45;&gt;node5 -->
<g id="edge22" class="edge">
<title>node16&#45;&gt;node5</title>
<path fill="none" stroke="black" d="M496.55,-36.29C493.94,-44.3 490,-53.99 485.8,-62.86"/>
<polygon fill="black" stroke="black" points="482.69,-61.26 481.3,-71.77 488.93,-64.42 482.69,-61.26"/>
</g>
<!-- node7&#45;&gt;node5 -->
<g id="edge30" class="edge">
<title>node7&#45;&gt;node5</title>
<path fill="none" stroke="black" d="M568.4,-33.24C550.82,-44.44 524.34,-60.09 502.91,-71.95"/>
<polygon fill="black" stroke="black" points="501.29,-68.85 494.19,-76.72 504.64,-75 501.29,-68.85"/>
</g>
</g>
</svg>
