<?xml version="1.0" encoding="UTF-8" standalone="no"?>
<!DOCTYPE svg PUBLIC "-//W3C//DTD SVG 1.1//EN"
 "http://www.w3.org/Graphics/SVG/1.1/DTD/svg11.dtd">
<!-- Generated by graphviz version 12.2.1 (20241206.2353)
 -->
<!-- Pages: 1 -->
<svg width="678pt" height="332pt"
 viewBox="0.00 0.00 677.88 332.00" xmlns="http://www.w3.org/2000/svg" xmlns:xlink="http://www.w3.org/1999/xlink">
<g id="graph0" class="graph" transform="scale(1 1) rotate(0) translate(4 328)">
<polygon fill="white" stroke="none" points="-4,4 -4,-328 673.88,-328 673.88,4 -4,4"/>
<!-- node2 -->
<g id="node1" class="node">
<title>node2</title>
<ellipse fill="none" stroke="black" cx="33.44" cy="-306" rx="33.44" ry="18"/>
<text text-anchor="middle" x="33.44" y="-300.95" font-family="Times,serif" font-size="14.00">node2</text>
</g>
<!-- node10 -->
<g id="node2" class="node">
<title>node10</title>
<ellipse fill="none" stroke="black" cx="122.44" cy="-306" rx="38.04" ry="18"/>
<text text-anchor="middle" x="122.44" y="-300.95" font-family="Times,serif" font-size="14.00">node10</text>
</g>
<!-- node15 -->
<g id="node3" class="node">
<title>node15</title>
<ellipse fill="none" stroke="black" cx="216.44" cy="-306" rx="38.04" ry="18"/>
<text text-anchor="middle" x="216.44" y="-300.95" font-family="Times,serif" font-size="14.00">node15</text>
</g>
<!-- node17 -->
<g id="node4" class="node">
<title>node17</title>
<ellipse fill="none" stroke="black" cx="216.44" cy="-234" rx="38.04" ry="18"/>
<text text-anchor="middle" x="216.44" y="-228.95" font-family="Times,serif" font-size="14.00">node17</text>
</g>
<!-- node15&#45;&gt;node17 -->
<g id="edge1" class="edge">
<title>node15&#45;&gt;node17</title>
<path fill="none" stroke="black" d="M210.56,-288.05C209.78,-280.68 209.52,-271.84 209.79,-263.51"/>
<polygon fill="black" stroke="black" points="213.27,-263.99 210.43,-253.79 206.28,-263.54 213.27,-263.99"/>
</g>
<!-- node17&#45;&gt;node15 -->
<g id="edge9" class="edge">
<title>node17&#45;&gt;node15</title>
<path fill="none" stroke="black" d="M222.35,-252.28C223.11,-259.6 223.35,-268.34 223.08,-276.57"/>
<polygon fill="black" stroke="black" points="219.59,-276.33 222.42,-286.54 226.57,-276.8 219.59,-276.33"/>
</g>
<!-- node9 -->
<g id="node7" class="node">
<title>node9</title>
<ellipse fill="none" stroke="black" cx="174.44" cy="-162" rx="33.44" ry="18"/>
<text text-anchor="middle" x="174.44" y="-156.95" font-family="Times,serif" font-size="14.00">node9</text>
</g>
<!-- node17&#45;&gt;node9 -->
<g id="edge10" class="edge">
<title>node17&#45;&gt;node9</title>
<path fill="none" stroke="black" d="M201.15,-217.12C195.51,-209.23 189.37,-199.48 184.29,-190.43"/>
<polygon fill="black" stroke="black" points="187.39,-188.82 179.61,-181.63 181.21,-192.1 187.39,-188.82"/>
</g>
<!-- node1 -->
<g id="node9" class="node">
<title>node1</title>
<ellipse fill="none" stroke="black" cx="259.44" cy="-162" rx="33.44" ry="18"/>
<text text-anchor="middle" x="259.44" y="-156.95" font-family="Times,serif" font-size="14.00">node1</text>
</g>
<!-- node17&#45;&gt;node1 -->
<g id="edge8" class="edge">
<title>node17&#45;&gt;node1</title>
<path fill="none" stroke="black" d="M221.15,-215.7C225.51,-207.16 231.74,-196.72 237.99,-187.4"/>
<polygon fill="black" stroke="black" points="240.69,-189.64 243.55,-179.44 234.95,-185.63 240.69,-189.64"/>
</g>
<!-- node7 -->
<g id="node5" class="node">
<title>node7</title>
<ellipse fill="none" stroke="black" cx="188.44" cy="-18" rx="33.44" ry="18"/>
<text text-anchor="middle" x="188.44" y="-12.95" font-family="Times,serif" font-size="14.00">node7</text>
</g>
<!-- node18 -->
<g id="node6" class="node">
<title>node18</title>
<ellipse fill="none" stroke="black" cx="187.44" cy="-90" rx="38.04" ry="18"/>
<text text-anchor="middle" x="187.44" y="-84.95" font-family="Times,serif" font-size="14.00">node18</text>
</g>
<!-- node7&#45;&gt;node18 -->
<g id="edge2" class="edge">
<title>node7&#45;&gt;node18</title>
<path fill="none" stroke="black" d="M194.06,-35.79C194.75,-43.25 194.89,-52.24 194.48,-60.69"/>
<polygon fill="black" stroke="black" points="191,-60.3 193.68,-70.55 197.98,-60.86 191,-60.3"/>
</g>
<!-- node18&#45;&gt;node7 -->
<g id="edge23" class="edge">
<title>node18&#45;&gt;node7</title>
<path fill="none" stroke="black" d="M181.8,-72.05C181.12,-64.57 180.99,-55.58 181.4,-47.14"/>
<polygon fill="black" stroke="black" points="184.88,-47.55 182.21,-37.3 177.9,-46.98 184.88,-47.55"/>
</g>
<!-- node18&#45;&gt;node1 -->
<g id="edge22" class="edge">
<title>node18&#45;&gt;node1</title>
<path fill="none" stroke="black" d="M207.92,-105.48C218.27,-114.42 230.6,-126.12 240.69,-136.48"/>
<polygon fill="black" stroke="black" points="238.08,-138.81 247.5,-143.67 243.16,-134 238.08,-138.81"/>
</g>
<!-- node9&#45;&gt;node17 -->
<g id="edge3" class="edge">
<title>node9&#45;&gt;node17</title>
<path fill="none" stroke="black" d="M189.24,-178.2C195.03,-186.22 201.39,-196.31 206.63,-205.64"/>
<polygon fill="black" stroke="black" points="203.48,-207.17 211.26,-214.36 209.66,-203.89 203.48,-207.17"/>
</g>
<!-- node14 -->
<g id="node8" class="node">
<title>node14</title>
<ellipse fill="none" stroke="black" cx="283.44" cy="-90" rx="38.04" ry="18"/>
<text text-anchor="middle" x="283.44" y="-84.95" font-family="Times,serif" font-size="14.00">node14</text>
</g>
<!-- node14&#45;&gt;node1 -->
<g id="edge4" class="edge">
<title>node14&#45;&gt;node1</title>
<path fill="none" stroke="black" d="M283.46,-108.12C281.59,-115.98 278.57,-125.47 275.2,-134.23"/>
<polygon fill="black" stroke="black" points="272.01,-132.79 271.39,-143.37 278.47,-135.48 272.01,-132.79"/>
</g>
<!-- node5 -->
<g id="node10" class="node">
<title>node5</title>
<ellipse fill="none" stroke="black" cx="276.44" cy="-18" rx="33.44" ry="18"/>
<text text-anchor="middle" x="276.44" y="-12.95" font-family="Times,serif" font-size="14.00">node5</text>
</g>
<!-- node14&#45;&gt;node5 -->
<g id="edge5" class="edge">
<title>node14&#45;&gt;node5</title>
<path fill="none" stroke="black" d="M275.87,-72.05C274.35,-64.68 273.21,-55.84 272.64,-47.51"/>
<polygon fill="black" stroke="black" points="276.15,-47.66 272.31,-37.79 269.16,-47.9 276.15,-47.66"/>
</g>
<!-- node8 -->
<g id="node11" class="node">
<title>node8</title>
<ellipse fill="none" stroke="black" cx="363.44" cy="-18" rx="33.44" ry="18"/>
<text text-anchor="middle" x="363.44" y="-12.95" font-family="Times,serif" font-size="14.00">node8</text>
</g>
<!-- node14&#45;&gt;node8 -->
<g id="edge6" class="edge">
<title>node14&#45;&gt;node8</title>
<path fill="none" stroke="black" d="M296.19,-72.76C306.47,-62.79 321.05,-49.93 334.07,-39.28"/>
<polygon fill="black" stroke="black" points="335.96,-42.25 341.59,-33.28 331.59,-36.78 335.96,-42.25"/>
</g>
<!-- node1&#45;&gt;node17 -->
<g id="edge16" class="edge">
<title>node1&#45;&gt;node17</title>
<path fill="none" stroke="black" d="M254.73,-180.29C250.5,-188.56 244.52,-198.63 238.47,-207.74"/>
<polygon fill="black" stroke="black" points="235.65,-205.66 232.82,-215.87 241.4,-209.66 235.65,-205.66"/>
</g>
<!-- node1&#45;&gt;node18 -->
<g id="edge17" class="edge">
<title>node1&#45;&gt;node18</title>
<path fill="none" stroke="black" d="M239.71,-147.17C229.24,-138.18 216.6,-126.2 206.28,-115.62"/>
<polygon fill="black" stroke="black" points="209.05,-113.45 199.63,-108.61 203.97,-118.27 209.05,-113.45"/>
</g>
<!-- node1&#45;&gt;node14 -->
<g id="edge14" class="edge">
<title>node1&#45;&gt;node14</title>
<path fill="none" stroke="black" d="M259.45,-143.7C261.31,-135.95 264.28,-126.64 267.58,-118.02"/>
<polygon fill="black" stroke="black" points="270.72,-119.6 271.32,-109.02 264.25,-116.92 270.72,-119.6"/>
</g>
<!-- node16 -->
<g id="node12" class="node">
<title>node16</title>
<ellipse fill="none" stroke="black" cx="378.44" cy="-90" rx="38.04" ry="18"/>
<text text-anchor="middle" x="378.44" y="-84.95" font-family="Times,serif" font-size="14.00">node16</text>
</g>
<!-- node1&#45;&gt;node16 -->
<g id="edge15" class="edge">
<title>node1&#45;&gt;node16</title>
<path fill="none" stroke="black" d="M278.24,-146.67C295.4,-135.73 320.97,-120.61 342.05,-108.89"/>
<polygon fill="black" stroke="black" points="343.57,-112.05 350.66,-104.17 340.21,-105.91 343.57,-112.05"/>
</g>
<!-- node20 -->
<g id="node14" class="node">
<title>node20</title>
<ellipse fill="none" stroke="black" cx="453.44" cy="-18" rx="38.04" ry="18"/>
<text text-anchor="middle" x="453.44" y="-12.95" font-family="Times,serif" font-size="14.00">node20</text>
</g>
<!-- node1&#45;&gt;node20 -->
<g id="edge12" class="edge">
<title>node1&#45;&gt;node20</title>
<path fill="none" stroke="black" d="M292.42,-158.49C327.73,-154.04 382.82,-141.76 416.44,-108 432.51,-91.86 439.37,-66.6 443.79,-47.11"/>
<polygon fill="black" stroke="black" points="447.15,-48.13 445.89,-37.61 440.31,-46.61 447.15,-48.13"/>
</g>
<!-- node13 -->
<g id="node15" class="node">
<title>node13</title>
<ellipse fill="none" stroke="black" cx="529.44" cy="-90" rx="38.04" ry="18"/>
<text text-anchor="middle" x="529.44" y="-84.95" font-family="Times,serif" font-size="14.00">node13</text>
</g>
<!-- node1&#45;&gt;node13 -->
<g id="edge13" class="edge">
<title>node1&#45;&gt;node13</title>
<path fill="none" stroke="black" d="M289.15,-153.12C329.96,-143.45 404.94,-126.07 468.44,-108 473.95,-106.43 479.75,-104.66 485.52,-102.86"/>
<polygon fill="black" stroke="black" points="486.53,-106.21 495.03,-99.89 484.45,-99.53 486.53,-106.21"/>
</g>
<!-- node19 -->
<g id="node16" class="node">
<title>node19</title>
<ellipse fill="none" stroke="black" cx="623.44" cy="-90" rx="38.04" ry="18"/>
<text text-anchor="middle" x="623.44" y="-84.95" font-family="Times,serif" font-size="14.00">node19</text>
</g>
<!-- node1&#45;&gt;node19 -->
<g id="edge18" class="edge">
<title>node1&#45;&gt;node19</title>
<path fill="none" stroke="black" d="M291.79,-156.9C348.46,-149.94 468.39,-133.96 567.44,-108 571.88,-106.84 576.49,-105.43 581.09,-103.93"/>
<polygon fill="black" stroke="black" points="581.94,-107.33 590.29,-100.81 579.69,-100.7 581.94,-107.33"/>
</g>
<!-- node5&#45;&gt;node14 -->
<g id="edge24" class="edge">
<title>node5&#45;&gt;node14</title>
<path fill="none" stroke="black" d="M283.94,-35.62C285.49,-43.02 286.65,-51.94 287.22,-60.35"/>
<polygon fill="black" stroke="black" points="283.72,-60.31 287.57,-70.18 290.72,-60.07 283.72,-60.31"/>
</g>
<!-- node8&#45;&gt;node14 -->
<g id="edge19" class="edge">
<title>node8&#45;&gt;node14</title>
<path fill="none" stroke="black" d="M350.82,-35.1C340.88,-44.76 326.88,-57.15 314.15,-67.62"/>
<polygon fill="black" stroke="black" points="311.95,-64.89 306.36,-73.89 316.34,-70.35 311.95,-64.89"/>
</g>
<!-- node16&#45;&gt;node1 -->
<g id="edge7" class="edge">
<title>node16&#45;&gt;node1</title>
<path fill="none" stroke="black" d="M359,-105.74C341.39,-116.93 315.3,-132.33 294.17,-144.03"/>
<polygon fill="black" stroke="black" points="292.68,-140.85 285.58,-148.72 296.04,-147 292.68,-140.85"/>
</g>
<!-- node12 -->
<g id="node13" class="node">
<title>node12</title>
<ellipse fill="none" stroke="black" cx="310.44" cy="-306" rx="38.04" ry="18"/>
<text text-anchor="middle" x="310.44" y="-300.95" font-family="Times,serif" font-size="14.00">node12</text>
</g>
<!-- node20&#45;&gt;node1 -->
<g id="edge11" class="edge">
<title>node20&#45;&gt;node1</title>
<path fill="none" stroke="black" d="M459.04,-36.13C459.77,-56.03 453.75,-88.6 434.44,-108 400.24,-142.34 343.85,-154.46 304.22,-158.72"/>
<polygon fill="black" stroke="black" points="304.15,-155.21 294.51,-159.62 304.8,-162.18 304.15,-155.21"/>
</g>
<!-- node13&#45;&gt;node1 -->
<g id="edge20" class="edge">
<title>node13&#45;&gt;node1</title>
<path fill="none" stroke="black" d="M502.36,-103.16C497.11,-104.85 491.65,-106.52 486.44,-108 422.89,-126.08 347.85,-143.47 301.82,-153.15"/>
<polygon fill="black" stroke="black" points="301.34,-149.67 292.25,-155.13 302.76,-156.53 301.34,-149.67"/>
</g>
<!-- node11 -->
<g id="node19" class="node">
<title>node11</title>
<ellipse fill="none" stroke="black" cx="547.44" cy="-18" rx="38.04" ry="18"/>
<text text-anchor="middle" x="547.44" y="-12.95" font-family="Times,serif" font-size="14.00">node11</text>
</g>
<!-- node13&#45;&gt;node11 -->
<g id="edge21" class="edge">
<title>node13&#45;&gt;node11</title>
<path fill="none" stroke="black" d="M527.97,-71.7C529.15,-64.04 531.29,-54.85 533.81,-46.3"/>
<polygon fill="black" stroke="black" points="537.06,-47.65 536.85,-37.06 530.4,-45.47 537.06,-47.65"/>
</g>
<!-- node19&#45;&gt;node1 -->
<g id="edge27" class="edge">
<title>node19&#45;&gt;node1</title>
<path fill="none" stroke="black" d="M598.45,-104.09C594.16,-105.53 589.72,-106.88 585.44,-108 486.61,-133.91 366.98,-149.87 303.58,-156.86"/>
<polygon fill="black" stroke="black" points="303.48,-153.35 293.91,-157.9 304.23,-160.31 303.48,-153.35"/>
</g>
<!-- node3 -->
<g id="node20" class="node">
<title>node3</title>
<ellipse fill="none" stroke="black" cx="636.44" cy="-18" rx="33.44" ry="18"/>
<text text-anchor="middle" x="636.44" y="-12.95" font-family="Times,serif" font-size="14.00">node3</text>
</g>
<!-- node19&#45;&gt;node3 -->
<g id="edge28" class="edge">
<title>node19&#45;&gt;node3</title>
<path fill="none" stroke="black" d="M620.74,-71.7C621.36,-64.13 622.81,-55.06 624.7,-46.59"/>
<polygon fill="black" stroke="black" points="628.04,-47.64 627.13,-37.09 621.26,-45.91 628.04,-47.64"/>
</g>
<!-- node4 -->
<g id="node17" class="node">
<title>node4</title>
<ellipse fill="none" stroke="black" cx="399.44" cy="-306" rx="33.44" ry="18"/>
<text text-anchor="middle" x="399.44" y="-300.95" font-family="Times,serif" font-size="14.00">node4</text>
</g>
<!-- node6 -->
<g id="node18" class="node">
<title>node6</title>
<ellipse fill="none" stroke="black" cx="484.44" cy="-306" rx="33.44" ry="18"/>
<text text-anchor="middle" x="484.44" y="-300.95" font-family="Times,serif" font-size="14.00">node6</text>
</g>
<!-- node11&#45;&gt;node13 -->
<g id="edge25" class="edge">
<title>node11&#45;&gt;node13</title>
<path fill="none" stroke="black" d="M548.88,-36.45C547.71,-44.01 545.61,-53.05 543.12,-61.48"/>
<polygon fill="black" stroke="black" points="539.8,-60.38 540.02,-70.97 546.46,-62.56 539.8,-60.38"/>
</g>
<!-- node3&#45;&gt;node19 -->
<g id="edge26" class="edge">
<title>node3&#45;&gt;node19</title>
<path fill="none" stroke="black" d="M639.14,-36.28C638.53,-43.77 637.1,-52.75 635.23,-61.15"/>
<polygon fill="black" stroke="black" points="631.91,-60.03 632.84,-70.59 638.69,-61.76 631.91,-60.03"/>
</g>
</g>
</svg>
