<?xml version="1.0" encoding="UTF-8" standalone="no"?>
<!DOCTYPE svg PUBLIC "-//W3C//DTD SVG 1.1//EN"
 "http://www.w3.org/Graphics/SVG/1.1/DTD/svg11.dtd">
<!-- Generated by graphviz version 12.2.1 (20241206.2353)
 -->
<!-- Pages: 1 -->
<svg width="1024pt" height="404pt"
 viewBox="0.00 0.00 1024.48 404.00" xmlns="http://www.w3.org/2000/svg" xmlns:xlink="http://www.w3.org/1999/xlink">
<g id="graph0" class="graph" transform="scale(1 1) rotate(0) translate(4 400)">
<polygon fill="white" stroke="none" points="-4,4 -4,-400 1020.48,-400 1020.48,4 -4,4"/>
<!-- node11 -->
<g id="node1" class="node">
<title>node11</title>
<ellipse fill="none" stroke="black" cx="77.44" cy="-378" rx="38.04" ry="18"/>
<text text-anchor="middle" x="77.44" y="-372.95" font-family="Times,serif" font-size="14.00">node11</text>
</g>
<!-- node15 -->
<g id="node2" class="node">
<title>node15</title>
<ellipse fill="none" stroke="black" cx="77.44" cy="-306" rx="38.04" ry="18"/>
<text text-anchor="middle" x="77.44" y="-300.95" font-family="Times,serif" font-size="14.00">node15</text>
</g>
<!-- node11&#45;&gt;node15 -->
<g id="edge1" class="edge">
<title>node11&#45;&gt;node15</title>
<path fill="none" stroke="black" d="M71.56,-360.05C70.78,-352.68 70.52,-343.84 70.79,-335.51"/>
<polygon fill="black" stroke="black" points="74.27,-335.99 71.43,-325.79 67.28,-335.54 74.27,-335.99"/>
</g>
<!-- node15&#45;&gt;node11 -->
<g id="edge8" class="edge">
<title>node15&#45;&gt;node11</title>
<path fill="none" stroke="black" d="M83.35,-324.28C84.11,-331.6 84.35,-340.34 84.08,-348.57"/>
<polygon fill="black" stroke="black" points="80.59,-348.33 83.42,-358.54 87.57,-348.8 80.59,-348.33"/>
</g>
<!-- node5 -->
<g id="node11" class="node">
<title>node5</title>
<ellipse fill="none" stroke="black" cx="77.44" cy="-234" rx="33.44" ry="18"/>
<text text-anchor="middle" x="77.44" y="-228.95" font-family="Times,serif" font-size="14.00">node5</text>
</g>
<!-- node15&#45;&gt;node5 -->
<g id="edge7" class="edge">
<title>node15&#45;&gt;node5</title>
<path fill="none" stroke="black" d="M71.56,-288.05C70.77,-280.57 70.51,-271.58 70.8,-263.14"/>
<polygon fill="black" stroke="black" points="74.29,-263.51 71.47,-253.3 67.3,-263.04 74.29,-263.51"/>
</g>
<!-- node2 -->
<g id="node3" class="node">
<title>node2</title>
<ellipse fill="none" stroke="black" cx="166.44" cy="-378" rx="33.44" ry="18"/>
<text text-anchor="middle" x="166.44" y="-372.95" font-family="Times,serif" font-size="14.00">node2</text>
</g>
<!-- node3 -->
<g id="node4" class="node">
<title>node3</title>
<ellipse fill="none" stroke="black" cx="33.44" cy="-90" rx="33.44" ry="18"/>
<text text-anchor="middle" x="33.44" y="-84.95" font-family="Times,serif" font-size="14.00">node3</text>
</g>
<!-- node1 -->
<g id="node5" class="node">
<title>node1</title>
<ellipse fill="none" stroke="black" cx="77.44" cy="-162" rx="33.44" ry="18"/>
<text text-anchor="middle" x="77.44" y="-156.95" font-family="Times,serif" font-size="14.00">node1</text>
</g>
<!-- node3&#45;&gt;node1 -->
<g id="edge2" class="edge">
<title>node3&#45;&gt;node1</title>
<path fill="none" stroke="black" d="M48.79,-106.36C54.92,-114.54 61.68,-124.84 67.22,-134.28"/>
<polygon fill="black" stroke="black" points="64.01,-135.7 71.93,-142.73 70.12,-132.29 64.01,-135.7"/>
</g>
<!-- node17 -->
<g id="node6" class="node">
<title>node17</title>
<ellipse fill="none" stroke="black" cx="46.44" cy="-18" rx="38.04" ry="18"/>
<text text-anchor="middle" x="46.44" y="-12.95" font-family="Times,serif" font-size="14.00">node17</text>
</g>
<!-- node3&#45;&gt;node17 -->
<g id="edge3" class="edge">
<title>node3&#45;&gt;node17</title>
<path fill="none" stroke="black" d="M30.74,-71.7C31.36,-64.13 32.81,-55.06 34.7,-46.59"/>
<polygon fill="black" stroke="black" points="38.04,-47.64 37.13,-37.09 31.26,-45.91 38.04,-47.64"/>
</g>
<!-- node9 -->
<g id="node7" class="node">
<title>node9</title>
<ellipse fill="none" stroke="black" cx="163.44" cy="-18" rx="33.44" ry="18"/>
<text text-anchor="middle" x="163.44" y="-12.95" font-family="Times,serif" font-size="14.00">node9</text>
</g>
<!-- node3&#45;&gt;node9 -->
<g id="edge4" class="edge">
<title>node3&#45;&gt;node9</title>
<path fill="none" stroke="black" d="M53.62,-75.17C73.46,-63.65 103.87,-47.22 127.74,-35.11"/>
<polygon fill="black" stroke="black" points="129.13,-38.33 136.5,-30.72 125.99,-32.07 129.13,-38.33"/>
</g>
<!-- node1&#45;&gt;node3 -->
<g id="edge13" class="edge">
<title>node1&#45;&gt;node3</title>
<path fill="none" stroke="black" d="M62.21,-145.81C56.1,-137.66 49.33,-127.37 43.77,-117.92"/>
<polygon fill="black" stroke="black" points="46.97,-116.47 39.04,-109.45 40.86,-119.89 46.97,-116.47"/>
</g>
<!-- node13 -->
<g id="node8" class="node">
<title>node13</title>
<ellipse fill="none" stroke="black" cx="122.44" cy="-90" rx="38.04" ry="18"/>
<text text-anchor="middle" x="122.44" y="-84.95" font-family="Times,serif" font-size="14.00">node13</text>
</g>
<!-- node1&#45;&gt;node13 -->
<g id="edge11" class="edge">
<title>node1&#45;&gt;node13</title>
<path fill="none" stroke="black" d="M82.45,-144.05C86.97,-135.65 93.4,-125.32 99.85,-116.02"/>
<polygon fill="black" stroke="black" points="102.59,-118.21 105.62,-108.06 96.92,-114.1 102.59,-118.21"/>
</g>
<!-- node1&#45;&gt;node5 -->
<g id="edge14" class="edge">
<title>node1&#45;&gt;node5</title>
<path fill="none" stroke="black" d="M83.3,-179.79C84.1,-187.25 84.36,-196.24 84.08,-204.69"/>
<polygon fill="black" stroke="black" points="80.59,-204.33 83.42,-214.54 87.58,-204.8 80.59,-204.33"/>
</g>
<!-- node7 -->
<g id="node14" class="node">
<title>node7</title>
<ellipse fill="none" stroke="black" cx="211.44" cy="-90" rx="33.44" ry="18"/>
<text text-anchor="middle" x="211.44" y="-84.95" font-family="Times,serif" font-size="14.00">node7</text>
</g>
<!-- node1&#45;&gt;node7 -->
<g id="edge10" class="edge">
<title>node1&#45;&gt;node7</title>
<path fill="none" stroke="black" d="M98.11,-147.34C118.77,-135.71 150.67,-119 175.44,-106.8"/>
<polygon fill="black" stroke="black" points="176.75,-110.06 184.21,-102.54 173.68,-103.76 176.75,-110.06"/>
</g>
<!-- node19 -->
<g id="node15" class="node">
<title>node19</title>
<ellipse fill="none" stroke="black" cx="266.44" cy="-18" rx="38.04" ry="18"/>
<text text-anchor="middle" x="266.44" y="-12.95" font-family="Times,serif" font-size="14.00">node19</text>
</g>
<!-- node1&#45;&gt;node19 -->
<g id="edge12" class="edge">
<title>node1&#45;&gt;node19</title>
<path fill="none" stroke="black" d="M111.18,-160.62C149.54,-157.91 210.78,-147.03 244.44,-108 258.56,-91.63 261.21,-66.93 262.09,-47.7"/>
<polygon fill="black" stroke="black" points="265.58,-47.91 262.45,-37.79 258.59,-47.66 265.58,-47.91"/>
</g>
<!-- node17&#45;&gt;node3 -->
<g id="edge17" class="edge">
<title>node17&#45;&gt;node3</title>
<path fill="none" stroke="black" d="M49.13,-36.45C48.5,-44.01 47.04,-53.05 45.16,-61.48"/>
<polygon fill="black" stroke="black" points="41.83,-60.39 42.73,-70.94 48.61,-62.13 41.83,-60.39"/>
</g>
<!-- node9&#45;&gt;node3 -->
<g id="edge5" class="edge">
<title>node9&#45;&gt;node3</title>
<path fill="none" stroke="black" d="M143.4,-32.75C123.52,-44.3 92.91,-60.83 68.96,-72.99"/>
<polygon fill="black" stroke="black" points="67.54,-69.78 60.17,-77.38 70.68,-76.04 67.54,-69.78"/>
</g>
<!-- node13&#45;&gt;node1 -->
<g id="edge6" class="edge">
<title>node13&#45;&gt;node1</title>
<path fill="none" stroke="black" d="M117.33,-108.13C112.72,-116.68 106.16,-127.18 99.61,-136.57"/>
<polygon fill="black" stroke="black" points="96.83,-134.44 93.77,-144.59 102.49,-138.57 96.83,-134.44"/>
</g>
<!-- node6 -->
<g id="node9" class="node">
<title>node6</title>
<ellipse fill="none" stroke="black" cx="251.44" cy="-378" rx="33.44" ry="18"/>
<text text-anchor="middle" x="251.44" y="-372.95" font-family="Times,serif" font-size="14.00">node6</text>
</g>
<!-- node10 -->
<g id="node10" class="node">
<title>node10</title>
<ellipse fill="none" stroke="black" cx="340.44" cy="-378" rx="38.04" ry="18"/>
<text text-anchor="middle" x="340.44" y="-372.95" font-family="Times,serif" font-size="14.00">node10</text>
</g>
<!-- node5&#45;&gt;node15 -->
<g id="edge16" class="edge">
<title>node5&#45;&gt;node15</title>
<path fill="none" stroke="black" d="M83.3,-251.79C84.1,-259.25 84.36,-268.24 84.08,-276.69"/>
<polygon fill="black" stroke="black" points="80.59,-276.33 83.42,-286.54 87.58,-276.8 80.59,-276.33"/>
</g>
<!-- node5&#45;&gt;node1 -->
<g id="edge15" class="edge">
<title>node5&#45;&gt;node1</title>
<path fill="none" stroke="black" d="M71.56,-216.05C70.77,-208.57 70.51,-199.58 70.8,-191.14"/>
<polygon fill="black" stroke="black" points="74.29,-191.51 71.47,-181.3 67.3,-191.04 74.29,-191.51"/>
</g>
<!-- node4 -->
<g id="node12" class="node">
<title>node4</title>
<ellipse fill="none" stroke="black" cx="429.44" cy="-378" rx="33.44" ry="18"/>
<text text-anchor="middle" x="429.44" y="-372.95" font-family="Times,serif" font-size="14.00">node4</text>
</g>
<!-- node14 -->
<g id="node13" class="node">
<title>node14</title>
<ellipse fill="none" stroke="black" cx="518.44" cy="-378" rx="38.04" ry="18"/>
<text text-anchor="middle" x="518.44" y="-372.95" font-family="Times,serif" font-size="14.00">node14</text>
</g>
<!-- node7&#45;&gt;node1 -->
<g id="edge9" class="edge">
<title>node7&#45;&gt;node1</title>
<path fill="none" stroke="black" d="M190.95,-104.56C170.25,-116.22 138.15,-133.03 113.28,-145.28"/>
<polygon fill="black" stroke="black" points="111.94,-142.03 104.48,-149.55 115,-148.33 111.94,-142.03"/>
</g>
<!-- node19&#45;&gt;node1 -->
<g id="edge18" class="edge">
<title>node19&#45;&gt;node1</title>
<path fill="none" stroke="black" d="M275.34,-35.93C279.82,-55.63 279.67,-88.02 262.44,-108 228.17,-147.73 165.32,-158.29 122.35,-160.76"/>
<polygon fill="black" stroke="black" points="122.42,-157.25 112.58,-161.18 122.73,-164.25 122.42,-157.25"/>
</g>
<!-- node8 -->
<g id="node16" class="node">
<title>node8</title>
<ellipse fill="none" stroke="black" cx="607.44" cy="-378" rx="33.44" ry="18"/>
<text text-anchor="middle" x="607.44" y="-372.95" font-family="Times,serif" font-size="14.00">node8</text>
</g>
<!-- node18 -->
<g id="node17" class="node">
<title>node18</title>
<ellipse fill="none" stroke="black" cx="696.44" cy="-378" rx="38.04" ry="18"/>
<text text-anchor="middle" x="696.44" y="-372.95" font-family="Times,serif" font-size="14.00">node18</text>
</g>
<!-- node20 -->
<g id="node18" class="node">
<title>node20</title>
<ellipse fill="none" stroke="black" cx="790.44" cy="-378" rx="38.04" ry="18"/>
<text text-anchor="middle" x="790.44" y="-372.95" font-family="Times,serif" font-size="14.00">node20</text>
</g>
<!-- node16 -->
<g id="node19" class="node">
<title>node16</title>
<ellipse fill="none" stroke="black" cx="884.44" cy="-378" rx="38.04" ry="18"/>
<text text-anchor="middle" x="884.44" y="-372.95" font-family="Times,serif" font-size="14.00">node16</text>
</g>
<!-- node12 -->
<g id="node20" class="node">
<title>node12</title>
<ellipse fill="none" stroke="black" cx="978.44" cy="-378" rx="38.04" ry="18"/>
<text text-anchor="middle" x="978.44" y="-372.95" font-family="Times,serif" font-size="14.00">node12</text>
</g>
</g>
</svg>
