<?xml version="1.0" encoding="UTF-8" standalone="no"?>
<!DOCTYPE svg PUBLIC "-//W3C//DTD SVG 1.1//EN"
 "http://www.w3.org/Graphics/SVG/1.1/DTD/svg11.dtd">
<!-- Generated by graphviz version 12.2.1 (20241206.2353)
 -->
<!-- Pages: 1 -->
<svg width="797pt" height="404pt"
 viewBox="0.00 0.00 797.09 404.00" xmlns="http://www.w3.org/2000/svg" xmlns:xlink="http://www.w3.org/1999/xlink">
<g id="graph0" class="graph" transform="scale(1 1) rotate(0) translate(4 400)">
<polygon fill="white" stroke="none" points="-4,4 -4,-400 793.09,-400 793.09,4 -4,4"/>
<!-- node18 -->
<g id="node1" class="node">
<title>node18</title>
<ellipse fill="none" stroke="black" cx="168.04" cy="-378" rx="38.04" ry="18"/>
<text text-anchor="middle" x="168.04" y="-372.95" font-family="Times,serif" font-size="14.00">node18</text>
</g>
<!-- node2 -->
<g id="node2" class="node">
<title>node2</title>
<ellipse fill="none" stroke="black" cx="168.04" cy="-306" rx="33.44" ry="18"/>
<text text-anchor="middle" x="168.04" y="-300.95" font-family="Times,serif" font-size="14.00">node2</text>
</g>
<!-- node18&#45;&gt;node2 -->
<g id="edge1" class="edge">
<title>node18&#45;&gt;node2</title>
<path fill="none" stroke="black" d="M162.17,-360.05C161.37,-352.57 161.12,-343.58 161.41,-335.14"/>
<polygon fill="black" stroke="black" points="164.89,-335.51 162.08,-325.3 157.91,-335.04 164.89,-335.51"/>
</g>
<!-- node2&#45;&gt;node18 -->
<g id="edge24" class="edge">
<title>node2&#45;&gt;node18</title>
<path fill="none" stroke="black" d="M173.91,-323.79C174.71,-331.25 174.97,-340.24 174.68,-348.69"/>
<polygon fill="black" stroke="black" points="171.2,-348.33 174.02,-358.54 178.18,-348.8 171.2,-348.33"/>
</g>
<!-- node1 -->
<g id="node12" class="node">
<title>node1</title>
<ellipse fill="none" stroke="black" cx="124.04" cy="-234" rx="33.44" ry="18"/>
<text text-anchor="middle" x="124.04" y="-228.95" font-family="Times,serif" font-size="14.00">node1</text>
</g>
<!-- node2&#45;&gt;node1 -->
<g id="edge21" class="edge">
<title>node2&#45;&gt;node1</title>
<path fill="none" stroke="black" d="M152.82,-289.81C146.7,-281.66 139.93,-271.37 134.38,-261.92"/>
<polygon fill="black" stroke="black" points="137.58,-260.47 129.65,-253.45 131.47,-263.89 137.58,-260.47"/>
</g>
<!-- node11 -->
<g id="node19" class="node">
<title>node11</title>
<ellipse fill="none" stroke="black" cx="305.04" cy="-234" rx="38.04" ry="18"/>
<text text-anchor="middle" x="305.04" y="-228.95" font-family="Times,serif" font-size="14.00">node11</text>
</g>
<!-- node2&#45;&gt;node11 -->
<g id="edge22" class="edge">
<title>node2&#45;&gt;node11</title>
<path fill="none" stroke="black" d="M189,-291.5C209.73,-280.1 241.65,-263.73 266.84,-251.54"/>
<polygon fill="black" stroke="black" points="268.3,-254.72 275.81,-247.25 265.28,-248.41 268.3,-254.72"/>
</g>
<!-- node12 -->
<g id="node20" class="node">
<title>node12</title>
<ellipse fill="none" stroke="black" cx="751.04" cy="-18" rx="38.04" ry="18"/>
<text text-anchor="middle" x="751.04" y="-12.95" font-family="Times,serif" font-size="14.00">node12</text>
</g>
<!-- node2&#45;&gt;node12 -->
<g id="edge23" class="edge">
<title>node2&#45;&gt;node12</title>
<path fill="none" stroke="black" d="M201.87,-305.22C286.88,-303.79 511.87,-288.85 653.04,-180 697.63,-145.63 723.01,-82.26 737.43,-46.12"/>
<polygon fill="black" stroke="black" points="740.52,-47.83 741,-37.25 734.02,-45.22 740.52,-47.83"/>
</g>
<!-- node19 -->
<g id="node3" class="node">
<title>node19</title>
<ellipse fill="none" stroke="black" cx="38.04" cy="-90" rx="38.04" ry="18"/>
<text text-anchor="middle" x="38.04" y="-84.95" font-family="Times,serif" font-size="14.00">node19</text>
</g>
<!-- node5 -->
<g id="node4" class="node">
<title>node5</title>
<ellipse fill="none" stroke="black" cx="82.04" cy="-162" rx="33.44" ry="18"/>
<text text-anchor="middle" x="82.04" y="-156.95" font-family="Times,serif" font-size="14.00">node5</text>
</g>
<!-- node19&#45;&gt;node5 -->
<g id="edge2" class="edge">
<title>node19&#45;&gt;node5</title>
<path fill="none" stroke="black" d="M53.75,-106.83C59.75,-114.89 66.32,-124.91 71.74,-134.13"/>
<polygon fill="black" stroke="black" points="68.61,-135.7 76.53,-142.73 74.72,-132.29 68.61,-135.7"/>
</g>
<!-- node5&#45;&gt;node19 -->
<g id="edge34" class="edge">
<title>node5&#45;&gt;node19</title>
<path fill="none" stroke="black" d="M66.82,-145.81C60.7,-137.66 53.93,-127.37 48.38,-117.92"/>
<polygon fill="black" stroke="black" points="51.58,-116.47 43.65,-109.45 45.47,-119.89 51.58,-116.47"/>
</g>
<!-- node6 -->
<g id="node9" class="node">
<title>node6</title>
<ellipse fill="none" stroke="black" cx="127.04" cy="-90" rx="33.44" ry="18"/>
<text text-anchor="middle" x="127.04" y="-84.95" font-family="Times,serif" font-size="14.00">node6</text>
</g>
<!-- node5&#45;&gt;node6 -->
<g id="edge32" class="edge">
<title>node5&#45;&gt;node6</title>
<path fill="none" stroke="black" d="M87.06,-144.05C91.64,-135.53 98.19,-125.03 104.73,-115.63"/>
<polygon fill="black" stroke="black" points="107.53,-117.73 110.58,-107.58 101.87,-113.61 107.53,-117.73"/>
</g>
<!-- node5&#45;&gt;node1 -->
<g id="edge31" class="edge">
<title>node5&#45;&gt;node1</title>
<path fill="none" stroke="black" d="M96.85,-178.2C102.63,-186.22 109,-196.31 114.23,-205.64"/>
<polygon fill="black" stroke="black" points="111.08,-207.17 118.87,-214.36 117.27,-203.89 111.08,-207.17"/>
</g>
<!-- node4 -->
<g id="node14" class="node">
<title>node4</title>
<ellipse fill="none" stroke="black" cx="212.04" cy="-90" rx="33.44" ry="18"/>
<text text-anchor="middle" x="212.04" y="-84.95" font-family="Times,serif" font-size="14.00">node4</text>
</g>
<!-- node5&#45;&gt;node4 -->
<g id="edge30" class="edge">
<title>node5&#45;&gt;node4</title>
<path fill="none" stroke="black" d="M102.22,-147.17C122.06,-135.65 152.48,-119.22 176.35,-107.11"/>
<polygon fill="black" stroke="black" points="177.73,-110.33 185.11,-102.72 174.6,-104.07 177.73,-110.33"/>
</g>
<!-- node15 -->
<g id="node18" class="node">
<title>node15</title>
<ellipse fill="none" stroke="black" cx="301.04" cy="-90" rx="38.04" ry="18"/>
<text text-anchor="middle" x="301.04" y="-84.95" font-family="Times,serif" font-size="14.00">node15</text>
</g>
<!-- node5&#45;&gt;node15 -->
<g id="edge33" class="edge">
<title>node5&#45;&gt;node15</title>
<path fill="none" stroke="black" d="M109.36,-151.02C141.95,-140.71 197.49,-123.92 245.04,-108 249.18,-106.61 253.51,-105.12 257.86,-103.6"/>
<polygon fill="black" stroke="black" points="258.9,-106.95 267.2,-100.37 256.61,-100.34 258.9,-106.95"/>
</g>
<!-- node20 -->
<g id="node5" class="node">
<title>node20</title>
<ellipse fill="none" stroke="black" cx="405.04" cy="-90" rx="38.04" ry="18"/>
<text text-anchor="middle" x="405.04" y="-84.95" font-family="Times,serif" font-size="14.00">node20</text>
</g>
<!-- node3 -->
<g id="node6" class="node">
<title>node3</title>
<ellipse fill="none" stroke="black" cx="286.04" cy="-162" rx="33.44" ry="18"/>
<text text-anchor="middle" x="286.04" y="-156.95" font-family="Times,serif" font-size="14.00">node3</text>
</g>
<!-- node20&#45;&gt;node3 -->
<g id="edge3" class="edge">
<title>node20&#45;&gt;node3</title>
<path fill="none" stroke="black" d="M385.6,-105.74C368,-116.93 341.91,-132.33 320.78,-144.03"/>
<polygon fill="black" stroke="black" points="319.29,-140.85 312.19,-148.72 322.64,-147 319.29,-140.85"/>
</g>
<!-- node3&#45;&gt;node20 -->
<g id="edge37" class="edge">
<title>node3&#45;&gt;node20</title>
<path fill="none" stroke="black" d="M304.84,-146.67C322,-135.73 347.57,-120.61 368.66,-108.89"/>
<polygon fill="black" stroke="black" points="370.18,-112.05 377.26,-104.17 366.81,-105.91 370.18,-112.05"/>
</g>
<!-- node3&#45;&gt;node1 -->
<g id="edge38" class="edge">
<title>node3&#45;&gt;node1</title>
<path fill="none" stroke="black" d="M262.73,-175.36C236.3,-187.59 193.15,-206.26 161.92,-219.02"/>
<polygon fill="black" stroke="black" points="160.78,-215.71 152.82,-222.7 163.4,-222.2 160.78,-215.71"/>
</g>
<!-- node17 -->
<g id="node16" class="node">
<title>node17</title>
<ellipse fill="none" stroke="black" cx="504.04" cy="-90" rx="38.04" ry="18"/>
<text text-anchor="middle" x="504.04" y="-84.95" font-family="Times,serif" font-size="14.00">node17</text>
</g>
<!-- node3&#45;&gt;node17 -->
<g id="edge36" class="edge">
<title>node3&#45;&gt;node17</title>
<path fill="none" stroke="black" d="M312.33,-150.51C343.66,-139.86 396.98,-122.88 443.04,-108 448.44,-106.26 454.15,-104.4 459.85,-102.58"/>
<polygon fill="black" stroke="black" points="460.77,-105.96 469.25,-99.62 458.66,-99.28 460.77,-105.96"/>
</g>
<!-- node8 -->
<g id="node7" class="node">
<title>node8</title>
<ellipse fill="none" stroke="black" cx="483.04" cy="-18" rx="33.44" ry="18"/>
<text text-anchor="middle" x="483.04" y="-12.95" font-family="Times,serif" font-size="14.00">node8</text>
</g>
<!-- node7 -->
<g id="node8" class="node">
<title>node7</title>
<ellipse fill="none" stroke="black" cx="451.04" cy="-162" rx="33.44" ry="18"/>
<text text-anchor="middle" x="451.04" y="-156.95" font-family="Times,serif" font-size="14.00">node7</text>
</g>
<!-- node8&#45;&gt;node7 -->
<g id="edge4" class="edge">
<title>node8&#45;&gt;node7</title>
<path fill="none" stroke="black" d="M510.85,-28.53C528.83,-37.29 550.26,-51.96 560.04,-72 567.07,-86.38 568.29,-94.29 560.04,-108 545.99,-131.36 517.79,-144.97 493.48,-152.53"/>
<polygon fill="black" stroke="black" points="492.78,-149.09 484.11,-155.18 494.68,-155.83 492.78,-149.09"/>
</g>
<!-- node7&#45;&gt;node8 -->
<g id="edge28" class="edge">
<title>node7&#45;&gt;node8</title>
<path fill="none" stroke="black" d="M479.63,-152.07C500.9,-144.42 528.27,-130.9 542.04,-108 550.29,-94.29 549.07,-86.38 542.04,-72 535.53,-58.66 523.85,-47.69 512.51,-39.27"/>
<polygon fill="black" stroke="black" points="514.64,-36.49 504.43,-33.66 510.65,-42.24 514.64,-36.49"/>
</g>
<!-- node7&#45;&gt;node1 -->
<g id="edge27" class="edge">
<title>node7&#45;&gt;node1</title>
<path fill="none" stroke="black" d="M421.13,-170.33C362.65,-183.53 233.5,-211.19 166.32,-224.92"/>
<polygon fill="black" stroke="black" points="165.89,-221.43 156.79,-226.85 167.29,-228.29 165.89,-221.43"/>
</g>
<!-- node6&#45;&gt;node5 -->
<g id="edge5" class="edge">
<title>node6&#45;&gt;node5</title>
<path fill="none" stroke="black" d="M121.93,-108.13C117.33,-116.68 110.77,-127.18 104.22,-136.57"/>
<polygon fill="black" stroke="black" points="101.44,-134.44 98.38,-144.59 107.09,-138.57 101.44,-134.44"/>
</g>
<!-- node10 -->
<g id="node10" class="node">
<title>node10</title>
<ellipse fill="none" stroke="black" cx="580.04" cy="-162" rx="38.04" ry="18"/>
<text text-anchor="middle" x="580.04" y="-156.95" font-family="Times,serif" font-size="14.00">node10</text>
</g>
<!-- node9 -->
<g id="node11" class="node">
<title>node9</title>
<ellipse fill="none" stroke="black" cx="568.04" cy="-18" rx="33.44" ry="18"/>
<text text-anchor="middle" x="568.04" y="-12.95" font-family="Times,serif" font-size="14.00">node9</text>
</g>
<!-- node10&#45;&gt;node9 -->
<g id="edge6" class="edge">
<title>node10&#45;&gt;node9</title>
<path fill="none" stroke="black" d="M583.74,-143.84C591.03,-125.84 602.66,-96.78 595.04,-72 592.15,-62.58 586.94,-53.33 581.75,-45.27"/>
<polygon fill="black" stroke="black" points="584.68,-43.36 576.2,-37.01 578.88,-47.26 584.68,-43.36"/>
</g>
<!-- node10&#45;&gt;node1 -->
<g id="edge7" class="edge">
<title>node10&#45;&gt;node1</title>
<path fill="none" stroke="black" d="M547.44,-171.47C533.48,-174.34 517.07,-177.46 502.04,-180 381.76,-200.38 238.54,-219.48 167.79,-228.14"/>
<polygon fill="black" stroke="black" points="167.67,-224.63 158.17,-229.3 168.52,-231.58 167.67,-224.63"/>
</g>
<!-- node9&#45;&gt;node10 -->
<g id="edge19" class="edge">
<title>node9&#45;&gt;node10</title>
<path fill="none" stroke="black" d="M588.23,-32.62C598.13,-42.66 608.47,-57.12 613.04,-72 619.61,-93.35 611.88,-117.88 602.03,-135.78"/>
<polygon fill="black" stroke="black" points="599.12,-133.83 596.87,-144.18 605.09,-137.49 599.12,-133.83"/>
</g>
<!-- node1&#45;&gt;node2 -->
<g id="edge13" class="edge">
<title>node1&#45;&gt;node2</title>
<path fill="none" stroke="black" d="M139.4,-250.36C145.52,-258.54 152.29,-268.84 157.83,-278.28"/>
<polygon fill="black" stroke="black" points="154.61,-279.7 162.54,-286.73 160.73,-276.29 154.61,-279.7"/>
</g>
<!-- node1&#45;&gt;node5 -->
<g id="edge15" class="edge">
<title>node1&#45;&gt;node5</title>
<path fill="none" stroke="black" d="M109,-217.46C103.2,-209.39 96.85,-199.28 91.64,-189.98"/>
<polygon fill="black" stroke="black" points="94.82,-188.5 87.05,-181.3 88.63,-191.78 94.82,-188.5"/>
</g>
<!-- node1&#45;&gt;node3 -->
<g id="edge14" class="edge">
<title>node1&#45;&gt;node3</title>
<path fill="none" stroke="black" d="M147.34,-220.65C173.76,-208.43 216.89,-189.76 248.12,-177"/>
<polygon fill="black" stroke="black" points="249.27,-180.31 257.23,-173.32 246.64,-173.82 249.27,-180.31"/>
</g>
<!-- node1&#45;&gt;node7 -->
<g id="edge10" class="edge">
<title>node1&#45;&gt;node7</title>
<path fill="none" stroke="black" d="M154.08,-225.64C212.62,-212.43 341.6,-184.81 408.74,-171.09"/>
<polygon fill="black" stroke="black" points="409.16,-174.58 418.26,-169.16 407.76,-167.72 409.16,-174.58"/>
</g>
<!-- node1&#45;&gt;node10 -->
<g id="edge11" class="edge">
<title>node1&#45;&gt;node10</title>
<path fill="none" stroke="black" d="M156.23,-228.24C219.41,-219.63 363.28,-200.46 484.04,-180 500.04,-177.29 517.61,-173.93 533.38,-170.91"/>
<polygon fill="black" stroke="black" points="533.84,-174.39 543.01,-169.08 532.53,-167.51 533.84,-174.39"/>
</g>
<!-- node16 -->
<g id="node13" class="node">
<title>node16</title>
<ellipse fill="none" stroke="black" cx="657.04" cy="-18" rx="38.04" ry="18"/>
<text text-anchor="middle" x="657.04" y="-12.95" font-family="Times,serif" font-size="14.00">node16</text>
</g>
<!-- node1&#45;&gt;node16 -->
<g id="edge12" class="edge">
<title>node1&#45;&gt;node16</title>
<path fill="none" stroke="black" d="M155.67,-227.72C180.99,-224.2 217.12,-219.58 249.04,-216 330.92,-206.81 557.31,-235.67 618.04,-180 654.48,-146.6 655.27,-84.32 654.83,-47.78"/>
<polygon fill="black" stroke="black" points="658.34,-47.92 654.71,-37.97 651.34,-48.01 658.34,-47.92"/>
</g>
<!-- node16&#45;&gt;node1 -->
<g id="edge8" class="edge">
<title>node16&#45;&gt;node1</title>
<path fill="none" stroke="black" d="M664.79,-35.94C672.95,-69.11 676.81,-142.63 636.04,-180 575.31,-235.67 348.92,-206.81 267.04,-216 233.97,-219.71 196.37,-224.53 167.91,-228.09"/>
<polygon fill="black" stroke="black" points="167.69,-224.59 158.2,-229.3 168.55,-231.54 167.69,-224.59"/>
</g>
<!-- node4&#45;&gt;node5 -->
<g id="edge9" class="edge">
<title>node4&#45;&gt;node5</title>
<path fill="none" stroke="black" d="M192.01,-104.75C172.12,-116.3 141.52,-132.83 117.56,-144.99"/>
<polygon fill="black" stroke="black" points="116.15,-141.78 108.77,-149.38 119.28,-148.04 116.15,-141.78"/>
</g>
<!-- node13 -->
<g id="node15" class="node">
<title>node13</title>
<ellipse fill="none" stroke="black" cx="394.04" cy="-18" rx="38.04" ry="18"/>
<text text-anchor="middle" x="394.04" y="-12.95" font-family="Times,serif" font-size="14.00">node13</text>
</g>
<!-- node13&#45;&gt;node17 -->
<g id="edge16" class="edge">
<title>node13&#45;&gt;node17</title>
<path fill="none" stroke="black" d="M419.54,-31.81C436.71,-41.81 459.17,-55.9 476.69,-67.6"/>
<polygon fill="black" stroke="black" points="474.36,-70.25 484.6,-72.96 478.29,-64.45 474.36,-70.25"/>
</g>
<!-- node17&#45;&gt;node3 -->
<g id="edge17" class="edge">
<title>node17&#45;&gt;node3</title>
<path fill="none" stroke="black" d="M476.59,-102.92C471.44,-104.63 466.11,-106.36 461.04,-108 415.46,-122.73 362.75,-139.52 327.04,-150.18"/>
<polygon fill="black" stroke="black" points="326.13,-146.8 317.53,-152.99 328.11,-153.51 326.13,-146.8"/>
</g>
<!-- node17&#45;&gt;node13 -->
<g id="edge18" class="edge">
<title>node17&#45;&gt;node13</title>
<path fill="none" stroke="black" d="M478.5,-76.16C461.34,-66.17 438.91,-52.09 421.4,-40.4"/>
<polygon fill="black" stroke="black" points="423.74,-37.76 413.5,-35.04 419.81,-43.55 423.74,-37.76"/>
</g>
<!-- node14 -->
<g id="node17" class="node">
<title>node14</title>
<ellipse fill="none" stroke="black" cx="300.04" cy="-18" rx="38.04" ry="18"/>
<text text-anchor="middle" x="300.04" y="-12.95" font-family="Times,serif" font-size="14.00">node14</text>
</g>
<!-- node14&#45;&gt;node15 -->
<g id="edge20" class="edge">
<title>node14&#45;&gt;node15</title>
<path fill="none" stroke="black" d="M306.15,-35.79C307.05,-43.25 307.44,-52.24 307.28,-60.69"/>
<polygon fill="black" stroke="black" points="303.79,-60.37 306.76,-70.54 310.78,-60.74 303.79,-60.37"/>
</g>
<!-- node15&#45;&gt;node5 -->
<g id="edge26" class="edge">
<title>node15&#45;&gt;node5</title>
<path fill="none" stroke="black" d="M275.4,-103.72C271.29,-105.19 267.08,-106.65 263.04,-108 215.65,-123.86 160.33,-140.59 123.3,-150.92"/>
<polygon fill="black" stroke="black" points="122.6,-147.48 113.88,-153.5 124.45,-154.23 122.6,-147.48"/>
</g>
<!-- node15&#45;&gt;node14 -->
<g id="edge25" class="edge">
<title>node15&#45;&gt;node14</title>
<path fill="none" stroke="black" d="M294.92,-72.05C294.04,-64.68 293.65,-55.84 293.81,-47.51"/>
<polygon fill="black" stroke="black" points="297.29,-47.95 294.3,-37.79 290.3,-47.6 297.29,-47.95"/>
</g>
<!-- node11&#45;&gt;node2 -->
<g id="edge35" class="edge">
<title>node11&#45;&gt;node2</title>
<path fill="none" stroke="black" d="M283.06,-249.06C261.8,-260.72 229.47,-277.27 204.42,-289.34"/>
<polygon fill="black" stroke="black" points="203.08,-286.11 195.55,-293.57 206.09,-292.43 203.08,-286.11"/>
</g>
<!-- node12&#45;&gt;node2 -->
<g id="edge29" class="edge">
<title>node12&#45;&gt;node2</title>
<path fill="none" stroke="black" d="M751.59,-36.36C745.79,-69.59 719.99,-142.26 671.04,-180 530.96,-288.01 308.34,-303.55 213.29,-305.18"/>
<polygon fill="black" stroke="black" points="213.28,-301.68 203.32,-305.3 213.36,-308.68 213.28,-301.68"/>
</g>
</g>
</svg>
